<?xml version="1.0" encoding="UTF-8"?>
<svg xmlns="http://www.w3.org/2000/svg" width="32" height="33" viewBox="0 0 32 33" fill="none">
  <path d="M20.5168 31.3897H11.4832C10.4255 31.3897 9.69697 30.3374 10.0639 29.3444L11.9041 24.4121H20.0959L21.9361 29.3444C22.303 30.332 21.5745 31.3897 20.5168 31.3897Z" fill="#9CC3E5"></path>
  <path d="M30 22.6377V6.78815C30 4.35948 28.1181 2.39062 25.7967 2.39062H6.20329C3.88188 2.39062 2 4.35948 2 6.78815V22.6377C2 25.0664 3.88188 27.0352 6.20329 27.0352H25.7967C28.1181 27.0352 30 25.0664 30 22.6377Z" fill="#9CC3E5"></path>
  <path d="M4.04395 7.1625C4.04395 5.72656 5.20801 4.5625 6.64395 4.5625H25.3521C26.7881 4.5625 27.9521 5.72656 27.9521 7.1625V19.9586C27.9521 21.3945 26.7881 22.5586 25.3521 22.5586H6.64394C5.208 22.5586 4.04395 21.3945 4.04395 19.9586V7.1625Z" fill="#0063C1"></path>
  <path d="M9.74178 18.3881C9.37877 18.3881 9.13674 18.0135 9.28599 17.6826L13.1202 9.18115C13.201 9.00193 13.3794 8.88672 13.576 8.88672H14.6378C14.8335 8.88672 15.0113 9.00097 15.0926 9.17905L18.9741 17.6805C19.1253 18.0116 18.8833 18.3881 18.5193 18.3881H17.5381C17.3377 18.3881 17.1566 18.2684 17.0781 18.0839L16.2915 16.2357C16.2326 16.0973 16.3929 15.969 16.515 16.0567C16.6323 16.141 16.5727 16.3261 16.4283 16.3261H11.8223C11.6754 16.3261 11.6155 16.1374 11.7354 16.0527C11.8593 15.9651 12.0202 16.095 11.9608 16.2345L11.1737 18.0839C11.0952 18.2684 10.9141 18.3881 10.7136 18.3881H9.74178ZM14.126 11.097C14.1099 11.097 14.0954 11.1067 14.0893 11.1215L12.5098 14.9394C12.4594 15.0611 12.2943 15.0791 12.219 14.971C12.1419 14.8604 12.221 14.7089 12.3557 14.7089H15.9221C16.0458 14.7089 16.1224 14.8435 16.0592 14.9498C15.9925 15.0623 15.8262 15.051 15.7752 14.9306L14.1626 11.1212C14.1564 11.1065 14.142 11.097 14.126 11.097Z" fill="white"></path>
  <path d="M20.469 18.3881C20.1928 18.3881 19.969 18.1643 19.969 17.8881V9.38672C19.969 9.11058 20.1928 8.88672 20.469 8.88672H21.5322C21.8084 8.88672 22.0322 9.11058 22.0322 9.38672V17.8881C22.0322 18.1643 21.8084 18.3881 21.5322 18.3881H20.469Z" fill="white"></path>
</svg>
