<?xml version="1.0" encoding="UTF-8"?>
<svg xmlns="http://www.w3.org/2000/svg" width="56" height="56" viewBox="0 0 56 56" fill="none">
  <path d="M5.19922 11.806C5.19922 8.22781 8.09988 5.32715 11.678 5.32715H44.0721C47.6503 5.32715 50.5509 8.22781 50.5509 11.806V44.2C50.5509 47.7782 47.6503 50.6789 44.0721 50.6789H11.678C8.09988 50.6789 5.19922 47.7782 5.19922 44.2V11.806Z" fill="#00a5fb"></path>
  <path d="M15.3164 19.0307C15.3164 17.0487 16.9232 15.4419 18.9053 15.4419H36.8495C38.8316 15.4419 40.4384 17.0487 40.4384 19.0307V36.975C40.4384 38.9571 38.8316 40.5639 36.8495 40.5639H18.9053C16.9232 40.5639 15.3164 38.9571 15.3164 36.975V19.0307Z" fill="#eb64ca"></path>
  <path d="M6.92847 15.5613C7.8827 15.5613 8.65625 16.3569 8.65625 17.3384C8.65625 18.3199 7.88269 19.1156 6.92847 19.1156L3.4729 19.1156C2.51867 19.1156 1.74512 18.3199 1.74512 17.3384C1.74512 16.3569 2.51867 15.5613 3.4729 15.5613L6.92847 15.5613Z" fill="#ff7800"></path>
  <path d="M6.92847 22.6699C7.88269 22.6699 8.65625 23.4655 8.65625 24.447C8.65625 25.4285 7.88269 26.2242 6.92847 26.2242L3.4729 26.2242C2.51867 26.2242 1.74512 25.4285 1.74512 24.447C1.74512 23.4655 2.51867 22.6699 3.4729 22.6699L6.92847 22.6699Z" fill="#ff7800"></path>
  <path d="M6.92847 29.7785C7.88269 29.7785 8.65625 30.5741 8.65625 31.5556C8.65625 32.5371 7.88269 33.3328 6.92847 33.3328L3.4729 33.3328C2.51867 33.3328 1.74512 32.5371 1.74512 31.5556C1.74512 30.5741 2.51867 29.7785 3.4729 29.7785L6.92847 29.7785Z" fill="#ff7800"></path>
  <path d="M6.92847 36.8871C7.88269 36.8871 8.65625 37.6827 8.65625 38.6642C8.65625 39.6457 7.88269 40.4414 6.92847 40.4414L3.4729 40.4414C2.51867 40.4414 1.74512 39.6457 1.74512 38.6642C1.74512 37.6827 2.51867 36.8871 3.4729 36.8871L6.92847 36.8871Z" fill="#ff7800"></path>
  <path d="M49.0676 40.4412C48.1134 40.4412 47.3398 39.6455 47.3398 38.664C47.3398 37.6825 48.1134 36.8869 49.0676 36.8869L52.5232 36.8869C53.4774 36.8869 54.251 37.6825 54.251 38.664C54.251 39.6455 53.4774 40.4412 52.5232 40.4412L49.0676 40.4412Z" fill="#ff7800"></path>
  <path d="M49.0676 33.3326C48.1134 33.3326 47.3398 32.5369 47.3398 31.5554C47.3398 30.5739 48.1134 29.7783 49.0676 29.7783L52.5232 29.7783C53.4774 29.7783 54.251 30.5739 54.251 31.5554C54.251 32.5369 53.4774 33.3326 52.5232 33.3326L49.0676 33.3326Z" fill="#ff7800"></path>
  <path d="M49.0676 26.224C48.1134 26.224 47.3398 25.4283 47.3398 24.4468C47.3398 23.4653 48.1134 22.6697 49.0676 22.6697L52.5232 22.6697C53.4774 22.6697 54.251 23.4653 54.251 24.4468C54.251 25.4283 53.4774 26.224 52.5232 26.224L49.0676 26.224Z" fill="#ff7800"></path>
  <path d="M49.0676 19.1154C48.1134 19.1154 47.3398 18.3197 47.3398 17.3382C47.3398 16.3567 48.1134 15.5611 49.0676 15.5611L52.5232 15.5611C53.4774 15.5611 54.251 16.3567 54.251 17.3382C54.251 18.3197 53.4774 19.1154 52.5232 19.1154L49.0676 19.1154Z" fill="#ff7800"></path>
  <path d="M40.4375 6.93457C40.4375 7.8888 39.6418 8.66235 38.6604 8.66235C37.6789 8.66235 36.8832 7.8888 36.8832 6.93457L36.8832 3.479C36.8832 2.52478 37.6789 1.75122 38.6604 1.75122C39.6418 1.75122 40.4375 2.52478 40.4375 3.479L40.4375 6.93457Z" fill="#ff7800"></path>
  <path d="M33.3289 6.93457C33.3289 7.8888 32.5333 8.66235 31.5518 8.66235C30.5703 8.66235 29.7746 7.8888 29.7746 6.93457L29.7746 3.479C29.7746 2.52478 30.5703 1.75122 31.5518 1.75122C32.5333 1.75122 33.3289 2.52478 33.3289 3.479L33.3289 6.93457Z" fill="#ff7800"></path>
  <path d="M26.2203 6.93457C26.2203 7.8888 25.4247 8.66235 24.4432 8.66235C23.4617 8.66235 22.666 7.8888 22.666 6.93457L22.666 3.479C22.666 2.52478 23.4617 1.75122 24.4432 1.75122C25.4247 1.75122 26.2203 2.52478 26.2203 3.479L26.2203 6.93457Z" fill="#ff7800"></path>
  <path d="M19.1117 6.93457C19.1117 7.8888 18.3161 8.66235 17.3346 8.66235C16.3531 8.66235 15.5574 7.8888 15.5574 6.93457L15.5574 3.479C15.5574 2.52477 16.3531 1.75122 17.3346 1.75122C18.3161 1.75122 19.1117 2.52478 19.1117 3.479L19.1117 6.93457Z" fill="#ff7800"></path>
  <path d="M15.5586 49.0679C15.5586 48.1136 16.3543 47.3401 17.3357 47.3401C18.3172 47.3401 19.1129 48.1136 19.1129 49.0679L19.1129 52.5234C19.1129 53.4777 18.3172 54.2512 17.3357 54.2512C16.3542 54.2512 15.5586 53.4777 15.5586 52.5234L15.5586 49.0679Z" fill="#ff7800"></path>
  <path d="M22.6672 49.0679C22.6672 48.1136 23.4628 47.3401 24.4443 47.3401C25.4258 47.3401 26.2215 48.1136 26.2215 49.0679L26.2215 52.5234C26.2215 53.4777 25.4258 54.2512 24.4443 54.2512C23.4628 54.2512 22.6672 53.4777 22.6672 52.5234L22.6672 49.0679Z" fill="#ff7800"></path>
  <path d="M29.7758 49.0679C29.7758 48.1136 30.5714 47.3401 31.5529 47.3401C32.5344 47.3401 33.3301 48.1136 33.3301 49.0679L33.3301 52.5234C33.3301 53.4777 32.5344 54.2512 31.5529 54.2512C30.5714 54.2512 29.7758 53.4777 29.7758 52.5234L29.7758 49.0679Z" fill="#ff7800"></path>
  <path d="M36.8844 49.0679C36.8844 48.1136 37.68 47.3401 38.6615 47.3401C39.643 47.3401 40.4387 48.1136 40.4387 49.0679L40.4387 52.5234C40.4387 53.4777 39.643 54.2512 38.6615 54.2512C37.68 54.2512 36.8844 53.4777 36.8844 52.5234L36.8844 49.0679Z" fill="#ff7800"></path>
  <path d="M28.0406 32.2175C27.3502 32.9091 26.2297 32.9095 25.5387 32.2185L21.9272 28.6084C21.2586 27.9397 21.2586 26.8557 21.9272 26.1871C22.5948 25.5196 23.6766 25.5183 24.3457 26.1843L26.7902 28.6198L31.6441 23.765C32.3122 23.0969 33.3954 23.0969 34.0635 23.765C34.7312 24.4327 34.7317 25.5152 34.0645 26.1835L28.0406 32.2175Z" fill="white"></path>
</svg>
