<?xml version="1.0" encoding="UTF-8"?>
<svg xmlns="http://www.w3.org/2000/svg" width="56" height="56" viewBox="0 0 56 56" fill="none">
  <path d="M3.5 10.5C3.5 6.63401 6.63401 3.5 10.5 3.5H45.5C49.366 3.5 52.5 6.63401 52.5 10.5V13.9165H3.5V10.5Z" fill="#ff7800"></path>
  <path d="M3.5 17.5H52.5V45.5C52.5 49.366 49.366 52.5 45.5 52.5H10.5C6.63401 52.5 3.5 49.366 3.5 45.5V17.5Z" fill="#00a5fb"></path>
  <path d="M15.7608 34.5861L19.9152 30.3658C20.771 29.4964 20.771 28.0836 19.9508 27.2141C19.9508 27.2141 19.9508 27.2141 19.9508 27.196C19.0772 26.3266 17.6864 26.3266 16.8128 27.196L11.0716 32.9922C10.6436 33.4088 10.4297 33.9884 10.4297 34.5861C10.4297 35.1839 10.6615 35.7454 11.0716 36.1801L16.7949 41.9944C17.2229 42.4291 17.7756 42.6646 18.364 42.6646C18.9524 42.6646 19.5229 42.4291 19.933 41.9944C20.3431 41.5597 20.5749 40.9982 20.5749 40.4004C20.5749 39.8027 20.3431 39.2412 19.933 38.8065L15.7786 34.5861H15.7608Z" fill="#ff7800"></path>
  <path d="M44.9653 33.0838C44.9653 33.0838 44.9296 33.0294 44.8939 32.9932L39.1706 27.1789C38.3147 26.3095 36.9062 26.3095 36.0325 27.1789C35.1767 28.0484 35.1767 29.4793 36.0325 30.3668L40.1869 34.5872L36.0325 38.8075C35.1767 39.695 35.1767 41.1079 36.0325 41.9954C36.4604 42.4301 37.0131 42.6656 37.6015 42.6656C38.1899 42.6656 38.7605 42.4301 39.1706 41.9954L44.8939 36.1811C45.304 35.7645 45.5358 35.1849 45.5358 34.5872C45.5358 34.0257 45.3218 33.4823 44.9653 33.0657V33.0838Z" fill="#ff7800"></path>
  <path d="M32.3375 22.9925C31.7848 22.7752 31.1786 22.7933 30.6437 23.0469C30.1088 23.3004 29.6987 23.7352 29.4848 24.2967L22.6559 42.5546C22.442 43.1161 22.4598 43.732 22.7094 44.2935C22.959 44.8369 23.387 45.2535 23.9397 45.4708C24.1893 45.5614 24.4568 45.6157 24.7242 45.6157C25.6514 45.6157 26.4715 45.0542 26.7925 44.1667L33.6213 25.8906C33.8353 25.3291 33.8174 24.7133 33.5678 24.1518C33.3182 23.6084 32.8903 23.1918 32.3375 22.9744V22.9925Z" fill="#ff7800"></path>
</svg>
