<?xml version="1.0" encoding="UTF-8"?>
<svg xmlns="http://www.w3.org/2000/svg" width="60" height="60" viewBox="0 0 60 60" fill="none">
  <path d="M29.5185 2.12109H8.83483C5.50879 2.12109 2.8125 4.81738 2.8125 8.14342V51.8582C2.8125 55.1842 5.50879 57.8805 8.83483 57.8805H29.5185C32.8446 57.8805 35.5408 55.1842 35.5408 51.8582V8.14342C35.5408 4.81738 32.8446 2.12109 29.5185 2.12109Z" fill="#00a5fb"></path>
  <path d="M19.1683 45.4531C17.5713 45.4531 16.2822 46.7422 16.2822 48.3392C16.2822 49.9362 17.5713 51.2253 19.1683 51.2253C20.7653 51.2253 22.0544 49.9362 22.0544 48.3392C22.0544 46.7422 20.7653 45.4531 19.1683 45.4531Z" fill="white"></path>
  <path d="M44.8744 28.8287C44.8744 32.9943 41.4976 36.371 37.332 36.371V49.8684C38.6596 49.8684 39.9969 49.7337 41.2475 49.5028L42.2962 44.8562C44.7205 44.1058 46.9043 42.8167 48.7225 41.1331L53.2922 42.5281C54.995 40.5655 56.3322 38.2566 57.1884 35.7457L53.6866 32.5229C53.9559 31.33 54.1003 30.0986 54.1003 28.8191C54.1003 27.5396 53.9559 26.3082 53.6866 25.1153L57.1884 21.8732C56.3226 19.3623 54.9853 17.0534 53.2922 15.0909L48.7033 16.4955C46.8946 14.8215 44.7109 13.542 42.2962 12.8013L41.2475 8.15464C39.9969 7.92375 38.6596 7.78906 37.332 7.78906V21.2864C41.4976 21.2864 44.8744 24.6631 44.8744 28.8287Z" fill="#ff7800"></path>
</svg>
