<?xml version="1.0" encoding="UTF-8"?>
<svg xmlns="http://www.w3.org/2000/svg" width="32" height="32" viewBox="0 0 32 32" fill="none">
  <path d="M11 8C11 6.89543 11.8954 6 13 6H14C15.1046 6 16 6.89543 16 8V19.0373C16 20.1419 15.1046 21.0373 14 21.0373H13C11.8954 21.0373 11 20.1419 11 19.0373V8Z" fill="#3E83CC"></path>
  <path d="M19 3C19 1.89543 19.8954 1 21 1H22C23.1046 1 24 1.89543 24 3V16.9942C24 18.0988 23.1046 18.9942 22 18.9942H21C19.8954 18.9942 19 18.0988 19 16.9942V3Z" fill="#0063C1"></path>
  <path d="M4.5 1C3.11929 1 2 2.11929 2 3.5V27.4992C2 28.8799 3.11929 30 4.5 30L28.5 30C29.8807 30 31 28.8807 31 27.5C31 26.1193 29.8807 25 28.5 25L7 25V3.5C7 2.11929 5.88071 1 4.5 1Z" fill="#9CC3E5"></path>
</svg>
