<?xml version="1.0" encoding="UTF-8"?>
<svg xmlns="http://www.w3.org/2000/svg" width="60" height="60" viewBox="0 0 60 60" fill="none">
  <path d="M53.9775 59.0627H6.02575C3.5695 59.0627 1.58984 57.0831 1.58984 54.6268V9.73622C1.58984 7.27998 3.5695 5.30029 6.02575 5.30029C8.48199 5.30029 10.4616 7.27998 10.4616 9.73622V50.1909H53.9775C56.4337 50.1909 58.4134 52.1706 58.4134 54.6268C58.4134 57.0831 56.4337 59.0627 53.9775 59.0627Z" fill="#00a5fb"></path>
  <path d="M25.6752 10.4326H23.2739C20.8747 10.4326 18.9297 12.3777 18.9297 14.7769V38.7894C18.9297 41.1887 20.8747 43.1337 23.2739 43.1337H25.6752C28.0745 43.1337 30.0195 41.1887 30.0195 38.7894V14.7769C30.0195 12.3777 28.0745 10.4326 25.6752 10.4326Z" fill="#eb64ca"></path>
  <path d="M42.6322 0.9375H40.231C37.8317 0.9375 35.8867 2.88248 35.8867 5.28174V38.7893C35.8867 41.1886 37.8317 43.1336 40.231 43.1336H42.6322C45.0315 43.1336 46.9765 41.1886 46.9765 38.7893V5.28174C46.9765 2.88248 45.0315 0.9375 42.6322 0.9375Z" fill="#ff7800"></path>
</svg>
