<?xml version="1.0" encoding="UTF-8"?>
<svg xmlns="http://www.w3.org/2000/svg" width="32" height="32" viewBox="0 0 32 32" fill="none">
  <path d="M16.2138 27.2441L13.7594 30.7766C13.5573 31.0675 13.1298 31.0753 12.9171 30.792L10.2539 27.2441H16.2138Z" fill="#3E83CC"></path>
  <path d="M6.11328 14.2383C6.11328 12.0291 7.90414 10.2383 10.1133 10.2383H26.016C28.2252 10.2383 30.016 12.0291 30.016 14.2383V23.9055C30.016 26.1147 28.2252 27.9055 26.016 27.9055H10.1133C7.90414 27.9055 6.11328 26.1147 6.11328 23.9055V14.2383Z" fill="#3E83CC"></path>
  <path d="M2 6C2 3.79086 3.79086 2 6 2H21.9028C24.1119 2 25.9027 3.79086 25.9027 6V15.6672C25.9027 17.8764 24.1119 19.6672 21.9027 19.6672H6C3.79086 19.6672 2 17.8764 2 15.6672V6Z" fill="#9CC3E5"></path>
  <path d="M8.26827 9.12305C7.32306 9.12305 6.55664 9.88854 6.55664 10.833C6.55664 11.7775 7.32306 12.543 8.26827 12.543C9.21349 12.543 9.97991 11.7775 9.97991 10.833C9.97991 9.88854 9.21349 9.12305 8.26827 9.12305Z" fill="#0063C1"></path>
  <path d="M13.952 9.12305C12.9773 9.12305 12.1807 9.88515 12.1807 10.833C12.1807 11.7809 12.9773 12.543 13.952 12.543C14.9267 12.543 15.7233 11.7809 15.7233 10.833C15.7233 9.88515 14.9267 9.12305 13.952 9.12305Z" fill="#0063C1"></path>
  <path d="M19.6345 9.12305C18.6893 9.12305 17.9229 9.88854 17.9229 10.833C17.9229 11.7775 18.6893 12.543 19.6345 12.543C20.5797 12.543 21.3461 11.7775 21.3461 10.833C21.3461 9.88854 20.5797 9.12305 19.6345 9.12305Z" fill="#0063C1"></path>
  <path d="M20.7311 18.6289C21.1547 18.6289 21.4003 19.1086 21.1527 19.4523L19.1562 22.2235C18.9536 22.5046 18.5378 22.5125 18.3248 22.2392L16.1645 19.468C15.8985 19.1268 16.1416 18.6289 16.5743 18.6289H20.7311Z" fill="#9CC3E5"></path>
</svg>
