<?xml version="1.0" encoding="UTF-8"?>
<svg xmlns="http://www.w3.org/2000/svg" width="33" height="32" viewBox="0 0 33 32" fill="none">
  <path d="M3.86621 6.7471C3.86621 4.70244 5.52373 3.04492 7.56839 3.04492H26.0793C28.124 3.04492 29.7815 4.70244 29.7815 6.7471V25.258C29.7815 27.3027 28.124 28.9602 26.0793 28.9602H7.56839C5.52373 28.9602 3.86621 27.3027 3.86621 25.258V6.7471Z" fill="#9CC3E5"></path>
  <path d="M28.6714 22.7383C27.9479 22.7383 27.3613 22.135 27.3613 21.3908C27.3613 20.6466 27.9479 20.0433 28.6714 20.0433L30.2915 20.0433C31.015 20.0433 31.6016 20.6466 31.6016 21.3908C31.6016 22.135 31.015 22.7383 30.2915 22.7383L28.6714 22.7383Z" fill="#3E83CC"></path>
  <path d="M28.6714 17.3483C27.9479 17.3483 27.3613 16.745 27.3613 16.0008C27.3613 15.2566 27.9479 14.6533 28.6714 14.6533L30.2915 14.6533C31.015 14.6533 31.6016 15.2566 31.6016 16.0008C31.6016 16.745 31.015 17.3483 30.2915 17.3483L28.6714 17.3483Z" fill="#3E83CC"></path>
  <path d="M28.6714 11.9584C27.9479 11.9584 27.3613 11.3551 27.3613 10.6109C27.3613 9.86668 27.9479 9.26339 28.6714 9.26339L30.2915 9.26339C31.015 9.26339 31.6016 9.86668 31.6016 10.6109C31.6016 11.3551 31.015 11.9584 30.2915 11.9584L28.6714 11.9584Z" fill="#3E83CC"></path>
  <path d="M3.20361 22.7383C2.48009 22.7383 1.89355 22.135 1.89355 21.3908C1.89355 20.6466 2.48009 20.0433 3.20361 20.0433L4.82373 20.0433C5.54726 20.0433 6.13379 20.6466 6.13379 21.3908C6.13379 22.135 5.54726 22.7383 4.82373 22.7383L3.20361 22.7383Z" fill="#3E83CC"></path>
  <path d="M3.20361 17.3483C2.48009 17.3483 1.89355 16.745 1.89355 16.0008C1.89355 15.2566 2.48009 14.6533 3.20361 14.6533L4.82373 14.6533C5.54726 14.6533 6.13379 15.2566 6.13379 16.0008C6.13379 16.745 5.54726 17.3483 4.82373 17.3483L3.20361 17.3483Z" fill="#3E83CC"></path>
  <path d="M3.20361 11.9584C2.48009 11.9584 1.89355 11.3551 1.89355 10.6109C1.89355 9.86668 2.48009 9.26339 3.20361 9.26339L4.82373 9.26339C5.54726 9.26339 6.13379 9.86668 6.13379 10.6109C6.13379 11.3551 5.54726 11.9584 4.82373 11.9584L3.20361 11.9584Z" fill="#3E83CC"></path>
  <path d="M10.0088 27.9253C10.0088 27.2018 10.6121 26.6152 11.3563 26.6152C12.1005 26.6152 12.7038 27.2018 12.7038 27.9253L12.7038 29.5454C12.7038 30.2689 12.1005 30.8555 11.3563 30.8555C10.6121 30.8555 10.0088 30.2689 10.0088 29.5454L10.0088 27.9253Z" fill="#3E83CC"></path>
  <path d="M15.3987 27.9253C15.3987 27.2018 16.002 26.6152 16.7462 26.6152C17.4904 26.6152 18.0937 27.2018 18.0937 27.9253L18.0937 29.5454C18.0937 30.2689 17.4904 30.8555 16.7462 30.8555C16.002 30.8555 15.3987 30.2689 15.3987 29.5454L15.3987 27.9253Z" fill="#3E83CC"></path>
  <path d="M20.7887 27.9253C20.7887 27.2018 21.392 26.6152 22.1362 26.6152C22.8804 26.6152 23.4837 27.2018 23.4837 27.9253L23.4837 29.5454C23.4837 30.2689 22.8804 30.8555 22.1362 30.8555C21.392 30.8555 20.7887 30.2689 20.7887 29.5454L20.7887 27.9253Z" fill="#3E83CC"></path>
  <path d="M10.0107 2.4585C10.0107 1.73497 10.614 1.14844 11.3582 1.14844C12.1024 1.14844 12.7057 1.73497 12.7057 2.4585L12.7057 4.07861C12.7057 4.80214 12.1024 5.38867 11.3582 5.38867C10.614 5.38867 10.0107 4.80214 10.0107 4.07861L10.0107 2.4585Z" fill="#3E83CC"></path>
  <path d="M15.4007 2.4585C15.4007 1.73497 16.004 1.14844 16.7482 1.14844C17.4924 1.14844 18.0957 1.73497 18.0957 2.4585L18.0957 4.07861C18.0957 4.80214 17.4924 5.38867 16.7482 5.38867C16.004 5.38867 15.4007 4.80214 15.4007 4.07861L15.4007 2.4585Z" fill="#3E83CC"></path>
  <path d="M20.7907 2.4585C20.7907 1.73497 21.3939 1.14844 22.1381 1.14844C22.8823 1.14844 23.4856 1.73497 23.4856 2.4585L23.4856 4.07861C23.4856 4.80214 22.8823 5.38867 22.1381 5.38867C21.3939 5.38867 20.7907 4.80214 20.7907 4.07861L20.7907 2.4585Z" fill="#3E83CC"></path>
  <circle cx="16.8936" cy="16" r="8" fill="#0063C1"></circle>
  <path d="M19.5082 16.1174C19.1652 15.7655 18.6369 15.5158 17.9193 15.3644L16.6497 15.092C16.3106 15.0201 16.078 14.933 15.9479 14.8347C15.8178 14.7363 15.7547 14.6152 15.7547 14.4714C15.7547 14.2557 15.8651 14.0741 16.0819 13.9341C16.2988 13.7941 16.6103 13.7222 17.0085 13.7222C17.4383 13.7222 17.8365 13.7789 18.2071 13.8962C18.282 13.9189 18.353 13.9454 18.42 13.9719C18.8458 14.1384 19.3268 13.9189 19.4846 13.5065C19.6344 13.1205 19.453 12.6891 19.0666 12.5113C18.9483 12.4545 18.8182 12.4053 18.6802 12.3561C18.3609 12.2464 18.0336 12.1707 17.6945 12.1291V11.6788C17.6945 11.2626 17.3436 10.9258 16.9099 10.9258C16.4762 10.9258 16.1253 11.2626 16.1253 11.6788V12.1745C15.7232 12.2426 15.3604 12.3637 15.045 12.534C14.6389 12.7535 14.3274 13.0373 14.1066 13.3816C13.8819 13.7259 13.7715 14.1157 13.7715 14.5509C13.7715 15.1222 13.941 15.5877 14.2801 15.9471C14.6192 16.3066 15.1436 16.5602 15.8533 16.7115L17.1307 16.984C17.4698 17.0559 17.7064 17.1429 17.8365 17.2451C17.9666 17.3472 18.0336 17.4721 18.0336 17.6235C18.0336 17.7975 17.935 17.9489 17.7458 18.0813C17.5526 18.21 17.2253 18.2781 16.7562 18.2781C16.287 18.2781 15.8296 18.21 15.3762 18.0775C15.2382 18.0359 15.1081 17.9905 14.9819 17.9413C14.5403 17.771 14.0396 17.9716 13.8779 18.403L13.8582 18.4522C13.7123 18.8381 13.8937 19.2771 14.284 19.4398C14.4694 19.5192 14.6704 19.5874 14.8873 19.6479C15.2855 19.7614 15.6995 19.8333 16.1253 19.8749V20.3214C16.1253 20.7377 16.4762 21.0745 16.9099 21.0745C17.3436 21.0745 17.6945 20.7377 17.6945 20.3214V19.8182C18.1006 19.7501 18.4673 19.629 18.7867 19.4549C19.177 19.2468 19.4767 18.9706 19.6935 18.63C19.9064 18.2894 20.0168 17.9035 20.0168 17.4683C20.0168 16.9196 19.8473 16.4656 19.5003 16.1174H19.5082Z" fill="white"></path>
</svg>
