<?xml version="1.0" encoding="UTF-8"?>
<svg xmlns="http://www.w3.org/2000/svg" width="32" height="32" viewBox="0 0 32 32" fill="none">
  <path d="M7.89221 16.0547H1.92822C1.42313 16.0547 1.01367 16.4643 1.01367 16.9695V30.0781C1.01367 30.5833 1.42313 30.9929 1.92822 30.9929H7.89221C8.3973 30.9929 8.80676 30.5833 8.80676 30.0781V16.9695C8.80676 16.4643 8.3973 16.0547 7.89221 16.0547Z" fill="#0063C1"></path>
  <path d="M17.8063 11.2246H11.8423C11.3372 11.2246 10.9277 11.6342 10.9277 12.1394V30.0847C10.9277 30.5899 11.3372 30.9995 11.8423 30.9995H17.8063C18.3114 30.9995 18.7208 30.5899 18.7208 30.0847V12.1394C18.7208 11.6342 18.3114 11.2246 17.8063 11.2246Z" fill="#3E83CC"></path>
  <path d="M30.7654 7.10848L25.2113 1.1278C25.053 0.957401 24.7834 0.957401 24.6251 1.1278L19.071 7.10848C18.5261 7.69783 18.9347 8.66045 19.7325 8.66045H21.0168L21.0165 30.077C21.0165 30.5877 21.4252 31.0003 21.9311 31.0003H27.9048C28.4107 31.0003 28.8193 30.5877 28.8193 30.077L28.8196 8.66045H30.1039C30.9016 8.66045 31.3103 7.69783 30.7654 7.10848Z" fill="#9CC3E5"></path>
</svg>
