<?xml version="1.0" encoding="UTF-8"?>
<svg xmlns="http://www.w3.org/2000/svg" width="64" height="64" viewBox="0 0 64 64" fill="none">
  <path d="M27.0881 56.473C40.7702 56.473 51.8617 45.3815 51.8617 31.6994C51.8617 18.0173 40.7702 6.92578 27.0881 6.92578C13.406 6.92578 2.31445 18.0173 2.31445 31.6994C2.31445 45.3815 13.406 56.473 27.0881 56.473Z" fill="#041b3a"></path>
  <g opacity="0.4">
    <path d="M32.5558 5.87109L6.95703 44.304C9.31311 48.1612 12.6633 51.3424 16.6597 53.4897L45.1613 11.6171C41.652 8.6447 37.3275 6.59681 32.5657 5.87109H32.5558Z" fill="white"></path>
    <path d="M49.5057 16.3477L21.8789 55.5759C24.056 56.1823 26.3426 56.5103 28.7086 56.5103C29.2553 56.5103 29.8021 56.4904 30.3489 56.4507L53.2635 24.2907C52.4682 21.4078 51.1857 18.7336 49.5057 16.3576V16.3477Z" fill="white"></path>
  </g>
  <path d="M57.0844 53.0341L47.8589 43.8086L40.8105 50.8569L50.036 60.0824C51.2588 61.3052 53.2471 61.3052 54.4699 60.0824L57.0844 57.4679C58.3072 56.2451 58.3072 54.2569 57.0844 53.0341Z" fill="#eb64ca"></path>
  <path d="M28.7104 60.4008C21.3638 60.4008 14.0072 57.6073 8.41029 52.0104C2.99231 46.5924 0 39.3751 0 31.7103C0 24.0456 2.98237 16.8382 8.41029 11.4103C13.8283 5.99232 21.0456 3 28.7104 3C36.3751 3 43.5825 5.98238 49.0104 11.4103C54.4284 16.8283 57.4207 24.0456 57.4207 31.7103C57.4207 39.3751 54.4383 46.5825 49.0104 52.0104C43.4135 57.6073 36.0669 60.4008 28.7104 60.4008ZM28.7104 10.3267C23.0041 10.3267 17.6358 12.5535 13.5897 16.5897C9.54359 20.6258 7.3267 25.9941 7.3267 31.7103C7.3267 37.4266 9.55353 42.7849 13.5897 46.831C21.9304 55.1717 35.4903 55.1717 43.821 46.831C47.8572 42.7949 50.084 37.4266 50.084 31.7103C50.084 25.9941 47.8572 20.6358 43.821 16.5897C39.7849 12.5535 34.4166 10.3267 28.7004 10.3267H28.7104Z" fill="#ff7800"></path>
</svg>
