<?xml version="1.0" encoding="UTF-8"?>
<svg xmlns="http://www.w3.org/2000/svg" width="64" height="64" viewBox="0 0 64 64" fill="none">
  <path d="M19.1389 6.15625H5.54686C2.48341 6.15625 0 8.59277 0 11.5984V52.3999C0 55.4055 2.48341 57.842 5.54686 57.842H19.1389C22.2023 57.842 24.6857 55.4055 24.6857 52.3999V11.5984C24.6857 8.59277 22.2023 6.15625 19.1389 6.15625Z" fill="#eb64ca"></path>
  <path d="M48.4134 6.15625H34.9013C31.8158 6.15625 29.3145 8.58635 29.3145 11.584V20.7856C29.3145 23.7833 31.8158 26.2134 34.9013 26.2134H48.4134C51.4989 26.2134 54.0002 23.7833 54.0002 20.7856V11.584C54.0002 8.58635 51.4989 6.15625 48.4134 6.15625Z" fill="#00a5fb"></path>
  <path d="M48.4134 32.3828H34.9013C31.8158 32.3828 29.3145 34.8276 29.3145 37.8434V52.3794C29.3145 55.3952 31.8158 57.84 34.9013 57.84H48.4134C51.4989 57.84 54.0002 55.3952 54.0002 52.3794V37.8434C54.0002 34.8276 51.4989 32.3828 48.4134 32.3828Z" fill="#ff7800"></path>
</svg>
