<?xml version="1.0" encoding="UTF-8"?>
<svg xmlns="http://www.w3.org/2000/svg" width="64" height="64" viewBox="0 0 64 64" fill="none">
  <path d="M14.0744 61.6019L10.2781 57.8001L16.8734 51.2059V38.2324H22.2355V53.429L14.0744 61.6019Z" fill="#eb64ca"></path>
  <path d="M48.8852 61.6019L40.7241 53.429V38.2324H46.0862V51.2059L52.6708 57.8001L48.8852 61.6019Z" fill="#eb64ca"></path>
  <path d="M34.0645 38.2324H28.7024V59.701H34.0645V38.2324Z" fill="#eb64ca"></path>
  <path d="M63.9634 34.6358C63.9634 39.3613 60.1348 43.1846 55.4162 43.1846H13.4847C13.3775 43.1846 13.281 43.1846 13.1737 43.1846C5.91345 43.1846 0.0258789 37.2885 0.0258789 30.0178C0.0258789 23.327 5.03407 17.7961 11.5007 16.9691C11.5007 16.9369 11.5007 16.8939 11.5007 16.851C11.49 8.64589 18.139 1.99805 26.3323 1.99805C32.2306 1.99805 37.3031 5.44547 39.6946 10.4394C40.7027 10.1817 41.7643 10.0313 42.8582 10.0313C50.0863 10.0313 55.931 15.8952 55.931 23.1229C55.931 24.1432 55.8023 25.1313 55.5878 26.0763C60.2314 26.1623 63.9741 29.9534 63.9741 34.6251L63.9634 34.6358Z" fill="#00a5fb"></path>
  <path d="M50.7833 55.4082C48.4133 55.4082 46.4937 57.3306 46.4937 59.7041C46.4937 62.0775 48.4133 63.9999 50.7833 63.9999C53.1534 63.9999 55.073 62.0775 55.073 59.7041C55.073 57.3306 53.1534 55.4082 50.7833 55.4082Z" fill="#00a5fb"></path>
  <path d="M31.3834 55.4082C29.0134 55.4082 27.0938 57.3306 27.0938 59.7041C27.0938 62.0775 29.0134 63.9999 31.3834 63.9999C33.7535 63.9999 35.6731 62.0775 35.6731 59.7041C35.6731 57.3306 33.7535 55.4082 31.3834 55.4082Z" fill="#00a5fb"></path>
  <path d="M12.1764 55.4082C9.80635 55.4082 7.88672 57.3306 7.88672 59.7041C7.88672 62.0775 9.80635 63.9999 12.1764 63.9999C14.5464 63.9999 16.4661 62.0775 16.4661 59.7041C16.4661 57.3306 14.5464 55.4082 12.1764 55.4082Z" fill="#00a5fb"></path>
  <path d="M19.2651 23.3714L19.4259 23.5325C20.1337 24.2305 21.2383 24.252 22.0105 23.6399C27.4905 19.301 35.2977 19.3118 40.7778 23.6399C41.5606 24.2628 42.6759 24.2305 43.3837 23.5217L43.5446 23.3606C44.3704 22.5337 44.2738 21.1912 43.3623 20.4609C36.3916 14.8978 26.4181 14.8871 19.4367 20.4502C18.5251 21.1805 18.4393 22.5444 19.2651 23.3606V23.3714Z" fill="#ff7800"></path>
  <path d="M25.0562 29.1912C25.7318 29.8678 26.7827 29.9752 27.5978 29.4597C28.7238 28.7509 30.0322 28.375 31.3941 28.375C32.7561 28.375 34.0645 28.7509 35.1905 29.4597C36.0055 29.9752 37.0565 29.8678 37.7321 29.1912C38.6651 28.2569 38.4828 26.7104 37.3675 26.0015C35.598 24.8846 33.539 24.2832 31.3941 24.2832C29.2493 24.2832 27.1903 24.8846 25.4208 26.0015C24.3055 26.6996 24.1339 28.2569 25.0562 29.1912Z" fill="#ff7800"></path>
  <path d="M29.721 33.1126C28.7987 34.0362 28.7987 35.5291 29.721 36.4419C30.6433 37.3655 32.1339 37.3655 33.0455 36.4419C33.9678 35.5183 33.9678 34.0255 33.0455 33.1126C32.1232 32.189 30.6326 32.189 29.721 33.1126Z" fill="#ff7800"></path>
</svg>
