<svg width="32" height="32" viewBox="0 0 32 32" fill="none" xmlns="http://www.w3.org/2000/svg">
<path d="M15.7432 1.13086H4.71191C2.93802 1.13086 1.5 2.56888 1.5 4.34276V27.6573C1.5 29.4312 2.93802 30.8692 4.71191 30.8692H15.7432C17.5171 30.8692 18.9551 29.4312 18.9551 27.6573V4.34276C18.9551 2.56888 17.5171 1.13086 15.7432 1.13086Z" fill="#0063C1"/>
<path d="M10.2224 24.2402C9.37064 24.2402 8.68311 24.9277 8.68311 25.7794C8.68311 26.6311 9.37064 27.3187 10.2224 27.3187C11.0741 27.3187 11.7616 26.6311 11.7616 25.7794C11.7616 24.9277 11.0741 24.2402 10.2224 24.2402Z" fill="white"/>
<path d="M23.9325 15.3741C23.9325 17.5958 22.1316 19.3967 19.9099 19.3967V26.5952C20.618 26.5952 21.3312 26.5234 21.9982 26.4003L22.5574 23.9221C23.8504 23.5219 25.0151 22.8343 25.9848 21.9364L28.422 22.6804C29.3301 21.6337 30.0433 20.4023 30.5 19.0632L28.6323 17.3443C28.776 16.7081 28.853 16.0514 28.853 15.369C28.853 14.6866 28.776 14.0298 28.6323 13.3936L30.5 11.6645C30.0382 10.3254 29.325 9.09395 28.422 8.04726L25.9746 8.79636C25.01 7.9036 23.8453 7.2212 22.5574 6.82612L21.9982 4.34793C21.3312 4.22479 20.618 4.15295 19.9099 4.15295V11.3515C22.1316 11.3515 23.9325 13.1524 23.9325 15.3741Z" fill="#9CC3E5"/>
</svg>
