<?xml version="1.0" encoding="UTF-8"?>
<svg xmlns="http://www.w3.org/2000/svg" width="56" height="56" viewBox="0 0 56 56" fill="none">
  <path d="M35.9061 54.2484H20.0973C18.2463 54.2484 16.9714 52.4068 17.6136 50.6692L20.8339 42.0376H35.1696L38.3898 50.6692C39.032 52.3974 37.7571 54.2484 35.9061 54.2484Z" fill="#00a5fb"></path>
  <path d="M52.5 38.9324V11.1957C52.5 6.9455 49.2067 3.5 45.1442 3.5L10.8558 3.5C6.79329 3.5 3.5 6.9455 3.5 11.1957V38.9324C3.5 43.1826 6.79329 46.628 10.8558 46.628H45.1442C49.2067 46.628 52.5 43.1826 52.5 38.9324Z" fill="#00a5fb"></path>
  <path d="M7.07812 11.8508C7.07812 9.33789 9.11523 7.30078 11.6281 7.30078H44.3675C46.8804 7.30078 48.9175 9.33789 48.9175 11.8508V34.2439C48.9175 36.7568 46.8804 38.7939 44.3675 38.7939H11.6281C9.11523 38.7939 7.07812 36.7568 7.07812 34.2439V11.8508Z" fill="#ff7800"></path>
  <path fill-rule="evenodd" clip-rule="evenodd" d="M35.7813 29.8948L33.4455 29.1822V29.1756H33.4256C32.5033 30.0202 31.3885 30.6735 30.1609 31.0496L29.6234 33.4119C28.9863 33.5307 28.3161 33.5967 27.6327 33.5967C26.9492 33.5967 26.2724 33.5307 25.6287 33.4119L25.0912 31.0496C23.8636 30.6735 22.7488 30.0268 21.8265 29.1756L19.4907 29.8882C18.6214 28.8984 17.938 27.7239 17.5 26.4503L19.2916 24.8007C19.1523 24.1936 19.0793 23.5601 19.0793 22.92C19.0793 22.28 19.1523 21.6465 19.2916 21.046L17.5066 19.4095C17.9512 18.136 18.6347 16.968 19.4973 15.9716L21.8265 16.6843C22.7488 15.8331 23.8702 15.1732 25.1045 14.7971L25.642 12.4348C26.2856 12.316 26.9625 12.25 27.6459 12.25C28.3294 12.25 28.993 12.316 29.6366 12.4348L30.1741 14.7971C31.4084 15.1798 32.5298 15.8265 33.4521 16.6843L35.7813 15.9716C36.6505 16.9614 37.334 18.136 37.772 19.4095L35.987 21.0526C36.1197 21.6597 36.1927 22.28 36.1927 22.9266C36.1927 23.5733 36.1263 24.2002 35.987 24.8007L37.772 26.4569C37.3274 27.7305 36.6439 28.8984 35.7813 29.8948ZM31.4369 22.7241C31.4404 22.7914 31.4423 22.8591 31.4423 22.9273C31.4423 25.0155 29.7399 26.7083 27.64 26.7083C25.5401 26.7083 23.8378 25.0155 23.8378 22.9273C23.8378 21.8181 24.318 20.8205 25.0831 20.1289C25.7582 19.5141 26.6579 19.139 27.6459 19.139C29.679 19.139 31.3377 20.7269 31.4369 22.7241Z" fill="white"></path>
</svg>
