<svg width="32" height="32" viewBox="0 0 32 32" fill="none" xmlns="http://www.w3.org/2000/svg">
<path d="M18.582 7.0466C18.7837 7.23846 19.005 7.41064 19.251 7.5533C20.0972 8.04525 21.1155 8.16331 22.0551 7.87307L22.6454 7.69105C24.0425 7.26306 25.5774 7.81895 26.3104 9.08325L26.3448 9.1472C27.0729 10.4164 26.7827 12.03 25.7102 13.0237L25.2822 13.4222C24.564 14.0863 24.1557 15.0259 24.1557 16.0049C24.1557 16.9839 24.564 17.9136 25.2773 18.5827L25.725 19.0008C26.7925 19.9946 27.0778 21.6032 26.3547 22.8675C26.3399 22.8921 26.3301 22.9118 26.3153 22.9364C25.5823 24.2007 24.0475 24.7566 22.6503 24.3286L22.0453 24.1417C21.1155 23.8563 20.107 23.9695 19.2658 24.4516C19.0198 24.5942 18.7935 24.7664 18.5918 24.9583C21.2483 28.3379 25.3708 30.5074 30 30.5074V1.49255C25.3659 1.49255 21.2434 3.66695 18.5869 7.0466H18.582Z" fill="#9CC3E5"/>
<path d="M14.3857 20.0143C12.167 20.0143 10.3665 18.2285 10.3665 16.0099C10.3665 13.7912 12.167 11.9907 14.3857 11.9907C14.9465 11.9907 15.4778 12.1038 15.9599 12.3104C16.4715 10.3624 17.3767 8.57659 18.5869 7.04173C18.095 6.56946 17.7408 5.95945 17.5883 5.28057L17.4456 4.66072C17.1209 3.23408 15.8566 2.22068 14.3906 2.21576H14.3463C12.8951 2.21576 11.6406 3.22424 11.3209 4.63612L11.1733 5.28057C10.9568 6.23494 10.3518 7.05649 9.50561 7.54843C8.65947 8.04038 7.64114 8.15844 6.70153 7.8682L6.1112 7.68618C4.71408 7.25818 3.17921 7.81408 2.44621 9.07838C2.43637 9.09805 2.42654 9.11773 2.41178 9.13741C1.6837 10.4115 1.97395 12.0251 3.0513 13.0188L3.48422 13.4173C4.20737 14.0814 4.61569 15.0161 4.61569 16C4.61569 16.9839 4.20737 17.9088 3.48913 18.5729L3.03655 18.991C1.96411 19.9848 1.67386 21.5934 2.40194 22.8626L2.43637 22.9266C3.16937 24.1909 4.70424 24.7468 6.10136 24.3188L6.70645 24.1319C7.63622 23.8465 8.64471 23.9597 9.48593 24.4418C10.337 24.9288 10.947 25.7553 11.1635 26.7146L11.2963 27.3098C11.621 28.7463 12.9 29.7695 14.3709 29.7695H14.3955C15.8418 29.7695 17.0963 28.766 17.4161 27.3541L17.5637 26.7146C17.7162 26.0357 18.0704 25.4257 18.5672 24.9485C17.357 23.4087 16.4519 21.6229 15.9402 19.6748C15.4581 19.8815 14.9268 19.9946 14.366 19.9946L14.3857 20.0143Z" fill="#3E83CC"/>
<path d="M22.0403 24.1466L22.6454 24.3335C24.0426 24.7615 25.5823 24.2056 26.3104 22.9413C26.3252 22.9167 26.335 22.897 26.3498 22.8724C27.0729 21.6032 26.7876 19.9995 25.7201 19.0058L25.2724 18.5876C24.5591 17.9235 24.1508 16.9888 24.1508 16.0098C24.1508 15.0308 24.5591 14.0912 25.2773 13.4271L25.7053 13.0286C26.7778 12.0349 27.068 10.4262 26.3399 9.15211L26.3055 9.08816C25.5725 7.82387 24.0376 7.26797 22.6405 7.69596L22.0502 7.87798C21.1106 8.16331 20.0972 8.05016 19.2461 7.55822C19.0001 7.41555 18.7788 7.24337 18.5771 7.05151C17.3669 8.5913 16.4617 10.3721 15.9501 12.3202C17.3816 12.9352 18.3803 14.3569 18.3803 16.0147C18.3803 17.6726 17.3816 19.0894 15.9501 19.6994C16.4617 21.6475 17.3669 23.4332 18.5771 24.973C18.7788 24.7812 19.005 24.609 19.251 24.4663C20.0922 23.9842 21.1007 23.8711 22.0305 24.1564L22.0403 24.1466Z" fill="#0063C1"/>
</svg>
