<svg width="32" height="32" viewBox="0 0 32 32" fill="none" xmlns="http://www.w3.org/2000/svg">
<path d="M5.02254 6.76772L1.25607 10.5439C0.820366 10.9796 0.95592 11.7057 1.50782 11.9672L7.28822 14.6783C7.30759 14.6298 7.32695 14.5814 7.356 14.533C8.789 11.1442 10.1736 8.4815 11.655 6.24486L6.8041 6.08026C6.1457 6.0609 5.49697 6.31264 5.03222 6.78708L5.02254 6.76772Z" fill="#0063C1"/>
<path d="M25.7623 20.3522C23.5256 21.8336 20.8533 23.2085 17.4644 24.6512C17.416 24.6705 17.3676 24.6899 17.3192 24.7093L20.0303 30.4897C20.2917 31.0416 21.0179 31.1771 21.4536 30.7414L25.2201 26.9749C25.6945 26.5005 25.9462 25.8615 25.9269 25.2031L25.7623 20.3522Z" fill="#0063C1"/>
<path d="M10.1348 22.1434C10.1348 22.1434 10.0574 22.0466 10.009 21.9982C9.96056 21.9498 9.91214 21.911 9.86373 21.8723C8.0628 20.2166 6.08759 19.4323 4.33507 21.1849C2.58255 22.9374 0.355598 28.0691 2.13716 29.8603C3.92841 31.6516 9.03104 29.4536 10.8223 27.6624C12.6135 25.8712 11.7905 23.9347 10.1348 22.1337V22.1434Z" fill="#9CC3E5"/>
<path d="M30.923 3.80494C30.7875 2.18797 29.8192 1.21973 28.2023 1.08418C17.6387 0.241806 13.727 5.78015 9.94121 15.0753C9.45709 16.3146 9.07948 17.0795 10.3866 18.2124L13.7851 21.6109C14.9083 22.918 15.6732 22.5598 16.9222 22.0563C26.2077 18.2802 31.7847 14.3491 30.9133 3.80494H30.923ZM25.772 11.6477C24.2809 13.1388 21.8603 13.1388 20.3692 11.6477C18.8781 10.1566 18.8781 7.736 20.3692 6.24491C21.8603 4.75381 24.2809 4.75381 25.772 6.24491C27.2631 7.736 27.2631 10.1566 25.772 11.6477Z" fill="#3E83CC"/>
</svg>
