<?xml version="1.0" encoding="UTF-8"?>
<svg xmlns="http://www.w3.org/2000/svg" width="48" height="48" viewBox="0 0 48 48" fill="none">
  <path d="M41.4909 24.0109C39.1619 30.2673 32.2158 36.256 24.0037 36.256C15.7917 36.256 8.84551 30.2673 6.5166 24.0109C8.84551 17.7545 15.7998 11.7659 24.0037 11.7659C32.2077 11.7659 39.1619 17.7545 41.4909 24.0109Z" fill="#0097fa"></path>
  <path d="M24.0015 31.3942C28.0798 31.3942 31.3859 28.0881 31.3859 24.0098C31.3859 19.9316 28.0798 16.6255 24.0015 16.6255C19.9233 16.6255 16.6172 19.9316 16.6172 24.0098C16.6172 28.0881 19.9233 31.3942 24.0015 31.3942Z" fill="#eb64ca"></path>
  <path d="M19.1652 21.7215C20.5724 21.7215 21.7132 20.5807 21.7132 19.1735C21.7132 17.7663 20.5724 16.6255 19.1652 16.6255C17.758 16.6255 16.6172 17.7663 16.6172 19.1735C16.6172 20.5807 17.758 21.7215 19.1652 21.7215Z" fill="#0097fa"></path>
  <path fill-rule="evenodd" clip-rule="evenodd" d="M8.66814 4.68584C6.46878 4.68584 4.68584 6.46878 4.68584 8.66814V14.6279C4.68584 15.5076 3.97267 16.2208 3.09292 16.2208C2.21317 16.2208 1.5 15.5076 1.5 14.6279V8.66814C1.5 4.70929 4.70929 1.5 8.66814 1.5H14.2674C15.1471 1.5 15.8603 2.21317 15.8603 3.09292C15.8603 3.97267 15.1471 4.68584 14.2674 4.68584H8.66814ZM32.5002 3.09292C32.5002 2.21317 33.2133 1.5 34.0931 1.5H39.3319C43.2907 1.5 46.5 4.70929 46.5 8.66814V14.6279C46.5 15.5076 45.7868 16.2208 44.9071 16.2208C44.0273 16.2208 43.3142 15.5076 43.3142 14.6279V8.66814C43.3142 6.46878 41.5312 4.68584 39.3319 4.68584H34.0931C33.2133 4.68584 32.5002 3.97267 32.5002 3.09292ZM3.09292 32.1397C3.97267 32.1397 4.68584 32.8529 4.68584 33.7326V39.3319C4.68584 41.5312 6.46878 43.3142 8.66814 43.3142H14.2674C15.1471 43.3142 15.8603 44.0273 15.8603 44.9071C15.8603 45.7868 15.1471 46.5 14.2674 46.5H8.66814C4.70928 46.5 1.5 43.2907 1.5 39.3319V33.7326C1.5 32.8529 2.21317 32.1397 3.09292 32.1397ZM44.9071 32.1397C45.7868 32.1397 46.5 32.8529 46.5 33.7326V39.3319C46.5 43.2907 43.2907 46.5 39.3319 46.5H34.0931C33.2133 46.5 32.5002 45.7868 32.5002 44.9071C32.5002 44.0273 33.2133 43.3142 34.0931 43.3142H39.3319C41.5312 43.3142 43.3142 41.5312 43.3142 39.3319V33.7326C43.3142 32.8529 44.0273 32.1397 44.9071 32.1397Z" fill="#ff7800"></path>
</svg>
