<?xml version="1.0" encoding="UTF-8"?>
<svg xmlns="http://www.w3.org/2000/svg" width="56" height="57" viewBox="0 0 56 57" fill="none">
  <path d="M3.5 11.3662C3.5 7.50022 6.63401 4.36621 10.5 4.36621H45.5C49.366 4.36621 52.5 7.50022 52.5 11.3662V14.7827H3.5V11.3662Z" fill="#ff7800"></path>
  <path d="M3.5 18.3662H52.5V46.3662C52.5 50.2322 49.366 53.3662 45.5 53.3662H10.5C6.63401 53.3662 3.5 50.2322 3.5 46.3662V18.3662Z" fill="#00a5fb"></path>
  <path d="M43.9482 36.7979H36.1035C34.6678 36.7979 33.5039 37.9617 33.5039 39.3975C33.5039 40.8332 34.6678 41.9971 36.1035 41.9971H43.9482C45.384 41.9971 46.5479 40.8332 46.5479 39.3975C46.5479 37.9617 45.384 36.7979 43.9482 36.7979Z" fill="#ff7800"></path>
  <path d="M43.9601 28.2649H36.5391C35.1033 28.2649 33.9395 29.4288 33.9395 30.8645C33.9395 32.3003 35.1033 33.4641 36.5391 33.4641H43.9601C45.3958 33.4641 46.5597 32.3003 46.5597 30.8645C46.5597 29.4288 45.3958 28.2649 43.9601 28.2649Z" fill="#ff7800"></path>
  <path d="M25.3579 35.6889H17.0207V27.3518C12.417 27.3518 8.68359 31.0852 8.68359 35.6889C8.68359 40.2927 12.417 44.0261 17.0207 44.0261C21.6245 44.0261 25.3579 40.2927 25.3579 35.6889Z" fill="white"></path>
  <path d="M28.7395 31.9535C28.7395 29.3653 27.5599 27.052 25.7047 25.5174C25.4985 25.3456 25.2809 25.1853 25.0634 25.0364C24.2846 24.5096 23.4143 24.1088 22.4866 23.8798C21.8224 23.708 21.1238 23.6164 20.4023 23.6164V31.9535H28.7395Z" fill="#ff7800"></path>
</svg>
