<?xml version="1.0" encoding="UTF-8"?>
<svg xmlns="http://www.w3.org/2000/svg" width="64" height="64" viewBox="0 0 64 64" fill="none">
  <path d="M11.0277 23.8998V31.9064C11.007 32.0864 11 32.2735 11 32.4535C11 32.6336 11.007 32.8206 11.0277 33.0007C11.5818 38.7147 20.759 43.2583 32 43.2583C43.2411 43.2583 53 38.4169 53 32.4535V23.8721C48.8028 27.9723 41.1356 30.6112 32 30.6112C22.8645 30.6112 15.2319 27.9862 11.0277 23.8998Z" fill="#00a5fb"></path>
  <path d="M11.0277 39.3422V47.3488C11.007 47.5288 11 47.7158 11 47.8959C11 48.076 11.007 48.263 11.0277 48.4431C11.5818 54.1571 20.759 58.7007 32 58.7007C43.2411 58.7007 53 53.8593 53 47.8959V39.3145C48.8028 43.4147 41.1356 46.0536 32 46.0536C22.8645 46.0536 15.2319 43.4286 11.0277 39.3422Z" fill="#00a5fb"></path>
  <path d="M32 27.1412C43.598 27.1412 53 22.3038 53 16.3365C53 10.3692 43.598 5.53174 32 5.53174C20.4021 5.53174 11 10.3692 11 16.3365C11 22.3038 20.4021 27.1412 32 27.1412Z" fill="#ff7800"></path>
</svg>
