<?xml version="1.0" encoding="UTF-8"?>
<svg xmlns="http://www.w3.org/2000/svg" width="200" height="107" viewBox="0 0 200 107" fill="none">
  <g clip-path="url(#clip0_607_10821)">
    <path d="M60.6817 32.7145C60.1403 32.681 59.729 32.2122 59.7668 31.6723C59.8003 31.1826 60.1906 30.7892 60.6817 30.7599C63.0824 30.7599 65.1053 27.3321 65.1053 23.2722C65.1389 22.7323 65.609 22.3222 66.1504 22.3598C66.6414 22.3933 67.0359 22.7825 67.0653 23.2722C67.0653 28.5668 64.2701 32.7145 60.6817 32.7145Z" fill="#0063C1"></path>
    <path d="M75.4929 32.7145C74.9515 32.681 74.5402 32.2122 74.578 31.6723C74.6115 31.1826 75.0019 30.7892 75.4929 30.7599C77.8936 30.7599 79.9165 27.3321 79.9165 23.2722C79.9501 22.7323 80.4202 22.3222 80.9616 22.3598C81.4526 22.3933 81.8472 22.7825 81.8765 23.2722C81.8975 28.5668 79.073 32.7145 75.4929 32.7145Z" fill="#0063C1"></path>
    <path d="M90.2917 32.7143C89.7503 32.6808 89.339 32.2121 89.3768 31.6722C89.4104 31.1825 89.8007 30.789 90.2917 30.7597C92.6882 30.7597 94.7154 27.3319 94.7154 23.2721C94.7154 22.7322 95.1519 22.2969 95.6933 22.2969C96.2347 22.2969 96.6712 22.7322 96.6712 23.2721C96.6838 28.5666 93.8844 32.7143 90.2917 32.7143Z" fill="#0063C1"></path>
    <path d="M105.116 32.7143C104.574 32.7478 104.108 32.3418 104.071 31.8019C104.033 31.262 104.444 30.7974 104.985 30.7597C105.027 30.7597 105.069 30.7597 105.116 30.7597C107.512 30.7597 109.539 27.3319 109.539 23.2721C109.539 22.7322 109.976 22.2969 110.517 22.2969C111.059 22.2969 111.495 22.7322 111.495 23.2721C111.495 28.5666 108.691 32.7143 105.116 32.7143Z" fill="#0063C1"></path>
    <path d="M119.923 32.7145C119.381 32.681 118.97 32.2122 119.008 31.6723C119.041 31.1826 119.431 30.7892 119.923 30.7599C122.323 30.7599 124.346 27.3321 124.346 23.2722C124.38 22.7323 124.85 22.3222 125.391 22.3598C125.882 22.3933 126.277 22.7825 126.306 23.2722C126.306 28.5668 123.503 32.7145 119.923 32.7145Z" fill="#0063C1"></path>
    <path d="M134.734 32.7145C134.192 32.681 133.781 32.2122 133.819 31.6723C133.852 31.1826 134.243 30.7892 134.734 30.7599C137.13 30.7599 139.157 27.3321 139.157 23.2722C139.191 22.7323 139.661 22.3222 140.202 22.3598C140.693 22.3933 141.088 22.7825 141.117 23.2722C141.117 28.5668 138.314 32.7145 134.734 32.7145Z" fill="#0063C1"></path>
    <g opacity="0.3">
      <path d="M60.6819 32.7145C60.1405 32.681 59.7292 32.2122 59.7669 31.6723C59.8005 31.1826 60.1908 30.7892 60.6819 30.7599C63.0826 30.7599 65.1055 27.3321 65.1055 23.2722C65.1391 22.7323 65.6092 22.3222 66.1506 22.3598C66.6416 22.3933 67.0361 22.7825 67.0655 23.2722C67.0655 28.5668 64.2703 32.7145 60.6819 32.7145Z" fill="#101012"></path>
      <path d="M75.4931 32.7145C74.9517 32.681 74.5404 32.2122 74.5782 31.6723C74.6117 31.1826 75.002 30.7892 75.4931 30.7599C77.8938 30.7599 79.9167 27.3321 79.9167 23.2722C79.9503 22.7323 80.4204 22.3222 80.9618 22.3598C81.4528 22.3933 81.8473 22.7825 81.8767 23.2722C81.8977 28.5668 79.0731 32.7145 75.4931 32.7145Z" fill="#101012"></path>
      <path d="M90.2917 32.7143C89.7503 32.6808 89.339 32.2121 89.3767 31.6722C89.4103 31.1825 89.8006 30.789 90.2917 30.7597C92.6882 30.7597 94.7153 27.3319 94.7153 23.2721C94.7153 22.7322 95.1518 22.2969 95.6932 22.2969C96.2346 22.2969 96.6711 22.7322 96.6711 23.2721C96.6837 28.5666 93.8843 32.7143 90.2917 32.7143Z" fill="#101012"></path>
      <path d="M105.115 32.7143C104.574 32.7478 104.108 32.3418 104.07 31.8019C104.033 31.262 104.444 30.7974 104.985 30.7597C105.027 30.7597 105.069 30.7597 105.115 30.7597C107.512 30.7597 109.539 27.3319 109.539 23.2721C109.539 22.7322 109.976 22.2969 110.517 22.2969C111.058 22.2969 111.495 22.7322 111.495 23.2721C111.495 28.5666 108.691 32.7143 105.115 32.7143Z" fill="#101012"></path>
      <path d="M119.922 32.7145C119.381 32.681 118.97 32.2122 119.008 31.6723C119.041 31.1826 119.431 30.7892 119.922 30.7599C122.323 30.7599 124.346 27.3321 124.346 23.2722C124.38 22.7323 124.85 22.3222 125.391 22.3598C125.882 22.3933 126.277 22.7825 126.306 23.2722C126.306 28.5668 123.503 32.7145 119.922 32.7145Z" fill="#101012"></path>
      <path d="M134.734 32.7145C134.192 32.681 133.781 32.2122 133.819 31.6723C133.852 31.1826 134.243 30.7892 134.734 30.7599C137.13 30.7599 139.157 27.3321 139.157 23.2722C139.191 22.7323 139.661 22.3222 140.202 22.3598C140.693 22.3933 141.088 22.7825 141.117 23.2722C141.117 28.5668 138.314 32.7145 134.734 32.7145Z" fill="#101012"></path>
    </g>
    <path d="M51.4024 24.2715H146.75C149.394 24.3259 151.589 26.3307 151.866 28.9549L157.146 88.3163C157.398 90.6392 155.71 92.7277 153.381 92.9747C153.209 92.9914 153.037 92.9998 152.865 92.9998H57.5133C54.8692 92.9454 52.6783 90.9364 52.3971 88.3163L47.1215 28.9549C46.8697 26.632 48.5485 24.5477 50.8778 24.2966C51.0541 24.2757 51.2262 24.2715 51.4024 24.2715Z" fill="#0063C1"></path>
    <path opacity="0.4" d="M51.4024 24.2715H146.75C149.394 24.3259 151.589 26.3307 151.866 28.9549L157.146 88.3163C157.398 90.6392 155.71 92.7277 153.381 92.9747C153.209 92.9914 153.037 92.9998 152.865 92.9998H57.5133C54.8692 92.9454 52.6783 90.9364 52.3971 88.3163L47.1215 28.9549C46.8697 26.632 48.5485 24.5477 50.8778 24.2966C51.0541 24.2757 51.2262 24.2715 51.4024 24.2715Z" fill="#FAFAFA"></path>
    <path d="M145.957 24.2732H50.605C47.9861 24.3025 45.8414 26.3492 45.6945 28.9567L43.0084 88.3181C42.8783 90.7707 44.767 92.8676 47.2306 92.9973C47.3145 93.0015 47.3985 93.0057 47.4824 93.0015H142.842C145.461 92.9722 147.606 90.9256 147.753 88.3181L150.443 28.9567C150.569 26.4998 148.676 24.4072 146.213 24.2774C146.129 24.2732 146.04 24.269 145.957 24.2732Z" fill="#0063C1"></path>
    <path opacity="0.2" d="M145.957 24.2732H50.605C47.9861 24.3025 45.8414 26.3492 45.6945 28.9567L43.0084 88.3181C42.8783 90.7707 44.767 92.8676 47.2306 92.9973C47.3145 93.0015 47.3985 93.0057 47.4824 93.0015H142.842C145.461 92.9722 147.606 90.9256 147.753 88.3181L150.443 28.9567C150.569 26.4998 148.676 24.4072 146.213 24.2774C146.129 24.2732 146.04 24.269 145.957 24.2732Z" fill="#FAFAFA"></path>
    <path d="M52.3551 77.3129L54.5754 28.2894C54.6299 27.2933 55.4525 26.5064 56.4556 26.4981H139.904C140.849 26.4939 141.617 27.2514 141.625 28.189C141.625 28.2224 141.625 28.2559 141.625 28.2894L139.401 77.3129C139.346 78.309 138.524 79.0959 137.521 79.1042H54.0717C53.1274 79.1084 52.3593 78.3509 52.351 77.4133C52.351 77.3799 52.351 77.3464 52.351 77.3129H52.3551Z" fill="#0063C1"></path>
    <path opacity="0.1" d="M52.3551 77.3129L54.5754 28.2894C54.6299 27.2933 55.4525 26.5064 56.4556 26.4981H139.904C140.849 26.4939 141.617 27.2514 141.625 28.189C141.625 28.2224 141.625 28.2559 141.625 28.2894L139.401 77.3129C139.346 78.309 138.524 79.0959 137.521 79.1042H54.0717C53.1274 79.1084 52.3593 78.3509 52.351 77.4133C52.351 77.3799 52.351 77.3464 52.351 77.3129H52.3551Z" fill="#FAFAFA"></path>
    <path opacity="0.1" d="M50.0006 81.3147L52.3299 29.8344C52.3845 28.788 53.2491 27.9635 54.3025 27.9551H141.936C142.922 27.9468 143.732 28.7378 143.741 29.7214C143.741 29.759 143.741 29.7967 143.741 29.8344L141.407 81.3147C141.352 82.361 140.492 83.1856 139.439 83.1981H51.7927C50.8064 83.2065 50.0048 82.4113 49.9964 81.4319C49.9964 81.3942 49.9964 81.3524 49.9964 81.3147H50.0006Z" fill="#101012"></path>
    <path d="M47.8349 85.4663L50.265 31.7677C50.3322 30.6795 51.2261 29.8257 52.3215 29.8048H143.736C144.769 29.7964 145.612 30.6251 145.621 31.6505C145.621 31.6882 145.621 31.7258 145.621 31.7677L143.178 85.4663C143.111 86.5545 142.217 87.4083 141.122 87.4292H49.7152C48.6869 87.4418 47.8433 86.6173 47.8307 85.5918C47.8307 85.55 47.8307 85.5081 47.8307 85.4663H47.8349Z" fill="#FAFAFA"></path>
    <path d="M134.721 33.0241C134.024 33.0241 133.462 32.4632 133.458 31.7726C133.458 31.7475 133.458 31.7224 133.458 31.6931C133.491 30.9942 134.062 30.4459 134.763 30.4375C135.46 30.4375 136.022 30.9983 136.026 31.6889C136.026 31.714 136.026 31.7392 136.026 31.7685C135.993 32.4674 135.422 33.0157 134.721 33.0241Z" fill="#0063C1"></path>
    <path d="M119.91 33.0241C119.213 33.0241 118.651 32.4632 118.647 31.7726C118.647 31.7475 118.647 31.7224 118.647 31.6931C118.68 30.9942 119.251 30.4459 119.952 30.4375C120.649 30.4375 121.211 30.9983 121.215 31.6889C121.215 31.714 121.215 31.7392 121.215 31.7685C121.186 32.4674 120.611 33.0199 119.91 33.0241Z" fill="#0063C1"></path>
    <path d="M105.099 33.0241C104.402 33.0241 103.84 32.4632 103.835 31.7726C103.835 31.7475 103.835 31.7224 103.835 31.6931C103.869 30.9983 104.44 30.4459 105.141 30.4375C105.837 30.4375 106.4 30.9983 106.404 31.6889C106.404 31.714 106.404 31.7392 106.404 31.7685C106.375 32.4674 105.8 33.0199 105.099 33.0241Z" fill="#0063C1"></path>
    <path d="M90.2916 33.0241C89.5949 33.0241 89.0325 32.4632 89.0283 31.7726C89.0283 31.7475 89.0283 31.7224 89.0283 31.6931C89.066 30.9983 89.6368 30.4459 90.3377 30.4375C91.0344 30.4375 91.5968 30.9983 91.601 31.6889C91.601 31.714 91.601 31.7392 91.601 31.7685C91.5716 32.4674 90.9925 33.0199 90.2916 33.0241Z" fill="#0063C1"></path>
    <path d="M75.4803 33.0241C74.7836 33.0241 74.2212 32.4632 74.217 31.7726C74.217 31.7475 74.217 31.7224 74.217 31.6931C74.2506 30.9942 74.8214 30.4459 75.5223 30.4375C76.219 30.4375 76.7814 30.9983 76.7856 31.6889C76.7856 31.714 76.7856 31.7392 76.7856 31.7685C76.752 32.4674 76.1812 33.0157 75.4803 33.0241Z" fill="#0063C1"></path>
    <path d="M60.6692 33.0241C59.9725 33.0241 59.4101 32.4632 59.4059 31.7726C59.4059 31.7475 59.4059 31.7224 59.4059 31.6931C59.4395 30.9942 60.0103 30.4459 60.7111 30.4375C61.4079 30.4375 61.9702 30.9983 61.9744 31.6889C61.9744 31.714 61.9744 31.7392 61.9744 31.7685C61.9451 32.4674 61.3701 33.0199 60.6692 33.0241Z" fill="#0063C1"></path>
    <g opacity="0.1">
      <path d="M134.721 33.0241C134.024 33.0241 133.462 32.4632 133.458 31.7726C133.458 31.7475 133.458 31.7224 133.458 31.6931C133.491 30.9942 134.062 30.4459 134.763 30.4375C135.46 30.4375 136.022 30.9983 136.026 31.6889C136.026 31.714 136.026 31.7392 136.026 31.7685C135.993 32.4674 135.422 33.0157 134.721 33.0241Z" fill="#FAFAFA"></path>
      <path d="M119.91 33.0241C119.213 33.0241 118.651 32.4632 118.646 31.7726C118.646 31.7475 118.646 31.7224 118.646 31.6931C118.68 30.9942 119.251 30.4459 119.952 30.4375C120.648 30.4375 121.211 30.9983 121.215 31.6889C121.215 31.714 121.215 31.7392 121.215 31.7685C121.186 32.4674 120.611 33.0199 119.91 33.0241Z" fill="#FAFAFA"></path>
      <path d="M105.099 33.0241C104.402 33.0241 103.839 32.4632 103.835 31.7726C103.835 31.7475 103.835 31.7224 103.835 31.6931C103.869 30.9983 104.44 30.4459 105.141 30.4375C105.837 30.4375 106.4 30.9983 106.404 31.6889C106.404 31.714 106.404 31.7392 106.404 31.7685C106.374 32.4674 105.799 33.0199 105.099 33.0241Z" fill="#FAFAFA"></path>
      <path d="M90.2916 33.0241C89.5949 33.0241 89.0325 32.4632 89.0283 31.7726C89.0283 31.7475 89.0283 31.7224 89.0283 31.6931C89.066 30.9983 89.6368 30.4459 90.3377 30.4375C91.0344 30.4375 91.5968 30.9983 91.601 31.6889C91.601 31.714 91.601 31.7392 91.601 31.7685C91.5716 32.4674 90.9925 33.0199 90.2916 33.0241Z" fill="#FAFAFA"></path>
      <path d="M75.4804 33.0241C74.7837 33.0241 74.2213 32.4632 74.2171 31.7726C74.2171 31.7475 74.2171 31.7224 74.2171 31.6931C74.2507 30.9942 74.8215 30.4459 75.5224 30.4375C76.2191 30.4375 76.7815 30.9983 76.7857 31.6889C76.7857 31.714 76.7857 31.7392 76.7857 31.7685C76.7521 32.4674 76.1813 33.0157 75.4804 33.0241Z" fill="#FAFAFA"></path>
      <path d="M60.6692 33.0241C59.9725 33.0241 59.4101 32.4632 59.4059 31.7726C59.4059 31.7475 59.4059 31.7224 59.4059 31.6931C59.4395 30.9942 60.0103 30.4459 60.7111 30.4375C61.4079 30.4375 61.9702 30.9983 61.9744 31.6889C61.9744 31.714 61.9744 31.7392 61.9744 31.7685C61.9451 32.4674 61.3701 33.0199 60.6692 33.0241Z" fill="#FAFAFA"></path>
    </g>
    <path d="M64.3711 37.7035H56.9215C56.4892 37.7035 56.1366 37.3603 56.1324 36.9333C56.1324 36.9124 56.1324 36.8915 56.1324 36.8664C56.1492 36.4102 56.5144 36.046 56.9718 36.0293H64.4215C64.8538 36.0293 65.2063 36.3725 65.2105 36.7994C65.2105 36.8203 65.2105 36.8413 65.2105 36.8664C65.1938 37.3226 64.8286 37.6867 64.3711 37.7035Z" fill="#0063C1"></path>
    <path d="M79.1823 37.7035H71.7326C71.3003 37.7035 70.9478 37.3603 70.9436 36.9333C70.9436 36.9124 70.9436 36.8915 70.9436 36.8664C70.9604 36.4018 71.3381 36.0377 71.804 36.0293H79.2495C79.6817 36.0293 80.0385 36.3725 80.0385 36.8078C80.0385 36.8287 80.0385 36.8496 80.0385 36.8664C80.0217 37.331 79.644 37.6951 79.1781 37.7035H79.1823Z" fill="#0063C1"></path>
    <path d="M93.9935 37.7035H86.5439C86.1116 37.7035 85.7548 37.3603 85.7548 36.925C85.7548 36.904 85.7548 36.8831 85.7548 36.8664C85.7716 36.4018 86.1493 36.0377 86.6152 36.0293H94.0691C94.5014 36.0293 94.8539 36.3725 94.8581 36.7994C94.8581 36.8203 94.8581 36.8413 94.8581 36.8664C94.8413 37.331 94.4636 37.6993 93.9977 37.7035H93.9935Z" fill="#0063C1"></path>
    <path d="M108.801 37.7035H101.351C100.919 37.7035 100.566 37.3603 100.562 36.9333C100.562 36.9124 100.562 36.8915 100.562 36.8664C100.579 36.4102 100.944 36.046 101.401 36.0293H108.851C109.283 36.0293 109.636 36.3725 109.64 36.7994C109.64 36.8203 109.64 36.8413 109.64 36.8664C109.623 37.3226 109.258 37.6867 108.801 37.7035Z" fill="#0063C1"></path>
    <path d="M123.612 37.7035H116.162C115.73 37.7035 115.377 37.3603 115.373 36.9333C115.373 36.9124 115.373 36.8915 115.373 36.8664C115.39 36.4018 115.768 36.0377 116.233 36.0293H123.683C124.115 36.0293 124.468 36.3725 124.472 36.7994C124.472 36.8203 124.472 36.8413 124.472 36.8664C124.455 37.331 124.078 37.6951 123.612 37.7035Z" fill="#0063C1"></path>
    <path d="M138.423 37.7035H130.973C130.541 37.7035 130.188 37.3603 130.184 36.9333C130.184 36.9124 130.184 36.8915 130.184 36.8664C130.201 36.4018 130.579 36.0377 131.045 36.0293H138.49C138.922 36.0293 139.279 36.3725 139.279 36.8078C139.279 36.8287 139.279 36.8496 139.279 36.8664C139.262 37.331 138.885 37.6951 138.419 37.7035H138.423Z" fill="#0063C1"></path>
    <g opacity="0.3">
      <path d="M64.3712 37.7035H56.9215C56.4893 37.7035 56.1367 37.3603 56.1325 36.9333C56.1325 36.9124 56.1325 36.8915 56.1325 36.8664C56.1493 36.4102 56.5144 36.046 56.9719 36.0293H64.4216C64.8539 36.0293 65.2064 36.3725 65.2106 36.7994C65.2106 36.8203 65.2106 36.8413 65.2106 36.8664C65.1938 37.3226 64.8287 37.6867 64.3712 37.7035Z" fill="#101012"></path>
      <path d="M79.1824 37.7035H71.7328C71.3005 37.7035 70.9479 37.3603 70.9437 36.9333C70.9437 36.9124 70.9437 36.8915 70.9437 36.8664C70.9605 36.4018 71.3382 36.0377 71.8041 36.0293H79.2496C79.6819 36.0293 80.0386 36.3725 80.0386 36.8078C80.0386 36.8287 80.0386 36.8496 80.0386 36.8664C80.0218 37.331 79.6441 37.6951 79.1782 37.7035H79.1824Z" fill="#101012"></path>
      <path d="M93.9936 37.7035H86.5439C86.1116 37.7035 85.7549 37.3603 85.7549 36.925C85.7549 36.904 85.7549 36.8831 85.7549 36.8664C85.7717 36.4018 86.1494 36.0377 86.6153 36.0293H94.0691C94.5014 36.0293 94.854 36.3725 94.8582 36.7994C94.8582 36.8203 94.8582 36.8413 94.8582 36.8664C94.8414 37.331 94.4636 37.6993 93.9978 37.7035H93.9936Z" fill="#101012"></path>
      <path d="M108.801 37.7035H101.351C100.919 37.7035 100.566 37.3603 100.562 36.9333C100.562 36.9124 100.562 36.8915 100.562 36.8664C100.579 36.4102 100.944 36.046 101.401 36.0293H108.851C109.283 36.0293 109.636 36.3725 109.64 36.7994C109.64 36.8203 109.64 36.8413 109.64 36.8664C109.623 37.3226 109.258 37.6867 108.801 37.7035Z" fill="#101012"></path>
      <path d="M123.612 37.7035H116.162C115.73 37.7035 115.377 37.3603 115.373 36.9333C115.373 36.9124 115.373 36.8915 115.373 36.8664C115.39 36.4018 115.768 36.0377 116.233 36.0293H123.683C124.115 36.0293 124.468 36.3725 124.472 36.7994C124.472 36.8203 124.472 36.8413 124.472 36.8664C124.455 37.331 124.078 37.6951 123.612 37.7035Z" fill="#101012"></path>
      <path d="M138.423 37.7035H130.973C130.541 37.7035 130.189 37.3603 130.184 36.9333C130.184 36.9124 130.184 36.8915 130.184 36.8664C130.201 36.4018 130.579 36.0377 131.045 36.0293H138.49C138.922 36.0293 139.279 36.3725 139.279 36.8078C139.279 36.8287 139.279 36.8496 139.279 36.8664C139.262 37.331 138.885 37.6951 138.419 37.7035H138.423Z" fill="#101012"></path>
    </g>
    <path d="M64.7822 53.5107H55.0787C54.2141 53.5107 53.509 52.8159 53.509 51.9537C53.509 51.9244 53.509 51.8951 53.509 51.87L53.9287 42.1934C53.9833 41.281 54.7346 40.5653 55.6495 40.5527H65.353C66.2175 40.5527 66.9226 41.2475 66.9226 42.1097C66.9226 42.139 66.9226 42.1683 66.9226 42.1934L66.5029 51.87C66.4484 52.7824 65.6971 53.4981 64.7822 53.5107Z" fill="#0063C1"></path>
    <path d="M79.5936 53.5107H69.8902C69.0298 53.5149 68.3247 52.8243 68.3163 51.9663C68.3163 51.9328 68.3163 51.9035 68.3163 51.87L68.736 42.1934C68.7905 41.281 69.5418 40.5653 70.4568 40.5527H80.1728C81.0416 40.5527 81.7467 41.2475 81.7467 42.1139C81.7467 42.139 81.7467 42.1683 81.7467 42.1934L81.306 51.87C81.2556 52.7824 80.5044 53.4981 79.5894 53.5107H79.5936Z" fill="#0063C1"></path>
    <path d="M94.4006 53.5107H84.7014C83.8326 53.5107 83.1275 52.8159 83.1275 51.9496C83.1275 51.9245 83.1275 51.8952 83.1275 51.87L83.5472 42.1934C83.6018 41.281 84.353 40.5653 85.268 40.5528H94.9672C95.8276 40.5486 96.5327 41.2392 96.5411 42.0972C96.5411 42.1306 96.5411 42.1599 96.5411 42.1934L96.1214 51.87C96.0668 52.7825 95.3198 53.4982 94.4048 53.5107H94.4006Z" fill="#0063C1"></path>
    <path d="M109.212 53.5107H99.5252C98.6606 53.5149 97.9555 52.8201 97.9513 51.9579C97.9513 51.9286 97.9513 51.8993 97.9513 51.87L98.371 42.1934C98.4214 41.281 99.1726 40.5653 100.088 40.5527H109.791C110.656 40.5527 111.361 41.2475 111.361 42.1097C111.361 42.139 111.361 42.1683 111.361 42.1934L110.941 51.87C110.886 52.7866 110.131 53.5023 109.212 53.5107Z" fill="#0063C1"></path>
    <path d="M124.023 53.5107H114.32C113.455 53.5107 112.75 52.8159 112.75 51.9538C112.75 51.9245 112.75 51.8952 112.75 51.87L113.17 42.1934C113.224 41.281 113.975 40.5653 114.89 40.5528H124.59C125.454 40.5486 126.159 41.2433 126.163 42.1055C126.163 42.1348 126.163 42.1641 126.163 42.1934L125.744 51.87C125.689 52.7825 124.938 53.4982 124.023 53.5107Z" fill="#0063C1"></path>
    <path d="M138.83 53.5107H129.131C128.27 53.5149 127.565 52.8243 127.557 51.9663C127.557 51.9328 127.557 51.9035 127.557 51.87L127.977 42.1934C128.031 41.281 128.782 40.5653 129.697 40.5527H139.397C140.265 40.5527 140.97 41.2475 140.97 42.1139C140.97 42.139 140.97 42.1683 140.97 42.1934L140.53 51.87C140.479 52.7783 139.737 53.494 138.826 53.5107H138.83Z" fill="#0063C1"></path>
    <g opacity="0.8">
      <path d="M64.7824 53.5107H55.079C54.2144 53.5107 53.5093 52.8159 53.5093 51.9537C53.5093 51.9244 53.5093 51.8951 53.5093 51.87L53.929 42.1934C53.9835 41.281 54.7348 40.5653 55.6497 40.5527H65.3532C66.2178 40.5527 66.9229 41.2475 66.9229 42.1097C66.9229 42.139 66.9229 42.1683 66.9229 42.1934L66.5032 51.87C66.4486 52.7824 65.6974 53.4981 64.7824 53.5107Z" fill="#FAFAFA"></path>
      <path d="M79.5936 53.5107H69.8902C69.0298 53.5149 68.3247 52.8243 68.3163 51.9663C68.3163 51.9328 68.3163 51.9035 68.3163 51.87L68.736 42.1934C68.7905 41.281 69.5418 40.5653 70.4568 40.5527H80.1728C81.0416 40.5527 81.7467 41.2475 81.7467 42.1139C81.7467 42.139 81.7467 42.1683 81.7467 42.1934L81.306 51.87C81.2556 52.7824 80.5044 53.4981 79.5894 53.5107H79.5936Z" fill="#FAFAFA"></path>
      <path d="M94.4006 53.5107H84.7014C83.8326 53.5107 83.1275 52.8159 83.1275 51.9496C83.1275 51.9245 83.1275 51.8952 83.1275 51.87L83.5472 42.1934C83.6018 41.281 84.353 40.5653 85.268 40.5528H94.9672C95.8276 40.5486 96.5327 41.2392 96.5411 42.0972C96.5411 42.1306 96.5411 42.1599 96.5411 42.1934L96.1214 51.87C96.0668 52.7825 95.3198 53.4982 94.4048 53.5107H94.4006Z" fill="#FAFAFA"></path>
      <path d="M109.212 53.5107H99.5251C98.6605 53.5149 97.9554 52.8201 97.9512 51.9579C97.9512 51.9286 97.9512 51.8993 97.9512 51.87L98.3709 42.1934C98.4213 41.281 99.1726 40.5653 100.088 40.5527H109.791C110.656 40.5527 111.361 41.2475 111.361 42.1097C111.361 42.139 111.361 42.1683 111.361 42.1934L110.941 51.87C110.886 52.7866 110.131 53.5023 109.212 53.5107Z" fill="#FAFAFA"></path>
      <path d="M124.023 53.5107H114.32C113.455 53.5107 112.75 52.8159 112.75 51.9538C112.75 51.9245 112.75 51.8952 112.75 51.87L113.17 42.1934C113.224 41.281 113.975 40.5653 114.89 40.5528H124.59C125.454 40.5486 126.159 41.2433 126.163 42.1055C126.163 42.1348 126.163 42.1641 126.163 42.1934L125.744 51.87C125.689 52.7825 124.938 53.4982 124.023 53.5107Z" fill="#FAFAFA"></path>
      <path d="M138.83 53.5107H129.131C128.27 53.5149 127.565 52.8243 127.557 51.9663C127.557 51.9328 127.557 51.9035 127.557 51.87L127.977 42.1934C128.031 41.281 128.782 40.5653 129.697 40.5527H139.397C140.265 40.5527 140.97 41.2475 140.97 42.1139C140.97 42.139 140.97 42.1683 140.97 42.1934L140.53 51.87C140.479 52.7783 139.737 53.494 138.826 53.5107H138.83Z" fill="#FAFAFA"></path>
    </g>
    <path d="M64.1022 68.5244H54.3988C53.5342 68.5244 52.8291 67.8296 52.8291 66.9674C52.8291 66.9381 52.8291 66.9088 52.8291 66.8837L53.2488 57.2071C53.3034 56.2947 54.0546 55.579 54.9696 55.5664H64.6898C65.5544 55.5664 66.2595 56.2612 66.2595 57.1234C66.2595 57.1527 66.2595 57.182 66.2595 57.2071L65.8398 66.8837C65.7852 67.8003 65.0256 68.5202 64.1022 68.5244Z" fill="#0063C1"></path>
    <path d="M78.9134 68.5244H69.21C68.3454 68.5244 67.6403 67.8296 67.6403 66.9674C67.6403 66.9381 67.6403 66.9088 67.6403 66.8837L68.06 57.2071C68.1146 56.2947 68.8658 55.579 69.7808 55.5664H79.48C80.3488 55.5622 81.0539 56.257 81.0623 57.1192C81.0623 57.1527 81.0623 57.1862 81.0623 57.2238L80.6426 66.8837C80.5922 67.8003 79.8368 68.516 78.9176 68.5244H78.9134Z" fill="#0063C1"></path>
    <path d="M93.7207 68.5244H84.0214C83.1611 68.5286 82.456 67.838 82.4476 66.98C82.4476 66.9465 82.4476 66.9172 82.4476 66.8837L82.8673 57.2071C82.9218 56.2947 83.6731 55.579 84.588 55.5664H94.2873C95.1477 55.5622 95.8528 56.2528 95.8612 57.1108C95.8612 57.1443 95.8612 57.1736 95.8612 57.2071L95.4415 66.8837C95.3869 67.7961 94.6356 68.5118 93.7207 68.5244Z" fill="#0063C1"></path>
    <path d="M108.532 68.5247H98.8327C97.9639 68.5247 97.2588 67.8299 97.2588 66.9635C97.2588 66.9384 97.2588 66.9091 97.2588 66.884L97.6785 57.2074C97.7289 56.295 98.4801 55.5793 99.3951 55.5667H109.099C109.963 55.55 110.677 56.2364 110.693 57.0986C110.693 57.1404 110.693 57.1823 110.693 57.2241L110.274 66.9007C110.211 67.8132 109.451 68.5205 108.536 68.5247H108.532Z" fill="#0063C1"></path>
    <path d="M123.343 68.5235H113.64C112.775 68.5235 112.07 67.8288 112.07 66.9666C112.07 66.9373 112.07 66.908 112.07 66.8829L112.49 57.2062C112.536 56.2855 113.291 55.5614 114.215 55.5488H123.918C124.783 55.5488 125.488 56.2436 125.488 57.1058C125.488 57.1351 125.488 57.1644 125.488 57.1895L125.068 66.8661C125.022 67.7869 124.266 68.511 123.343 68.5235Z" fill="#0063C1"></path>
    <path d="M138.137 68.5244H128.451C127.59 68.5286 126.885 67.838 126.877 66.98C126.877 66.9465 126.877 66.9172 126.877 66.8837L127.297 57.2071C127.351 56.2947 128.102 55.579 129.017 55.5664H138.717C139.585 55.5664 140.291 56.2612 140.291 57.1276C140.291 57.1527 140.291 57.182 140.291 57.2071L139.85 66.8837C139.799 67.7961 139.048 68.5118 138.133 68.5244H138.137Z" fill="#0063C1"></path>
    <g opacity="0.8">
      <path d="M64.1022 68.5263H54.3988C53.5342 68.5263 52.8291 67.8316 52.8291 66.9694C52.8291 66.9401 52.8291 66.9108 52.8291 66.8857L53.2488 57.209C53.3034 56.2966 54.0546 55.5809 54.9696 55.5684H64.6898C65.5544 55.5684 66.2595 56.2631 66.2595 57.1253C66.2595 57.1546 66.2595 57.1839 66.2595 57.209L65.8398 66.8857C65.7852 67.8023 65.0256 68.5221 64.1022 68.5263Z" fill="#FAFAFA"></path>
      <path d="M78.9134 68.5263H69.21C68.3454 68.5263 67.6403 67.8316 67.6403 66.9694C67.6403 66.9401 67.6403 66.9108 67.6403 66.8857L68.06 57.2091C68.1146 56.2966 68.8658 55.5809 69.7808 55.5684H79.48C80.3488 55.5642 81.0539 56.259 81.0623 57.1212C81.0623 57.1546 81.0623 57.1881 81.0623 57.2258L80.6426 66.8857C80.5922 67.8023 79.8368 68.518 78.9176 68.5263H78.9134Z" fill="#FAFAFA"></path>
      <path d="M93.7205 68.5263H84.0212C83.1608 68.5305 82.4557 67.8399 82.4473 66.9819C82.4473 66.9485 82.4473 66.9192 82.4473 66.8857L82.867 57.2091C82.9216 56.2966 83.6728 55.5809 84.5878 55.5684H94.2871C95.1474 55.5642 95.8525 56.2548 95.8609 57.1128C95.8609 57.1463 95.8609 57.1756 95.8609 57.2091L95.4412 66.8857C95.3867 67.7981 94.6354 68.5138 93.7205 68.5263Z" fill="#FAFAFA"></path>
      <path d="M108.532 68.5247H98.8324C97.9636 68.5247 97.2585 67.8299 97.2585 66.9635C97.2585 66.9384 97.2585 66.9091 97.2585 66.884L97.6782 57.2074C97.7285 56.295 98.4798 55.5793 99.3948 55.5667H109.098C109.963 55.55 110.676 56.2364 110.693 57.0986C110.693 57.1404 110.693 57.1823 110.693 57.2241L110.273 66.9007C110.21 67.8132 109.451 68.5205 108.536 68.5247H108.532Z" fill="#FAFAFA"></path>
      <path d="M123.343 68.5255H113.639C112.775 68.5255 112.07 67.8307 112.07 66.9685C112.07 66.9392 112.07 66.9099 112.07 66.8848L112.489 57.2082C112.536 56.2874 113.291 55.5633 114.214 55.5508H123.918C124.782 55.5508 125.487 56.2456 125.487 57.1077C125.487 57.137 125.487 57.1663 125.487 57.1915L125.068 66.8681C125.022 67.7889 124.266 68.5129 123.343 68.5255Z" fill="#FAFAFA"></path>
      <path d="M138.137 68.5263H128.451C127.59 68.5305 126.885 67.8399 126.877 66.9819C126.877 66.9484 126.877 66.9191 126.877 66.8857L127.296 57.209C127.351 56.2966 128.102 55.5809 129.017 55.5684H138.716C139.585 55.5684 140.29 56.2631 140.29 57.1295C140.29 57.1546 140.29 57.1839 140.29 57.209L139.85 66.8857C139.799 67.7981 139.048 68.5138 138.133 68.5263H138.137Z" fill="#FAFAFA"></path>
    </g>
    <path d="M63.431 83.5339H53.7191C52.8588 83.5381 52.1537 82.8475 52.1453 81.9895C52.1453 81.956 52.1453 81.9267 52.1453 81.8932L52.565 72.2208C52.6195 71.3084 53.3708 70.5927 54.2857 70.5801H63.9892C64.8496 70.5759 65.5547 71.2665 65.5631 72.1245C65.5631 72.158 65.5631 72.1873 65.5631 72.2208L65.1434 81.8932C65.093 82.8014 64.3459 83.5213 63.431 83.5339Z" fill="#0063C1"></path>
    <path d="M78.2338 83.5339H68.5304C67.67 83.5381 66.9649 82.8475 66.9565 81.9895C66.9565 81.956 66.9565 81.9267 66.9565 81.8933L67.3762 72.2208C67.4265 71.3084 68.1778 70.5885 69.0969 70.5802H78.7962C79.6566 70.5718 80.3659 71.2624 80.3743 72.1204C80.3743 72.1539 80.3743 72.1873 80.3743 72.2208L79.9546 81.8933C79.9042 82.8057 79.1529 83.5256 78.2338 83.5339Z" fill="#0063C1"></path>
    <path d="M93.0408 83.5339H83.3416C82.4812 83.5381 81.7761 82.8475 81.7677 81.9895C81.7677 81.956 81.7677 81.9267 81.7677 81.8932L82.1874 72.2208C82.2378 71.3084 82.989 70.5885 83.9082 70.5801H93.6452C94.5098 70.5759 95.2149 71.2707 95.2191 72.1329C95.2191 72.1622 95.2191 72.1915 95.2191 72.2208L94.7784 81.8932C94.728 82.814 93.9642 83.5339 93.0366 83.5339H93.0408Z" fill="#0063C1"></path>
    <path d="M107.852 83.5339H98.1527C97.2881 83.5381 96.5831 82.8433 96.5789 81.9811C96.5789 81.9518 96.5789 81.9225 96.5789 81.8932L96.9986 72.2208C97.0489 71.3084 97.8002 70.5885 98.7151 70.5801H108.419C109.279 70.5759 109.984 71.2665 109.992 72.1245C109.992 72.158 109.992 72.1873 109.992 72.2208L109.573 81.8932C109.522 82.8056 108.771 83.5213 107.856 83.5339H107.852Z" fill="#0063C1"></path>
    <path d="M122.663 83.5339H112.956C112.095 83.5381 111.39 82.8475 111.382 81.9895C111.382 81.956 111.382 81.9267 111.382 81.8932L111.801 72.2208C111.856 71.3084 112.607 70.5927 113.522 70.5801H123.226C124.086 70.5759 124.791 71.2665 124.799 72.1245C124.799 72.158 124.799 72.1873 124.799 72.2208L124.38 81.8932C124.325 82.8056 123.578 83.5213 122.663 83.5339Z" fill="#0063C1"></path>
    <path d="M137.474 83.5339H127.771C126.911 83.5381 126.205 82.8475 126.197 81.9895C126.197 81.956 126.197 81.9267 126.197 81.8932L126.617 72.2208C126.667 71.3084 127.418 70.5885 128.338 70.5801H138.037C138.901 70.5759 139.606 71.2707 139.611 72.1329C139.611 72.1622 139.611 72.1915 139.611 72.2208L139.17 81.8932C139.124 82.8014 138.381 83.5171 137.47 83.5339H137.474Z" fill="#0063C1"></path>
    <g opacity="0.8">
      <path d="M63.4312 83.5339H53.7194C52.859 83.5381 52.1539 82.8475 52.1455 81.9895C52.1455 81.956 52.1455 81.9267 52.1455 81.8932L52.5652 72.2208C52.6198 71.3084 53.371 70.5927 54.286 70.5801H63.9894C64.8498 70.5759 65.5549 71.2665 65.5633 72.1245C65.5633 72.158 65.5633 72.1873 65.5633 72.2208L65.1436 81.8932C65.0932 82.8014 64.3462 83.5213 63.4312 83.5339Z" fill="#FAFAFA"></path>
      <path d="M78.2341 83.5339H68.5306C67.6702 83.5381 66.9651 82.8475 66.9567 81.9895C66.9567 81.956 66.9567 81.9267 66.9567 81.8933L67.3764 72.2208C67.4268 71.3084 68.1781 70.5885 69.0972 70.5802H78.7964C79.6568 70.5718 80.3661 71.2624 80.3745 72.1204C80.3745 72.1539 80.3745 72.1873 80.3745 72.2208L79.9548 81.8933C79.9045 82.8057 79.1532 83.5256 78.2341 83.5339Z" fill="#FAFAFA"></path>
      <path d="M93.041 83.5339H83.3418C82.4814 83.5381 81.7763 82.8475 81.7679 81.9895C81.7679 81.956 81.7679 81.9267 81.7679 81.8932L82.1876 72.2208C82.2379 71.3084 82.9892 70.5885 83.9084 70.5801H93.6454C94.51 70.5759 95.2151 71.2707 95.2193 72.1329C95.2193 72.1622 95.2193 72.1915 95.2193 72.2208L94.7786 81.8932C94.7282 82.814 93.9644 83.5339 93.0368 83.5339H93.041Z" fill="#FAFAFA"></path>
      <path d="M107.852 83.5339H98.153C97.2884 83.5381 96.5833 82.8433 96.5791 81.9811C96.5791 81.9518 96.5791 81.9225 96.5791 81.8932L96.9988 72.2208C97.0492 71.3084 97.8004 70.5885 98.7154 70.5801H108.419C109.279 70.5759 109.984 71.2665 109.993 72.1245C109.993 72.158 109.993 72.1873 109.993 72.2208L109.573 81.8932C109.523 82.8056 108.771 83.5213 107.856 83.5339H107.852Z" fill="#FAFAFA"></path>
      <path d="M122.663 83.5339H112.955C112.095 83.5381 111.39 82.8475 111.382 81.9895C111.382 81.956 111.382 81.9267 111.382 81.8932L111.801 72.2208C111.856 71.3084 112.607 70.5927 113.522 70.5801H123.226C124.086 70.5759 124.791 71.2665 124.799 72.1245C124.799 72.158 124.799 72.1873 124.799 72.2208L124.38 81.8932C124.325 82.8056 123.578 83.5213 122.663 83.5339Z" fill="#FAFAFA"></path>
      <path d="M137.475 83.5339H127.771C126.911 83.5381 126.206 82.8475 126.197 81.9895C126.197 81.956 126.197 81.9267 126.197 81.8932L126.617 72.2208C126.667 71.3084 127.419 70.5885 128.338 70.5801H138.037C138.902 70.5759 139.607 71.2707 139.611 72.1329C139.611 72.1622 139.611 72.1915 139.611 72.2208L139.17 81.8932C139.124 82.8014 138.381 83.5171 137.47 83.5339H137.475Z" fill="#FAFAFA"></path>
    </g>
    <path d="M60.682 32.7143C57.1061 32.7143 54.3026 28.5666 54.3026 23.272C54.3026 17.9775 57.1061 13.834 60.682 13.834C64.2578 13.834 67.0656 17.9817 67.0656 23.272C67.032 23.812 66.562 24.2221 66.0206 24.1845C65.5295 24.151 65.135 23.7617 65.1056 23.272C65.1056 19.2164 63.0827 15.7844 60.682 15.7844C58.2813 15.7844 56.2584 19.2164 56.2584 23.272C56.2584 27.3277 58.2855 30.7597 60.682 30.7597C61.2234 30.7262 61.6893 31.1322 61.727 31.6721C61.7648 32.212 61.3535 32.6766 60.8121 32.7143C60.7701 32.7143 60.7282 32.7143 60.682 32.7143Z" fill="#0063C1"></path>
    <path d="M75.4931 32.7143C71.9173 32.7143 69.1137 28.5666 69.1137 23.272C69.1137 17.9775 71.9173 13.834 75.4931 13.834C79.069 13.834 81.8978 17.9817 81.8978 23.272C81.8642 23.812 81.3941 24.2221 80.8527 24.1845C80.3617 24.151 79.9671 23.7617 79.9378 23.272C79.9378 19.2164 77.9148 15.7844 75.5141 15.7844C73.1134 15.7844 71.0905 19.2164 71.0905 23.272C71.0905 27.3277 73.1176 30.7597 75.5141 30.7597C76.0555 30.7932 76.4668 31.2619 76.4291 31.8019C76.3955 32.2916 76.0052 32.685 75.5141 32.7143H75.4931Z" fill="#0063C1"></path>
    <path d="M90.2918 32.7143C86.7117 32.7143 83.9081 28.5666 83.9081 23.272C83.9081 17.9775 86.7117 13.834 90.2918 13.834C93.8718 13.834 96.6712 17.9817 96.6712 23.272C96.6712 23.812 96.2347 24.2472 95.6933 24.2472C95.1519 24.2472 94.7154 23.812 94.7154 23.272C94.7154 19.2164 92.6883 15.7844 90.2918 15.7844C87.8953 15.7844 85.8681 19.2164 85.8681 23.272C85.8681 27.3277 87.8953 30.7597 90.2918 30.7597C90.8332 30.7932 91.2445 31.2619 91.2067 31.8019C91.1731 32.2916 90.7828 32.685 90.2918 32.7143Z" fill="#0063C1"></path>
    <path d="M105.116 32.7143C101.536 32.7143 98.7319 28.5666 98.7319 23.272C98.7319 17.9775 101.536 13.834 105.116 13.834C108.696 13.834 111.495 17.9817 111.495 23.272C111.495 23.812 111.059 24.2472 110.517 24.2472C109.976 24.2472 109.539 23.812 109.539 23.272C109.539 19.2164 107.512 15.7844 105.116 15.7844C102.719 15.7844 100.692 19.2164 100.692 23.272C100.692 27.3277 102.715 30.7597 105.116 30.7597C105.657 30.7932 106.068 31.2619 106.031 31.8019C105.997 32.2916 105.607 32.685 105.116 32.7143Z" fill="#0063C1"></path>
    <path d="M119.923 32.7143C116.347 32.7143 113.543 28.5666 113.543 23.272C113.543 17.9775 116.347 13.834 119.923 13.834C123.498 13.834 126.306 17.9817 126.306 23.272C126.273 23.812 125.803 24.2221 125.261 24.1845C124.77 24.151 124.376 23.7617 124.346 23.272C124.346 19.2164 122.323 15.7844 119.923 15.7844C117.522 15.7844 115.499 19.2164 115.499 23.272C115.499 27.3277 117.526 30.7597 119.923 30.7597C120.464 30.7262 120.93 31.1322 120.968 31.6721C121.005 32.212 120.594 32.6766 120.053 32.7143C120.011 32.7143 119.969 32.7143 119.923 32.7143Z" fill="#0063C1"></path>
    <path d="M134.734 32.7143C131.158 32.7143 128.354 28.5666 128.354 23.272C128.354 17.9775 131.158 13.834 134.734 13.834C138.31 13.834 141.117 17.9817 141.117 23.272C141.084 23.812 140.614 24.2221 140.072 24.1845C139.581 24.151 139.187 23.7617 139.157 23.272C139.157 19.2164 137.13 15.7844 134.734 15.7844C132.337 15.7844 130.31 19.2164 130.31 23.272C130.31 27.3277 132.337 30.7597 134.734 30.7597C135.275 30.7932 135.686 31.2619 135.649 31.8019C135.615 32.2916 135.225 32.685 134.734 32.7143Z" fill="#0063C1"></path>
    <g opacity="0.3">
      <path d="M60.6822 32.7143C57.1064 32.7143 54.3028 28.5666 54.3028 23.272C54.3028 17.9775 57.1064 13.834 60.6822 13.834C64.2581 13.834 67.0659 17.9817 67.0659 23.272C67.0323 23.812 66.5622 24.2221 66.0208 24.1845C65.5298 24.151 65.1352 23.7617 65.1059 23.272C65.1059 19.2164 63.0829 15.7844 60.6822 15.7844C58.2815 15.7844 56.2586 19.2164 56.2586 23.272C56.2586 27.3277 58.2857 30.7597 60.6822 30.7597C61.2236 30.7262 61.6895 31.1322 61.7273 31.6721C61.7651 32.212 61.3537 32.6766 60.8123 32.7143C60.7704 32.7143 60.7284 32.7143 60.6822 32.7143Z" fill="#101012"></path>
      <path d="M75.4934 32.7143C71.9176 32.7143 69.114 28.5666 69.114 23.272C69.114 17.9775 71.9176 13.834 75.4934 13.834C79.0693 13.834 81.8981 17.9817 81.8981 23.272C81.8645 23.812 81.3944 24.2221 80.853 24.1845C80.362 24.151 79.9674 23.7617 79.9381 23.272C79.9381 19.2164 77.9151 15.7844 75.5144 15.7844C73.1138 15.7844 71.0908 19.2164 71.0908 23.272C71.0908 27.3277 73.1179 30.7597 75.5144 30.7597C76.0558 30.7932 76.4671 31.2619 76.4294 31.8019C76.3958 32.2916 76.0055 32.685 75.5144 32.7143H75.4934Z" fill="#101012"></path>
      <path d="M90.292 32.7143C86.712 32.7143 83.9084 28.5666 83.9084 23.272C83.9084 17.9775 86.712 13.834 90.292 13.834C93.8721 13.834 96.6714 17.9817 96.6714 23.272C96.6714 23.812 96.235 24.2472 95.6935 24.2472C95.1521 24.2472 94.7156 23.812 94.7156 23.272C94.7156 19.2164 92.6885 15.7844 90.292 15.7844C87.8955 15.7844 85.8684 19.2164 85.8684 23.272C85.8684 27.3277 87.8955 30.7597 90.292 30.7597C90.8334 30.7932 91.2447 31.2619 91.207 31.8019C91.1734 32.2916 90.7831 32.685 90.292 32.7143Z" fill="#101012"></path>
      <path d="M105.116 32.7143C101.536 32.7143 98.7322 28.5666 98.7322 23.272C98.7322 17.9775 101.536 13.834 105.116 13.834C108.696 13.834 111.495 17.9817 111.495 23.272C111.495 23.812 111.059 24.2472 110.517 24.2472C109.976 24.2472 109.539 23.812 109.539 23.272C109.539 19.2164 107.512 15.7844 105.116 15.7844C102.719 15.7844 100.692 19.2164 100.692 23.272C100.692 27.3277 102.715 30.7597 105.116 30.7597C105.657 30.7932 106.069 31.2619 106.031 31.8019C105.997 32.2916 105.607 32.685 105.116 32.7143Z" fill="#101012"></path>
      <path d="M119.923 32.7143C116.347 32.7143 113.543 28.5666 113.543 23.272C113.543 17.9775 116.347 13.834 119.923 13.834C123.499 13.834 126.306 17.9817 126.306 23.272C126.273 23.812 125.803 24.2221 125.261 24.1845C124.77 24.151 124.376 23.7617 124.346 23.272C124.346 19.2164 122.324 15.7844 119.923 15.7844C117.522 15.7844 115.499 19.2164 115.499 23.272C115.499 27.3277 117.526 30.7597 119.923 30.7597C120.464 30.7262 120.93 31.1322 120.968 31.6721C121.006 32.212 120.594 32.6766 120.053 32.7143C120.011 32.7143 119.969 32.7143 119.923 32.7143Z" fill="#101012"></path>
      <path d="M134.734 32.7143C131.158 32.7143 128.355 28.5666 128.355 23.272C128.355 17.9775 131.158 13.834 134.734 13.834C138.31 13.834 141.118 17.9817 141.118 23.272C141.084 23.812 140.614 24.2221 140.073 24.1845C139.582 24.151 139.187 23.7617 139.158 23.272C139.158 19.2164 137.131 15.7844 134.734 15.7844C132.338 15.7844 130.31 19.2164 130.31 23.272C130.31 27.3277 132.338 30.7597 134.734 30.7597C135.275 30.7932 135.687 31.2619 135.649 31.8019C135.615 32.2916 135.225 32.685 134.734 32.7143Z" fill="#101012"></path>
    </g>
    <path d="M106.106 54.0524C102.681 53.3744 98.8366 54.1654 97.4642 57.7649C96.3604 60.6612 97.7748 63.8002 100.822 64.5661C103.508 65.24 108.141 64.4155 109.098 61.3266C110.194 57.7942 105.741 56.6474 103.243 56.4381C102.492 56.3753 102.496 57.5472 103.243 57.61C104.381 57.7063 105.682 57.7691 106.689 58.3927C108.788 59.7027 107.923 61.8038 106.135 62.8083C104.347 63.8128 101.607 64.0639 99.8397 62.9506C97.9091 61.7243 97.8461 59.0289 99.0003 57.271C100.515 54.9481 103.281 54.6886 105.774 55.1783C106.513 55.3248 106.828 54.1947 106.085 54.0482H106.106V54.0524Z" fill="#0063C1"></path>
    <path opacity="0.1" d="M106.106 54.0524C102.681 53.3744 98.8366 54.1654 97.4642 57.7649C96.3604 60.6612 97.7748 63.8002 100.822 64.5661C103.508 65.24 108.141 64.4155 109.098 61.3266C110.194 57.7942 105.741 56.6474 103.243 56.4381C102.492 56.3753 102.496 57.5472 103.243 57.61C104.381 57.7063 105.682 57.7691 106.689 58.3927C108.788 59.7027 107.923 61.8038 106.135 62.8083C104.347 63.8128 101.607 64.0639 99.8397 62.9506C97.9091 61.7243 97.8461 59.0289 99.0003 57.271C100.515 54.9481 103.281 54.6886 105.774 55.1783C106.513 55.3248 106.828 54.1947 106.085 54.0482H106.106V54.0524Z" fill="#FAFAFA"></path>
    <path d="M68.3203 40.5694C71.5939 44.9013 75.2453 48.9318 79.2325 52.6233C79.7865 53.1381 80.6217 52.3094 80.0719 51.7863C76.1561 48.1701 72.5635 44.2149 69.3402 39.9709C68.8911 39.3766 67.8712 39.9709 68.3287 40.561L68.3203 40.5694Z" fill="#0063C1"></path>
    <path d="M69.5332 52.1351C72.0095 47.7446 76.3449 43.9987 80.4454 41.1317C81.0582 40.7132 80.4748 39.6836 79.8536 40.1189C75.5895 43.1072 71.1071 46.9662 68.5217 51.5408C68.3707 51.8254 68.4798 52.1812 68.7652 52.3318C69.0338 52.4741 69.3653 52.3862 69.5332 52.1351Z" fill="#0063C1"></path>
    <g opacity="0.2">
      <path d="M68.3206 40.5694C71.5943 44.9013 75.2456 48.9318 79.2328 52.6233C79.7868 53.1381 80.622 52.3094 80.0722 51.7863C76.1564 48.1701 72.5638 44.2149 69.3405 39.9709C68.8914 39.3766 67.8715 39.9709 68.329 40.561L68.3206 40.5694Z" fill="#101012"></path>
      <path d="M69.5335 52.1332C72.0098 47.7427 76.3453 43.9968 80.4457 41.1298C81.0585 40.7112 80.4751 39.6816 79.8539 40.1169C75.5898 43.1053 71.1074 46.9642 68.5221 51.5388C68.371 51.8234 68.4801 52.1792 68.7655 52.3299C69.0341 52.4722 69.3656 52.3843 69.5335 52.1332Z" fill="#101012"></path>
    </g>
    <path d="M114.999 44.3162H122.659C122.982 44.2869 123.221 44.0064 123.196 43.6842C123.171 43.3996 122.944 43.1735 122.659 43.1484H114.999C114.676 43.1777 114.437 43.4582 114.462 43.7804C114.487 44.065 114.714 44.291 114.999 44.3162Z" fill="#0063C1"></path>
    <path d="M114.911 46.4883H119.352C119.675 46.4883 119.939 46.2246 119.939 45.9024C119.939 45.5801 119.675 45.3206 119.352 45.3164H114.911C114.588 45.3164 114.324 45.5801 114.324 45.9024C114.324 46.2246 114.588 46.4841 114.911 46.4883Z" fill="#0063C1"></path>
    <g opacity="0.1">
      <path d="M114.999 44.3162H122.659C122.982 44.2869 123.221 44.0064 123.196 43.6842C123.171 43.3996 122.944 43.1735 122.659 43.1484H114.999C114.676 43.1777 114.437 43.4582 114.462 43.7804C114.487 44.065 114.714 44.291 114.999 44.3162Z" fill="#FAFAFA"></path>
      <path d="M114.911 46.4883H119.352C119.675 46.4883 119.939 46.2246 119.939 45.9024C119.939 45.5801 119.675 45.3206 119.352 45.3164H114.911C114.588 45.3164 114.324 45.5801 114.324 45.9024C114.324 46.2246 114.588 46.4841 114.911 46.4883Z" fill="#FAFAFA"></path>
    </g>
    <path d="M69.1219 74.3008H75.6902C76.0133 74.3008 76.2778 74.0371 76.2778 73.7149C76.2778 73.3926 76.0133 73.1331 75.6902 73.1289H69.1219C68.7987 73.1289 68.5343 73.3926 68.5343 73.7149C68.5343 74.0371 68.7987 74.2966 69.1219 74.3008Z" fill="#0063C1"></path>
    <path d="M68.8871 76.8164H77.407C77.7302 76.8164 77.9946 76.5528 77.9946 76.2305C77.9946 75.9082 77.7302 75.6487 77.407 75.6445H68.8871C68.5639 75.6445 68.2995 75.9082 68.2995 76.2305C68.2995 76.5528 68.5639 76.8123 68.8871 76.8164Z" fill="#0063C1"></path>
    <path d="M68.8871 79.4063H73.147C73.4702 79.4063 73.7346 79.1426 73.7346 78.8203C73.7346 78.4981 73.4702 78.2386 73.147 78.2344H68.8871C68.5639 78.2344 68.2995 78.4981 68.2995 78.8203C68.2995 79.1426 68.5639 79.4021 68.8871 79.4063Z" fill="#0063C1"></path>
    <g opacity="0.1">
      <path d="M69.1221 74.3008H75.6904C76.0136 74.3008 76.278 74.0371 76.278 73.7149C76.278 73.3926 76.0136 73.1331 75.6904 73.1289H69.1221C68.799 73.1289 68.5345 73.3926 68.5345 73.7149C68.5345 74.0371 68.799 74.2966 69.1221 74.3008Z" fill="#FAFAFA"></path>
      <path d="M68.8871 76.8164H77.407C77.7302 76.8164 77.9946 76.5528 77.9946 76.2305C77.9946 75.9082 77.7302 75.6487 77.407 75.6445H68.8871C68.5639 75.6445 68.2995 75.9082 68.2995 76.2305C68.2995 76.5528 68.5639 76.8123 68.8871 76.8164Z" fill="#FAFAFA"></path>
      <path d="M68.8871 79.4063H73.147C73.4702 79.4063 73.7346 79.1426 73.7346 78.8203C73.7346 78.4981 73.4702 78.2386 73.147 78.2344H68.8871C68.5639 78.2344 68.2995 78.4981 68.2995 78.8203C68.2995 79.1426 68.5639 79.4021 68.8871 79.4063Z" fill="#FAFAFA"></path>
    </g>
  </g>
  <defs>
    <clipPath id="clip0_607_10821">
      <rect width="114.167" height="79.1667" fill="white" transform="translate(43 13.834)"></rect>
    </clipPath>
  </defs>
</svg>
