<?xml version="1.0" encoding="UTF-8"?>
<svg xmlns="http://www.w3.org/2000/svg" width="44" height="45" viewBox="0 0 44 45" fill="none">
  <path d="M0.701172 14.8594H43.3125V34.8039C43.3125 37.6766 40.987 40.0021 38.1143 40.0021H5.91302C3.04035 40.0021 0.714844 37.6766 0.714844 34.8039V14.8594H0.701172Z" fill="#00a5fb"></path>
  <path d="M5.89935 4.99609H38.1007C40.9733 4.99609 43.2988 7.3216 43.2988 10.1943V11.74H0.6875V10.1943C0.6875 7.3216 3.013 4.99609 5.88567 4.99609H5.89935Z" fill="#ff7800"></path>
  <path d="M34.0789 28.6074H23.792C22.6135 28.6074 21.6581 29.5628 21.6581 30.7414C21.6581 31.92 22.6135 32.8754 23.792 32.8754H34.0789C35.2575 32.8754 36.2129 31.92 36.2129 30.7414C36.2129 29.5628 35.2575 28.6074 34.0789 28.6074Z" fill="#ff7800"></path>
  <path d="M34.0789 20.6719H24.1477C22.9691 20.6719 22.0137 21.6273 22.0137 22.8059C22.0137 23.9844 22.9691 24.9398 24.1477 24.9398H34.0789C35.2575 24.9398 36.2129 23.9844 36.2129 22.8059C36.2129 21.6273 35.2575 20.6719 34.0789 20.6719Z" fill="#ff7800"></path>
  <path d="M16.5966 23.9144H14.5584V21.8762C14.5584 20.6997 13.6009 19.7422 12.4244 19.7422C11.248 19.7422 10.2904 20.6997 10.2904 21.8762V23.9144H8.25221C7.07578 23.9144 6.11823 24.872 6.11823 26.0484C6.11823 27.2248 7.07578 28.1824 8.25221 28.1824H10.2904V30.2206C10.2904 31.397 11.248 32.3546 12.4244 32.3546C13.6009 32.3546 14.5584 31.397 14.5584 30.2206V28.1824H16.5966C17.7731 28.1824 18.7306 27.2248 18.7306 26.0484C18.7306 24.872 17.7731 23.9144 16.5966 23.9144Z" fill="#ff7800"></path>
</svg>
