<?xml version="1.0" encoding="UTF-8"?>
<svg xmlns="http://www.w3.org/2000/svg" width="65" height="64" viewBox="0 0 65 64" fill="none">
  <path d="M4.33496 12C4.33496 7.58172 7.91668 4 12.335 4H52.335C56.7532 4 60.335 7.58172 60.335 12V52C60.335 56.4183 56.7532 60 52.335 60H12.335C7.91668 60 4.33496 56.4183 4.33496 52V12Z" fill="#00a5fb"></path>
  <path d="M48.5663 31.7592C48.5663 30.2544 48.3748 28.7947 48.0167 27.4052C47.8061 26.5924 46.6659 26.7133 46.6249 27.5543C46.6249 27.5993 46.6194 27.6471 46.6167 27.6921C46.2448 34.2174 41.1043 39.5051 34.7579 39.8792C33.9294 39.927 33.1173 39.8904 32.3271 39.7835V35.8037C32.3244 34.853 31.2197 34.3833 30.5717 35.0499L22.7242 43.1221L22.1609 43.7015C21.7563 44.1178 21.7563 44.7928 22.1609 45.1978L30.5717 53.8494C31.2197 54.516 32.3244 54.0463 32.3244 53.0956L32.3353 48.9414V48.6967C41.3203 48.5589 48.5663 41.0295 48.5663 31.7535V31.7592Z" fill="white"></path>
  <path d="M16.1035 32.2453C16.1035 33.75 16.2949 35.2097 16.6531 36.5992C16.8637 37.412 18.0039 37.2911 18.0449 36.4501C18.0449 36.4051 18.0504 36.3573 18.0531 36.3123C18.425 29.787 23.5655 24.4993 29.9118 24.1252C30.7403 24.0774 31.5524 24.114 32.3426 24.2209V28.2007C32.3454 29.1514 33.45 29.6211 34.0981 28.9545L41.9456 20.8823L42.5088 20.3029C42.9135 19.8866 42.9135 19.2116 42.5088 18.8066L34.0981 10.1522C33.45 9.48562 32.3454 9.95532 32.3454 10.906L32.3344 15.0602V15.3049C23.3467 15.4399 16.1035 22.9721 16.1035 32.2453Z" fill="#ff7800"></path>
</svg>
