<?xml version="1.0" encoding="UTF-8"?>
<svg xmlns="http://www.w3.org/2000/svg" width="44" height="45" viewBox="0 0 44 45" fill="none">
  <g clip-path="url(#clip0_504_18997)">
    <path d="M24.6594 43.7877L39.1086 35.4423C40.7549 34.4925 41.768 32.7449 41.768 30.8454L41.768 14.1546C41.768 12.2551 40.7549 10.5075 39.1086 9.55773L24.6594 1.21233C23.0131 0.262555 20.9869 0.262555 19.3533 1.21233L4.89136 9.55773C3.24509 10.5075 2.23198 12.2551 2.23198 14.1546L2.23198 30.8454C2.23198 32.7449 3.24509 34.4925 4.89136 35.4423L19.3533 43.7877C20.9996 44.7374 23.0258 44.7374 24.6594 43.7877Z" fill="#00a5fb"></path>
    <path d="M22 16.953C22 16.953 20.5817 13.7618 17.5677 13.3059C13.7179 12.7107 10.6787 15.0282 9.94418 18.6373C8.99441 23.3102 16.7066 30.1106 20.2651 32.9599C21.2782 33.7704 22.7218 33.7704 23.7223 32.9599C27.2808 30.1106 34.9803 23.3102 34.0432 18.6373C33.3087 15.0282 30.2694 12.7107 26.4196 13.3059C23.4184 13.7618 21.9874 16.953 21.9874 16.953H22Z" fill="white"></path>
    <path d="M22 29.4023C22 29.4023 21.9493 29.4023 21.9367 29.4023C21.4934 29.3769 21.0882 29.1237 20.8856 28.7311L17.4664 22.222L15.7568 24.2102C15.5162 24.4888 15.1616 24.6534 14.7944 24.6534H8.5765C7.88 24.6534 7.31013 24.0835 7.31013 23.387C7.31013 22.6905 7.88 22.1207 8.5765 22.1207H14.2118L16.7572 19.1447C17.0358 18.8281 17.4411 18.6635 17.859 18.7141C18.2769 18.7648 18.6441 19.018 18.8341 19.3853L22.1266 25.6665L24.8493 21.6141C25.0899 21.2469 25.5205 21.0063 25.9384 21.0569L36.4746 21.3988C37.1711 21.4242 37.7283 22.0067 37.703 22.7032C37.6776 23.387 37.1204 23.9316 36.4366 23.9316C36.4239 23.9316 36.4113 23.9316 36.3986 23.9316L26.5589 23.615L23.0384 28.8451C22.7978 29.1997 22.4052 29.4023 21.9873 29.4023H22Z" fill="#ff7800"></path>
  </g>
  <defs>
    <clipPath id="clip0_504_18997">
      <rect width="44" height="44" fill="white" transform="translate(0 0.5)"></rect>
    </clipPath>
  </defs>
</svg>
