<?xml version="1.0" encoding="UTF-8"?>
<svg xmlns="http://www.w3.org/2000/svg" width="44" height="45" viewBox="0 0 44 45" fill="none">
  <g clip-path="url(#clip0_509_19059)">
    <path d="M22.0005 44.4989C2.47151 35.797 4.65957 16.3057 4.65957 16.3057L22.0005 6.71094L39.3415 16.3057C39.3415 16.3057 41.5169 35.8095 22.0005 44.4989Z" fill="#041b3a"></path>
    <path d="M22.0005 38.2879C2.47151 29.586 4.65957 10.0947 4.65957 10.0947L22.0005 0.5L39.3415 10.0947C39.3415 10.0947 41.5169 29.5986 22.0005 38.2879Z" fill="#ff7800"></path>
    <path d="M39.0774 16.1556C38.1217 22.6192 34.5504 32.6918 21.9879 38.2877C9.4255 32.6918 5.8542 22.6192 4.8985 16.1556L21.9879 6.69922L39.0774 16.1556Z" fill="#eb64ca"></path>
    <path d="M22.6803 27.7533C21.9397 28.4951 20.7379 28.4956 19.9967 27.7544L16.9361 24.6939C16.2189 23.9767 16.2189 22.8139 16.9361 22.0967C17.6522 21.3807 18.8127 21.3793 19.5303 22.0937L21.3391 23.8942L26.1563 19.0769C26.873 18.3603 28.0349 18.3603 28.7516 19.0769C29.4678 19.7932 29.4683 20.9543 28.7526 21.6711L22.6803 27.7533Z" fill="white"></path>
  </g>
  <defs>
    <clipPath id="clip0_509_19059">
      <rect width="44" height="44" fill="white" transform="translate(0 0.5)"></rect>
    </clipPath>
  </defs>
</svg>
