<?xml version="1.0" encoding="UTF-8"?>
<svg xmlns="http://www.w3.org/2000/svg" width="48" height="48" viewBox="0 0 48 48" fill="none">
  <path d="M37.5087 12.001C38.3362 12.001 39.0039 12.6374 39.0039 13.4263V21.001H36.0039V13.4263C36.0039 12.6374 36.6717 12.001 37.4993 12.001H37.5087Z" fill="#ff7800"></path>
  <path d="M28.5 15.001L40.6713 19.8695C42.3797 20.5529 43.5 22.2076 43.5 24.0476V43.501H28.5V15.001Z" fill="#00a5fb"></path>
  <path d="M4.5 6.05371C4.5 3.56843 6.51472 1.55371 9 1.55371H25.5C27.9853 1.55371 30 3.56843 30 6.05371V40.5537C30 42.2106 28.6569 43.5537 27 43.5537H7.5C5.84315 43.5537 4.5 42.2106 4.5 40.5537V6.05371Z" fill="#ff7800"></path>
  <path d="M34.477 30.791H37.5308C38.3441 30.791 39.004 31.4629 39.004 32.291C39.004 33.1191 38.3441 33.791 37.5308 33.791H34.477C33.6637 33.791 33.0039 33.1191 33.0039 32.291C33.0039 31.4629 33.6637 30.791 34.477 30.791Z" fill="white"></path>
  <path d="M37.5307 24.7617H34.4692C33.6556 24.7617 32.9961 25.4315 32.9961 26.2578V26.2656C32.9961 27.0919 33.6556 27.7617 34.4692 27.7617H37.5307C38.3443 27.7617 39.0039 27.0919 39.0039 26.2656V26.2578C39.0039 25.4315 38.3443 24.7617 37.5307 24.7617Z" fill="white"></path>
  <path d="M1.5 42.5C1.5 41.3954 2.39543 40.5 3.5 40.5H44.5C45.6046 40.5 46.5 41.3954 46.5 42.5V45H1.5V42.5Z" fill="#eb64ca"></path>
  <path d="M23.6408 21.645H10.8562C9.84942 21.645 9.0332 22.4612 9.0332 23.4679C9.0332 24.4747 9.84942 25.2908 10.8562 25.2908H23.6408C24.6476 25.2908 25.4638 24.4747 25.4638 23.4679C25.4638 22.4612 24.6476 21.645 23.6408 21.645Z" fill="white"></path>
  <path d="M21.3908 10.606H13.1062C12.0994 10.606 11.2832 11.4221 11.2832 12.4288C11.2832 13.4356 12.0994 14.2517 13.1062 14.2517H21.3908C22.3976 14.2517 23.2138 13.4356 23.2138 12.4288C23.2138 11.4221 22.3976 10.606 21.3908 10.606Z" fill="white"></path>
  <path d="M19.0742 16.571L19.0742 8.28635C19.0742 7.2796 18.2581 6.46338 17.2513 6.46338C16.2446 6.46338 15.4284 7.2796 15.4284 8.28635L15.4284 16.571C15.4284 17.5778 16.2446 18.394 17.2513 18.394C18.2581 18.394 19.0742 17.5778 19.0742 16.571Z" fill="white"></path>
  <path d="M23.6408 29.7896H10.8562C9.84942 29.7896 9.0332 30.6057 9.0332 31.6124C9.0332 32.6192 9.84942 33.4353 10.8562 33.4353H23.6408C24.6476 33.4353 25.4638 32.6192 25.4638 31.6124C25.4638 30.6057 24.6476 29.7896 23.6408 29.7896Z" fill="white"></path>
</svg>
