<?xml version="1.0" encoding="UTF-8"?>
<svg xmlns="http://www.w3.org/2000/svg" width="44" height="45" viewBox="0 0 44 45" fill="none">
  <path d="M9.70475 23.0289C9.70475 19.9795 12.1783 17.506 15.2277 17.506V7.625C14.2592 7.625 13.2776 7.71661 12.3615 7.88674L11.5893 11.2895C9.80945 11.8392 8.21278 12.7815 6.87786 14.0117L3.54056 12.9909C2.29726 14.4305 1.3157 16.1188 0.6875 17.951L3.25264 20.3067C3.05633 21.1836 2.95163 22.0866 2.95163 23.0158C2.95163 23.9451 3.05633 24.8612 3.25264 25.7249L0.6875 28.0938C1.3157 29.9391 2.29726 31.6274 3.54056 33.0539L6.90404 32.02C8.22587 33.2502 9.82254 34.1794 11.5893 34.7291L12.3615 38.1318C13.2776 38.302 14.2592 38.3936 15.2277 38.3936V28.5126C12.1783 28.5126 9.70475 26.039 9.70475 22.9897V23.0289Z" fill="#ff7800"></path>
  <path d="M39.3732 1.04297H21.4957C19.3232 1.04297 17.5564 2.80978 17.5564 4.98229V43.9567H26.8485V36.1173H34.0859V43.9567H43.3125V4.98229C43.3125 2.80978 41.5457 1.04297 39.3732 1.04297Z" fill="#00a5fb"></path>
  <path d="M35.1983 18.4487H32.8033V20.8438C32.8033 22.1525 31.7432 23.2126 30.4345 23.2126C29.1257 23.2126 28.0656 22.1525 28.0656 20.8438V18.4487H25.6706C24.3619 18.4487 23.3018 17.3887 23.3018 16.0799C23.3018 14.7712 24.3619 13.7111 25.6706 13.7111H28.0656V11.3161C28.0656 10.0073 29.1257 8.94727 30.4345 8.94727C31.7432 8.94727 32.8033 10.0073 32.8033 11.3161V13.7111H35.1983C36.5071 13.7111 37.5671 14.7712 37.5671 16.0799C37.5671 17.3887 36.5071 18.4487 35.1983 18.4487Z" fill="#ff7800"></path>
</svg>
