<?xml version="1.0" encoding="UTF-8"?>
<svg xmlns="http://www.w3.org/2000/svg" width="65" height="64" viewBox="0 0 65 64" fill="none">
  <path d="M15.4033 31.725C15.4033 27.1305 18.9881 23.4036 23.4074 23.4036V8.51574C22.0038 8.51574 20.5813 8.65377 19.2536 8.91011L18.1346 14.0371C15.555 14.8652 13.241 16.285 11.3064 18.1386L6.46979 16.6005C4.66791 18.7696 3.24538 21.3134 2.33496 24.074L6.05251 27.6234C5.76801 28.9446 5.61627 30.3052 5.61627 31.7053C5.61627 33.1053 5.76801 34.4857 6.05251 35.7871L2.33496 39.3563C3.24538 42.1367 4.66791 44.6804 6.46979 46.8298L11.3443 45.272C13.26 47.1256 15.574 48.5256 18.1346 49.3538L19.2536 54.4807C20.5813 54.7371 22.0038 54.8751 23.4074 54.8751V39.9873C18.9881 39.9873 15.4033 36.2604 15.4033 31.6658V31.725Z" fill="#ff7800"></path>
  <path d="M55.1346 4.00023H30.669C27.8011 4.00023 25.4688 6.32143 25.4688 9.17565V60.0002H37.3633V52.0803C37.3633 50.9757 38.2587 50.0803 39.3633 50.0803H46.2772C47.3818 50.0803 48.2772 50.9757 48.2772 52.0803V60.0002H60.3348V9.17565C60.3348 6.32143 58.0024 4.00023 55.1346 4.00023Z" fill="#00a5fb"></path>
  <path d="M49.1607 26.8697H46.0141V30.0162C46.0141 31.7356 44.6214 33.1284 42.902 33.1284C41.1826 33.1284 39.7899 31.7356 39.7899 30.0162V26.8697H36.6434C34.924 26.8697 33.5312 25.477 33.5312 23.7576C33.5312 22.0382 34.924 20.6455 36.6434 20.6455H39.7899V17.499C39.7899 15.7795 41.1826 14.3868 42.902 14.3868C44.6214 14.3868 46.0141 15.7795 46.0141 17.499V20.6455H49.1607C50.8801 20.6455 52.2728 22.0382 52.2728 23.7576C52.2728 25.477 50.8801 26.8697 49.1607 26.8697Z" fill="#ff7800"></path>
</svg>
