<?xml version="1.0" encoding="UTF-8"?>
<svg xmlns="http://www.w3.org/2000/svg" width="44" height="45" viewBox="0 0 44 45" fill="none">
  <path d="M7.40903 10.2276L2.40277 15.2467C1.82364 15.8259 2.00382 16.7911 2.73738 17.1386L10.4205 20.742C10.4462 20.6777 10.472 20.6133 10.5106 20.549C12.4153 16.0447 14.2556 12.5055 16.2247 9.53266L9.77702 9.31388C8.9019 9.28814 8.03964 9.62275 7.4219 10.2534L7.40903 10.2276Z" fill="#00a5fb"></path>
  <path d="M34.9759 28.2832C32.003 30.2522 28.451 32.0797 23.9467 33.9973C23.8824 34.023 23.818 34.0488 23.7537 34.0745L27.3571 41.7576C27.7046 42.4912 28.6698 42.6714 29.249 42.0922L34.2552 37.086C34.8858 36.4554 35.2204 35.606 35.1947 34.7308L34.9759 28.2832Z" fill="#00a5fb"></path>
  <path d="M14.2046 30.6649C14.2046 30.6649 14.1017 30.5362 14.0373 30.4718C13.973 30.4075 13.9086 30.356 13.8443 30.3045C11.4505 28.1038 8.82515 27.0614 6.49576 29.3908C4.16637 31.7202 1.20638 38.541 3.57437 40.9219C5.95524 43.3028 12.7375 40.3814 15.1184 38.0005C17.4992 35.6196 16.4053 33.0457 14.2046 30.652V30.6649Z" fill="#9CC3E5"></path>
  <path d="M41.8353 6.29073C41.6551 4.14151 40.3682 2.85456 38.219 2.67438C24.1783 1.55473 18.979 8.91612 13.947 21.2709C13.3035 22.9182 12.8016 23.9349 14.539 25.4406L19.0562 29.9578C20.5491 31.6952 21.5658 31.219 23.2259 30.5498C35.5678 25.5307 42.9807 20.3057 41.8224 6.29073H41.8353ZM34.9887 16.7151C33.0068 18.697 29.7894 18.697 27.8075 16.7151C25.8256 14.7332 25.8256 11.5158 27.8075 9.53385C29.7894 7.55194 33.0068 7.55194 34.9887 9.53385C36.9706 11.5158 36.9706 14.7332 34.9887 16.7151Z" fill="#ff7800"></path>
</svg>
