<?xml version="1.0" encoding="UTF-8"?>
<svg xmlns="http://www.w3.org/2000/svg" width="44" height="45" viewBox="0 0 44 45" fill="none">
  <path d="M27.8201 6.74219H10.5897C5.50057 6.74219 1.375 10.8678 1.375 15.9569V33.1872C1.375 38.2764 5.50057 42.402 10.5897 42.402H27.8201C32.9092 42.402 37.0348 38.2764 37.0348 33.1872V15.9569C37.0348 10.8678 32.9092 6.74219 27.8201 6.74219Z" fill="#9CC3E5"></path>
  <path d="M41.5188 7.52658L37.6963 3.70408C36.221 2.22885 33.8302 2.22885 32.3549 3.70408L29.092 6.96701L13.395 22.664L22.5589 31.8278L41.5188 12.8679C42.994 11.3927 42.994 9.00181 41.5188 7.52658Z" fill="#ff7800"></path>
  <path d="M11.4546 33.7682L22.5588 31.8279L13.3949 22.6641L11.4546 33.7682Z" fill="white"></path>
  <path d="M10.2515 34.9712C9.59885 34.3186 9.59885 33.26 10.2515 32.6074L12.0808 30.7781L14.4497 33.147L12.6204 34.9763C11.9678 35.6289 10.9092 35.6289 10.2566 34.9763L10.2515 34.9712Z" fill="#ff7800"></path>
</svg>
