<?xml version="1.0" encoding="UTF-8"?>
<svg xmlns="http://www.w3.org/2000/svg" width="44" height="45" viewBox="0 0 44 45" fill="none">
  <path d="M22 42.4369C33.0112 42.4369 41.9375 33.5107 41.9375 22.4997C41.9375 11.4887 33.0112 2.5625 22 2.5625C10.9888 2.5625 2.0625 11.4887 2.0625 22.4997C2.0625 33.5107 10.9888 42.4369 22 42.4369Z" fill="#ff7800"></path>
  <path d="M21.6334 22.8672H2.0625V42.4378H21.6334V22.8672Z" fill="#ff7800"></path>
  <path d="M21.9998 38.9956C31.1109 38.9956 38.4968 31.6097 38.4968 22.4988C38.4968 13.3878 31.1109 6.00195 21.9998 6.00195C12.8887 6.00195 5.50269 13.3878 5.50269 22.4988C5.50269 31.6097 12.8887 38.9956 21.9998 38.9956Z" fill="#00a5fb"></path>
  <path d="M30.2481 18.9812C30.2481 14.3494 26.427 10.6059 21.7599 10.7398C17.4523 10.8597 13.8639 14.4551 13.7511 18.7626C13.603 24.466 17.9035 24.177 17.7696 29.9861C17.7696 30.2822 17.7907 30.5924 17.8471 30.9096C18.1644 32.5452 19.4616 33.363 21.0901 33.7014C23.8185 34.2654 26.2155 32.7074 26.2155 30.0848C26.2155 30.0637 26.2155 30.0355 26.2155 30.0143C26.1239 24.5224 30.2411 24.325 30.2411 18.9953L30.2481 18.9812Z" fill="#F8F8F8"></path>
  <path d="M18.9197 20.6426L19.2651 21.1431C20.5835 23.0678 23.4247 23.0678 24.743 21.1431L25.0885 20.6426" stroke="#ff7800" stroke-width="2.0625" stroke-linecap="round" stroke-linejoin="round"></path>
  <path d="M24.2773 34.2639H19.7159C17.0299 34.2639 17.7208 31.028 17.7701 29.4629H26.2231C26.2725 30.9293 26.9493 34.2639 24.2773 34.2639Z" fill="#ff7800"></path>
  <path d="M22 22.5977V30.1763" stroke="#ff7800" stroke-width="2.0625" stroke-linecap="round" stroke-linejoin="round"></path>
</svg>
