<?xml version="1.0" encoding="UTF-8"?>
<svg xmlns="http://www.w3.org/2000/svg" width="44" height="45" viewBox="0 0 44 45" fill="none">
  <path d="M42.24 36.2479V12.2712C42.24 7.71395 38.5456 4.01953 33.9883 4.01953L10.0117 4.01953C5.4544 4.01953 1.75999 7.71395 1.75999 12.2712V36.2479C1.75999 40.8051 5.4544 44.4996 10.0117 44.4996H33.9883C38.5456 44.4996 42.24 40.8051 42.24 36.2479Z" fill="#ff7800"></path>
  <path d="M29.2124 32.3685L32.1122 33.2532C33.1831 32.0162 34.0317 30.5662 34.5836 28.9852L32.3676 26.929C32.5406 26.1835 32.623 25.4052 32.623 24.6024C32.623 23.7996 32.5323 23.0295 32.3676 22.2759L34.5836 20.236C34.0399 18.655 33.1914 17.1968 32.1122 15.968L29.2207 16.8527C28.0756 15.7878 26.6834 14.9849 25.1511 14.5098L24.4838 11.577C23.6847 11.4296 22.8609 11.3477 22.0124 11.3477C21.1639 11.3477 20.3236 11.4296 19.5245 11.577L18.8573 14.5098C17.325 14.9767 15.9328 15.7959 14.7877 16.8527L11.8961 15.968C10.8252 17.205 9.97669 18.655 9.42474 20.236L11.6408 22.2677C11.4678 23.0132 11.3771 23.7996 11.3771 24.5942C11.3771 25.3888 11.4678 26.1753 11.6408 26.929L9.4165 28.977C9.96021 30.558 10.8087 32.0162 11.8879 33.245L14.7877 32.3603C15.9328 33.4171 17.3168 34.2199 18.8408 34.6868L19.5081 37.6196C20.3071 37.7671 21.1474 37.849 21.9959 37.849C22.8445 37.849 23.6765 37.7671 24.4673 37.6196L25.1346 34.6868C26.6586 34.2199 28.0426 33.4089 29.1877 32.3603H29.2124V32.3685ZM22.0124 29.2719C19.4092 29.2719 17.3003 27.1747 17.3003 24.586C17.3003 21.9973 19.4092 19.9002 22.0124 19.9002C24.6156 19.9002 26.7246 21.9973 26.7246 24.586C26.7246 27.1747 24.6156 29.2719 22.0124 29.2719Z" fill="white"></path>
</svg>
