<?xml version="1.0" encoding="UTF-8"?>
<svg xmlns="http://www.w3.org/2000/svg" width="64" height="64" viewBox="0 0 64 64" fill="none">
  <path d="M61.4375 51.9967V17.1216C61.4375 10.4928 56.0638 5.11914 49.435 5.11914L14.56 5.11914C7.9312 5.11914 2.55752 10.4928 2.55752 17.1216V51.9967C2.55752 58.6255 7.9312 63.9991 14.56 63.9991H49.435C56.0638 63.9991 61.4375 58.6255 61.4375 51.9967Z" fill="#ff7800"></path>
  <path d="M42.4816 46.355L46.6994 47.6419C48.2572 45.8427 49.4914 43.7336 50.2942 41.4338L47.0709 38.443C47.3225 37.3587 47.4423 36.2267 47.4423 35.0589C47.4423 33.8912 47.3105 32.7711 47.0709 31.6749L50.2942 28.7079C49.5033 26.4081 48.2691 24.2871 46.6994 22.4998L42.4935 23.7867C40.828 22.2376 38.8029 21.0699 36.5742 20.3788L35.6036 16.1129C34.4413 15.8985 33.243 15.7793 32.0088 15.7793C30.7746 15.7793 29.5524 15.8985 28.3901 16.1129L27.4195 20.3788C25.1907 21.058 23.1657 22.2495 21.5001 23.7867L17.2942 22.4998C15.7365 24.299 14.5023 26.4081 13.6995 28.7079L16.9228 31.663C16.6712 32.7473 16.5393 33.8912 16.5393 35.047C16.5393 36.2028 16.6712 37.3468 16.9228 38.443L13.6875 41.4219C14.4783 43.7217 15.7126 45.8427 17.2823 47.63L21.5001 46.3431C23.1657 47.8803 25.1788 49.048 27.3955 49.7272L28.3661 53.993C29.5284 54.2075 30.7507 54.3267 31.9849 54.3267C33.2191 54.3267 34.4293 54.2075 35.5796 53.993L36.5502 49.7272C38.767 49.048 40.78 47.8683 42.4456 46.3431H42.4816V46.355ZM32.0088 41.8509C28.2223 41.8509 25.1548 38.8005 25.1548 35.0351C25.1548 31.2697 28.2223 28.2193 32.0088 28.2193C35.7953 28.2193 38.8628 31.2697 38.8628 35.0351C38.8628 38.8005 35.7953 41.8509 32.0088 41.8509Z" fill="white"></path>
</svg>
