<?xml version="1.0" encoding="UTF-8"?>
<svg xmlns="http://www.w3.org/2000/svg" width="64" height="64" viewBox="0 0 64 64" fill="none">
  <path d="M63.9965 10.9823V53.0273C63.9965 57.4503 60.4048 61.042 55.9818 61.042H26.7262C23.0706 61.042 19.9798 58.5907 19.0312 55.2441C20.3635 55.2441 21.7064 55.1056 23.0279 54.8498C24.2109 54.6366 25.1488 53.7307 25.4046 52.5584L26.0547 49.6914C27.5788 49.052 29.0176 48.2207 30.3285 47.2188L33.1848 48.0928C33.4726 48.1887 33.771 48.2313 34.0694 48.2313C34.922 48.2313 35.764 47.8583 36.3395 47.1869C38.2579 44.9807 39.7074 42.4548 40.6666 39.6731C41.0502 38.5434 40.7412 37.2964 39.8779 36.4971L37.7037 34.4721C37.8103 33.6515 37.8636 32.8202 37.8636 31.9995C37.8636 31.1789 37.8103 30.3689 37.7037 29.5482L39.8672 27.5445C40.7412 26.7346 41.0502 25.4876 40.6666 24.3579C39.7074 21.5762 38.2579 19.0503 36.3395 16.8441C35.764 16.1727 34.922 15.7997 34.0694 15.7997C33.771 15.7997 33.4726 15.8423 33.1848 15.9382L30.3605 16.8015C29.0389 15.789 27.5895 14.9577 26.0547 14.3182L25.4046 11.4406C25.1488 10.2683 24.2109 9.37302 23.0279 9.14921C21.7064 8.90408 20.3635 8.76553 19.0312 8.75487C19.9905 5.40832 23.0706 2.95703 26.7262 2.95703H55.9818C60.4048 2.95703 63.9965 6.54871 63.9965 10.9823Z" fill="#00a5fb"></path>
  <path d="M55.7921 11.707H49.6C47.9224 11.707 46.5625 13.0646 46.5625 14.7392C46.5625 16.4138 47.9224 17.7713 49.6 17.7713H55.7921C57.4697 17.7713 58.8296 16.4138 58.8296 14.7392C58.8296 13.0646 57.4697 11.707 55.7921 11.707Z" fill="#ff7800"></path>
  <path d="M55.7921 22.7266H49.6C47.9224 22.7266 46.5625 24.0841 46.5625 25.7587C46.5625 27.4333 47.9224 28.7908 49.6 28.7908H55.7921C57.4697 28.7908 58.8296 27.4333 58.8296 25.7587C58.8296 24.0841 57.4697 22.7266 55.7921 22.7266Z" fill="#ff7800"></path>
  <path d="M34.5099 32.0003C34.5099 30.8067 34.3714 29.645 34.1262 28.5259L37.4195 25.4778C36.6095 23.1117 35.3519 20.9375 33.7426 19.0937L29.4475 20.4047C27.7316 18.8273 25.6746 17.6123 23.3938 16.9089L22.4027 12.5285C21.2197 12.3047 19.9834 12.1875 18.7257 12.1875H18.7151C17.4575 12.1875 16.2105 12.3047 15.0275 12.5285L14.0363 16.9089C11.7555 17.6123 9.68793 18.8273 7.98268 20.4047L3.67694 19.0937C2.07827 20.9375 0.82065 23.1117 0 25.4778L3.30391 28.5152C3.04813 29.6343 2.90958 30.8067 2.90958 32.0003C2.90958 33.194 3.04813 34.3664 3.30391 35.4961L0 38.5549C0.82065 40.9209 2.07827 43.0844 3.67694 44.9389L8.004 43.6173C9.70925 45.1947 11.7662 46.399 14.0363 47.1024L15.0275 51.4721C16.2105 51.6959 17.4575 51.8238 18.7151 51.8238H18.7257C19.9834 51.8238 21.2197 51.6959 22.4027 51.4721L23.3938 47.1024C25.664 46.399 27.7209 45.1947 29.4262 43.6173L33.7426 44.9389C35.3519 43.0844 36.6095 40.9209 37.4195 38.5549L34.1262 35.4854C34.3714 34.3664 34.5099 33.194 34.5099 32.0003ZM18.7151 39.0025C14.8463 39.0025 11.7129 35.8691 11.7129 32.0003C11.7129 28.1316 14.8463 25.0088 18.7151 25.0088C22.5839 25.0088 25.7066 28.1422 25.7066 32.0003C25.7066 35.8584 22.5732 39.0025 18.7151 39.0025Z" fill="#ff7800"></path>
</svg>
