<?xml version="1.0" encoding="UTF-8"?>
<svg xmlns="http://www.w3.org/2000/svg" width="64" height="64" viewBox="0 0 64 64" fill="none">
  <path d="M27.8822 3.93262H5.94567C4.87111 3.93262 4 4.80373 4 5.87829V27.8148C4 28.8894 4.87111 29.7605 5.94567 29.7605H27.8822C28.9568 29.7605 29.8279 28.8894 29.8279 27.8148V5.87829C29.8279 4.80373 28.9568 3.93262 27.8822 3.93262Z" fill="#ff7800"></path>
  <path d="M58.0228 3.93262H36.0863C35.0117 3.93262 34.1406 4.80373 34.1406 5.87829V27.8148C34.1406 28.8894 35.0117 29.7605 36.0863 29.7605H58.0228C59.0974 29.7605 59.9685 28.8894 59.9685 27.8148V5.87829C59.9685 4.80373 59.0974 3.93262 58.0228 3.93262Z" fill="#00a5fb"></path>
  <path d="M27.8822 34.2256H5.94567C4.87111 34.2256 4 35.0967 4 36.1713V58.1078C4 59.1824 4.87111 60.0535 5.94567 60.0535H27.8822C28.9568 60.0535 29.8279 59.1824 29.8279 58.1078V36.1713C29.8279 35.0967 28.9568 34.2256 27.8822 34.2256Z" fill="#00a5fb"></path>
  <path d="M51.6522 42.7141L56.7452 37.621C58.0042 36.362 57.1077 34.2256 55.3337 34.2256H36.144C35.0376 34.2256 34.1602 35.1221 34.1602 36.2094V55.4182C34.1602 57.1922 36.2966 58.0696 37.5555 56.8297L42.6486 51.7367L50.3932 59.4812C51.1753 60.2633 52.4342 60.2633 53.1973 59.4812L59.4158 53.2818C60.1979 52.4997 60.1979 51.2407 59.4158 50.4777L51.6712 42.7331L51.6522 42.7141Z" fill="#ff7800"></path>
</svg>
