<?xml version="1.0" encoding="UTF-8"?>
<svg xmlns="http://www.w3.org/2000/svg" width="44" height="45" viewBox="0 0 44 45" fill="none">
  <path d="M9.67625 42.8517L7.06625 40.2379L11.6006 35.7044V26.7852H15.287V37.2328L9.67625 42.8517Z" fill="#0063C1"></path>
  <path d="M33.6086 42.8517L27.9978 37.2328V26.7852H31.6843V35.7044L36.2112 40.2379L33.6086 42.8517Z" fill="#0063C1"></path>
  <path d="M23.4193 26.7852H19.7329V41.5448H23.4193V26.7852Z" fill="#0063C1"></path>
  <path d="M43.9749 24.3115C43.9749 27.5603 41.3427 30.1888 38.0987 30.1888H9.27077C9.19704 30.1888 9.13069 30.1888 9.05696 30.1888C4.06553 30.1888 0.0178223 26.1353 0.0178223 21.1366C0.0178223 16.5367 3.46095 12.7342 7.90679 12.1657C7.90679 12.1435 7.90679 12.114 7.90679 12.0844C7.89942 6.44344 12.4706 1.87305 18.1035 1.87305C22.1585 1.87305 25.6459 4.24315 27.2901 7.67649C27.9831 7.49928 28.713 7.39591 29.4651 7.39591C34.4344 7.39591 38.4526 11.4273 38.4526 16.3964C38.4526 17.0978 38.3641 17.7771 38.2166 18.4269C41.4091 18.4859 43.9822 21.0923 43.9822 24.3041L43.9749 24.3115Z" fill="#00a5fb"></path>
  <path d="M34.9136 38.5918C33.2842 38.5918 31.9644 39.9134 31.9644 41.5452C31.9644 43.177 33.2842 44.4986 34.9136 44.4986C36.543 44.4986 37.8627 43.177 37.8627 41.5452C37.8627 39.9134 36.543 38.5918 34.9136 38.5918Z" fill="#00a5fb"></path>
  <path d="M21.5761 38.5918C19.9467 38.5918 18.627 39.9134 18.627 41.5452C18.627 43.177 19.9467 44.4986 21.5761 44.4986C23.2055 44.4986 24.5253 43.177 24.5253 41.5452C24.5253 39.9134 23.2055 38.5918 21.5761 38.5918Z" fill="#00a5fb"></path>
  <path d="M8.37127 38.5918C6.74186 38.5918 5.42212 39.9134 5.42212 41.5452C5.42212 43.177 6.74186 44.4986 8.37127 44.4986C10.0007 44.4986 11.3204 43.177 11.3204 41.5452C11.3204 39.9134 10.0007 38.5918 8.37127 38.5918Z" fill="#00a5fb"></path>
  <path d="M13.2448 16.5684L13.3554 16.6792C13.842 17.1591 14.6014 17.1739 15.1322 16.753C18.8998 13.7701 24.2672 13.7775 28.0347 16.753C28.573 17.1813 29.3397 17.1591 29.8263 16.6718L29.9369 16.561C30.5047 15.9925 30.4383 15.0696 29.8116 14.5675C25.0192 10.7428 18.1625 10.7355 13.3627 14.5601C12.736 15.0622 12.6771 15.9999 13.2448 16.561V16.5684Z" fill="#ff7800"></path>
  <path d="M17.2261 20.5696C17.6906 21.0347 18.4132 21.1086 18.9735 20.7542C19.7476 20.2669 20.6471 20.0084 21.5835 20.0084C22.5198 20.0084 23.4193 20.2669 24.1935 20.7542C24.7538 21.1086 25.4764 21.0347 25.9409 20.5696C26.5823 19.9272 26.457 18.864 25.6902 18.3767C24.4736 17.6088 23.0581 17.1953 21.5835 17.1953C20.1089 17.1953 18.6933 17.6088 17.4768 18.3767C16.71 18.8566 16.5921 19.9272 17.2261 20.5696Z" fill="#ff7800"></path>
  <path d="M20.4333 23.2653C19.7992 23.9003 19.7992 24.9266 20.4333 25.5542C21.0674 26.1892 22.0922 26.1892 22.7189 25.5542C23.353 24.9192 23.353 23.8929 22.7189 23.2653C22.0848 22.6303 21.06 22.6303 20.4333 23.2653Z" fill="#ff7800"></path>
</svg>
