<?xml version="1.0" encoding="UTF-8"?>
<svg xmlns="http://www.w3.org/2000/svg" width="44" height="45" viewBox="0 0 44 45" fill="none">
  <path d="M6.93852 2.43164C4.63352 2.43164 2.75 4.39788 2.75 6.80413V41.3304L3.44808 41.8666C4.65985 42.7879 6.29311 42.7879 7.50488 41.8666C8.71665 40.9454 10.3499 40.9454 11.5617 41.8666C12.1676 42.3341 12.8788 42.5679 13.5901 42.5679C14.3013 42.5679 15.0126 42.3341 15.6185 41.8666C16.2243 41.3991 16.9356 41.1654 17.6469 41.1654C18.3581 41.1654 19.0694 41.3991 19.6884 41.8666C20.2943 42.3341 21.0056 42.5679 21.7168 42.5679C22.4281 42.5679 23.1393 42.3341 23.7452 41.8666C24.957 40.9316 26.5902 40.9316 27.802 41.8666H27.8152C29.0269 42.8016 30.6602 42.8016 31.872 41.8804L32.8071 41.1654V6.81785C32.8071 4.4116 34.6775 2.44536 36.9956 2.44536H6.93852V2.43164Z" fill="#00a5fb"></path>
  <path d="M6.35895 12.4425C6.35895 11.5213 7.0702 10.7787 7.93951 10.7787H9.54642V9.10124C9.54642 8.17999 10.2577 7.4375 11.127 7.4375C11.5616 7.4375 11.97 7.61627 12.2466 7.93252C12.5363 8.23502 12.7207 8.64749 12.7207 9.10124V10.7787H14.3276C15.2101 10.7787 15.9214 11.5213 15.9214 12.4425C15.9214 13.3638 15.2101 14.1063 14.3276 14.1063H12.7207V15.7838C12.7207 16.705 12.0095 17.4475 11.127 17.4475C10.6923 17.4475 10.2972 17.2688 10.0074 16.9525C9.71764 16.65 9.54642 16.2375 9.54642 15.7838V14.1063H7.93951C7.0702 14.1063 6.35895 13.3638 6.35895 12.4425Z" fill="#ff7800"></path>
  <path d="M14.9204 22.7129H27.2225C27.9864 22.7129 28.6186 23.3591 28.6186 24.1704V24.8029C28.6186 25.6004 27.9996 26.2604 27.2225 26.2604H14.9204C14.1564 26.2604 13.5374 25.6141 13.5374 24.8029V24.1704C13.5374 23.3729 14.1564 22.7129 14.9204 22.7129Z" fill="#ff7800"></path>
  <path d="M28.6186 30.3168V30.9493C28.6186 31.7468 27.9996 32.393 27.2225 32.393H14.9204C14.1564 32.393 13.5374 31.7468 13.5374 30.9493V30.3168C13.5374 29.5193 14.1564 28.873 14.9204 28.873H27.2225C27.9864 28.873 28.6186 29.5193 28.6186 30.3168Z" fill="#ff7800"></path>
  <path d="M37.022 2.43164V21.2279H32.8071V6.80413C32.8071 4.39788 34.6775 2.43164 36.9956 2.43164H37.022Z" fill="#00a5fb"></path>
  <path d="M41.25 6.80413V19.3579C41.25 20.3891 40.4466 21.2279 39.4455 21.2279H32.8203V6.80413C32.8203 4.39788 34.6906 2.43164 37.0088 2.43164H37.0615C39.3665 2.43164 41.25 4.39788 41.25 6.80413Z" fill="#ff7800"></path>
</svg>
