<?xml version="1.0" encoding="UTF-8"?>
<svg xmlns="http://www.w3.org/2000/svg" width="44" height="45" viewBox="0 0 44 45" fill="none">
  <path d="M36.6642 5.76758H7.34736C4.81469 5.76758 2.76155 7.95759 2.76155 10.6591V34.3405C2.76155 37.042 4.81469 39.232 7.34736 39.232H36.6642C39.1968 39.232 41.25 37.042 41.25 34.3405V10.6591C41.25 7.95759 39.1968 5.76758 36.6642 5.76758Z" fill="#00a5fb"></path>
  <path d="M38.9282 38.5685C40.3028 37.7306 41.2384 36.1658 41.2384 34.3423V31.3975L31.1889 22.6987C29.7335 21.4419 27.6774 21.3434 26.1295 22.4646L18.9793 27.6272L16.4381 36.4122L18.8638 39.2338H36.4331L38.9397 38.5685H38.9282Z" fill="#eb64ca"></path>
  <path d="M39.5173 38.1375L18.7946 20.1978C16.6807 18.3619 13.689 18.2264 11.4249 19.8528L2.75 26.112V34.3303C2.75 37.0286 4.80611 39.2218 7.33581 39.2218H36.6642C37.75 39.2218 38.7318 38.8029 39.5173 38.1252V38.1375Z" fill="#ff7800"></path>
</svg>
