<?xml version="1.0" encoding="UTF-8"?>
<svg xmlns="http://www.w3.org/2000/svg" width="44" height="45" viewBox="0 0 44 45" fill="none">
  <g clip-path="url(#clip0_509_19091)">
    <g clip-path="url(#clip1_509_19091)">
      <path d="M22.0002 1.875C10.4978 1.875 1.17537 11.1975 1.17537 22.7C1.17537 34.2025 10.4978 43.5249 22.0002 43.5249C33.5025 43.5249 42.8249 34.2025 42.8249 22.7C42.8249 11.1975 33.5025 1.875 22.0002 1.875ZM22.0002 34.0043C15.7535 34.0043 10.6959 28.9387 10.6959 22.7C10.6959 16.4612 15.7614 11.3957 22.0002 11.3957C28.2389 11.3957 33.3044 16.4612 33.3044 22.7C33.3044 28.9387 28.2389 34.0043 22.0002 34.0043Z" fill="#00a5fb"></path>
      <path d="M28.6016 21.9141H15.3153C14.494 21.9141 13.7549 22.416 13.4446 23.1825L7.32155 38.5039H36.6783L30.4632 23.1825C30.1621 22.416 29.4138 21.9141 28.5925 21.9141H28.6016Z" fill="#9CC3E5"></path>
      <path d="M7.33067 38.4941H36.6783V42.4819C36.6783 43.5952 35.7751 44.4986 34.6622 44.4986H9.33766C8.22469 44.4986 7.32155 43.5952 7.32155 42.4819V38.4941H7.33067Z" fill="#ff7800"></path>
      <path d="M36.3087 14.7018C37.0661 14.7018 37.6801 14.0878 37.6801 13.3304C37.6801 12.573 37.0661 11.959 36.3087 11.959C35.5513 11.959 34.9373 12.573 34.9373 13.3304C34.9373 14.0878 35.5513 14.7018 36.3087 14.7018Z" fill="#9CC3E5"></path>
      <path d="M38.3307 18.9831C39.0881 18.9831 39.7021 18.3691 39.7021 17.6117C39.7021 16.8542 39.0881 16.2402 38.3307 16.2402C37.5733 16.2402 36.9593 16.8542 36.9593 17.6117C36.9593 18.3691 37.5733 18.9831 38.3307 18.9831Z" fill="#9CC3E5"></path>
      <path d="M22.0002 1.875C19.8598 1.875 17.7908 2.20002 15.8487 2.80249V5.0697C15.8487 6.09231 16.681 6.92468 17.7036 6.92468H26.2967C27.3194 6.92468 28.1517 6.09231 28.1517 5.0697V2.80249C26.2095 2.20002 24.1405 1.875 22.0002 1.875Z" fill="#9CC3E5"></path>
      <path d="M10.6962 22.6989C10.6962 22.4293 10.72 22.1757 10.7358 21.9141H1.1994C1.19147 22.1757 1.17561 22.4373 1.17561 22.6989C1.17561 22.9605 1.18354 23.2221 1.1994 23.4837H10.7358C10.72 23.2221 10.6962 22.9605 10.6962 22.6989Z" fill="#ff7800"></path>
      <path d="M33.305 22.6989C33.305 22.9684 33.2812 23.2221 33.2653 23.4837H42.8018C42.8097 23.2221 42.8256 22.9605 42.8256 22.6989C42.8256 22.4373 42.8176 22.1757 42.8018 21.9141H33.2653C33.2812 22.1757 33.305 22.4373 33.305 22.6989Z" fill="#ff7800"></path>
    </g>
  </g>
  <defs>
    <clipPath id="clip0_509_19091">
      <rect width="44" height="44" fill="white" transform="translate(0 0.5)"></rect>
    </clipPath>
    <clipPath id="clip1_509_19091">
      <rect width="41.6496" height="42.625" fill="white" transform="translate(1.17522 1.875)"></rect>
    </clipPath>
  </defs>
</svg>
