<?xml version="1.0" encoding="UTF-8"?>
<svg xmlns="http://www.w3.org/2000/svg" width="44" height="45" viewBox="0 0 44 45" fill="none">
  <path d="M19.5921 3.59375H4.4181C1.97805 3.59375 0 5.5718 0 8.01185V40.0819C0 42.5219 1.97805 44.5 4.4181 44.5H19.5921C22.0321 44.5 24.0102 42.5219 24.0102 40.0819V8.01185C24.0102 5.5718 22.0321 3.59375 19.5921 3.59375Z" fill="#00a5fb"></path>
  <path d="M11.9981 35.3828C10.8265 35.3828 9.88077 36.3285 9.88077 37.5001C9.88077 38.6717 10.8265 39.6174 11.9981 39.6174C13.1696 39.6174 14.1154 38.6717 14.1154 37.5001C14.1154 36.3285 13.1696 35.3828 11.9981 35.3828Z" fill="white"></path>
  <path d="M22.3728 28.1684C16.6984 28.1684 12.0827 23.5527 12.0827 17.8783V9.86079C12.0827 8.96447 12.8097 8.23047 13.7131 8.23047C14.6164 8.23047 15.3434 8.95741 15.3434 9.86079V17.8783C15.3434 21.76 18.4982 24.9148 22.3799 24.9148C26.2616 24.9148 29.4164 21.76 29.4164 17.8783V9.86079C29.4164 8.96447 30.1433 8.23047 31.0467 8.23047C31.9501 8.23047 32.677 8.95741 32.677 9.86079V17.8783C32.677 23.5527 28.0613 28.1684 22.3869 28.1684H22.3728Z" fill="#ff7800"></path>
  <path d="M31.0326 44.2529C25.3582 44.2529 20.7425 39.6372 20.7425 33.9628V25.9453H23.9961V33.9628C23.9961 37.8445 27.1509 40.9993 31.0326 40.9993C34.9143 40.9993 38.0691 37.8445 38.0691 33.9628V25.9453H41.3227V33.9628C41.3227 39.6372 36.7069 44.2529 31.0326 44.2529Z" fill="#ff7800"></path>
  <path d="M39.6923 25.1816C37.935 25.1816 36.5164 26.6002 36.5164 28.3576C36.5164 30.115 37.935 31.5335 39.6923 31.5335C41.4497 31.5335 42.8683 30.115 42.8683 28.3576C42.8683 26.6002 41.4497 25.1816 39.6923 25.1816Z" fill="#00a5fb"></path>
</svg>
