<?xml version="1.0" encoding="UTF-8"?>
<svg xmlns="http://www.w3.org/2000/svg" width="44" height="44" viewBox="0 0 32 32" fill="none">
  <path d="M15.7432 1.13086H4.71191C2.93802 1.13086 1.5 2.56888 1.5 4.34276V27.6573C1.5 29.4312 2.93802 30.8692 4.71191 30.8692H15.7432C17.5171 30.8692 18.9551 29.4312 18.9551 27.6573V4.34276C18.9551 2.56888 17.5171 1.13086 15.7432 1.13086Z" fill="#00a5fb"></path>
  <path d="M10.2224 24.2402C9.37064 24.2402 8.68311 24.9278 8.68311 25.7795C8.68311 26.6312 9.37064 27.3187 10.2224 27.3187C11.0741 27.3187 11.7616 26.6312 11.7616 25.7795C11.7616 24.9278 11.0741 24.2402 10.2224 24.2402Z" fill="white"></path>
  <path d="M23.9325 15.3745C23.9325 17.5961 22.1316 19.397 19.9099 19.397V26.5956C20.618 26.5956 21.3312 26.5238 21.9982 26.4006L22.5574 23.9224C23.8504 23.5222 25.0151 22.8347 25.9848 21.9368L28.422 22.6808C29.3301 21.6341 30.0433 20.4027 30.5 19.0635L28.6323 17.3447C28.776 16.7085 28.853 16.0517 28.853 15.3693C28.853 14.6869 28.776 14.0302 28.6323 13.394L30.5 11.6649C30.0382 10.3257 29.325 9.09432 28.422 8.04763L25.9746 8.79673C25.01 7.90396 23.8453 7.22156 22.5574 6.82649L21.9982 4.34829C21.3312 4.22515 20.618 4.15332 19.9099 4.15332V11.3519C22.1316 11.3519 23.9325 13.1528 23.9325 15.3745Z" fill="#ff7800"></path>
</svg>
