<?xml version="1.0" encoding="UTF-8"?>
<svg xmlns="http://www.w3.org/2000/svg" width="44" height="45" viewBox="0 0 44 45" fill="none">
  <g clip-path="url(#clip0_509_19233)">
    <path d="M37.6735 4.83203H11.3878C8.27081 4.83203 5.7489 7.35987 5.7489 10.4711V12.6336H13.1673C15.5301 12.6336 17.4569 14.5545 17.4569 16.9232V33.8698H37.6735C40.7905 33.8698 43.3124 31.3419 43.3124 28.2307V10.4711C43.3124 7.35398 40.7846 4.83203 37.6735 4.83203Z" fill="#3E83CC"></path>
    <path d="M29.4593 39.904H19.5956C18.4407 39.904 17.6452 38.755 18.0459 37.6708L20.0552 32.2852H28.9997L31.009 37.6708C31.4097 38.7491 30.6142 39.904 29.4593 39.904Z" fill="#3E83CC"></path>
    <path d="M17.4569 16.9235V27.135H37.6734C38.6928 27.135 39.5236 26.3042 39.5236 25.2848V10.4713C39.5236 9.45192 38.6928 8.62109 37.6734 8.62109H11.3878C10.3684 8.62109 9.5376 9.45192 9.5376 10.4713V12.6338H13.1732C15.536 12.6338 17.4628 14.5547 17.4628 16.9235H17.4569Z" fill="#9CC3E5"></path>
    <path d="M13.1675 15.5801H3.50409C2.76213 15.5801 2.16064 16.1816 2.16064 16.9235V37.3525C2.16064 38.0945 2.76213 38.6959 3.50409 38.6959H13.1675C13.9095 38.6959 14.5109 38.0945 14.5109 37.3525V16.9235C14.5109 16.1816 13.9095 15.5801 13.1675 15.5801Z" fill="white"></path>
    <path d="M13.1674 14.1074H3.50403C1.9485 14.1074 0.6875 15.3684 0.6875 16.924V37.3529C0.6875 38.9085 1.9485 40.1695 3.50403 40.1695H13.1674C14.7229 40.1695 15.9839 38.9085 15.9839 37.3529V16.924C15.9839 15.3684 14.7229 14.1074 13.1674 14.1074Z" fill="#0063C1"></path>
    <path d="M8.32956 34.3594C7.58713 34.3594 6.98022 34.9604 6.98022 35.7087C6.98022 36.4571 7.58124 37.0581 8.32956 37.0581C9.07789 37.0581 9.6789 36.4571 9.6789 35.7087C9.6789 34.9604 9.07789 34.3594 8.32956 34.3594Z" fill="white"></path>
  </g>
  <defs>
    <clipPath id="clip0_509_19233">
      <rect width="42.625" height="35.3367" fill="white" transform="translate(0.6875 4.83203)"></rect>
    </clipPath>
  </defs>
</svg>
