<?xml version="1.0" encoding="UTF-8"?>
<svg xmlns="http://www.w3.org/2000/svg" width="200" height="107" viewBox="0 0 200 107" fill="none">
  <path d="M134.399 44.683L134.399 44.6833C134.672 45.9066 135.918 46.6315 137.146 46.3129L137.146 46.3129L137.148 46.3123C138.372 45.9857 139.118 44.7274 138.796 43.5257C138.486 42.3398 137.254 41.666 136.069 41.9822C134.887 42.2978 134.135 43.4949 134.399 44.683ZM135.21 44.4953C135.042 43.7511 135.514 42.9842 136.276 42.7807C137.033 42.5787 137.795 43.0146 137.99 43.7382C138.185 44.4873 137.716 45.2914 136.93 45.5013C136.149 45.7097 135.381 45.245 135.21 44.4953Z" fill="#093E8E" stroke="#093E8E" stroke-width="0.666667"></path>
  <path d="M132.664 62.6465L132.664 66.1481M134.421 64.3973H130.906" stroke="#093E8E" stroke-width="1.66667" stroke-linecap="round"></path>
  <path d="M70.2213 55.3613L70.2213 58.863M71.9787 57.1122H68.4636" stroke="#093E8E" stroke-width="1.66667" stroke-linecap="round"></path>
  <path d="M92.8463 13.5849C79.2413 15.9281 68.6148 20.135 69.1028 22.9915L69.3341 24.3124C69.8221 27.1521 81.2522 27.5517 94.853 25.1959C108.454 22.84 119.089 18.6331 118.597 15.7935L118.369 14.4726C117.877 11.6287 106.451 11.2333 92.8463 13.5849Z" fill="#0063C1"></path>
  <path opacity="0.2" d="M94.8536 25.1957C108.457 22.8435 119.087 18.6334 118.596 15.7923C118.105 12.9511 106.678 12.5547 93.0746 14.907C79.4709 17.2592 68.8411 21.4692 69.3324 24.3104C69.8237 27.1516 81.2499 27.5479 94.8536 25.1957Z" fill="white"></path>
  <path d="M93.5612 17.7158C81.3613 19.8192 71.8621 23.6054 72.3039 26.1295L72.6825 28.3297C73.1032 30.8748 83.3553 31.2282 95.5342 29.1206C107.713 27.0129 117.233 23.231 116.792 20.7068L116.413 18.5109C115.971 15.9657 105.74 15.6081 93.5612 17.7158Z" fill="#0063C1"></path>
  <path opacity="0.2" d="M95.5321 29.1263C107.712 27.0203 117.229 23.2511 116.789 20.7075C116.349 18.164 106.119 17.8093 93.9394 19.9153C81.7597 22.0213 72.2426 25.7905 72.6824 28.334C73.1222 30.8776 83.3524 31.2323 95.5321 29.1263Z" fill="white"></path>
  <path d="M106.279 51.1132C104.373 50.1161 103.637 47.7603 104.634 45.8546C104.794 45.5517 104.991 45.274 105.223 45.0216C110.157 39.6494 116.131 31.0969 114.617 22.3045C114.289 20.424 105.218 20.4198 94.3564 22.3045C83.4942 24.1892 74.9501 27.235 75.274 29.1154C76.7927 37.8952 85.2905 43.9447 91.7439 47.348C93.6496 48.345 94.3858 50.7009 93.3888 52.6066C93.2289 52.9095 93.0312 53.1871 92.7998 53.4396C87.861 58.8075 81.8872 67.3601 83.4059 76.1567C83.734 78.0413 92.804 78.0455 103.666 76.1567C114.528 74.2678 123.072 71.2262 122.765 69.3541C121.23 60.5618 112.728 54.5123 106.279 51.1132Z" fill="#0063C1"></path>
  <path opacity="0.6" d="M106.279 51.1132C104.373 50.1161 103.637 47.7603 104.634 45.8546C104.794 45.5517 104.991 45.274 105.223 45.0216L106.201 51.2607M106.279 51.1132L106.201 51.2606C106.201 51.2606 106.201 51.2607 106.201 51.2607M106.279 51.1132C112.728 54.5123 121.23 60.5618 122.765 69.3541M106.279 51.1132L122.765 69.3541M106.201 51.2607C104.214 50.2209 103.446 47.7644 104.486 45.7773L104.486 45.7768C104.653 45.4608 104.859 45.1715 105.1 44.909L105.1 44.9089C107.561 42.2294 110.277 38.7614 112.189 34.8721C114.1 30.9826 115.202 26.6829 114.452 22.3328C114.423 22.1668 114.294 21.9957 114.013 21.8311C113.734 21.6672 113.329 21.5249 112.804 21.4089C111.755 21.1773 110.265 21.0595 108.437 21.0592C104.783 21.0587 99.8095 21.5275 94.3849 22.4687C88.9602 23.41 84.1183 24.6405 80.6764 25.8685C78.9542 26.483 77.5901 27.0941 76.6799 27.6642C76.2241 27.9496 75.891 28.2194 75.6831 28.4673C75.4741 28.7166 75.4097 28.9212 75.4382 29.0871C76.1896 33.4308 78.6691 37.1081 81.7746 40.1284C84.88 43.1485 88.6027 45.503 91.8214 47.2004C93.8086 48.2403 94.5761 50.6967 93.5365 52.6839L93.5362 52.6844C93.3694 53.0004 93.1633 53.2897 92.9227 53.5522L92.9225 53.5524C90.4592 56.2297 87.7423 59.6966 85.8308 63.5859C83.9194 67.4752 82.8188 71.7759 83.5701 76.1281C83.5991 76.2948 83.7289 76.4665 84.0096 76.6316C84.2888 76.7958 84.6933 76.9384 85.2185 77.0546C86.2673 77.2867 87.7574 77.4048 89.5858 77.4051C93.2399 77.4056 98.213 76.9358 103.638 75.9925C109.062 75.0491 113.904 73.8186 117.348 72.5921C119.072 71.9784 120.437 71.3684 121.35 70.7997C121.807 70.515 122.142 70.2459 122.351 69.9987C122.562 69.7503 122.628 69.5466 122.601 69.3819C121.841 65.0321 119.356 61.3519 116.248 58.3307C113.14 55.3095 109.418 52.9561 106.201 51.2607ZM122.765 69.3541C123.072 71.2262 114.528 74.2678 103.666 76.1567C92.804 78.0455 83.734 78.0413 83.4059 76.1567C81.8872 67.3601 87.861 58.8075 92.7998 53.4396C93.0312 53.1871 93.2289 52.9095 93.3888 52.6066C94.3858 50.7009 93.6496 48.345 91.7439 47.348C85.2905 43.9447 76.7927 37.8952 75.274 29.1154L122.765 69.3541Z" fill="white" stroke="#C5DFF9" stroke-width="0.333333"></path>
  <path d="M121.781 69.8477C121.974 71.8207 86.9816 78.6317 84.6552 75.6069C84.1756 74.9254 84.0788 74.0462 84.3944 73.2721C84.6342 72.5738 84.9833 71.9175 85.4377 71.3327C86.5188 69.8687 88.9041 69.2293 90.5196 68.6403C91.6091 68.2407 92.7071 67.8747 93.8051 67.4961C94.9831 67.0754 96.1946 67.3699 97.2169 66.4738C97.8311 65.9395 98.2897 65.1444 99.0763 64.9509C99.6611 64.8079 100.288 65.0392 100.864 64.8836C101.613 64.6817 102.147 63.8739 102.921 63.8613C103.304 63.9076 103.683 64.0002 104.045 64.1348C104.718 64.2778 105.408 64.0548 106.098 63.9917C106.775 63.9623 107.456 64.0086 108.125 64.139C110.212 64.5386 112.32 64.8289 114.436 65.0098C115.996 65.0939 117.725 65.0561 119.248 65.4852C119.913 65.7334 120.464 66.2214 120.796 66.8482C121.339 67.7653 121.676 68.7876 121.781 69.8477Z" fill="#263238"></path>
  <path opacity="0.2" d="M120.809 66.8302C119.842 65.9551 118.054 66.014 117.54 66.0519C117.027 66.0898 116.846 65.6523 116.459 65.5092C116.072 65.3662 113.784 65.6607 113.784 65.6607C113.784 65.6607 114.625 65.8247 114.802 66.1024C114.978 66.38 115.938 66.0603 116.064 66.0225C115.933 66.0982 114.764 66.7124 114.213 66.3422C113.662 65.972 113.434 66.6619 112.997 66.8386C112.559 67.0153 111.18 66.8386 110.957 66.7671C110.296 66.7292 109.64 66.7292 108.979 66.7671C109.32 66.5483 109.707 66.4053 110.107 66.3464C110.477 66.3885 111.954 65.6102 111.651 65.6649C111.348 65.7196 110.658 65.3157 110.119 65.1474C109.467 65.1012 108.811 65.1432 108.167 65.2736C108.82 65.2652 109.472 65.3536 110.098 65.5429C109.669 65.6438 109.249 65.7785 108.836 65.9425C108.462 66.0645 108.071 66.1318 107.675 66.1403C107.36 66.2538 107.086 66.4684 106.893 66.746C106.413 66.8596 105.925 66.9438 105.433 66.9985C104.949 67.0405 104.461 66.9858 103.998 66.8302L105.328 66.4095L104.874 66.2791C104.562 66.1739 104.238 66.1024 103.914 66.0561C103.38 65.9678 103.153 66.4768 103.022 66.5988C102.892 66.7208 101.723 66.5988 101.394 66.5189C101.066 66.4389 98.6389 67.4233 98.6389 67.4233L100.158 67.1625C100.553 67.3308 100.97 67.4276 101.399 67.4528C102.412 67.5874 102.56 67.2509 102.985 67.2803C103.41 67.3098 104.819 67.701 104.819 67.701L104.272 67.8482C103.788 67.9156 103.3 67.9156 102.816 67.8482C101.975 67.7347 101.521 68.1764 101.268 68.2227C100.62 68.3699 99.9599 68.4624 99.2952 68.5087C99.0218 68.4498 98.3024 68.7864 97.9069 69.1902C97.4484 69.6488 96.7711 69.8086 96.1569 69.6109C95.3912 69.4132 94.0997 70.3471 94.0997 70.3471C94.0997 70.3471 94.777 69.4511 95.1304 69.388C95.6773 69.1734 96.2074 68.9084 96.708 68.5971C96.5187 68.5971 96.3294 68.6097 96.1443 68.6433C95.7656 68.6728 95.387 68.5508 95.0967 68.3026C94.6761 68.0123 94.2554 68.2395 93.637 68.555C93.0185 68.8705 92.3539 69.2449 91.7018 68.7864C91.0497 68.3278 89.0515 70.0232 89.0515 70.0232C89.5058 69.9138 89.9517 69.7624 90.3766 69.5688C90.5617 69.4174 90.6922 69.5689 91.2811 69.6909C91.8701 69.8129 92.0636 69.4006 92.3539 69.2449C92.6441 69.0893 93.515 69.3501 93.515 69.3501C93.3088 69.4469 93.0817 69.4889 92.8545 69.4721C92.5348 69.4216 92.0131 70.3429 91.8448 70.242C91.6766 70.141 90.4524 70.3008 89.9265 70.5743C89.4006 70.8477 88.6266 71.7606 87.8483 71.4788C87.1878 71.239 85.6986 73.2625 84.3903 73.2877C84.6301 72.5894 84.9792 71.9331 85.4336 71.3484C86.5147 69.8844 88.9 69.2449 90.5155 68.656C91.605 68.2563 92.703 67.8903 93.801 67.5117C94.979 67.091 96.1905 67.3855 97.2128 66.4894C97.827 65.9552 98.2856 65.1601 99.0722 64.9665C99.657 64.8235 100.284 65.0549 100.86 64.8992C101.609 64.6973 102.143 63.8896 102.917 63.877C103.3 63.9232 103.679 64.0158 104.041 64.1504C104.714 64.2934 105.404 64.0705 106.094 64.0074C106.771 63.9779 107.452 64.0242 108.121 64.1546C110.208 64.5543 112.315 64.8445 114.432 65.0254C115.992 65.1096 117.721 65.0717 119.244 65.5008C119.909 65.7364 120.468 66.2118 120.809 66.8302Z" fill="white"></path>
  <path d="M102.488 69.3543C90.2884 71.4578 80.7893 75.244 81.2268 77.7681L81.6097 79.9683C82.0304 82.4924 92.2783 82.8668 104.461 80.7592C116.644 78.6515 126.16 74.8695 125.719 72.3454L125.34 70.1494C124.898 67.5832 114.667 67.2257 102.488 69.3543Z" fill="#0063C1"></path>
  <path d="M103.166 73.2665C89.5649 75.6182 78.9341 79.8293 79.4263 82.6731L79.6535 83.9899C80.1457 86.8337 91.5716 87.2291 105.177 84.8775C118.782 82.5259 129.408 78.3148 128.916 75.4709L128.689 74.1542C128.197 71.3103 116.771 70.9149 103.166 73.2665Z" fill="#0063C1"></path>
  <path opacity="0.2" d="M82.2531 85.7617C82.3877 85.7996 82.5308 85.8332 82.6738 85.8669C82.5308 85.8164 82.3793 85.7828 82.2531 85.7617Z" fill="white"></path>
  <path opacity="0.2" d="M103.166 73.2665C89.5649 75.6182 78.9341 79.8293 79.4263 82.6731L79.6535 83.9899C79.1613 81.1334 89.7921 76.9265 103.414 74.5875C117.036 72.2485 128.441 72.6313 128.933 75.4709L128.706 74.1542C128.197 71.3103 116.771 70.9149 103.166 73.2665Z" fill="white"></path>
  <path d="M101.087 47.597C100.822 49.7005 100.052 52.8851 99.7074 55.0095C99.3625 57.134 100.397 60.428 100.704 61.425C101.012 62.422 103.086 62.2664 103.001 63.0615C102.917 63.8566 106.098 63.9912 106.098 63.9912C106.098 63.9912 91.1969 69.8808 89.6909 69.5064C88.1848 69.132 92.4842 66.1914 93.3088 65.9979C94.1333 65.8044 94.5708 65.2953 95.1261 64.1174C95.6814 62.9395 96.2536 63.1498 96.8341 61.9677C97.3516 61.0843 97.8185 60.1756 98.2308 59.2374C98.8913 57.5968 99.4634 52.5527 98.7693 52.1278C98.0752 51.7029 98.7062 55.9939 98.1088 56.137C97.5114 56.28 98.8871 51.8964 97.0739 49.6836C95.2608 47.4708 101.087 47.597 101.087 47.597Z" fill="#263238"></path>
  <path opacity="0.2" d="M106.093 63.9905C106.093 63.9905 91.1968 69.8801 89.6865 69.5057C88.3108 69.1649 91.8278 66.645 93.052 66.0939C93.1319 66.9605 95.4667 66.0729 96.3922 65.5596C97.3178 65.0464 97.3893 65.4208 97.73 65.2694C98.0708 65.1179 100.654 63.1912 100.385 63.2711C100.115 63.351 98.1928 64.7687 97.73 64.306C97.2673 63.8432 96.5016 64.7267 95.9295 64.9959C95.4331 65.2357 95.3069 64.9454 94.8946 64.5752C94.9745 64.428 95.0503 64.2681 95.1302 64.0998C95.6729 62.9219 96.2534 63.1323 96.8129 61.9501C97.343 61.0835 97.8184 60.1832 98.2391 59.2577C98.9038 57.6171 99.4759 52.573 98.786 52.1481C98.096 51.7232 98.7186 56.0142 98.1255 56.1531C97.5323 56.2919 98.8953 51.9167 97.0864 49.7039C95.2774 47.4911 101.087 47.6005 101.087 47.6005C100.822 49.7039 100.052 52.8885 99.7073 55.013C99.4801 56.4055 99.8461 58.2986 100.212 59.7205C100.115 60.0655 99.9807 60.381 99.8208 60.4314C99.438 60.545 99.1688 61.8534 98.6682 61.8912C98.1676 61.9291 98.5882 62.8504 99.2824 62.4676C99.7409 62.2152 100.464 62.0469 100.965 61.8281C101.613 62.4045 103.069 62.3961 102.993 63.0649C102.921 63.86 106.093 63.9905 106.093 63.9905Z" fill="white"></path>
  <path d="M109.169 37.9799L108.992 38.2702C108.407 39.3093 107.776 40.3147 107.09 41.2907C106.426 42.3256 105.66 43.2932 104.806 44.1808C103.998 44.9591 103.174 45.3251 102.703 46.2548C102.581 46.4862 102.492 46.7302 102.429 46.9826C102.252 47.6851 102.198 48.5307 101.588 48.9262C101.441 49.0019 101.302 49.086 101.167 49.1828C100.86 49.4478 100.877 49.9106 100.797 50.306C100.717 50.7015 100.334 51.1474 99.9555 50.9539C99.5769 50.7604 99.5601 50.2766 99.2193 50.2934C99.1352 50.3102 99.0511 50.3397 98.9711 50.3733C98.6262 50.4617 98.3064 50.1924 98.0414 49.9526C97.7764 49.7129 97.3978 49.4941 97.0949 49.6792C96.1778 48.8378 95.1723 48.0974 94.0912 47.479C93.2161 46.9489 92.3075 46.4736 91.3525 45.9603C89.2491 44.8161 86.8091 43.6886 85.3367 42.5275C84.8571 42.1783 84.4574 41.7366 84.1629 41.2234C84.0746 41.0551 84.0199 40.87 83.9947 40.6807C83.7507 38.6025 90.183 37.9841 92.4084 36.436C94.6338 34.8878 98.1087 35.8807 99.5601 35.5567C101.011 35.2328 102.665 35.6914 104.209 35.5778C105.753 35.4642 106.703 35.0183 107.604 35.6745C108.504 36.3308 109.501 36.1331 109.707 36.6337C109.808 36.9618 109.429 37.5676 109.169 37.9799Z" fill="#263238"></path>
  <path opacity="0.2" d="M107.2 37.3237C105.871 37.067 108.584 37.0166 108.378 36.8609C108.172 36.7052 107.507 36.2004 106.026 36.2509C104.545 36.3014 103.309 36.2004 102.993 36.2509C102.678 36.3014 104.024 36.7095 104.024 36.7095H100.553C99.4257 36.7095 101.323 36.2509 101.323 36.2509H95.4797C95.6353 36.2509 96.7627 36.9156 96.0939 36.9156C95.425 36.9156 94.7098 37.2732 93.7885 37.6308C93.0565 37.9252 92.3035 38.1692 91.5378 38.3501C91.3864 38.3501 93.6412 36.6674 93.7801 36.558C93.6412 36.6169 91.7608 37.3994 90.9741 37.6308C90.1874 37.8621 88.0293 38.6067 87.8442 38.6572C88.2396 38.6825 88.6309 38.6825 89.0263 38.6572C89.0263 38.6572 87.4361 39.4776 86.62 39.5785C86.0058 39.6543 84.5165 40.1591 84.1548 41.2276C84.4492 41.7409 84.8489 42.1826 85.3285 42.5318C86.8009 43.6929 89.2324 44.8203 91.3443 45.9646C92.2993 46.4778 93.2079 46.9532 94.083 47.4832C95.1641 48.1017 96.1696 48.8421 97.0867 49.6834C97.3896 49.4983 97.7724 49.7255 98.0332 49.9569C98.294 50.1883 98.618 50.4617 98.9629 50.3776C99.0429 50.3439 99.127 50.3145 99.2111 50.2976C99.5519 50.2976 99.6318 50.8025 99.9473 50.9581C100.263 51.1138 100.684 50.7057 100.789 50.3103C100.894 49.9148 100.852 49.4689 101.159 49.187C101.294 49.0903 101.432 49.0061 101.58 48.9304C102.194 48.535 102.249 47.6894 102.421 46.9868C102.484 46.7344 102.572 46.4904 102.694 46.259C103.178 45.3293 104.003 44.9633 104.798 44.1851C105.652 43.2974 106.418 42.3298 107.082 41.2949C107.768 40.3189 108.399 39.3135 108.984 38.2744C108.521 37.4709 108.542 37.5803 107.2 37.3237ZM88.1723 42.7547C87.7264 42.7042 89.1693 42.2541 89.1693 42.2541C88.9548 42.5907 88.5762 42.7842 88.1807 42.7547H88.1723ZM88.4416 41.0257C88.4416 41.0257 89.1693 40.4494 89.4764 40.4872C89.7709 40.5083 90.0696 40.5083 90.3641 40.4872C90.3641 40.4872 89.2198 41.2571 88.45 41.0257H88.4416ZM94.2428 45.5228C93.717 45.4219 94.7981 45.1022 95.059 45.1737C95.3198 45.2452 94.8654 45.6364 94.2512 45.5228H94.2428ZM96.8385 39.6332C96.8385 39.6332 94.6088 40.2895 95.059 40.2895H95.9003C95.7447 40.2895 93.4393 40.7901 93.3257 40.7691C93.7632 40.4788 94.2218 40.218 94.6972 39.995C94.6972 39.995 94.5331 39.7889 94.5415 39.7132C94.5499 39.6374 95.0632 39.4818 95.0632 39.4818C95.2441 39.3261 96.0518 39.099 96.3589 39.2883C96.7165 39.4229 97.0951 39.4902 97.4737 39.4818L96.8385 39.6332ZM97.7766 44.2061C97.154 43.6382 99.0008 44.2061 99.0008 44.2061C99.0008 44.2061 98.2057 44.5973 97.785 44.2145L97.7766 44.2061ZM98.7863 38.1061C99.6276 37.5298 99.838 38.1061 99.838 38.1061C99.838 38.1061 98.5128 38.2912 98.7863 38.1061ZM101.702 40.3358L101.054 40.0034C101.323 39.8394 101.626 39.73 101.937 39.6837C102.358 39.6669 102.774 39.7763 103.128 40.0034C103.355 40.1423 101.925 40.4494 101.697 40.3274V40.3358H101.702ZM103.359 43.1628C103.359 43.1628 102.324 43.1375 102.223 43.1628C102.593 43.0029 102.972 42.8683 103.359 42.7631V43.1628ZM104.966 39.0022C104.966 39.0022 105.702 38.8423 106.047 39.2252C106.51 39.7384 104.962 39.0022 104.962 39.0022H104.966Z" fill="white"></path>
  <path d="M129.804 23.1682L138.398 19.8027C138.398 19.8027 148.141 25.503 154.334 26.4454L143.623 28.5488C143.623 28.5488 132.033 26.2687 129.804 23.1682Z" fill="#0063C1"></path>
  <path d="M77.7433 50.7822L84.2724 44.8926C84.2724 44.8926 95.4332 46.5753 104.141 50.7822L95.0462 56.3647C95.0462 56.3647 86.4726 52.0106 77.7433 50.7822Z" fill="#0063C1"></path>
  <path d="M25.4015 58.3084L33.79 55.4141C33.79 55.4141 41.0679 63.1926 46.8692 63.1926L37.2522 67.8117C37.2522 67.8117 27.0001 63.8867 25.4015 58.3084Z" fill="#0063C1"></path>
  <path d="M57.5839 29.1628C57.5839 29.1628 68.5218 27.9007 76.2919 33.9249L72.2912 38.8512C72.2912 38.8512 62.6785 34.7874 54.2647 37.1684L57.5839 29.1628Z" fill="#0063C1"></path>
  <path d="M144.46 74.5762L155.011 76.3767C155.011 76.3767 145.853 82.4683 138.129 83.5705L129.804 80.8739C129.804 80.8739 139.841 79.8263 144.46 74.5762Z" fill="#0063C1"></path>
  <path d="M152.979 56.8983C152.979 56.8983 163.122 56.3515 170.294 59.3257L174.598 55.2198C174.598 55.2198 163.336 50.2851 156.088 52.7504L152.979 56.8983Z" fill="#0063C1"></path>
  <path d="M83.65 95.6822C83.65 95.6822 88.7193 90.3436 101.378 88.9512L109.051 92.4092C109.051 92.4092 97.6042 94.8955 92.3919 97.3144L83.65 95.6822Z" fill="#0063C1"></path>
  <path opacity="0.6" d="M129.804 23.1682L138.398 19.8027C138.398 19.8027 148.141 25.503 154.334 26.4454L143.623 28.5488C143.623 28.5488 132.033 26.2687 129.804 23.1682Z" fill="white"></path>
  <path opacity="0.3" d="M77.7433 50.7822L84.2724 44.8926C84.2724 44.8926 95.4332 46.5753 104.141 50.7822L95.0462 56.3647C95.0462 56.3647 86.4726 52.0106 77.7433 50.7822Z" fill="white"></path>
  <path opacity="0.6" d="M25.4015 58.3084L33.79 55.4141C33.79 55.4141 41.0679 63.1926 46.8692 63.1926L37.2522 67.8117C37.2522 67.8117 27.0001 63.8867 25.4015 58.3084Z" fill="white"></path>
  <path opacity="0.4" d="M57.5839 29.1628C57.5839 29.1628 68.5218 27.9007 76.2919 33.9249L72.2912 38.8512C72.2912 38.8512 62.6785 34.7874 54.2647 37.1684L57.5839 29.1628Z" fill="white"></path>
  <path opacity="0.4" d="M152.979 56.8983C152.979 56.8983 163.122 56.3515 170.294 59.3257L174.598 55.2198C174.598 55.2198 163.336 50.2851 156.088 52.7504L152.979 56.8983Z" fill="white"></path>
  <path opacity="0.4" d="M83.65 95.6822C83.65 95.6822 88.7193 90.3436 101.378 88.9512L109.051 92.4092C109.051 92.4092 97.6042 94.8955 92.3919 97.3144L83.65 95.6822Z" fill="white"></path>
</svg>
