<?xml version="1.0" encoding="UTF-8"?>
<svg xmlns="http://www.w3.org/2000/svg" width="44" height="45" viewBox="0 0 44 45" fill="none">
  <path d="M29.67 4.625H14.3181C12.8102 4.625 11.4685 5.5511 10.9224 6.95213L8.38151 13.4942H35.6066L33.0658 6.95213C32.5196 5.5511 31.1661 4.625 29.67 4.625Z" fill="#00a5fb"></path>
  <path d="M37.7794 9.45703H6.22061C4.20751 9.45703 2.57555 11.089 2.57555 13.1021V36.7296C2.57555 38.7427 4.20751 40.3747 6.22061 40.3747H37.7794C39.7925 40.3747 41.4244 38.7427 41.4244 36.7296V13.1021C41.4244 11.089 39.7925 9.45703 37.7794 9.45703Z" fill="#ff7800"></path>
  <path d="M22 34.3087C27.1869 34.3087 31.3917 30.1039 31.3917 24.917C31.3917 19.7302 27.1869 15.5254 22 15.5254C16.8132 15.5254 12.6084 19.7302 12.6084 24.917C12.6084 30.1039 16.8132 34.3087 22 34.3087Z" fill="white"></path>
  <path d="M22 31.1143C25.423 31.1143 28.1978 28.3395 28.1978 24.9165C28.1978 21.4936 25.423 18.7188 22 18.7188C18.5771 18.7188 15.8023 21.4936 15.8023 24.9165C15.8023 28.3395 18.5771 31.1143 22 31.1143Z" fill="#00a5fb"></path>
  <path d="M34.5736 19.0612C35.4589 19.0612 36.1765 18.3436 36.1765 17.4583C36.1765 16.5731 35.4589 15.8555 34.5736 15.8555C33.6884 15.8555 32.9707 16.5731 32.9707 17.4583C32.9707 18.3436 33.6884 19.0612 34.5736 19.0612Z" fill="white"></path>
</svg>
