<?xml version="1.0" encoding="UTF-8"?>
<svg xmlns="http://www.w3.org/2000/svg" width="44" height="45" viewBox="0 0 44 45" fill="none">
  <path d="M38.1176 4.1733H19.2453C16.6281 4.1733 14.4845 6.10657 14.1031 8.61851C18.6009 9.01305 22.1518 12.8007 22.1518 17.4168V20.468C22.1518 23.072 21.0207 25.3998 19.2321 27.0174C24.8084 28.0827 28.0831 30.7919 28.4118 34.8426C28.4382 35.1976 28.4513 35.7894 28.4776 36.4733C28.5171 38.0778 27.9647 39.5902 26.9783 40.8396H38.1045C40.9847 40.8396 43.3125 38.4987 43.3125 35.6185V9.38128C43.3125 6.50111 40.9715 4.16016 38.1045 4.16016L38.1176 4.1733Z" fill="#00a5fb"></path>
  <path d="M13.1825 11.2224H13.3797C13.8137 11.2224 14.2214 11.2093 14.6423 11.1961C17.4304 11.7879 19.5346 14.2867 19.5346 17.2589V20.3101C19.5346 23.7426 16.7597 26.5176 13.3534 26.5176C9.93405 26.5176 7.17224 23.7426 7.17224 20.3101V17.2589C7.17224 14.2735 9.26333 11.8011 12.0514 11.1961C12.4328 11.1961 12.8011 11.2224 13.1956 11.2224H13.1825Z" fill="#ff7800"></path>
  <path d="M25.7948 35.0281C25.4265 30.5566 19.3505 29.123 13.3666 29.123H13.1693C7.18541 29.123 1.10943 30.5434 0.741187 35.0149C0.714884 35.3305 0.701721 35.8566 0.68857 36.4879C0.635964 38.842 2.52979 40.7884 4.89706 40.7884L21.6257 40.8279C23.993 40.8279 25.8868 38.8814 25.8342 36.5142C25.8211 35.8829 25.8079 35.3305 25.7816 35.0149L25.7948 35.0281Z" fill="#ff7800"></path>
  <path d="M36.7367 10.3926H29.9111C28.9814 10.3926 28.2277 11.1463 28.2277 12.076V12.0891C28.2277 13.0188 28.9814 13.7725 29.9111 13.7725H36.7367C37.6664 13.7725 38.4201 13.0188 38.4201 12.0891V12.076C38.4201 11.1463 37.6664 10.3926 36.7367 10.3926Z" fill="#ff7800"></path>
  <path d="M36.7367 17.3789H29.9111C28.9814 17.3789 28.2277 18.1326 28.2277 19.0623V19.0754C28.2277 20.0051 28.9814 20.7588 29.9111 20.7588H36.7367C37.6664 20.7588 38.4201 20.0051 38.4201 19.0754V19.0623C38.4201 18.1326 37.6664 17.3789 36.7367 17.3789Z" fill="#ff7800"></path>
</svg>
