<?xml version="1.0" encoding="UTF-8"?>
<svg xmlns="http://www.w3.org/2000/svg" width="64" height="64" viewBox="0 0 64 64" fill="none">
  <path d="M57.5079 31.9994C57.5079 30.0698 57.2848 28.1983 56.8776 26.3947L62.2011 21.4687C60.8824 17.6482 58.8557 14.1379 56.2667 11.1513L49.3238 13.2749C46.5602 10.715 43.2342 8.75621 39.5494 7.62169L37.9494 0.552718C36.0391 0.193936 34.0513 0 32.015 0C29.9786 0 27.952 0.203633 26.0417 0.552718L24.4418 7.62169C20.757 8.76591 17.431 10.715 14.6674 13.2749L7.72448 11.1513C5.13544 14.1379 3.1088 17.6385 1.79004 21.4687L7.11358 26.3753C6.70632 28.1886 6.48329 30.0698 6.48329 32.0091C6.48329 33.9485 6.70632 35.8297 7.11358 37.6527L1.79004 42.569C3.1088 46.3895 5.13544 49.8997 7.72448 52.8864L14.6965 50.7531C17.4504 53.2936 20.7667 55.2427 24.4418 56.3772L26.0417 63.4462C27.952 63.805 29.9883 63.9989 32.015 63.9989C34.0416 63.9989 36.0391 63.7953 37.9494 63.4462L39.5494 56.3772C43.2245 55.2427 46.5408 53.2936 49.2947 50.7531L56.2764 52.8864C58.8654 49.8997 60.8921 46.3992 62.2108 42.569L56.8873 37.6139C57.2945 35.8103 57.5176 33.9291 57.5176 31.9994H57.5079Z" fill="#00a5fb"></path>
  <path d="M44.3422 19.6571C41.0453 16.3602 36.6623 14.5469 31.9982 14.5469C27.334 14.5469 22.9511 16.3602 19.6542 19.6571C16.3572 22.954 14.5439 27.337 14.5439 32.0011C14.5439 35.9768 15.8724 39.7392 18.3063 42.8131C18.7233 43.3464 19.1693 43.8603 19.6542 44.3451C26.4613 51.1523 37.5351 51.1523 44.3422 44.3451C44.6913 43.9961 45.021 43.6179 45.341 43.2397C47.9979 40.098 49.4524 36.1611 49.4524 32.0011C49.4524 27.337 47.6391 22.954 44.3422 19.6571Z" fill="white"></path>
  <path d="M31.7733 35.7445C35.6521 35.7445 38.8035 32.5833 38.8035 28.6949V25.2332C38.8035 21.3351 35.6521 18.1836 31.7733 18.1836C27.8946 18.1836 24.7432 21.3448 24.7432 25.2332V28.6949C24.7432 32.593 27.8946 35.7445 31.7733 35.7445Z" fill="#ff7800"></path>
  <path d="M31.691 38.5451C26.0863 38.5354 20.3942 39.6117 18.29 42.8117C18.707 43.345 19.1531 43.8589 19.6379 44.3438C26.445 51.1509 37.5188 51.1509 44.326 44.3438C44.675 43.9947 45.0047 43.6165 45.3247 43.2383C43.4629 39.699 37.5285 38.516 31.6813 38.5354L31.691 38.5451Z" fill="#ff7800"></path>
</svg>
