<?xml version="1.0" encoding="UTF-8"?>
<svg xmlns="http://www.w3.org/2000/svg" width="44" height="45" viewBox="0 0 44 45" fill="none">
  <path d="M18.2875 8.69531H25.7125C31.5287 8.69531 36.245 13.4116 36.245 19.2278V39.6466C36.245 41.6541 34.6225 43.2766 32.615 43.2766H11.385C9.3775 43.2766 7.755 41.6541 7.755 39.6466V19.2278C7.755 13.4116 12.4712 8.69531 18.2875 8.69531Z" fill="#00a5fb"></path>
  <path d="M36.245 20.2871H22.385C20.1068 20.2871 18.26 22.1339 18.26 24.4121V29.8571C18.26 32.1353 20.1068 33.9821 22.385 33.9821H36.245V20.2871Z" fill="#ff7800"></path>
  <path d="M31.5563 1.72461H12.4438C11.3274 1.72461 10.4225 2.62956 10.4225 3.74586V9.87835C10.4225 10.9947 11.3274 11.8996 12.4438 11.8996H31.5563C32.6726 11.8996 33.5775 10.9947 33.5775 9.87835V3.74586C33.5775 2.62956 32.6726 1.72461 31.5563 1.72461Z" fill="#ff7800"></path>
</svg>
