<?xml version="1.0" encoding="UTF-8"?>
<svg xmlns="http://www.w3.org/2000/svg" width="56" height="56" viewBox="0 0 56 56" fill="none">
  <path d="M31.7431 34.4469C29.453 33.501 28.4326 31.2939 28.4326 28.8212L28.4324 26.8099H9.27855C8.61475 26.8099 7.96754 26.7103 7.35352 26.5277L7.35363 45.7451C7.35363 49.479 10.3739 52.4993 14.1078 52.4993H41.8993C45.6332 52.4993 48.6535 49.479 48.6535 45.7451V22.5603L38.3812 33.1359C36.6221 34.895 34.0167 35.4094 31.7265 34.4635L31.7431 34.4469Z" fill="#00a5fb"></path>
  <path fill-rule="evenodd" clip-rule="evenodd" d="M48.1839 17.5067L47.3118 18.3788L35.1518 30.5388C34.148 31.5426 32.4367 30.835 32.4367 29.4034V23.1238H9.43838C8.64855 23.1238 7.97391 22.696 7.61191 22.0378C7.44736 21.7416 7.34863 21.4125 7.34863 21.034V11.6807C7.34863 10.5454 8.2701 9.60746 9.43838 9.60746H32.4367V3.35565C32.4367 1.9241 34.148 1.21654 35.1518 2.22028L48.1839 15.2524C48.8092 15.8612 48.8092 16.8814 48.1839 17.5067Z" fill="#ff7800"></path>
  <path d="M18.2629 45.3844C19.983 45.3844 21.3695 43.9979 21.3695 42.2778C21.3695 40.5577 19.983 39.1711 18.2629 39.1711C16.5428 39.1711 15.1562 40.5577 15.1562 42.2778C15.1562 43.9979 16.5428 45.3844 18.2629 45.3844Z" fill="#ff7800"></path>
  <path d="M28.0031 45.3844C29.7232 45.3844 31.1098 43.9979 31.1098 42.2778C31.1098 40.5577 29.7232 39.1711 28.0031 39.1711C26.2831 39.1711 24.8965 40.5577 24.8965 42.2778C24.8965 43.9979 26.2831 45.3844 28.0031 45.3844Z" fill="#ff7800"></path>
  <path d="M37.7434 45.3844C39.4634 45.3844 40.85 43.9979 40.85 42.2778C40.85 40.5577 39.4634 39.1711 37.7434 39.1711C36.0233 39.1711 34.6367 40.5577 34.6367 42.2778C34.6367 43.9979 36.0233 45.3844 37.7434 45.3844Z" fill="#ff7800"></path>
</svg>
