<?xml version="1.0" encoding="UTF-8"?>
<svg xmlns="http://www.w3.org/2000/svg" width="60" height="60" viewBox="0 0 60 60" fill="none">
  <path d="M30.0926 0.00288329C19.4561 -0.153659 19.4561 19.5011 30.0926 19.3445C40.729 19.5011 40.729 -0.153659 30.0926 0.00288329Z" fill="#00a5fb"></path>
  <path d="M41.512 38.0234C45.7909 38.1452 48.0174 33.7185 47.2607 30.005C46.7476 23.8216 38.2941 21.8648 29.9972 21.8909C21.7003 21.8735 13.2555 23.8216 12.7337 30.005C12.0031 33.6924 14.2121 38.0582 18.4563 37.9625L41.5033 38.0234H41.512Z" fill="#00a5fb"></path>
  <path d="M48.3032 27.7871H11.6975C8.60427 27.7871 6.09668 30.2946 6.09668 33.3878V54.3993C6.09668 57.4924 8.60427 60 11.6975 60H48.3032C51.3965 60 53.9041 57.4924 53.9041 54.3993V33.3878C53.9041 30.2946 51.3965 27.7871 48.3032 27.7871Z" fill="#ff7800"></path>
  <path d="M29.996 54.8521C28.7176 54.8521 27.6826 53.8172 27.6826 52.5387V34.6669C27.6826 33.3884 28.7176 32.3535 29.996 32.3535C31.2745 32.3535 32.3094 33.3884 32.3094 34.6669V52.5387C32.3094 53.8172 31.2745 54.8521 29.996 54.8521Z" fill="white"></path>
  <path d="M29.9972 42.9647C25.3443 42.9647 21.0915 41.7646 18.3172 39.6774C17.2996 38.912 17.0909 37.4597 17.8649 36.4422C18.6303 35.4246 20.0827 35.2159 21.1002 35.9899C23.0309 37.4423 26.4315 38.3467 29.9972 38.3467C33.563 38.3467 36.9635 37.4423 38.8943 35.9899C39.9118 35.2246 41.3642 35.4246 42.1295 36.4422C42.8949 37.4597 42.6948 38.912 41.6773 39.6774C38.903 41.7646 34.6501 42.9647 29.9972 42.9647Z" fill="white"></path>
  <path d="M29.9964 50.9727C25.3435 50.9727 21.0907 49.7726 18.3164 47.6853C17.2988 46.92 17.0988 45.4677 17.8641 44.4501C18.6295 43.4326 20.0819 43.2326 21.0994 43.9979C23.0214 45.4503 26.4307 46.3547 29.9964 46.3547C33.5622 46.3547 36.9627 45.4503 38.8935 43.9979C39.911 43.2326 41.3634 43.4326 42.1287 44.4501C42.8941 45.4677 42.694 46.92 41.6765 47.6853C38.9109 49.7726 34.6493 50.9727 29.9964 50.9727Z" fill="white"></path>
</svg>
