<?xml version="1.0" encoding="UTF-8"?>
<svg xmlns="http://www.w3.org/2000/svg" width="44" height="45" viewBox="0 0 44 45" fill="none">
  <g clip-path="url(#clip0_509_19181)">
    <path d="M21.7803 44.0463C16.2004 44.0463 10.6276 41.9244 6.38369 37.6805C2.26841 33.5652 0.00357056 28.0924 0.00357056 22.2767C0.00357056 16.461 2.26841 10.9954 6.38369 6.88012C10.499 2.76484 15.9646 0.5 21.7803 0.5C27.596 0.5 33.0687 2.76484 37.1769 6.88012C41.2922 10.9954 43.557 16.461 43.557 22.2767C43.557 28.0924 41.2922 33.5652 37.1769 37.6733C32.933 41.9172 27.3531 44.0392 21.7803 44.0392V44.0463ZM21.7803 6.91584C17.6793 6.91584 13.8212 8.51623 10.9134 11.4169C8.00552 14.3176 6.41227 18.1757 6.41227 22.2839C6.41227 26.392 8.01266 30.2429 10.9134 33.1508C16.9077 39.1451 26.6529 39.1451 32.6401 33.1508C35.5408 30.2501 37.1412 26.392 37.1412 22.2839C37.1412 18.1757 35.5408 14.3248 32.6401 11.4169C29.7394 8.51623 25.8813 6.91584 21.7731 6.91584H21.7803Z" fill="#00a5fb"></path>
    <path d="M43.307 38.4594L36.3124 31.4648L30.9683 36.809L37.9628 43.8036C38.8916 44.7324 40.392 44.7324 41.3208 43.8036L43.2998 41.8245C44.2286 40.8957 44.2286 39.3953 43.2998 38.4665L43.307 38.4594Z" fill="#00a5fb"></path>
    <path d="M27.4582 19.7083H24.7918V17.0418C24.7918 15.5027 23.539 14.25 22 14.25C20.461 14.25 19.2082 15.5027 19.2082 17.0418V19.7083H16.5418C15.0027 19.7083 13.75 20.961 13.75 22.5C13.75 24.0391 15.0027 25.2918 16.5418 25.2918H19.2082V27.9582C19.2082 29.4973 20.461 30.75 22 30.75C23.539 30.75 24.7918 29.4973 24.7918 27.9582V25.2918H27.4582C28.9973 25.2918 30.25 24.0391 30.25 22.5C30.25 20.961 28.9973 19.7083 27.4582 19.7083Z" fill="#ff7800"></path>
  </g>
  <defs>
    <clipPath id="clip0_509_19181">
      <rect width="44" height="44" fill="white" transform="translate(0 0.5)"></rect>
    </clipPath>
  </defs>
</svg>
