<?xml version="1.0" encoding="UTF-8"?>
<svg xmlns="http://www.w3.org/2000/svg" width="65" height="64" viewBox="0 0 65 64" fill="none">
  <path d="M40.0387 23.2093C38.9752 25.7842 36.4936 27.4449 33.7134 27.4449L31.4001 27.4449L31.4001 60.1089L31.4001 60.0289L52.7418 60.0289C56.94 60.0289 60.3359 56.633 60.3359 52.4348L60.3356 11.59C60.3356 7.39182 56.9397 3.99593 52.7415 3.99593L27.0146 3.99593L38.5647 15.7459C40.5425 17.7237 41.1209 20.6531 40.0574 23.228L40.0387 23.2093Z" fill="#00a5fb"></path>
  <path fill-rule="evenodd" clip-rule="evenodd" d="M20.2022 4.53153L34.9799 19.3092C36.1181 20.4474 35.3157 22.3879 33.6924 22.3879L26.2054 22.3879L26.2054 57.7316C26.2054 58.6272 25.7203 59.3922 24.974 59.8027C24.6381 59.9893 24.2649 60.1012 23.8358 60.1012C17.0551 60.1012 11.5583 54.6044 11.5583 47.8238L11.5583 22.3879L4.15568 22.3879C2.53238 22.3879 1.73005 20.4474 2.86823 19.3092L17.6459 4.53153C18.3363 3.8225 19.4931 3.8225 20.2022 4.53153Z" fill="#ff7800"></path>
  <path d="M44.5327 29.0698C44.5327 29.0698 44.4827 29.1026 44.4494 29.1354L39.1043 34.3969C38.3051 35.1837 38.3051 36.4786 39.1043 37.2817C39.9036 38.0685 41.2191 38.0685 42.035 37.2817L45.9148 33.4626L49.7945 37.2817C50.6105 38.0685 51.9093 38.0685 52.7252 37.2817C53.1248 36.8884 53.3413 36.3802 53.3413 35.8393C53.3413 35.2984 53.1248 34.7739 52.7252 34.3969L47.3801 29.1354C46.9971 28.7584 46.4643 28.5453 45.9148 28.5453C45.3986 28.5453 44.899 28.742 44.516 29.0698L44.5327 29.0698Z" fill="#ff7800"></path>
  <path d="M44.5327 40.3472C44.5327 40.3472 44.4827 40.3799 44.4494 40.4127L39.1043 45.6743C38.3051 46.461 38.3051 47.7559 39.1043 48.5591C39.9036 49.3459 41.2191 49.3459 42.035 48.5591L45.9148 44.74L49.7945 48.5591C50.6105 49.3459 51.9093 49.3459 52.7252 48.5591C53.1248 48.1657 53.3413 47.6576 53.3413 47.1167C53.3413 46.5758 53.1248 46.0513 52.7252 45.6743L47.3801 40.4127C46.9971 40.0357 46.4643 39.8227 45.9148 39.8227C45.3986 39.8227 44.899 40.0193 44.516 40.3472L44.5327 40.3472Z" fill="#ff7800"></path>
</svg>
