<?xml version="1.0" encoding="UTF-8"?>
<svg xmlns="http://www.w3.org/2000/svg" width="65" height="64" viewBox="0 0 65 64" fill="none">
  <path d="M21.6026 12.468L26.6955 7.38722C27.9544 6.13128 27.0579 4 25.284 4H6.09507C4.98875 4 4.11133 4.89438 4.11133 5.97905V25.1416C4.11133 26.9113 6.24767 27.7866 7.50658 26.5497L12.5995 21.4689L20.3437 29.1948C21.1257 29.975 22.3846 29.975 23.1476 29.1948L29.3659 23.0103C30.1479 22.2301 30.1479 20.9741 29.3659 20.213L21.6217 12.4871L21.6026 12.468Z" fill="#00a5fb"></path>
  <path d="M51.6433 21.4607L56.7241 26.5536C57.98 27.8125 60.1113 26.916 60.1113 25.1421L60.1113 5.95322C60.1113 4.84691 59.217 3.96948 58.1323 3.96948L38.9698 3.96948C37.2 3.96948 36.3247 6.10582 37.5616 7.36473L42.6424 12.4576L34.9165 20.2018C34.1363 20.9839 34.1363 22.2428 34.9165 23.0058L41.101 29.224C41.8812 30.0061 43.1372 30.0061 43.8984 29.224L51.6243 21.4798L51.6433 21.4607Z" fill="#ff7800"></path>
  <path d="M42.6201 51.5017L37.5272 56.5825C36.2683 57.8384 37.1648 59.9697 38.9387 59.9697L58.1276 59.9697C59.2339 59.9697 60.1113 59.0753 60.1113 57.9907L60.1113 38.8282C60.1113 37.0584 57.975 36.1831 56.7161 37.42L51.6232 42.5008L43.879 34.7749C43.0969 33.9947 41.838 33.9947 41.075 34.7749L34.8568 40.9594C34.0747 41.7396 34.0747 42.9956 34.8568 43.7568L42.601 51.4827L42.6201 51.5017Z" fill="#00a5fb"></path>
  <path d="M12.5833 42.5087L7.50245 37.4159C6.24652 36.1569 4.11523 37.0534 4.11523 38.8274L4.11523 58.0163C4.11523 59.1226 5.00961 60 6.09428 60L25.2568 60C27.0265 60 27.9019 57.8637 26.665 56.6047L21.5841 51.5119L29.31 43.7676C30.0903 42.9856 30.0903 41.7267 29.31 40.9637L23.1255 34.7454C22.3453 33.9634 21.0894 33.9634 20.3282 34.7454L12.6023 42.4897L12.5833 42.5087Z" fill="#ff7800"></path>
</svg>
