<?xml version="1.0" encoding="UTF-8"?>
<svg xmlns="http://www.w3.org/2000/svg" width="56" height="57" viewBox="0 0 56 57" fill="none">
  <path d="M27.9923 54.6868C21.2661 54.6868 14.5564 52.1355 9.43714 47.0162C4.48357 42.0627 1.75 35.469 1.75 28.4611C1.75 21.4532 4.48357 14.8595 9.43714 9.90589C14.4073 4.95232 20.9844 2.21875 27.9923 2.21875C35.0002 2.21875 41.5939 4.95232 46.5475 9.90589C51.5011 14.8595 54.2346 21.4532 54.2346 28.4611C54.2346 35.469 51.5011 42.0627 46.5475 47.0162C41.4283 52.1355 34.7186 54.6868 27.9923 54.6868ZM27.9923 9.95559C23.0553 9.95559 18.4 11.8774 14.9043 15.373C11.4086 18.8687 9.48685 23.5241 9.48685 28.4611C9.48685 33.3981 11.4086 38.0534 14.9043 41.5491C22.1276 48.7724 33.8736 48.7724 41.0803 41.5491C44.576 38.0534 46.4978 33.3981 46.4978 28.4611C46.4978 23.5241 44.576 18.8687 41.0803 15.373C37.5847 11.8774 32.9293 9.95559 27.9923 9.95559Z" fill="#ff7800"></path>
  <path d="M34.5133 25.1383H31.3305V21.9555C31.3305 20.118 29.8375 18.625 28 18.625C26.1625 18.625 24.6695 20.118 24.6695 21.9555V25.1383H21.4867C19.6492 25.1383 18.1562 26.6313 18.1562 28.4688C18.1562 30.3062 19.6492 31.7992 21.4867 31.7992H24.6695V34.982C24.6695 36.8195 26.1625 38.3125 28 38.3125C29.8375 38.3125 31.3305 36.8195 31.3305 34.982V31.7992H34.5133C36.3508 31.7992 37.8438 30.3062 37.8438 28.4688C37.8438 26.6313 36.3508 25.1383 34.5133 25.1383Z" fill="#00a5fb"></path>
  <path d="M44.0829 43.1228L42.6521 44.5536C41.2852 45.9204 41.2852 48.1365 42.6521 49.5033L46.8439 53.6951C48.2107 55.062 50.4268 55.062 51.7936 53.6951L53.2244 52.2643C54.5913 50.8975 54.5913 48.6814 53.2244 47.3146L49.0326 43.1228C47.6658 41.7559 45.4497 41.7559 44.0829 43.1228Z" fill="#ff7800"></path>
</svg>
