<?xml version="1.0" encoding="UTF-8"?>
<svg xmlns="http://www.w3.org/2000/svg" width="44" height="45" viewBox="0 0 44 45" fill="none">
  <path d="M42.24 36.2479V12.2712C42.24 7.71395 38.5456 4.01953 33.9883 4.01953L10.0117 4.01953C5.4544 4.01953 1.75999 7.71395 1.75999 12.2712V36.2479C1.75999 40.8051 5.4544 44.4996 10.0117 44.4996H33.9883C38.5456 44.4996 42.24 40.8051 42.24 36.2479Z" fill="#ff7800"></path>
  <path d="M29.2126 32.3685L32.1123 33.2532C33.1833 32.0162 34.0318 30.5662 34.5837 28.9852L32.3677 26.929C32.5407 26.1835 32.6231 25.4052 32.6231 24.6024C32.6231 23.7996 32.5325 23.0295 32.3677 22.2759L34.5837 20.236C34.04 18.655 33.1915 17.1968 32.1123 15.968L29.2208 16.8527C28.0757 15.7878 26.6835 14.9849 25.1512 14.5098L24.4839 11.577C23.6849 11.4296 22.8611 11.3477 22.0125 11.3477C21.164 11.3477 20.3237 11.4296 19.5247 11.577L18.8574 14.5098C17.3251 14.9767 15.9329 15.7959 14.7878 16.8527L11.8963 15.968C10.8253 17.205 9.97681 18.655 9.42486 20.236L11.6409 22.2677C11.4679 23.0132 11.3773 23.7996 11.3773 24.5942C11.3773 25.3888 11.4679 26.1753 11.6409 26.929L9.41663 28.977C9.96033 30.558 10.8088 32.0162 11.888 33.245L14.7878 32.3603C15.9329 33.4171 17.3169 34.2199 18.8409 34.6868L19.5082 37.6196C20.3073 37.7671 21.1475 37.849 21.9961 37.849C22.8446 37.849 23.6766 37.7671 24.4675 37.6196L25.1347 34.6868C26.6588 34.2199 28.0428 33.4089 29.1878 32.3603H29.2126V32.3685ZM22.0125 29.2719C19.4093 29.2719 17.3004 27.1747 17.3004 24.586C17.3004 21.9973 19.4093 19.9002 22.0125 19.9002C24.6157 19.9002 26.7247 21.9973 26.7247 24.586C26.7247 27.1747 24.6157 29.2719 22.0125 29.2719Z" fill="white"></path>
</svg>
