<?xml version="1.0" encoding="UTF-8"?>
<svg xmlns="http://www.w3.org/2000/svg" width="56" height="56" viewBox="0 0 56 56" fill="none">
  <path d="M4.086 15.2412C3.90556 15.0951 3.73265 14.9449 3.56836 14.7904V28.1029C3.57384 28.9095 4.0557 29.8155 5.23617 30.7661C6.40934 31.7107 8.1595 32.601 10.4007 33.3656C14.8743 34.8917 21.1078 35.851 28.0347 35.851C34.9615 35.851 41.1951 34.8917 45.6686 33.3656C47.9099 32.601 49.66 31.7107 50.8332 30.7661C52.0137 29.8155 52.4956 28.9094 52.501 28.1028V14.783C52.3365 14.9373 52.1634 15.0875 51.9827 15.2334C50.5849 16.3624 48.618 17.3391 46.268 18.1423C41.761 19.6828 35.6622 20.6466 28.9421 20.7265V20.7461H28.0347C20.9572 20.7461 14.5103 19.7662 9.80109 18.1547C7.45098 17.3506 5.48385 16.3724 4.086 15.2412Z" fill="#3E83CC"></path>
  <path d="M3.56641 9.50955C3.56641 8.70327 4.04314 7.79683 5.22173 6.8446C6.39208 5.89903 8.14117 5.00722 10.3831 4.2411C14.8578 2.71194 21.0979 1.75 28.0327 1.75C34.9675 1.75 41.2077 2.71194 45.6824 4.2411C47.9243 5.00722 49.6734 5.89903 50.8437 6.8446C52.0223 7.79683 52.4991 8.70327 52.4991 9.50955C52.4991 10.3158 52.0223 11.2223 50.8437 12.1745C49.6734 13.1201 47.9243 14.0119 45.6824 14.778C41.2077 16.3071 34.9675 17.2691 28.0327 17.2691C21.0979 17.2691 14.8578 16.3071 10.3831 14.778C8.14117 14.0119 6.39208 13.1201 5.22173 12.1745C4.04314 11.2223 3.56641 10.3158 3.56641 9.50955Z" fill="#9CC3E5"></path>
  <path d="M3.5 46.5013V33.1814C3.6645 33.3358 3.83764 33.486 4.01831 33.6319C5.41607 34.7608 7.38304 35.7376 9.73303 36.5408C14.442 38.1503 20.8888 39.1303 27.9663 39.1303C35.0439 39.1303 41.4906 38.1503 46.1996 36.5408C48.5496 35.7376 50.5166 34.7608 51.9143 33.6319C52.095 33.486 52.2682 33.3358 52.4327 33.1814V46.5012C52.4272 47.3078 51.9454 48.2139 50.7648 49.1645C49.5917 50.1091 47.8415 50.9995 45.6003 51.764C41.1267 53.2902 34.8932 54.2494 27.9663 54.2494C21.0395 54.2494 14.8059 53.2902 10.3324 51.764C8.09114 50.9995 6.34098 50.1091 5.16781 49.1645C3.98734 48.214 3.50548 47.3079 3.5 46.5013Z" fill="#0063C1"></path>
</svg>
