<?xml version="1.0" encoding="UTF-8"?>
<svg xmlns="http://www.w3.org/2000/svg" width="44" height="45" viewBox="0 0 44 45" fill="none">
  <g clip-path="url(#clip0_633_9075)">
    <path d="M8.82797 41.6386C8.4491 41.6386 8.05759 41.5376 7.70398 41.3355C6.6305 40.7167 6.27688 39.3401 6.89571 38.2667L15.4709 23.5411C15.875 22.8465 16.6075 22.4297 17.4158 22.4297C18.2241 22.4297 18.9566 22.8591 19.3607 23.5411L27.9359 38.2667C28.5547 39.3401 28.2011 40.7167 27.1276 41.3355C26.0541 41.967 24.6776 41.5881 24.0587 40.5273L17.4284 29.1231L10.7981 40.5273C10.3814 41.2472 9.63624 41.6386 8.85323 41.6386H8.82797Z" fill="#ff7800"></path>
    <path d="M40.742 25.259L31.4848 19.0707C30.2724 18.2624 30.2472 16.4817 31.4343 15.6356L40.6915 9.00526C42.0681 8.02018 44.0003 9.00527 44.0003 10.6976V23.5162C44.0003 25.1832 42.1438 26.1809 40.7546 25.2464L40.742 25.259Z" fill="#ff7800"></path>
    <path d="M31.3077 3.35938H3.48565C1.56058 3.35938 0 4.91995 0 6.84502V27.1906C0 29.1156 1.56058 30.6762 3.48565 30.6762H31.3077C33.2328 30.6762 34.7933 29.1156 34.7933 27.1906V6.84502C34.7933 4.91995 33.2328 3.35938 31.3077 3.35938Z" fill="#00a5fb"></path>
    <path d="M21.6966 19.1602H19.5371V21.3198C19.5371 22.4943 18.5772 23.4541 17.4027 23.4541C16.2282 23.4541 15.2684 22.4943 15.2684 21.3198V19.1602H13.1088C11.9343 19.1602 10.9745 18.2004 10.9745 17.0259C10.9745 15.8514 11.9343 14.8916 13.1088 14.8916H15.2684V12.732C15.2684 11.5575 16.2282 10.5977 17.4027 10.5977C18.5772 10.5977 19.5371 11.5575 19.5371 12.732V14.8916H21.6966C22.8712 14.8916 23.831 15.8514 23.831 17.0259C23.831 18.2004 22.8712 19.1602 21.6966 19.1602Z" fill="#ff7800"></path>
  </g>
  <defs>
    <clipPath id="clip0_633_9075">
      <rect width="44" height="44" fill="white" transform="translate(0 0.5)"></rect>
    </clipPath>
  </defs>
</svg>
