<?xml version="1.0" encoding="UTF-8"?>
<svg xmlns="http://www.w3.org/2000/svg" width="48" height="48" viewBox="0 0 48 48" fill="none">
  <circle cx="24" cy="24" r="22.5" fill="#ff7800"></circle>
  <path fill-rule="evenodd" clip-rule="evenodd" d="M33.6558 12.6286C37.2497 15.5256 36.1677 20.2338 33.5919 24.4835C32.1552 26.8538 34.6782 33.4113 30.0685 37.7686C29.298 38.497 26.8999 40.2071 26.6112 33.6095C26.5091 29.0764 25.2546 28.1426 24.0001 28.1405C22.7455 28.1419 21.491 29.0764 21.3889 33.6095C21.1003 40.2078 18.7021 38.497 17.9316 37.7686C13.3219 33.4113 15.8449 26.8538 14.4082 24.4835C11.8331 20.2338 10.7519 15.5263 14.3451 12.6286C18.3224 9.42233 22.8249 13.0744 24.0001 13.002C25.1753 13.0744 29.6777 9.42233 33.655 12.6286H33.6558Z" fill="white"></path>
</svg>
