<?xml version="1.0" encoding="UTF-8"?>
<svg xmlns="http://www.w3.org/2000/svg" width="200" height="107" viewBox="0 0 200 107" fill="none">
  <ellipse cx="98.4599" cy="94.9694" rx="29.1496" ry="5.82483" fill="#BDDAF4"></ellipse>
  <path opacity="0.9" d="M109.647 21.0698C108.904 19.6108 108.109 18.0906 107.209 16.4044L108.083 15.9238C108.956 17.61 109.786 19.139 110.529 20.6068L109.647 21.0698Z" fill="#0063C1"></path>
  <path opacity="0.9" d="M98.9176 96.6696C73.7555 96.6696 65.1235 75.2644 74.4545 57.4762C81.5896 43.9309 81.7316 35.1117 78.9285 27.3211C78.6292 26.4893 79.6359 25.7385 80.2931 26.3297C87.3647 32.692 89.7272 37.776 89.7272 37.776C89.7272 37.776 86.6507 25.2827 96.0053 7.78367C96.3685 7.10415 97.4131 7.2506 97.6495 7.98395C101.703 20.5568 118.92 34.7595 115.177 53.0029C118.742 48.278 118.41 41.7171 117.635 35.9657C117.514 35.0681 118.624 34.6682 119.045 35.4701C130.835 57.9219 133.048 96.6696 98.9176 96.6696Z" fill="#0063C1"></path>
  <path opacity="0.3" d="M99.8293 93.9775C113.437 92.9735 117.249 81.0395 111.469 71.7911C106.433 63.7344 107.812 54.2003 109.657 49.3434C104.964 53.7269 101.573 64.1109 101.573 64.1109C101.573 64.1109 104.608 50.2982 98.0938 40.707C98.0938 55.4769 86.3444 60.7305 89.2503 71.0074C86.6219 67.9954 86.3281 60.7632 86.6219 57.2287C80.206 69.4728 80.3692 95.4141 99.8293 93.9775Z" fill="white"></path>
  <path d="M64.1353 53.1016L64.1353 56.7728M65.9777 54.9372H62.2925" stroke="#093E8E" stroke-width="1.66667" stroke-linecap="round"></path>
  <path d="M122.258 19.4883L122.258 23.1595M124.1 21.3239H120.415" stroke="#093E8E" stroke-width="1.66667" stroke-linecap="round"></path>
  <path d="M132.924 37.7208L132.924 37.7211C133.209 38.9943 134.506 39.7493 135.784 39.4174L135.784 39.4174L135.787 39.4169C137.061 39.0766 137.839 37.766 137.503 36.5151C137.18 35.2808 135.898 34.5789 134.664 34.9083C133.433 35.237 132.649 36.4839 132.924 37.7208ZM134.873 35.7142C135.675 35.5002 136.482 35.962 136.69 36.7295C136.896 37.5239 136.399 38.3755 135.566 38.5977C134.739 38.8185 133.925 38.3262 133.744 37.531C133.565 36.7419 134.065 35.9297 134.873 35.7142Z" fill="#093E8E" stroke="#093E8E" stroke-width="0.666667"></path>
</svg>
