<?xml version="1.0" encoding="UTF-8"?>
<svg xmlns="http://www.w3.org/2000/svg" width="56" height="56" viewBox="0 0 56 56" fill="none">
  <path d="M19.3125 30.0986C19.7283 45.1105 24.5227 54.2482 28.008 54.2482C31.4933 54.2482 36.2877 45.1105 36.7035 30.0986H19.3125Z" fill="#9CC3E5"></path>
  <path d="M35.5039 2.82666C38.8034 8.24222 40.6522 17.0888 40.8999 25.9001H54.2483C53.3726 14.9455 45.7386 5.86961 35.5039 2.82666Z" fill="#9CC3E5"></path>
  <path d="M27.9963 1.75C24.511 1.75 19.7165 10.8877 19.3008 25.8995H36.6918C36.276 10.8877 31.4815 1.75 27.9963 1.75Z" fill="#9CC3E5"></path>
  <path d="M20.4944 53.1721C17.1949 47.7565 15.3461 38.9099 15.0896 30.0986H1.75C2.62574 41.0532 10.2686 50.138 20.4944 53.1721Z" fill="#9CC3E5"></path>
  <path d="M40.9009 30.0986C40.6444 38.9099 38.7956 47.7565 35.4961 53.1721C45.7308 50.138 53.3648 41.0532 54.2405 30.0986H40.8921H40.9009Z" fill="#9CC3E5"></path>
  <path d="M15.0984 25.9001C15.355 17.0888 17.1949 8.24222 20.4944 2.82666C10.2597 5.86079 2.62574 14.9455 1.75 25.9001H15.0984Z" fill="#9CC3E5"></path>
  <path d="M41.1296 54.2491C48.3766 54.2491 54.2515 48.3746 54.2515 41.128C54.2515 33.8814 48.3766 28.0068 41.1296 28.0068C33.8827 28.0068 28.0078 33.8814 28.0078 41.128C28.0078 48.3746 33.8827 54.2491 41.1296 54.2491Z" fill="#0063C1"></path>
  <path d="M45.3969 35.7274L36.233 35.4868C35.8675 35.4779 35.5733 35.772 35.5822 36.1375L35.8229 45.3009C35.8407 45.8625 36.5093 46.1299 36.9105 45.7288L39.7185 42.9209L44.3895 47.5917C44.6391 47.8413 45.0403 47.8413 45.2899 47.5917L47.6967 45.185C47.9463 44.9354 47.9463 44.5343 47.6967 44.2847L43.0257 39.6139L45.8337 36.806C46.2259 36.4138 45.9585 35.7364 45.4058 35.7185L45.3969 35.7274Z" fill="white"></path>
</svg>
