<svg width="56" height="56" viewBox="0 0 32 32" fill="none" xmlns="http://www.w3.org/2000/svg">
<path d="M10.5723 17.1602C10.8013 25.4528 13.4421 30.5005 15.3617 30.5005C17.2814 30.5005 19.9222 25.4528 20.1512 17.1602H10.5723Z" fill="#00a5fb"/>
<path d="M19.4922 2.09375C21.3096 5.08535 22.3279 9.97228 22.4643 14.8397H29.8166C29.3343 8.78831 25.1295 3.7747 19.4922 2.09375Z" fill="#00a5fb"/>
<path d="M15.3559 1.5C13.4362 1.5 10.7954 6.54771 10.5664 14.8404H20.1454C19.9164 6.54771 17.2756 1.5 15.3559 1.5Z" fill="#00a5fb"/>
<path d="M11.2248 29.9061C9.40745 26.9145 8.38913 22.0276 8.24784 17.1602H0.900391C1.38275 23.2116 5.59243 28.23 11.2248 29.9061Z" fill="#00a5fb"/>
<path d="M22.4653 17.1602C22.324 22.0276 21.3057 26.9145 19.4883 29.9061C25.1255 28.23 29.3303 23.2116 29.8127 17.1602H22.4604H22.4653Z" fill="#00a5fb"/>
<path d="M8.25271 14.8397C8.39401 9.97228 9.40745 5.08535 11.2248 2.09375C5.58755 3.76983 1.38275 8.78831 0.900391 14.8397H8.25271Z" fill="#00a5fb"/>
<path d="M23.9279 30.5003C27.8889 30.5003 31.0999 27.2893 31.0999 23.3283C31.0999 19.3673 27.8889 16.1562 23.9279 16.1562C19.9669 16.1562 16.7559 19.3673 16.7559 23.3283C16.7559 27.2893 19.9669 30.5003 23.9279 30.5003Z" fill="#ff7800"/>
<path d="M26.261 20.3758L21.2523 20.2442C21.0525 20.2394 20.8917 20.4002 20.8966 20.5999L21.0281 25.6087C21.0379 25.9156 21.4033 26.0618 21.6226 25.8425L23.1573 24.3078L25.7104 26.8608C25.8469 26.9973 26.0661 26.9973 26.2025 26.8608L27.5181 25.5453C27.6545 25.4089 27.6545 25.1896 27.5181 25.0532L24.965 22.5001L26.4998 20.9654C26.7141 20.751 26.568 20.3807 26.2659 20.3709L26.261 20.3758Z" fill="white"/>
</svg>
