<?xml version="1.0" encoding="UTF-8"?>
<svg xmlns="http://www.w3.org/2000/svg" width="32" height="32" viewBox="0 0 32 32" fill="none">
  <path d="M16.2233 1.67263C16.0785 1.62098 15.9203 1.62098 15.7755 1.67263L3.08501 6.19812C2.79282 6.30232 2.61111 6.59429 2.64665 6.90245L4.59252 23.7712C4.61718 23.985 4.74353 24.1737 4.93179 24.278L15.6764 30.229C15.8774 30.3404 16.1215 30.3404 16.3224 30.229L27.067 24.278C27.2553 24.1737 27.3816 23.985 27.4063 23.7712L29.3522 6.90245C29.3877 6.59429 29.206 6.30232 28.9138 6.19812L16.2233 1.67263Z" fill="#3E83CC"></path>
  <path d="M16.8906 1.91036C16.4565 1.75556 16 2.07741 16 2.5383V4.79126V4.77685V19.3717V29.2766C16 29.7846 16.5453 30.1059 16.9897 29.8598L27.0676 24.278C27.2559 24.1737 27.3822 23.985 27.4069 23.7712L29.3527 6.90245C29.3883 6.59429 29.2066 6.30232 28.9144 6.19812L16.8906 1.91036Z" fill="#0063C1"></path>
  <path d="M16.0024 4.77783L7.61719 23.5797H10.7436L12.4293 19.3727H19.5467L21.2324 23.5797H24.3588L16.0024 4.77783ZM18.4517 16.7794H13.5531L16.0024 10.8867L18.4517 16.7794Z" fill="white"></path>
</svg>
