<?xml version="1.0" encoding="UTF-8"?>
<svg xmlns="http://www.w3.org/2000/svg" width="32" height="32" viewBox="0 0 32 32" fill="none">
  <g clip-path="url(#clip0_7412_4966)">
    <g clip-path="url(#clip1_7412_4966)">
      <path d="M9.85535 23.2178C9.80734 23.3264 9.69974 23.3965 9.58095 23.3965H1.25713C1.02549 23.3965 0.881245 23.1451 0.998105 22.9451L8.8427 9.51981C8.8718 9.47001 8.91464 9.42966 8.96608 9.40358L17.2283 5.21509C17.4797 5.08759 17.7523 5.34601 17.6383 5.60392L9.85535 23.2178Z" fill="#3E83CC"></path>
      <path d="M31.1354 26.7141C31.2522 26.9141 31.108 27.1654 30.8763 27.1654H8.58906C8.42338 27.1654 8.28906 27.0311 8.28906 26.8654V25.6665C8.28906 25.5008 8.42338 25.3665 8.58906 25.3665H20.5167C20.7667 25.3665 20.907 25.0788 20.7531 24.8818L14.7087 17.1462C14.6408 17.0593 14.6261 16.9421 14.6704 16.841L19.0178 6.92057C19.1162 6.69598 19.4279 6.67791 19.5516 6.88963L31.1354 26.7141Z" fill="#0063C1"></path>
    </g>
  </g>
  <defs>
    <clipPath id="clip0_7412_4966">
      <rect width="32" height="32" fill="white"></rect>
    </clipPath>
    <clipPath id="clip1_7412_4966">
      <rect width="30.6667" height="30.6667" fill="white" transform="translate(0.734375 0.666504)"></rect>
    </clipPath>
  </defs>
</svg>
