<svg width="32" height="32" viewBox="0 0 32 32" fill="none" xmlns="http://www.w3.org/2000/svg">
<path d="M3.55426 1.54651H28.5061C29.6071 1.54651 30.5 2.43941 30.5 3.54046V6.85459H1.5603V3.54046C1.5603 2.43941 2.4532 1.54651 3.55426 1.54651Z" fill="#0063C1"/>
<path d="M1.5 9.8017H30.5V28.0705C30.5 29.3852 29.4318 30.4534 28.1171 30.4534H3.88289C2.56819 30.4534 1.5 29.3852 1.5 28.0705V9.8017Z" fill="#9CC3E5"/>
<path d="M11.2069 16.2437C10.7851 15.8219 10.1003 15.8219 9.67854 16.2437L6.35346 19.5688C5.93166 19.9906 5.93166 20.6753 6.35346 21.0971L9.67854 24.4222C9.89218 24.6359 10.1661 24.7399 10.44 24.7399C10.7139 24.7399 10.9932 24.6359 11.2014 24.4222C11.6232 24.0004 11.6232 23.3157 11.2014 22.8939L8.63774 20.3302L11.2014 17.7666C11.6232 17.3448 11.6232 16.66 11.2014 16.2382L11.2069 16.2437Z" fill="#0063C1"/>
<path d="M25.6466 19.5688L22.3215 16.2437C21.8997 15.8219 21.215 15.8219 20.7932 16.2437C20.3714 16.6655 20.3714 17.3503 20.7932 17.7721L23.3568 20.3357L20.7932 22.8994C20.3714 23.3212 20.3714 24.0059 20.7932 24.4277C21.0068 24.6413 21.2807 24.7454 21.5546 24.7454C21.8285 24.7454 22.1079 24.6413 22.316 24.4277L25.6411 21.1026C26.0629 20.6808 26.0629 19.9961 25.6411 19.5743L25.6466 19.5688Z" fill="#0063C1"/>
<path d="M18.3994 13.8992C17.8406 13.6855 17.2161 13.9704 17.008 14.5237L13.042 24.9591C12.8284 25.5178 13.1077 26.1423 13.6665 26.3504C13.7925 26.3998 13.9239 26.4217 14.0499 26.4217C14.4882 26.4217 14.8935 26.1587 15.0579 25.726L19.0239 15.2906C19.2375 14.7318 18.9581 14.1073 18.3994 13.8992Z" fill="#0063C1"/>
</svg>
