<svg width="32" height="32" viewBox="0 0 32 32" fill="none" xmlns="http://www.w3.org/2000/svg">
<path d="M32 19.4942C32 15.6183 28.8855 12.4742 25.046 12.4742C23.9944 12.4742 22.9965 12.7091 22.106 13.1337C21.2826 8.77891 17.4923 5.48572 12.9414 5.48572C7.78629 5.48572 3.60674 9.70498 3.60674 14.909C3.60674 15.6273 3.6873 16.3275 3.83944 17.0006C1.65122 17.4298 0 19.3768 0 21.7123C0 24.364 2.13005 26.5143 4.75682 26.5143H25.0728C25.0728 26.5143 25.0907 26.5143 25.0997 26.5143C28.9123 26.4827 31.9955 23.3566 31.9955 19.4987L32 19.4942Z" fill="#3E83CC"/>
</svg>
