<?xml version="1.0" encoding="UTF-8"?>
<svg xmlns="http://www.w3.org/2000/svg" width="32" height="32" viewBox="0 0 32 32" fill="none">
  <path d="M0.0211288 15.6227V21.7229C0.00529766 21.8601 0 22.0026 0 22.1398C0 22.277 0.00529766 22.4195 0.0211288 22.5567C0.443292 26.9103 7.43539 30.372 16 30.372C24.5647 30.372 32 26.6834 32 22.1398V15.6016C28.8021 18.7256 22.9605 20.7361 16 20.7361C9.03961 20.7361 3.22429 18.7361 0.0211288 15.6227Z" fill="#3E83CC"></path>
  <path d="M16 18.0923C24.8366 18.0923 32 14.4066 32 9.86012C32 5.31361 24.8366 1.62793 16 1.62793C7.16348 1.62793 0 5.31361 0 9.86012C0 14.4066 7.16348 18.0923 16 18.0923Z" fill="#9CC3E5"></path>
</svg>
