<svg width="32" height="32" viewBox="0 0 32 32" fill="none" xmlns="http://www.w3.org/2000/svg">
<path d="M28.3567 16C28.3567 15.0652 28.2487 14.1586 28.0514 13.2848L30.6303 10.8985C29.9914 9.0477 29.0097 7.34722 27.7554 5.90039L24.3921 6.92914C23.0533 5.68901 21.442 4.74012 19.657 4.19051L18.8819 0.766047C17.9565 0.592241 16.9935 0.498291 16.0071 0.498291C15.0206 0.498291 14.0388 0.596938 13.1134 0.766047L12.3383 4.19051C10.5533 4.74481 8.94204 5.68901 7.60326 6.92914L4.23986 5.90039C2.98564 7.34722 2.00386 9.04301 1.36501 10.8985L3.94392 13.2754C3.74663 14.1539 3.63859 15.0652 3.63859 16.0047C3.63859 16.9442 3.74663 17.8555 3.94392 18.7386L1.36501 21.1202C2.00386 22.971 2.98564 24.6715 4.23986 26.1183L7.61735 25.0849C8.95144 26.3156 10.558 27.2598 12.3383 27.8094L13.1134 31.2339C14.0388 31.4077 15.0253 31.5017 16.0071 31.5017C16.9888 31.5017 17.9565 31.403 18.8819 31.2339L19.657 27.8094C21.4373 27.2598 23.0439 26.3156 24.378 25.0849L27.7601 26.1183C29.0144 24.6715 29.9961 22.9757 30.635 21.1202L28.0561 18.7198C28.2534 17.8461 28.3614 16.9348 28.3614 16H28.3567Z" fill="#9CC3E5"/>
<path d="M21.9775 10.02C20.3804 8.42286 18.2571 7.54443 15.9977 7.54443C13.7382 7.54443 11.6149 8.42286 10.0178 10.02C8.42062 11.6171 7.54219 13.7404 7.54219 15.9999C7.54219 17.9259 8.18575 19.7485 9.36481 21.2376C9.5668 21.496 9.78289 21.7449 10.0178 21.9798C13.3154 25.2774 18.6799 25.2774 21.9775 21.9798C22.1467 21.8107 22.3064 21.6275 22.4614 21.4443C23.7485 19.9223 24.4531 18.0151 24.4531 15.9999C24.4531 13.7404 23.5747 11.6171 21.9775 10.02Z" fill="white"/>
<path d="M15.8896 17.8132C17.7686 17.8132 19.2953 16.2818 19.2953 14.3981V12.7211C19.2953 10.8327 17.7686 9.30603 15.8896 9.30603C14.0106 9.30603 12.4839 10.8374 12.4839 12.7211V14.3981C12.4839 16.2865 14.0106 17.8132 15.8896 17.8132Z" fill="#0063C1"/>
<path d="M15.852 19.1708C13.1369 19.1661 10.3795 19.6875 9.36012 21.2377C9.56211 21.4961 9.7782 21.745 10.0131 21.9799C13.3107 25.2775 18.6752 25.2775 21.9729 21.9799C22.142 21.8108 22.3017 21.6276 22.4567 21.4444C21.5548 19.7298 18.6799 19.1567 15.8473 19.1661L15.852 19.1708Z" fill="#0063C1"/>
</svg>
