<?xml version="1.0" encoding="UTF-8"?>
<svg xmlns="http://www.w3.org/2000/svg" width="32" height="32" viewBox="0 0 32 32" fill="none">
  <path d="M20.1989 30.9386H11.7961C10.8122 30.9386 10.1346 29.9598 10.4759 29.0362L12.1876 24.4482H19.8074L21.519 29.0362C21.8604 29.9548 21.1827 30.9386 20.1989 30.9386Z" fill="#9CC3E5"></path>
  <path d="M32 20.9944V5.86532C32 3.21228 29.8493 1.06152 27.1962 1.06152L4.80376 1.06152C2.15072 1.06152 0 3.21228 0 5.86532V20.9944C0 23.6475 2.15072 25.7982 4.80376 25.7982H27.1962C29.8493 25.7982 32 23.6475 32 20.9944Z" fill="#9CC3E5"></path>
  <path d="M28.7725 5.86523V18.4845C28.7725 19.3529 28.0647 20.0607 27.1963 20.0607H4.79881C3.93042 20.0607 3.22266 19.3529 3.22266 18.4845V5.86523C3.22266 4.99181 3.93042 4.28906 4.79881 4.28906L27.1913 4.28906C28.0597 4.28906 28.7674 4.99683 28.7674 5.86523H28.7725Z" fill="#0063C1"></path>
</svg>
