<?xml version="1.0" encoding="UTF-8"?>
<svg xmlns="http://www.w3.org/2000/svg" width="56" height="56" viewBox="0 0 56 56" fill="none">
  <path d="M3.5 10.5C3.5 6.63401 6.63401 3.5 10.5 3.5H45.5C49.366 3.5 52.5 6.63401 52.5 10.5V45.5C52.5 49.366 49.366 52.5 45.5 52.5H10.5C6.63401 52.5 3.5 49.366 3.5 45.5V10.5Z" fill="#9CC3E5"></path>
  <path d="M29.7941 22.4613V26.8713C29.7941 27.9563 31.1066 28.4988 31.8766 27.7288L40.1891 19.4163C40.6616 18.9438 40.6616 18.1738 40.1891 17.7013L31.8766 9.3713C31.1066 8.6013 29.7941 9.1438 29.7941 10.2288V14.6388H17.7016C17.0366 14.6388 16.4766 15.1813 16.4766 15.8638V21.2538C16.4766 21.9188 17.0191 22.4788 17.6841 22.4788H29.7766L29.7941 22.4613Z" fill="#0063C1"></path>
  <path d="M26.2064 33.5388V29.1288C26.2064 28.0438 24.8939 27.5013 24.1239 28.2713L15.8114 36.5838C15.3389 37.0563 15.3389 37.8263 15.8114 38.2988L24.1239 46.6288C24.8939 47.3988 26.2064 46.8563 26.2064 45.7713V41.3613H38.2989C38.9639 41.3613 39.5239 40.8188 39.5239 40.1363V34.7463C39.5239 34.0813 38.9814 33.5213 38.3164 33.5213H26.2239L26.2064 33.5388Z" fill="white"></path>
</svg>
