<?xml version="1.0" encoding="UTF-8"?>
<svg xmlns="http://www.w3.org/2000/svg" width="56" height="57" viewBox="0 0 56 57" fill="none">
  <path d="M46.673 34.0114L45.8291 33.2264C44.475 31.9704 43.7096 30.2041 43.7096 28.3397C43.7096 26.4754 44.475 24.7091 45.8487 23.4531L46.6534 22.7073C48.6747 20.8233 49.2439 17.7814 47.8505 15.3676L47.7916 15.2498C46.3982 12.8555 43.4937 11.7958 40.8443 12.62L39.7257 12.9733C37.9398 13.5228 36.0362 13.3069 34.4073 12.3649C33.9363 12.0902 33.5242 11.7762 33.1513 11.4033C33.1513 11.4033 33.1513 11.4033 33.1513 11.3837C32.2289 10.4809 31.542 9.34266 31.2673 8.0474L30.9925 6.86989C30.3842 4.14201 27.9899 2.21875 25.2228 2.21875H25.1443C22.3968 2.21875 20.0221 4.12238 19.4137 6.81102L19.139 8.02777C18.7269 9.83328 17.5886 11.3837 15.9794 12.3257C14.3701 13.248 12.4468 13.4835 10.661 12.934L9.54233 12.5808C6.89294 11.7762 3.98843 12.8163 2.59505 15.2106C2.59505 15.2498 2.5558 15.2891 2.53617 15.3283C1.16242 17.7422 1.71192 20.8037 3.75293 22.6877L4.57718 23.4335C5.95094 24.6895 6.71631 26.4557 6.71631 28.3201C6.71631 30.1845 5.95094 31.9311 4.57718 33.1871L3.71368 33.9721C1.69229 35.8561 1.12317 38.898 2.51655 41.3119L2.57542 41.4297C3.9688 43.8239 6.87332 44.8837 9.5227 44.0594L10.661 43.7062C12.4272 43.1567 14.3308 43.3726 15.9205 44.2949C17.5297 45.2173 18.6876 46.7873 19.0997 48.5928L19.3549 49.7115C19.9632 52.4393 22.3968 54.3626 25.1835 54.3626H25.2228C27.9703 54.3626 30.3449 52.459 30.9337 49.79L31.2084 48.5732C31.5028 47.2976 32.17 46.1397 33.112 45.2369C33.112 45.2369 33.1121 45.2566 33.1317 45.2762C33.5046 44.9033 33.9363 44.5893 34.4073 44.3146C35.9969 43.3922 37.9006 43.1959 39.6668 43.7258L40.8051 44.0594C43.4545 44.8641 46.359 43.8239 47.7524 41.4297C47.772 41.3904 47.7916 41.3512 47.8309 41.2923C49.2046 38.898 48.6551 35.8561 46.6337 33.9721L46.673 34.0114ZM28.5198 35.4244C28.5198 35.4244 27.9899 35.6403 27.8722 35.6991C27.0283 36.0131 26.1255 36.1701 25.1835 36.1701C20.8464 36.1701 17.3335 32.6573 17.3335 28.3201C17.3335 23.983 20.8464 20.4701 25.1835 20.4701C29.5207 20.4701 33.0336 23.983 33.0336 28.3201C33.0336 31.4601 31.1888 34.188 28.5198 35.4244Z" fill="#00a5fb"></path>
  <path fill-rule="evenodd" clip-rule="evenodd" d="M45.8293 33.2268L46.6732 34.0118L46.6339 33.9726C48.6553 35.8566 49.2048 38.8985 47.831 41.2928C47.7918 41.3516 47.7722 41.3909 47.7525 41.4301C46.3592 43.8244 43.4547 44.8645 40.8053 44.0599L39.667 43.7263C37.9008 43.1964 35.9971 43.3926 34.4075 44.315C33.9365 44.5898 33.5047 44.9038 33.1319 45.2766C33.1122 45.257 33.1122 45.2374 33.1122 45.2374C32.7645 45.5707 32.4542 45.9387 32.1862 46.3346C29.5204 43.4249 27.4939 39.9394 26.3232 36.0911C26.8574 36.0151 27.3751 35.8846 27.8723 35.6996C27.9901 35.6407 28.52 35.4249 28.52 35.4249C31.189 34.1885 33.0337 31.4606 33.0337 28.3206C33.0337 24.3862 30.143 21.13 26.3684 20.5593C27.5599 16.7236 29.6029 13.2529 32.2815 10.3594C32.538 10.7273 32.8305 11.07 33.1515 11.3841V11.4037C33.5244 11.7766 33.9365 12.0906 34.4075 12.3654C36.0364 13.3074 37.94 13.5233 39.7259 12.9738L40.8445 12.6205C43.4939 11.7963 46.3984 12.856 47.7918 15.2503L47.8507 15.368C49.244 17.7819 48.6749 20.8238 46.6535 22.7078L45.8489 23.4535C44.4752 24.7096 43.7098 26.4758 43.7098 28.3402C43.7098 30.2046 44.4752 31.9708 45.8293 33.2268Z" fill="#041b3a"></path>
  <path d="M45.8198 2.38056C49.2074 1.54265 52.5002 4.06485 52.5002 7.50115L52.5002 49.2954C52.5002 52.7317 49.2074 55.2539 45.8198 54.416C37.2948 52.3111 30.3639 46.2755 27.1396 38.3863C28.3425 41.3295 30.0613 44.0147 32.1862 46.3341C32.4542 45.9382 32.7645 45.5701 33.1122 45.2369C33.1122 45.2369 33.1122 45.2565 33.1319 45.2761C33.5047 44.9033 33.9365 44.5892 34.4075 44.3145C35.9971 43.3921 37.9008 43.1959 39.667 43.7257L40.8053 44.0594C43.4547 44.864 46.3592 43.8239 47.7526 41.4296C47.7722 41.3904 47.7918 41.3511 47.8311 41.2922C49.2048 38.898 48.6553 35.8561 46.6339 33.9721L46.6732 34.0113L45.8293 33.2263C44.4752 31.9703 43.7098 30.2041 43.7098 28.3397C43.7098 26.4753 44.4752 24.709 45.8489 23.453L46.6535 22.7073C48.6749 20.8233 49.2441 17.7814 47.8507 15.3675L47.7918 15.2498C46.3984 12.8555 43.4939 11.7957 40.8445 12.62L39.7259 12.9732C37.94 13.5227 36.0364 13.3069 34.4075 12.3649C33.9365 12.0901 33.5244 11.7761 33.1515 11.4032V11.3836C32.8305 11.0695 32.538 10.7268 32.2815 10.3589C35.8409 6.51401 40.5226 3.68844 45.8198 2.38056Z" fill="#ff7800"></path>
</svg>
