<?xml version="1.0" encoding="UTF-8"?>
<svg xmlns="http://www.w3.org/2000/svg" width="32" height="32" viewBox="0 0 32 32" fill="none">
  <path d="M23.2471 4.59766H25.0276C25.2485 4.59766 25.4276 4.77674 25.4276 4.99766V7.66232C25.4276 7.88323 25.2485 8.06232 25.0276 8.06232H23.2471V4.59766Z" fill="#3E83CC"></path>
  <path d="M23.2471 9.19631H24.9233C25.2018 9.19631 25.4276 9.4221 25.4276 9.70062V12.1567C25.4276 12.4352 25.2018 12.661 24.9233 12.661H23.2471V9.19631Z" fill="#3E83CC"></path>
  <path d="M21.4553 1H9.92921C8.07576 1 6.57324 2.50252 6.57324 4.35597V27.644C6.57324 29.4975 8.07576 31 9.92921 31H21.4553C23.3088 31 24.8113 29.4975 24.8113 27.644V4.35597C24.8113 2.50252 23.3088 1 21.4553 1Z" fill="#0063C1"></path>
  <path fill-rule="evenodd" clip-rule="evenodd" d="M21.4553 2H9.92921C8.62805 2 7.57324 3.0548 7.57324 4.35597V27.644C7.57324 28.9452 8.62805 30 9.92921 30H21.4553C22.7565 30 23.8113 28.9452 23.8113 27.644V4.35597C23.8113 3.0548 22.7565 2 21.4553 2ZM9.92921 1H21.4553C23.3088 1 24.8113 2.50252 24.8113 4.35597V27.644C24.8113 29.4975 23.3088 31 21.4553 31H9.92921C8.07576 31 6.57324 29.4975 6.57324 27.644V4.35597C6.57324 2.50252 8.07576 1 9.92921 1Z" fill="#3E83CC"></path>
  <path d="M15.6864 24.8281C14.7965 24.8281 14.0781 25.5465 14.0781 26.4364C14.0781 27.3263 14.7965 28.0447 15.6864 28.0447C16.5763 28.0447 17.2947 27.3263 17.2947 26.4364C17.2947 25.5465 16.5763 24.8281 15.6864 24.8281Z" fill="white"></path>
</svg>
