<?xml version="1.0" encoding="UTF-8"?>
<svg xmlns="http://www.w3.org/2000/svg" width="32" height="32" viewBox="0 0 32 32" fill="none">
  <path d="M1.33594 16.0002C1.33594 24.1003 7.90243 30.6668 16.0026 30.6668C24.1028 30.6668 30.6693 24.1003 30.6693 16.0002C30.6693 7.89999 24.1028 1.3335 16.0026 1.3335C7.90243 1.3335 1.33594 7.89999 1.33594 16.0002Z" fill="#0063C1"></path>
  <path d="M6.71405 20.1507C6.5092 20.1507 6.33507 20.0797 6.19167 19.9375C6.04826 19.7917 5.97656 19.6186 5.97656 19.4182C5.97656 19.2141 6.04826 19.0392 6.19167 18.8935C6.33507 18.7477 6.5092 18.6748 6.71405 18.6748C6.92233 18.6748 7.09817 18.7477 7.24157 18.8935C7.38838 19.0392 7.46179 19.2141 7.46179 19.4182C7.46179 19.6186 7.38838 19.7917 7.24157 19.9375C7.09817 20.0797 6.92233 20.1507 6.71405 20.1507Z" fill="white"></path>
  <path d="M14.8904 19.7827H13.5407L9.98492 14.2232C9.89495 14.0825 9.82051 13.9365 9.76171 13.7853H9.73054C9.75823 13.9471 9.77208 14.2935 9.77208 14.8244V19.7827H8.57812V12.2188H10.016L13.4525 17.6464C13.5978 17.8715 13.6913 18.0262 13.7328 18.1106H13.7535C13.7189 17.9102 13.7016 17.5709 13.7016 17.0926V12.2188H14.8904V19.7827Z" fill="white"></path>
  <path d="M20.8325 19.7827H16.5625V12.2188H20.6628V13.2843H17.825V15.4258H20.4401V16.486H17.825V18.7225H20.8325V19.7827Z" fill="white"></path>
  <path d="M26.5852 13.2843H24.4225V19.7827H23.1731V13.2843H21.0156V12.2188H26.5852V13.2843Z" fill="white"></path>
</svg>
