<svg width="32" height="32" viewBox="0 0 32 32" fill="none" xmlns="http://www.w3.org/2000/svg">
<path d="M9.42915 8.05457C4.0293 7.97787 4.0293 18.0026 9.42915 17.9214C14.829 17.9981 14.829 7.97336 9.42915 8.05457Z" fill="#9CC3E5"/>
<path d="M14.6901 26.9672C16.6606 27.0214 17.6885 24.9731 17.3384 23.2542C17.1005 20.3893 13.2088 19.487 9.38896 19.496C5.56912 19.487 1.67746 20.3893 1.43956 23.2542C1.10291 24.9596 2.12183 26.9808 4.0744 26.9402L14.6901 26.9718V26.9672Z" fill="#9CC3E5"/>
<path d="M21.0278 4.6258C14.5328 4.53106 14.5328 16.5906 21.0278 16.4958C27.5229 16.5906 27.5229 4.53106 21.0278 4.6258Z" fill="#0063C1"/>
<path d="M27.3568 27.3732C29.7269 27.4409 30.9612 24.973 30.5438 22.9067C30.2565 19.4599 25.5749 18.3771 20.9785 18.3861C16.3821 18.3726 11.7004 19.4599 11.4132 22.9067C11.0092 24.9595 12.2346 27.3913 14.5821 27.3371L27.3524 27.3732H27.3568Z" fill="#0063C1"/>
</svg>
