<?xml version="1.0" encoding="UTF-8"?>
<svg xmlns="http://www.w3.org/2000/svg" width="32" height="32" viewBox="0 0 32 32" fill="none">
  <path d="M15.9974 25.8687C16.3831 26.2421 16.7698 26.5894 17.1552 26.9065C19.5937 28.9127 21.7767 29.5324 23.3021 28.6518C24.8275 27.7712 25.3822 25.5708 24.864 22.4558C24.7824 21.9653 24.6755 21.4587 24.5457 20.9399C25.0709 20.7912 25.5735 20.6282 26.049 20.4509C29.0251 19.3413 30.6641 17.7605 30.6641 15.9997C30.6641 14.2389 29.0251 12.6581 26.049 11.5485C25.5735 11.3712 25.0709 11.2083 24.5457 11.0596C24.6755 10.5408 24.7824 10.0342 24.864 9.54367C25.3821 6.42884 24.8275 4.22832 23.3021 3.34769C21.7767 2.467 19.5937 3.08684 17.1552 5.09302C16.7698 5.41008 16.3831 5.75738 15.9974 6.1308C15.6117 5.75738 15.225 5.41013 14.8396 5.09302C12.4011 3.08678 10.2181 2.46695 8.69271 3.34763C6.76713 4.45938 6.76696 7.35662 7.13076 9.54361C7.21235 10.0341 7.31931 10.5407 7.44913 11.0595C6.92388 11.2082 6.42126 11.3712 5.9458 11.5484C2.96973 12.6581 1.33073 14.2389 1.33073 15.9997C1.33073 17.7605 2.96973 19.3413 5.9458 20.4509C6.42126 20.6282 6.92388 20.7912 7.44913 20.9399C7.31925 21.4587 7.21235 21.9653 7.13076 22.4558C6.76702 24.6427 6.76713 27.5401 8.69271 28.6518C10.218 29.5324 12.4011 28.9127 14.8396 26.9065C15.225 26.5894 15.6116 26.2421 15.9974 25.8687ZM8.82626 9.26157C8.4455 6.97271 8.71688 5.31829 9.55208 4.83607C10.3873 4.35385 11.9558 4.94607 13.7476 6.42019C14.1 6.71008 14.454 7.02799 14.8076 7.37025C14.0584 8.20671 13.3214 9.13564 12.6132 10.1369C11.3923 10.2492 10.2189 10.4221 9.11827 10.6517C8.99905 10.1753 8.90096 9.71079 8.82626 9.26157ZM14.8506 10.0015C15.2281 9.51508 15.6112 9.05251 15.9974 8.61686C16.3835 9.05251 16.7666 9.51508 17.1442 10.0015C16.7645 9.99014 16.3821 9.98407 15.9974 9.98407C15.6127 9.98407 15.2303 9.99014 14.8506 10.0015ZM19.3816 10.137C18.6734 9.1357 17.9364 8.20677 17.1872 7.37031C17.5408 7.02805 17.8948 6.71008 18.2472 6.42024C20.039 4.94613 21.6075 4.3539 22.4427 4.83613C23.2779 5.31835 23.5493 6.97271 23.1685 9.26162C23.0938 9.71079 22.9957 10.1754 22.8765 10.6518C21.7759 10.4222 20.6024 10.2492 19.3816 10.137ZM20.6177 19.9932C20.8177 19.6697 21.0144 19.3412 21.2071 19.0075C21.3995 18.6743 21.5854 18.3401 21.7653 18.0056C21.9982 18.5767 22.2076 19.1407 22.392 19.6939C21.8207 19.8099 21.228 19.9099 20.6177 19.9932ZM25.4485 13.1589C27.6381 13.9753 28.9453 15.0373 28.9453 15.9997C28.9453 16.9621 27.6381 18.0241 25.4485 18.8405C25.0124 19.0031 24.5506 19.1527 24.0674 19.2896C23.7172 18.2206 23.2805 17.1158 22.7665 15.9997C23.2805 14.8836 23.7173 13.7788 24.0674 12.7098C24.5506 12.8466 25.0124 12.9963 25.4485 13.1589ZM22.392 12.3056C22.2076 12.8587 21.9982 13.4227 21.7653 13.9939C21.5854 13.6593 21.3995 13.3251 21.2071 12.9919C21.0144 12.6582 20.8177 12.3296 20.6177 12.0062C21.228 12.0895 21.8207 12.1895 22.392 12.3056ZM11.3771 12.0062C11.1771 12.3296 10.9804 12.6582 10.7877 12.9919C10.5953 13.3251 10.4094 13.6593 10.2295 13.9939C9.99661 13.4227 9.78721 12.8587 9.60279 12.3056C10.174 12.1895 10.7668 12.0895 11.3771 12.0062ZM6.54628 18.8405C4.3567 18.0241 3.04948 16.9621 3.04948 15.9997C3.04948 15.0373 4.3567 13.9753 6.54628 13.1589C6.98244 12.9963 7.44421 12.8466 7.92741 12.7098C8.27751 13.7788 8.71425 14.8836 9.22827 15.9997C8.71425 17.1158 8.27757 18.2206 7.92741 19.2896C7.44421 19.1527 6.98238 19.0031 6.54628 18.8405ZM9.60279 19.6938C9.78721 19.1407 9.99655 18.5767 10.2295 18.0055C10.4094 18.3401 10.5953 18.6742 10.7877 19.0075C10.9803 19.3411 11.177 19.6697 11.3771 19.9932C10.7668 19.9099 10.174 19.8099 9.60279 19.6938ZM13.5641 20.2148C13.1202 19.5541 12.6891 18.8635 12.2762 18.1481C11.8632 17.4329 11.4807 16.7144 11.1305 15.9997C11.4807 15.285 11.8632 14.5665 12.2762 13.8513C12.6891 13.1359 13.1202 12.4453 13.5641 11.7846C14.3585 11.7307 15.172 11.7028 15.9974 11.7028C16.8228 11.7028 17.6363 11.7307 18.4307 11.7846C18.8746 12.4453 19.3056 13.1359 19.7186 13.8513C20.1316 14.5665 20.514 15.285 20.8643 15.9997C20.5141 16.7144 20.1316 17.4329 19.7186 18.1481C19.3056 18.8635 18.8746 19.5541 18.4307 20.2148C17.6363 20.2687 16.8228 20.2966 15.9974 20.2966C15.172 20.2966 14.3585 20.2687 13.5641 20.2148ZM23.1685 22.7378C23.5493 25.0266 23.2779 26.681 22.4427 27.1633C21.6075 27.6455 20.039 27.0533 18.2472 25.5791C17.8948 25.2893 17.5408 24.9713 17.1872 24.6291C17.9364 23.7926 18.6734 22.8637 19.3816 21.8624C20.6024 21.7502 21.7759 21.5772 22.8765 21.3476C22.9957 21.8241 23.0938 22.2886 23.1685 22.7378ZM17.1442 21.9978C16.7666 22.4843 16.3836 22.9469 15.9974 23.3825C15.6112 22.9469 15.2281 22.4843 14.8506 21.9978C15.2303 22.0092 15.6127 22.0153 15.9974 22.0153C16.3821 22.0153 16.7645 22.0092 17.1442 21.9978ZM9.55208 27.1633C8.71683 26.681 8.44549 25.0266 8.82625 22.7378C8.90096 22.2886 8.99905 21.8241 9.11827 21.3476C10.2189 21.5772 11.3923 21.7502 12.6132 21.8624C13.3214 22.8637 14.0584 23.7926 14.8076 24.6291C14.4539 24.9713 14.0999 25.2893 13.7476 25.5791C11.9558 27.0534 10.3873 27.6455 9.55208 27.1633ZM18.5755 15.9997C18.5755 14.5781 17.419 13.4216 15.9974 13.4216C14.5758 13.4216 13.4193 14.5781 13.4193 15.9997C13.4193 17.4213 14.5758 18.5778 15.9974 18.5778C17.419 18.5778 18.5755 17.4213 18.5755 15.9997ZM15.138 15.9997C15.138 15.5258 15.5235 15.1403 15.9974 15.1403C16.4713 15.1403 16.8568 15.5258 16.8568 15.9997C16.8568 16.4736 16.4713 16.8591 15.9974 16.8591C15.5235 16.8591 15.138 16.4736 15.138 15.9997Z" fill="#3E83CC"></path>
</svg>
