<?xml version="1.0" encoding="UTF-8"?>
<svg xmlns="http://www.w3.org/2000/svg" width="32" height="32" viewBox="0 0 32 32" fill="none">
  <path d="M20.5168 30.9991H11.4832C10.4255 30.9991 9.69697 29.9468 10.0639 28.9538L11.9041 24.0215H20.0959L21.9361 28.9538C22.303 29.9414 21.5745 30.9991 20.5168 30.9991Z" fill="#9CC3E5"></path>
  <path d="M30 22.2471V6.39752C30 3.96886 28.1181 2 25.7967 2L6.20329 2C3.88188 2 2 3.96886 2 6.39752V22.2471C2 24.6758 3.88188 26.6446 6.20329 26.6446H25.7967C28.1181 26.6446 30 24.6758 30 22.2471Z" fill="#9CC3E5"></path>
  <path d="M4.04395 6.77188C4.04395 5.33594 5.20801 4.17188 6.64395 4.17188H25.3521C26.7881 4.17188 27.9521 5.33593 27.9521 6.77187V19.568C27.9521 21.0039 26.7881 22.168 25.3521 22.168H6.64394C5.208 22.168 4.04395 21.0039 4.04395 19.568V6.77188Z" fill="#0063C1"></path>
  <path fill-rule="evenodd" clip-rule="evenodd" d="M20.4464 17.0828L19.1117 16.6755V16.6718H19.1003C18.5733 17.1544 17.9363 17.5277 17.2348 17.7426L16.9276 19.0925C16.5636 19.1604 16.1807 19.1981 15.7901 19.1981C15.3995 19.1981 15.0128 19.1604 14.645 19.0925L14.3378 17.7426C13.6363 17.5277 12.9993 17.1582 12.4723 16.6718L11.1375 17.079C10.6408 16.5134 10.2503 15.8422 10 15.1145L11.0238 14.1718C10.9442 13.8249 10.9025 13.4629 10.9025 13.0972C10.9025 12.7314 10.9442 12.3694 11.0238 12.0263L10.0038 11.0912C10.2578 10.3634 10.6484 9.69602 11.1413 9.12665L12.4723 9.53389C12.9993 9.04747 13.6401 8.6704 14.3454 8.45548L14.6526 7.10558C15.0204 7.03771 15.4071 7 15.7977 7C16.1882 7 16.5674 7.03771 16.9352 7.10558L17.2424 8.45548C17.9476 8.67417 18.5885 9.0437 19.1155 9.53389L20.4464 9.12665C20.9432 9.69225 21.3337 10.3634 21.584 11.0912L20.564 12.0301C20.6398 12.377 20.6815 12.7314 20.6815 13.1009C20.6815 13.4705 20.6436 13.8287 20.564 14.1718L21.584 15.1182C21.3299 15.846 20.9394 16.5134 20.4464 17.0828ZM17.9639 12.9852C17.966 13.0236 17.967 13.0624 17.967 13.1013C17.967 14.2946 16.9942 15.2619 15.7943 15.2619C14.5943 15.2619 13.6216 14.2946 13.6216 13.1013C13.6216 12.4675 13.896 11.8975 14.3332 11.5022C14.719 11.1509 15.2331 10.9366 15.7977 10.9366C16.9594 10.9366 17.9073 11.844 17.9639 12.9852Z" fill="white"></path>
</svg>
