<svg width="32" height="32" viewBox="0 0 32 32" fill="none" xmlns="http://www.w3.org/2000/svg">
<path d="M25.9152 3.15027H17.667C14.8587 3.15027 12.5822 5.42679 12.5822 8.23503V17.6486C12.5822 20.4568 14.8587 22.7333 17.667 22.7333H25.9152C28.7235 22.7333 31 20.4568 31 17.6486V8.23503C31 5.42679 28.7235 3.15027 25.9152 3.15027Z" fill="#9CC3E5"/>
<path d="M11.0654 5.34113C4.31946 5.24483 4.31946 17.7063 11.0654 17.61C17.8114 17.7063 17.8114 5.24483 11.0654 5.34113Z" fill="#0063C1"/>
<path d="M17.6381 28.8485C20.0986 28.916 21.3794 26.3688 20.946 24.2309C20.6475 20.6725 15.7842 19.5458 11.0125 19.5602C6.24069 19.5458 1.37743 20.6725 1.07889 24.2309C0.65998 26.3543 1.93117 28.8678 4.37243 28.81L17.6381 28.8485Z" fill="#0063C1"/>
<path d="M21.7502 6.84819C18.4855 6.80004 18.4855 12.8334 21.7502 12.7852C25.0148 12.8334 25.0148 6.80004 21.7502 6.84819Z" fill="white"/>
<path d="M24.9281 18.2264C26.1223 18.2601 26.7386 17.0274 26.5316 15.9922C26.3871 14.2684 24.0325 13.7243 21.7261 13.7339C19.4148 13.7291 17.0603 14.2732 16.9206 15.9922C16.7184 17.0178 17.3347 18.236 18.5144 18.2071L24.933 18.2264H24.9281Z" fill="white"/>
</svg>
