<?xml version="1.0" encoding="UTF-8"?>
<svg xmlns="http://www.w3.org/2000/svg" width="44" height="44" viewBox="0 0 44 44" fill="none">
  <path fill-rule="evenodd" clip-rule="evenodd" d="M14.3762 3.65055C16.3921 5.66647 17.0766 8.5582 16.3516 11.1358C16.3064 11.2966 16.3476 11.4705 16.466 11.5883L18.5447 13.6568C18.719 13.8302 18.7193 14.1122 18.5454 14.2861L14.2702 18.5614C14.0962 18.7354 13.8139 18.7349 13.6405 18.5603L11.5787 16.4843C11.4602 16.3649 11.2846 16.3237 11.123 16.3705C8.53063 17.1211 5.60995 16.4806 3.57791 14.4491C1.4262 12.2966 0.850762 9.14094 1.85161 6.38583C1.95743 6.09452 2.3274 6.02701 2.54656 6.24617L6.54557 10.2452C7.04018 10.7399 7.6994 10.9868 8.44091 10.9868C9.10012 10.9868 9.75933 10.7399 10.3371 10.2452C11.3263 9.25599 11.3263 7.52439 10.3371 6.53515L6.32728 2.52532C6.11113 2.30917 6.17338 1.94483 6.45952 1.8373C9.07858 0.853146 12.2273 1.5016 14.3762 3.65055ZM25.0027 29.3728C24.8296 29.5459 24.8291 29.8265 25.0017 30.0002L27.435 32.4505C27.5534 32.5696 27.5933 32.7451 27.5461 32.9062C26.7972 35.4599 27.485 38.2749 29.4612 40.3308C31.6904 42.5601 34.8513 43.1408 37.6074 42.1395C37.8988 42.0337 37.9662 41.6637 37.747 41.4446L33.665 37.364C32.5943 36.3747 32.6766 34.6431 33.665 33.6547C34.6542 32.6655 36.3858 32.6655 37.375 33.6547L41.4563 37.7353C41.6755 37.9545 42.0455 37.887 42.1515 37.5958C43.1516 34.8502 42.5709 31.7613 40.3427 29.5323C38.204 27.4766 35.2442 26.8158 32.6924 27.5501C32.6819 27.5531 32.6712 27.5574 32.6613 27.562C32.5994 27.591 32.5277 27.5716 32.4793 27.5234L29.9731 25.0294C29.7994 24.8565 29.5185 24.8569 29.3453 25.0302L25.0027 29.3728Z" fill="#0063C1"></path>
  <path d="M35.8168 4.94381C35.5932 4.72085 35.6587 4.34268 35.9442 4.20853L41.5067 1.5944C41.8056 1.45397 42.16 1.51603 42.3938 1.74972C42.6291 1.98494 42.6914 2.34331 42.5494 2.64461L39.9351 8.19134C39.8 8.47806 39.4227 8.54414 39.1987 8.32029C39.0203 8.14195 38.7318 8.14185 38.5533 8.32009L26.2643 20.5883L23.625 17.8558L35.8182 5.58829C35.9954 5.41002 35.9947 5.12128 35.8168 4.94381Z" fill="#00a5fb"></path>
  <path d="M3.14211 32.5271L16.6956 18.9611C17.2342 18.4219 18.1061 18.4218 18.6449 18.9608L24.9426 25.2648C25.4807 25.8035 25.4836 26.6773 24.9492 27.2195L11.4857 40.8794C9.13051 43.2377 5.39928 43.1396 3.14211 40.8794C1.96403 39.7002 1.375 38.2267 1.375 36.7533C1.375 35.2788 1.96403 33.7063 3.14211 32.5271Z" fill="#ff7800"></path>
  <path fill-rule="evenodd" clip-rule="evenodd" d="M3.14211 32.5242L16.6956 18.9582C17.2342 18.419 18.1061 18.4189 18.6449 18.9579L24.9426 25.2619C25.4807 25.8005 25.4836 26.6743 24.9492 27.2166L11.4857 40.8764C9.13051 43.2348 5.39928 43.1367 3.14211 40.8764C1.96403 39.6973 1.375 38.2238 1.375 36.7503C1.375 35.2759 1.96403 33.7034 3.14211 32.5242Z" fill="#00a5fb"></path>
  <path d="M22.1779 16.9718C22.3515 16.7929 22.6383 16.7918 22.8133 16.9693L23.6289 17.7968L26.1812 20.4842L27.0854 21.3325C27.2646 21.5007 27.2734 21.7825 27.1048 21.9614L24.6227 24.5969C24.451 24.7791 24.1628 24.7837 23.9854 24.607L19.6098 20.2469C19.4376 20.0752 19.4352 19.797 19.6046 19.6225L22.1779 16.9718Z" fill="#ff7800"></path>
</svg>
