<?xml version="1.0" encoding="UTF-8"?>
<svg xmlns="http://www.w3.org/2000/svg" width="44" height="45" viewBox="0 0 44 45" fill="none">
  <path fill-rule="evenodd" clip-rule="evenodd" d="M7.35938 3.66455C5.84059 3.66455 4.60938 4.89577 4.60938 6.41455V30.8158C4.60938 32.1692 5.58703 33.2942 6.87463 33.5232V33.8662H8.24963V33.5658H35.7496V33.8662H37.1246V33.5235C38.4129 33.295 39.3912 32.1697 39.3912 30.8158V6.41455C39.3912 4.89577 38.16 3.66455 36.6412 3.66455H7.35938ZM12.1047 32.3516C11.4343 32.3516 10.8909 32.895 10.8909 33.5654H33.0486C33.0486 32.895 32.5051 32.3516 31.8348 32.3516H12.1047Z" fill="#3E83CC"></path>
  <path d="M1.38782 39.3618H42.6249L42.6249 40.1164C42.6247 41.2209 41.7293 42.1162 40.6249 42.1162H3.37845C2.27743 42.1162 1.38347 41.2263 1.37847 40.1253L1.375 39.3618H1.38782Z" fill="#ff7800"></path>
  <path d="M7.39844 7.8894C7.39844 7.13001 8.01405 6.5144 8.77344 6.5144H35.1927C35.9521 6.5144 36.5677 7.13001 36.5677 7.8894V27.2983C36.5677 28.0577 35.9521 28.6733 35.1927 28.6733H8.77344C8.01405 28.6733 7.39844 28.0577 7.39844 27.2983V7.8894Z" fill="#eb64ca"></path>
  <path d="M14.2811 17.8059L16.7314 15.3167C17.2361 14.8039 17.2361 13.9706 16.7524 13.4578C16.7524 13.4578 16.7524 13.4578 16.7524 13.4471C16.2371 12.9343 15.4168 12.9343 14.9015 13.4471L11.5153 16.8658C11.2629 17.1115 11.1367 17.4533 11.1367 17.8059C11.1367 18.1584 11.2734 18.4896 11.5153 18.746L14.891 22.1753C15.1434 22.4317 15.4694 22.5706 15.8165 22.5706C16.1635 22.5706 16.5 22.4317 16.7419 22.1753C16.9838 21.9189 17.1205 21.5878 17.1205 21.2352C17.1205 20.8827 16.9838 20.5515 16.7419 20.2951L14.2916 17.8059H14.2811Z" fill="#041b3a"></path>
  <path d="M32.5281 16.9191C32.5281 16.9191 32.5071 16.8871 32.486 16.8657L29.1103 13.4364C28.6055 12.9236 27.7747 12.9236 27.2594 13.4364C26.7547 13.9492 26.7547 14.7931 27.2594 15.3166L29.7097 17.8058L27.2594 20.295C26.7547 20.8185 26.7547 21.6518 27.2594 22.1753C27.5118 22.4317 27.8378 22.5706 28.1849 22.5706C28.5319 22.5706 28.8684 22.4317 29.1103 22.1753L32.486 18.746C32.7279 18.5002 32.8646 18.1584 32.8646 17.8058C32.8646 17.4746 32.7384 17.1541 32.5281 16.9084V16.9191Z" fill="#041b3a"></path>
  <path d="M24.4774 10.9652C24.1514 10.837 23.7938 10.8477 23.4783 10.9973C23.1628 11.1468 22.921 11.4032 22.7948 11.7344L18.7671 22.5032C18.6409 22.8344 18.6514 23.1976 18.7986 23.5288C18.9458 23.8493 19.1982 24.095 19.5242 24.2232C19.6715 24.2766 19.8292 24.3086 19.9869 24.3086C20.5338 24.3086 21.0175 23.9775 21.2068 23.454L25.2345 12.6745C25.3607 12.3434 25.3502 11.9801 25.203 11.6489C25.0558 11.3285 24.8034 11.0827 24.4774 10.9545V10.9652Z" fill="#041b3a"></path>
  <path d="M36.6558 33.5657H7.22867C6.07468 33.5657 5.03608 33.913 4.60013 34.4435L1.375 39.3608H42.6249L39.2716 34.4435C38.8484 33.913 37.797 33.5657 36.643 33.5657H36.6558Z" fill="#3E83CC"></path>
  <path d="M32.5227 34.6477H11.3453C10.6227 34.6477 9.97228 34.8652 9.69928 35.1974L7.67969 38.2767H36.2606L34.1607 35.1974C33.8958 34.8652 33.2373 34.6477 32.5147 34.6477H32.5227Z" fill="#041b3a"></path>
</svg>
