<?xml version="1.0" encoding="UTF-8"?>
<svg xmlns="http://www.w3.org/2000/svg" width="131" height="34" viewBox="0 0 131 34" fill="none">
  <path d="M21.5502 18.1271C21.5502 11.0403 25.7341 6.21924 32.5196 6.21924C38.919 6.21924 42.5057 9.42171 42.5057 14.1335H36.1063C36.1063 12.6953 35.0861 11.579 32.5548 11.579C29.9528 11.579 28.5121 14.6743 28.5121 17.8391C28.5121 20.6803 29.7781 23.5232 32.4849 23.5232C34.7699 23.5232 36.0008 22.7317 36.0008 21.0047H33.2232V16.3285H42.6803V28.4519H38.2506C38.2506 28.4519 38.2506 27.5164 38.2506 26.6893C37.9692 26.9413 36.1758 28.9203 32.3086 28.9203C25.8753 28.9198 21.5502 24.6735 21.5502 18.1271ZM7.41718 28.4519C7.41718 28.4519 4.25267 28.4519 0.666016 28.4519L8.33143 6.72362H15.011L22.64 28.4519H15.8545L14.9063 25.7538H8.33184L7.41718 28.4519ZM11.6006 13.738L9.49111 21.1487H13.8161L11.6006 13.738Z" fill="black"></path>
  <path d="M45.0254 6.72412H61.4443V12.4798H51.7766V15.6455H59.5111V21.0048H51.7757V28.4524H45.0254V6.72412ZM65.6994 28.4524H58.9486L66.6476 6.72412H73.3288L80.9238 28.4524H74.2079L73.0469 25.7543H66.5429L65.6994 28.4524ZM69.8833 13.7385L67.7717 21.1856H72.0967L69.8833 13.7385Z" fill="black"></path>
  <path d="M86.957 17.9825L108.299 0.741211L129.007 18.0554L108.299 33.7412L86.957 17.9825Z" fill="#EF3B24"></path>
  <path d="M96.0619 16.9403C94.0583 19.7091 93.601 19.4948 92.582 19.602V20.5735C92.6876 20.5735 94.0583 20.8255 94.9018 20.0704C95.2892 19.7824 96.1327 18.7389 96.1327 18.7389H98.9106L98.2426 20.717H100.879L103.34 13.0552C103.27 13.1276 100.773 13.0552 99.7541 13.3067C98.2422 13.7019 97.9256 14.3866 96.0619 16.9403Z" fill="white"></path>
  <path d="M105.098 20.934C106.223 20.934 106.96 20.3225 106.96 20.3225C106.82 20.9687 106.364 21.5811 105.871 21.8695C105.027 22.4446 103.938 21.9762 103.269 21.8695L102.812 22.805C102.814 22.805 104.571 23.4149 105.872 23.4149C107.525 23.4149 108.72 21.7975 109.141 20.1777C109.353 19.3866 110.161 15.6081 110.161 15.6081H108.122L107.875 16.5445C107.771 16.1125 107.171 15.4277 106.152 15.4277C104.15 15.4277 102.918 16.9396 102.918 18.5231C102.918 20.1781 104.184 20.934 105.098 20.934Z" fill="white"></path>
  <path d="M114.028 16.5452H115.082L115.328 15.6089H114.414C114.414 15.6089 114.697 14.5302 115.434 14.2422C116.278 13.9183 117.121 14.0254 117.121 14.0254V13.0552C117.121 13.0552 115.611 13.0552 115.434 13.0552C113.641 13.0552 112.621 14.3866 112.305 15.6084H111.145L111.004 16.5448H112.023L110.863 20.717H112.973L114.028 16.5452Z" fill="white"></path>
  <path d="M119.373 19.7465L119.125 20.7167H120.989L122.396 15.6081H120.356L120.04 16.6156C120.04 16.6156 119.442 15.501 118.317 15.501C116.558 15.501 115.082 16.9396 115.082 18.6674C115.082 20.0345 116.066 20.8972 117.016 20.8972C117.967 20.8972 118.845 20.4648 119.373 19.7465Z" fill="white"></path>
  <path d="M107.348 18.0557C107.348 19.1708 106.398 19.964 105.415 19.964C104.677 19.964 104.043 19.4961 104.043 18.5246C104.043 17.661 104.816 16.4731 106.047 16.4731C107.032 16.4727 107.348 17.2642 107.348 18.0557Z" fill="#EF3B24"></path>
  <path d="M99.298 14.5645C99.6498 14.3862 100.389 14.4574 100.389 14.4574L99.1932 17.695H96.873C96.873 17.695 98.4541 14.9618 99.298 14.5645Z" fill="#EF3B24"></path>
  <path d="M119.408 17.804C119.408 18.9203 118.494 19.9269 117.403 19.9269C116.736 19.9269 116.207 19.3154 116.207 18.5951C116.207 17.48 117.158 16.5098 118.212 16.5098C118.881 16.5102 119.408 17.1204 119.408 17.804Z" fill="#EF3B24"></path>
</svg>
