<?xml version="1.0" encoding="UTF-8"?>
<svg xmlns="http://www.w3.org/2000/svg" width="56" height="56" viewBox="0 0 56 56" fill="none">
  <path d="M6 19.0396C6 15.1563 6 13.2147 6.5975 11.6702C7.4987 9.34074 9.34026 7.49919 11.6697 6.59799C13.2142 6.00049 15.1558 6.00049 19.0391 6.00049H36.9609C40.8442 6.00049 42.7858 6.00049 44.3303 6.59799C46.6597 7.49919 48.5013 9.34074 49.4025 11.6702C50 13.2147 50 15.1563 50 19.0396V36.9613C50 40.8447 50 42.7863 49.4025 44.3308C48.5013 46.6602 46.6597 48.5018 44.3303 49.403C42.7858 50.0005 40.8442 50.0005 36.9609 50.0005H19.0391C15.1558 50.0005 13.2142 50.0005 11.6697 49.403C9.34026 48.5018 7.4987 46.6602 6.5975 44.3308C6 42.7863 6 40.8447 6 36.9613V19.0396Z" fill="#1D1C1C"></path>
  <path d="M26.3802 34.2981H17.8996L16.5401 37.7384H10.7461L18.9678 18.2616H25.3768L33.5985 37.7384H27.7397L26.3802 34.2981ZM24.956 30.6358L22.1399 23.5054L19.3562 30.6358H24.956Z" fill="white"></path>
  <path d="M41.6358 18.2616V37.7384H36.1007V18.2616H41.6358Z" fill="white"></path>
</svg>
