<?xml version="1.0" encoding="UTF-8"?>
<svg xmlns="http://www.w3.org/2000/svg" width="48" height="49" viewBox="0 0 48 49" fill="none">
  <path d="M17.2814 14.9611C18.867 19.5719 19.4678 27.7973 24.1048 27.7973C24.4578 27.7973 24.8145 27.7644 25.1725 27.6996C20.9573 26.7651 20.4576 18.6292 17.8856 14.416C17.6805 14.5939 17.4791 14.7757 17.2814 14.9611Z" fill="url(#paint0_linear_8697_6740)"></path>
  <path d="M17.8867 14.4152C20.4589 18.6284 20.9584 26.7643 25.1736 27.6987C25.5048 27.641 25.8366 27.5535 26.1692 27.4431C22.3857 25.6806 21.3399 17.78 18.4188 13.9766C18.2385 14.1195 18.0611 14.2658 17.8867 14.4153" fill="url(#paint1_linear_8697_6740)"></path>
  <path d="M21.5926 11.9102C21.2403 11.9102 20.8829 11.9431 20.5242 12.0079C19.5859 12.176 18.6328 12.5602 17.6719 13.1414C17.9344 13.3877 18.184 13.6696 18.419 13.9772C19.3962 13.2061 20.3672 12.6364 21.3344 12.2938C21.6875 12.1682 22.0513 12.0721 22.4219 12.0064C22.1508 11.9416 21.8722 11.9092 21.5926 11.9102Z" fill="#14559A"></path>
  <path d="M29.1229 25.818C29.526 25.5118 29.9142 25.1883 30.2863 24.8485C28.6751 20.259 28.0984 11.916 23.4289 11.916C23.0949 11.916 22.7581 11.9456 22.4219 12.0049C26.6753 13.0107 27.2202 21.81 29.1231 25.818" fill="url(#paint2_linear_8697_6740)"></path>
  <path d="M22.4211 12.0063C22.15 11.9415 21.8714 11.9092 21.5918 11.9102L23.4281 11.9166C23.0942 11.9166 22.7573 11.9464 22.4211 12.0063Z" fill="#3092C4"></path>
  <path d="M29.04 26.7929C28.8575 26.6274 28.6841 26.4458 28.5135 26.252C27.728 26.7807 26.9455 27.1818 26.168 27.4428C26.4455 27.5724 26.7394 27.6676 27.0424 27.7261C27.2877 27.7733 27.5374 27.7968 27.7876 27.7961C28.66 27.7961 29.35 27.6979 29.9373 27.4301C29.6139 27.2639 29.3173 27.0484 29.04 26.7929Z" fill="#1969BC"></path>
  <path d="M21.334 12.2944C25.1436 14.189 25.4748 22.7691 28.5146 26.253C28.7215 26.1141 28.924 25.9693 29.122 25.819C27.219 21.811 26.6749 13.0111 22.4223 12.0059C22.0515 12.0722 21.6874 12.1688 21.334 12.2944Z" fill="url(#paint3_linear_8697_6740)"></path>
  <path d="M18.418 13.9759C21.339 17.7792 22.3849 25.6797 26.1684 27.4424C26.9461 27.1814 27.7287 26.7803 28.5141 26.2516C25.4742 22.7677 25.1431 14.1876 21.3334 12.293C20.3662 12.6348 19.3952 13.2046 18.418 13.9757" fill="url(#paint4_linear_8697_6740)"></path>
  <path d="M15.4128 14.8487C14.955 15.8331 14.4873 17.1269 13.9219 18.8157C15.0464 17.3093 16.1672 16.0112 17.2818 14.96C17.1284 14.5111 16.9635 14.0974 16.7858 13.7285C16.3073 14.0782 15.849 14.4522 15.413 14.8489" fill="url(#paint5_linear_8697_6740)"></path>
  <path d="M17.1927 13.4453C17.0559 13.5379 16.9207 13.6326 16.7871 13.7293C16.9648 14.098 17.129 14.5117 17.2825 14.9605C17.4805 14.7755 17.6819 14.5938 17.8867 14.4155C17.6709 14.0629 17.4417 13.7373 17.1927 13.4453Z" fill="#2B74B1"></path>
  <path d="M17.671 13.1408C17.5088 13.2388 17.3489 13.3402 17.1914 13.4448C17.4406 13.7368 17.6698 14.0624 17.8863 14.4157C18.0603 14.2656 18.2378 14.1191 18.4185 13.9764C18.1835 13.6689 17.9337 13.3869 17.671 13.1406" fill="#125A9E"></path>
  <path d="M43.6575 11.5585C41.5029 19.4596 37.0025 25.8056 33.2294 27.4056H33.2225C33.1538 27.4352 33.0858 27.4622 33.0186 27.4883C33.0093 27.4938 33.0008 27.4944 32.9937 27.4975C32.974 27.5051 32.9557 27.511 32.9358 27.5186C32.9264 27.5239 32.9181 27.5257 32.9096 27.5288C32.8778 27.5397 32.8466 27.5487 32.8155 27.5606C32.802 27.566 32.7894 27.5693 32.7766 27.5736C32.7613 27.5791 32.7457 27.584 32.7299 27.588C32.7157 27.5933 32.7008 27.5972 32.6845 27.6032C32.671 27.6084 32.6568 27.6107 32.6442 27.616C32.6165 27.6236 32.5913 27.63 32.5636 27.639C32.5522 27.639 32.5416 27.645 32.5297 27.6479C32.5125 27.6532 32.4933 27.657 32.475 27.6619C32.4624 27.6672 32.4518 27.669 32.4383 27.6716C32.4193 27.6769 32.398 27.6818 32.3788 27.6861L32.3066 27.7012C32.4794 27.7618 32.6623 27.7923 32.8465 27.7914C36.4243 27.7914 40.0315 21.6949 46.0003 11.5566H43.6567L43.6575 11.5585Z" fill="url(#paint6_linear_8697_6740)"></path>
  <path d="M13.1452 12.2302C13.1474 12.2302 13.1504 12.2249 13.1516 12.2249C13.1545 12.2249 13.1588 12.2249 13.1602 12.2197H13.1647C13.1844 12.2131 13.2028 12.2057 13.2227 12.1986C13.2279 12.1986 13.2305 12.1986 13.2341 12.1933C13.2391 12.1933 13.244 12.1879 13.249 12.1873C13.2701 12.1808 13.2914 12.1733 13.3113 12.1664H13.3146C13.362 12.1529 13.4059 12.1361 13.4518 12.1205C13.4583 12.1205 13.4646 12.1152 13.4723 12.1152C13.4914 12.1093 13.5113 12.1029 13.5312 12.0986C13.5403 12.0931 13.5495 12.0931 13.558 12.0903C13.5784 12.0846 13.5983 12.078 13.6173 12.0737C13.626 12.0737 13.6336 12.0683 13.64 12.0678C13.7058 12.0505 13.771 12.0344 13.8367 12.0194C13.8459 12.0194 13.8537 12.014 13.8636 12.0135C13.8826 12.0083 13.9004 12.0053 13.921 12.0027C13.9295 11.9974 13.9393 11.9974 13.9492 11.9946C13.9682 11.9893 13.9867 11.9887 14.0073 11.9844H14.0207C14.0605 11.9767 14.1008 11.9704 14.1404 11.9633H14.1644C14.1835 11.9581 14.2004 11.9574 14.2196 11.9541C14.23 11.9541 14.2407 11.9489 14.2508 11.9489C14.2684 11.9489 14.2861 11.9434 14.3037 11.9413C14.3131 11.9413 14.3221 11.9413 14.3328 11.9359C14.3745 11.9306 14.4176 11.9285 14.4615 11.9252C14.335 11.9131 14.208 11.9068 14.0809 11.9062C10.0518 11.9062 4.50054 19.0147 2 28.2203H2.48187C3.28211 26.8633 4.00102 25.5796 4.65851 24.3745C6.40969 17.854 9.97675 13.4073 13.1453 12.2292" fill="url(#paint7_linear_8697_6740)"></path>
  <path d="M15.4141 14.8501C15.8501 14.4534 16.3083 14.0794 16.7868 13.7297C16.6895 13.5239 16.5803 13.3233 16.4598 13.1289C16.0913 13.5542 15.7544 14.1154 15.4141 14.8501Z" fill="#0D82CA"></path>
  <path d="M15.7444 12.2846C16.0076 12.4945 16.2432 12.7831 16.459 13.1291C16.527 13.0496 16.5957 12.9763 16.6671 12.9076C16.3678 12.6419 16.0443 12.424 15.6934 12.2598C15.7075 12.2672 15.7217 12.2733 15.7364 12.2792C15.7364 12.2792 15.742 12.2846 15.7444 12.2846Z" fill="#0D82CA"></path>
  <path d="M4.6582 24.3759C8.33219 17.6442 10.0728 13.3838 13.1452 12.2305C9.9773 13.4094 6.40955 17.8561 4.65838 24.3759" fill="url(#paint8_linear_8697_6740)"></path>
  <path d="M16.667 12.9062C16.5955 12.9755 16.5277 13.0482 16.459 13.1277C16.5795 13.3221 16.6889 13.5227 16.7867 13.7284C16.9202 13.6317 17.0554 13.5371 17.1921 13.4446C17.0305 13.2537 16.855 13.0738 16.667 12.9062Z" fill="#127BCA"></path>
  <path d="M6.32574 28.1916C6.30307 28.1971 6.2804 28.1971 6.25912 28.1992H6.24649C6.22729 28.1992 6.20739 28.2046 6.18974 28.2046H6.18057C6.13455 28.2099 6.08921 28.2099 6.04544 28.2132H6.03125C9.74971 28.1143 11.4493 26.3441 12.293 23.7766C12.934 21.8301 13.4604 20.1903 13.9218 18.8145C12.3643 20.8989 10.7998 23.3837 9.22683 26.1672C8.46829 27.5087 7.31491 28.0691 6.32556 28.1892" fill="url(#paint9_linear_8697_6740)"></path>
  <path d="M6.32634 28.1893C7.31552 28.0695 8.4689 27.5098 9.22744 26.1673C10.8004 23.3846 12.3657 20.8992 13.9216 18.8147C14.4877 17.1251 14.9549 15.832 15.4134 14.8477C12.3119 17.6547 9.19837 22.3222 6.32617 28.188" fill="url(#paint10_linear_8697_6740)"></path>
  <path d="M4.65711 24.375C3.99962 25.5799 3.2807 26.8637 2.48047 28.2208H3.88214C4.05915 26.9255 4.31794 25.6415 4.65711 24.3757" fill="#05A1E6"></path>
  <path d="M14.3323 11.9397C14.3209 11.9397 14.3124 11.9449 14.3026 11.9449C14.2856 11.9504 14.268 11.9504 14.2502 11.952C14.2398 11.952 14.2297 11.952 14.219 11.9574C14.2 11.9627 14.1823 11.9632 14.1638 11.9666C14.1553 11.9666 14.1469 11.9666 14.1398 11.9719C14.0995 11.9783 14.0598 11.9854 14.0204 11.9918H14.0069C13.9863 11.9972 13.9678 12 13.9487 12.0027C13.9389 12.0079 13.929 12.0079 13.9197 12.0101C13.9006 12.0155 13.8816 12.0176 13.8631 12.0209C13.8532 12.0262 13.8455 12.0262 13.8363 12.0267C13.7705 12.0418 13.7053 12.058 13.6396 12.0752C13.6326 12.0752 13.6254 12.0805 13.6169 12.0816C13.5972 12.0869 13.578 12.0923 13.5574 12.0983C13.5489 12.1037 13.539 12.1037 13.5305 12.1058C13.5108 12.111 13.4912 12.1166 13.4717 12.1224C13.4641 12.1224 13.4577 12.1277 13.4506 12.1277C13.4053 12.1438 13.3606 12.1601 13.3139 12.1734C13.2942 12.1794 13.2729 12.1869 13.2516 12.194C13.2432 12.1993 13.2355 12.2006 13.2257 12.2042C13.2058 12.2101 13.1859 12.2177 13.1675 12.2246C13.1606 12.23 13.1534 12.2305 13.1485 12.2333C10.0761 13.3866 8.33533 17.6469 4.66152 24.3786C4.32205 25.6444 4.06331 26.9285 3.88672 28.2239H4.08345C4.63747 28.2239 4.79388 28.2185 5.4313 28.2185H6.04917C6.09295 28.2132 6.13828 28.2132 6.18413 28.2098H6.19278C6.21181 28.2098 6.23085 28.2045 6.24936 28.2045H6.26286C6.28327 28.2045 6.30663 28.1992 6.3293 28.1969C9.20149 22.3311 12.3149 17.6637 15.4165 14.8566C15.7574 14.122 16.0936 13.5608 16.4616 13.1362C16.2463 12.7904 16.0107 12.5012 15.7475 12.2912C15.4843 12.0813 15.7404 12.2912 15.7399 12.2858C15.7248 12.2801 15.7108 12.273 15.6959 12.2661C15.6811 12.2583 15.6683 12.2524 15.6527 12.245C15.6382 12.2392 15.6241 12.2327 15.6103 12.2256C15.592 12.2202 15.5771 12.2126 15.5608 12.2057C15.5473 12.2003 15.5354 12.1948 15.5219 12.1896C15.4945 12.1795 15.4674 12.1686 15.4406 12.1572C15.4284 12.1519 15.4172 12.1489 15.406 12.1448C15.3854 12.1377 15.365 12.13 15.3449 12.1218C15.335 12.1164 15.3238 12.1152 15.3123 12.1114C15.2835 12.1022 15.2551 12.0925 15.2283 12.0839H15.2212C15.1886 12.0737 15.1568 12.0662 15.1236 12.0576C15.1158 12.0522 15.1094 12.0522 15.1016 12.051C15.0725 12.0436 15.0471 12.0362 15.0196 12.0292C15.0127 12.0292 15.0061 12.0237 15.0006 12.0237C14.9329 12.0072 14.8646 11.9931 14.7959 11.9813C14.789 11.9813 14.7819 11.9759 14.7748 11.9759C14.7455 11.9703 14.716 11.9658 14.6863 11.9624C14.6791 11.9571 14.6749 11.9571 14.6687 11.9571C14.6339 11.952 14.5989 11.9477 14.5638 11.9441H14.5455C14.5171 11.9388 14.491 11.9383 14.4649 11.9355C14.4202 11.9408 14.3778 11.9431 14.336 11.9469" fill="url(#paint11_linear_8697_6740)"></path>
  <path d="M35.2404 15.9324C34.5336 18.0855 33.961 19.8616 33.4629 21.3231C35.4025 18.7852 37.313 15.5925 39.1324 11.9082C37.0102 12.5419 35.878 13.9927 35.2404 15.9324Z" fill="url(#paint12_linear_8697_6740)"></path>
  <path d="M33.5244 27.2711C33.4254 27.3192 33.3263 27.3648 33.2285 27.4057C37.0016 25.8058 41.502 19.4597 43.6567 11.5586H43.22C38.2697 19.9669 36.6776 25.5958 33.5244 27.2711Z" fill="url(#paint13_linear_8697_6740)"></path>
  <path d="M31.062 26.5637C31.8829 25.611 32.5516 23.9914 33.4645 21.3223C32.4114 22.6977 31.3515 23.8797 30.2907 24.844C30.2907 24.8493 30.2907 24.8493 30.2852 24.8526C30.5167 25.512 30.7707 26.0939 31.06 26.5636" fill="#079AE1"></path>
  <path d="M31.0611 26.5645C30.7817 26.8886 30.4858 27.1357 30.1569 27.3186C30.0846 27.3584 30.0117 27.3959 29.9375 27.4305C30.2945 27.6143 30.6853 27.7314 31.0886 27.7755C31.1509 27.7814 31.2125 27.7868 31.2769 27.7911H31.2883C31.3172 27.7911 31.3478 27.7911 31.379 27.7964H31.6859C31.6972 27.7964 31.7089 27.7964 31.7203 27.7911C31.7423 27.7911 31.7657 27.7911 31.7882 27.7857H31.8217C31.8449 27.7857 31.8704 27.7804 31.8953 27.7781H31.901C31.9082 27.7781 31.9162 27.7729 31.9235 27.7729C31.9494 27.7674 31.9768 27.7653 32.0022 27.7615H32.0254C32.0541 27.7562 32.084 27.7528 32.1136 27.7475H32.128C32.1873 27.7367 32.2453 27.7261 32.3041 27.712C31.8172 27.5425 31.4096 27.1427 31.0587 26.5735" fill="#1969BC"></path>
  <path d="M24.1055 27.7966C24.4586 27.7966 24.8152 27.7637 25.1734 27.6984C25.5045 27.6413 25.8364 27.5536 26.169 27.4434C26.4463 27.5729 26.7399 27.6681 27.0427 27.7267C27.2882 27.7738 27.5381 27.7973 27.7886 27.7966H24.1055Z" fill="#1E5CB3"></path>
  <path d="M27.7876 27.7957C28.6594 27.7957 29.35 27.6975 29.9365 27.4297C30.2936 27.6136 30.6844 27.7309 31.0878 27.775C31.1501 27.7808 31.2117 27.7862 31.2761 27.7905H31.2875C31.3164 27.7905 31.347 27.7905 31.3782 27.7959H31.4839H27.7852L27.7876 27.7957Z" fill="#1E5CB3"></path>
  <path d="M31.4863 27.796H31.6881C31.7002 27.796 31.7113 27.796 31.7227 27.7908C31.7447 27.7908 31.768 27.7908 31.7914 27.7853H31.8248C31.8479 27.7853 31.8734 27.7801 31.8976 27.7779H31.9038C31.9113 27.7779 31.9185 27.7727 31.926 27.7727C31.9519 27.7672 31.9791 27.7651 32.0045 27.7612C32.013 27.7612 32.0198 27.7612 32.0288 27.7559C32.0577 27.7506 32.0876 27.7478 32.1173 27.7426H32.1315C32.1909 27.7317 32.2488 27.721 32.3077 27.707C32.4805 27.7676 32.6633 27.7981 32.8475 27.7972L31.4875 27.8025L31.4863 27.796Z" fill="#1D60B5"></path>
  <path d="M30.2867 24.8531V24.8477C29.9146 25.1875 29.5265 25.511 29.1235 25.8172C28.9252 25.9673 28.7225 26.112 28.5156 26.2512C28.6861 26.445 28.8596 26.6266 29.0421 26.7923C29.3195 27.0478 29.6159 27.2631 29.9393 27.4293C30.013 27.3948 30.0865 27.3573 30.158 27.3176C30.4878 27.1347 30.7834 26.8877 31.0629 26.5634C30.7736 26.0937 30.5196 25.5118 30.2881 24.8524" fill="#175FAB"></path>
  <path d="M41.8378 11.5586H39.6402C39.5215 11.564 39.4061 11.5678 39.2923 11.5747C39.2385 11.6845 39.1833 11.7942 39.1302 11.9046C37.311 15.5889 35.4005 18.7815 33.4609 21.3194C32.5487 23.9885 31.8794 25.608 31.0586 26.5607C31.4095 27.13 31.8178 27.5303 32.3032 27.6999C32.3173 27.6945 32.3288 27.6945 32.3414 27.6917H32.3494C32.3578 27.6917 32.367 27.6864 32.3762 27.6864C32.3959 27.681 32.4172 27.6777 32.4371 27.6719C32.4497 27.6665 32.4603 27.666 32.4731 27.662C32.4916 27.6568 32.5106 27.653 32.5276 27.6487C32.539 27.6433 32.5502 27.6416 32.5615 27.6395C32.5899 27.6308 32.6153 27.6244 32.6423 27.6163C32.6549 27.611 32.6684 27.6064 32.6826 27.6033C32.6982 27.598 32.7137 27.5943 32.7279 27.5878C32.7442 27.5824 32.7605 27.5796 32.7746 27.5739C32.7873 27.5684 32.8006 27.5651 32.8127 27.5604C32.8445 27.5495 32.8757 27.5405 32.9075 27.5286C32.9162 27.5286 32.9247 27.521 32.9338 27.5194C32.9529 27.5118 32.9728 27.5059 32.9918 27.4979C32.9987 27.4924 33.0074 27.4919 33.0165 27.4891C33.0831 27.4628 33.1517 27.4358 33.2204 27.4064H33.2274C33.3272 27.3642 33.4256 27.3193 33.5226 27.2718C36.6763 25.5965 38.2687 19.9676 43.2189 11.5593H41.8362L41.8378 11.5586Z" fill="url(#paint14_linear_8697_6740)"></path>
  <path d="M14.4611 11.9283C14.4689 11.9283 14.4758 11.9283 14.4836 11.9335C14.5026 11.9335 14.5217 11.9335 14.5409 11.9395H14.5599C14.5947 11.9447 14.6295 11.9477 14.6648 11.9525C14.6712 11.9525 14.6769 11.9525 14.6824 11.9577C14.7115 11.963 14.7412 11.9676 14.7708 11.9717C14.7774 11.9717 14.7857 11.9771 14.7928 11.9771C14.8608 11.99 14.9302 12.0035 14.9966 12.0201C15.003 12.0201 15.0094 12.0255 15.015 12.0255C15.0433 12.0319 15.0688 12.04 15.0971 12.0475C15.1058 12.0475 15.112 12.0528 15.1196 12.0541C15.153 12.0622 15.1842 12.0703 15.2167 12.0805C15.2181 12.0805 15.2202 12.0805 15.2238 12.0857C15.2515 12.0938 15.2797 12.104 15.3088 12.1132C15.3202 12.1185 15.3307 12.1208 15.3413 12.1234C15.3612 12.1316 15.3832 12.1395 15.4022 12.1471C15.4136 12.1471 15.4247 12.1547 15.4368 12.1586C15.4629 12.1698 15.4904 12.18 15.5174 12.1907C15.5316 12.1961 15.5435 12.2022 15.5572 12.207C15.5728 12.2145 15.5889 12.2214 15.6058 12.2267C15.62 12.2333 15.6356 12.2402 15.6491 12.2461C15.664 12.2539 15.678 12.2596 15.6923 12.2672C16.0432 12.4314 16.3666 12.65 16.666 12.9152C16.7731 12.8079 16.8885 12.7083 17.0111 12.6171C16.3566 12.1755 15.6152 11.9238 14.7596 11.9238C14.6606 11.9238 14.5615 11.9293 14.4609 11.9363" fill="#7DCBEC"></path>
  <path d="M16.6662 12.9077C16.8542 13.0752 17.0297 13.2551 17.1913 13.446C17.3487 13.3409 17.5086 13.2395 17.6709 13.1416C17.4672 12.9466 17.2463 12.7685 17.0107 12.6094C16.8881 12.7004 16.7728 12.8 16.666 12.9075" fill="#5EC5ED"></path>
  <path d="M14.4609 11.9283C14.5613 11.9202 14.6604 11.9167 14.7595 11.9167C15.615 11.9167 16.3566 12.1685 17.0111 12.6094C17.7018 12.0911 18.5367 11.9102 19.6964 11.9102H14.0801C14.2098 11.9102 14.3363 11.9176 14.4609 11.9283Z" fill="url(#paint15_linear_8697_6740)"></path>
  <path d="M19.697 11.9094C18.5373 11.9094 17.7024 12.0903 17.0117 12.6086C17.247 12.7678 17.4677 12.9458 17.6713 13.1406C18.6328 12.5594 19.5853 12.1744 20.5244 12.0063C20.8764 11.9426 21.2338 11.9102 21.592 11.9094H19.697Z" fill="url(#paint16_linear_8697_6740)"></path>
  <path d="M33.4639 21.324C33.9628 19.8614 34.5339 18.0857 35.2421 15.932C35.8806 13.9915 37.0104 12.5409 39.1325 11.9078C39.1886 11.7994 39.2415 11.6877 39.296 11.5781C35.8366 11.7752 34.2197 13.4486 33.406 15.9266C31.983 20.2528 31.121 23.0572 30.291 24.8443C31.3511 23.8808 32.4111 22.6979 33.4639 21.324Z" fill="url(#paint17_linear_8697_6740)"></path>
  <path d="M38.5393 26.6439H38.1473V27.8026H37.9874V26.6439H37.5938V26.506H38.5392L38.5393 26.6439ZM40.1445 27.8023H39.9853V26.9316C39.9853 26.863 39.9908 26.779 39.9983 26.6799C39.9818 26.7392 39.9683 26.7803 39.9559 26.8066L39.4917 27.8023H39.4138L38.9484 26.814C38.9345 26.7865 38.921 26.7419 38.9063 26.6801H38.9008C38.9063 26.7322 38.9082 26.8166 38.9082 26.9338V27.8024H38.7553V26.5059H38.9663L39.3844 27.4107C39.416 27.4787 39.4359 27.5312 39.446 27.5662H39.4522C39.4799 27.4948 39.5024 27.4417 39.5179 27.4066L39.9446 26.5059H40.1455V27.8023H40.1445Z" fill="black"></path>
  <path d="M17.357 35.9325C17.357 35.7734 17.3383 35.6331 17.3009 35.5114C17.2635 35.3866 17.1979 35.2743 17.1044 35.1745C17.0108 35.0747 16.8798 34.9796 16.7113 34.8891C16.5429 34.7986 16.3292 34.7066 16.0703 34.613C15.7895 34.5132 15.5353 34.4025 15.3076 34.2808C15.0799 34.156 14.8849 34.0141 14.7227 33.855C14.5636 33.6959 14.4404 33.5134 14.353 33.3075C14.2657 33.1017 14.222 32.8661 14.222 32.601C14.222 32.3358 14.2672 32.091 14.3577 31.8664C14.4513 31.6418 14.5823 31.4468 14.7508 31.2815C14.9223 31.113 15.1282 30.982 15.3684 30.8884C15.6086 30.7948 15.8769 30.748 16.1732 30.748C16.6162 30.748 16.9889 30.8463 17.2915 31.0428C17.5972 31.2362 17.8281 31.4905 17.984 31.8055C18.14 32.1175 18.218 32.4513 18.218 32.8069H17.357C17.357 32.5511 17.3149 32.3249 17.2307 32.1284C17.1496 31.9288 17.0217 31.7728 16.847 31.6605C16.6754 31.5451 16.4508 31.4874 16.1732 31.4874C15.9237 31.4874 15.7178 31.5357 15.5556 31.6324C15.3965 31.7291 15.2779 31.8601 15.1999 32.0255C15.1251 32.1908 15.0876 32.3795 15.0876 32.5916C15.0876 32.7351 15.1126 32.8661 15.1625 32.9847C15.2124 33.1001 15.2889 33.2077 15.3918 33.3075C15.4979 33.4074 15.6289 33.4994 15.7848 33.5836C15.9439 33.6678 16.1311 33.7489 16.3463 33.8269C16.6801 33.9361 16.9655 34.0578 17.2026 34.1919C17.4397 34.326 17.6331 34.4773 17.7828 34.6458C17.9326 34.8111 18.0417 34.9998 18.1104 35.212C18.1821 35.421 18.218 35.658 18.218 35.9232C18.218 36.2008 18.1712 36.4519 18.0776 36.6765C17.9872 36.9011 17.8546 37.093 17.6799 37.2521C17.5052 37.4111 17.2946 37.5344 17.0482 37.6217C16.8018 37.7059 16.5241 37.748 16.2153 37.748C15.9471 37.748 15.6835 37.7044 15.4245 37.617C15.1688 37.5297 14.9364 37.3987 14.7274 37.224C14.5184 37.0493 14.3515 36.8341 14.2267 36.5783C14.1019 36.3193 14.0395 36.0199 14.0395 35.6799H14.9005C14.9005 35.9138 14.9348 36.115 15.0034 36.2835C15.0721 36.4488 15.1672 36.5861 15.2889 36.6952C15.4105 36.8044 15.5493 36.8855 15.7053 36.9386C15.8644 36.9885 16.0344 37.0134 16.2153 37.0134C16.4649 37.0134 16.6739 36.9697 16.8423 36.8824C17.0139 36.7951 17.1418 36.6703 17.226 36.5081C17.3134 36.3459 17.357 36.154 17.357 35.9325Z" fill="black"></path>
  <path fill-rule="evenodd" clip-rule="evenodd" d="M13.6322 37.6545L11.4377 30.8416H10.6984L8.50391 37.6545H9.38359L9.91828 35.8717H12.2179L12.7526 37.6545H13.6322ZM11.0681 32.0381L10.14 35.1324H11.9961L11.0681 32.0381Z" fill="black"></path>
  <path fill-rule="evenodd" clip-rule="evenodd" d="M22.4388 31.1083C22.1362 30.9305 21.765 30.8416 21.3251 30.8416H19.154V37.6545H20.015V34.9827H21.3251C21.765 34.9827 22.1362 34.9031 22.4388 34.744C22.7414 34.5818 22.9706 34.3463 23.1266 34.0375C23.2857 33.7287 23.3652 33.3559 23.3652 32.9192C23.3652 32.5168 23.2857 32.1596 23.1266 31.8476C22.9706 31.5326 22.7414 31.2861 22.4388 31.1083ZM22.0036 34.0796C21.832 34.1919 21.6059 34.248 21.3251 34.248H20.015V31.5809H21.3251C21.6059 31.5809 21.832 31.6449 22.0036 31.7728C22.1783 31.8976 22.3046 32.0629 22.3826 32.2688C22.4637 32.4747 22.5043 32.6946 22.5043 32.9285C22.5043 33.1843 22.4637 33.412 22.3826 33.6117C22.3046 33.8113 22.1783 33.9673 22.0036 34.0796Z" fill="black"></path>
  <path d="M22.701 37.1959C22.701 37.0493 22.7462 36.9261 22.8367 36.8263C22.9303 36.7233 23.0644 36.6718 23.2391 36.6718C23.4138 36.6718 23.5464 36.7233 23.6368 36.8263C23.7304 36.9261 23.7772 37.0493 23.7772 37.1959C23.7772 37.3394 23.7304 37.4611 23.6368 37.5609C23.5464 37.6607 23.4138 37.7106 23.2391 37.7106C23.0644 37.7106 22.9303 37.6607 22.8367 37.5609C22.7462 37.4611 22.701 37.3394 22.701 37.1959Z" fill="black"></path>
  <path d="M25.9579 32.3998L28.6858 37.6545H29.5514V30.8416H28.6998V36.1103L25.9579 30.8416H25.0969V37.6545H25.9579V32.3998Z" fill="black"></path>
  <path d="M34.5115 36.9198V37.6545H30.8478V30.8416H34.4647V31.5809H31.7087V33.7708H34.1138V34.5054H31.7087V36.9198H34.5115Z" fill="black"></path>
  <path d="M37.7029 37.6545V31.5809H39.495V30.8416H35.0638V31.5809H36.8513V37.6545H37.7029Z" fill="black"></path>
  <defs>
    <linearGradient id="paint0_linear_8697_6740" x1="1063.24" y1="-703.535" x2="1063.24" y2="4783.04" gradientUnits="userSpaceOnUse">
      <stop stop-color="#0994DC"></stop>
      <stop offset="0.35" stop-color="#66CEF5"></stop>
      <stop offset="0.846" stop-color="#127BCA"></stop>
      <stop offset="1" stop-color="#127BCA"></stop>
    </linearGradient>
    <linearGradient id="paint1_linear_8697_6740" x1="1115.78" y1="-722.264" x2="1115.78" y2="4904.04" gradientUnits="userSpaceOnUse">
      <stop stop-color="#0E76BC"></stop>
      <stop offset="0.36" stop-color="#36AEE8"></stop>
      <stop offset="0.846" stop-color="#00ADEF"></stop>
      <stop offset="1" stop-color="#00ADEF"></stop>
    </linearGradient>
    <linearGradient id="paint2_linear_8697_6740" x1="1064.87" y1="4251.28" x2="1064.87" y2="-225.579" gradientUnits="userSpaceOnUse">
      <stop stop-color="#1C63B7"></stop>
      <stop offset="0.5" stop-color="#33BDF2"></stop>
      <stop offset="1" stop-color="#33BDF2" stop-opacity="0.42"></stop>
    </linearGradient>
    <linearGradient id="paint3_linear_8697_6740" x1="1053.68" y1="-752.363" x2="1053.68" y2="5089.27" gradientUnits="userSpaceOnUse">
      <stop stop-color="#166AB8"></stop>
      <stop offset="0.4" stop-color="#36AEE8"></stop>
      <stop offset="0.846" stop-color="#0798DD"></stop>
      <stop offset="1" stop-color="#0798DD"></stop>
    </linearGradient>
    <linearGradient id="paint4_linear_8697_6740" x1="1356.67" y1="-800.731" x2="1356.67" y2="5411.09" gradientUnits="userSpaceOnUse">
      <stop stop-color="#124379"></stop>
      <stop offset="0.39" stop-color="#1487CB"></stop>
      <stop offset="0.78" stop-color="#165197"></stop>
      <stop offset="1" stop-color="#165197"></stop>
    </linearGradient>
    <linearGradient id="paint5_linear_8697_6740" x1="13.9219" y1="713.021" x2="17.2818" y2="713.021" gradientUnits="userSpaceOnUse">
      <stop stop-color="#33BDF2" stop-opacity="0.698"></stop>
      <stop offset="1" stop-color="#1DACD8"></stop>
    </linearGradient>
    <linearGradient id="paint6_linear_8697_6740" x1="1847.81" y1="4237.64" x2="1847.81" y2="-123.457" gradientUnits="userSpaceOnUse">
      <stop stop-color="#136AB4"></stop>
      <stop offset="0.6" stop-color="#59CAF5" stop-opacity="0.549"></stop>
      <stop offset="1" stop-color="#59CAF5" stop-opacity="0.235"></stop>
    </linearGradient>
    <linearGradient id="paint7_linear_8697_6740" x1="1.96696" y1="2254.43" x2="3305.62" y2="2254.43" gradientUnits="userSpaceOnUse">
      <stop stop-color="#05A1E6" stop-opacity="0.247"></stop>
      <stop offset="1" stop-color="#05A1E6"></stop>
    </linearGradient>
    <linearGradient id="paint8_linear_8697_6740" x1="1129.6" y1="4163.09" x2="1129.6" y2="-302.338" gradientUnits="userSpaceOnUse">
      <stop stop-color="#318ED5"></stop>
      <stop offset="1" stop-color="#38A7E4"></stop>
    </linearGradient>
    <linearGradient id="paint9_linear_8697_6740" x1="1051.94" y1="2375.33" x2="1051.94" y2="-1965.23" gradientUnits="userSpaceOnUse">
      <stop stop-color="#05A1E6"></stop>
      <stop offset="1" stop-color="#05A1E6" stop-opacity="0.549"></stop>
    </linearGradient>
    <linearGradient id="paint10_linear_8697_6740" x1="1210.87" y1="3683.09" x2="1210.87" y2="15.2145" gradientUnits="userSpaceOnUse">
      <stop stop-color="#1959A6"></stop>
      <stop offset="0.5" stop-color="#05A1E6"></stop>
      <stop offset="0.918" stop-color="#7EC5EA"></stop>
      <stop offset="1" stop-color="#7EC5EA"></stop>
    </linearGradient>
    <linearGradient id="paint11_linear_8697_6740" x1="1997.57" y1="4246.69" x2="844.142" y2="402.333" gradientUnits="userSpaceOnUse">
      <stop stop-color="#165096"></stop>
      <stop offset="1" stop-color="#0D82CA"></stop>
    </linearGradient>
    <linearGradient id="paint12_linear_8697_6740" x1="784.899" y1="2004.87" x2="784.899" y2="-73.4808" gradientUnits="userSpaceOnUse">
      <stop stop-color="#05A1E6"></stop>
      <stop offset="0.874" stop-color="#0495D6"></stop>
      <stop offset="1" stop-color="#0495D6"></stop>
    </linearGradient>
    <linearGradient id="paint13_linear_8697_6740" x1="1837.48" y1="-169.723" x2="21.8154" y2="4226.97" gradientUnits="userSpaceOnUse">
      <stop stop-color="#38A7E4" stop-opacity="0.329"></stop>
      <stop offset="0.962" stop-color="#0E88D3"></stop>
      <stop offset="1" stop-color="#0E88D3"></stop>
    </linearGradient>
    <linearGradient id="paint14_linear_8697_6740" x1="1643.5" y1="-1.57658" x2="1643.5" y2="4532.63" gradientUnits="userSpaceOnUse">
      <stop stop-color="#168CD4"></stop>
      <stop offset="0.5" stop-color="#1C87CC"></stop>
      <stop offset="1" stop-color="#154B8D"></stop>
    </linearGradient>
    <linearGradient id="paint15_linear_8697_6740" x1="262.346" y1="-382.543" x2="280.258" y2="90.1946" gradientUnits="userSpaceOnUse">
      <stop stop-color="#97D6EE"></stop>
      <stop offset="0.703" stop-color="#55C1EA"></stop>
      <stop offset="1" stop-color="#55C1EA"></stop>
    </linearGradient>
    <linearGradient id="paint16_linear_8697_6740" x1="100.675" y1="-8.18495" x2="180.893" y2="-504.399" gradientUnits="userSpaceOnUse">
      <stop stop-color="#7ACCEC"></stop>
      <stop offset="1" stop-color="#3FB7ED"></stop>
    </linearGradient>
    <linearGradient id="paint17_linear_8697_6740" x1="1223.87" y1="243.644" x2="1223.87" y2="4678.47" gradientUnits="userSpaceOnUse">
      <stop stop-color="#1DA7E7"></stop>
      <stop offset="1" stop-color="#37ABE7" stop-opacity="0"></stop>
    </linearGradient>
  </defs>
</svg>
