<?xml version="1.0" encoding="UTF-8"?>
<svg xmlns="http://www.w3.org/2000/svg" width="56" height="56" viewBox="0 0 56 56" fill="none">
  <path d="M50.229 40.8338C50.5869 40.2138 50.8094 39.5152 50.8094 38.8879V17.1128C50.8094 16.4855 50.5873 15.7871 50.2292 15.1671L35.4489 16.4988L25.2812 28.0004L33.3614 39.524L50.229 40.8338Z" fill="#00599C"></path>
  <path d="M29.9766 53.1966L48.8344 42.3092C49.3776 41.9955 49.8714 41.4539 50.2293 40.8337L28.0014 28.0005L13.3728 28.5175L5.77344 40.8339C6.13131 41.4539 6.62526 41.9957 7.16834 42.3092L26.0261 53.1966C27.1125 53.8239 28.8903 53.8239 29.9766 53.1966Z" fill="#004482"></path>
  <path d="M50.2277 15.1671C49.8696 14.5469 49.3758 14.0053 48.8327 13.6917L29.9748 2.8043C28.8886 2.17699 27.1107 2.17699 26.0244 2.8043L7.16659 13.6918C6.08013 14.3189 5.19141 15.8586 5.19141 17.113V38.888C5.19141 39.5153 5.41371 40.2139 5.77179 40.8339L27.9997 28.0005L50.2277 15.1671Z" fill="#659AD2"></path>
  <path d="M28.0024 43.2061C19.6181 43.2061 12.7969 36.3849 12.7969 28.0006C12.7969 19.6163 19.6181 12.7951 28.0024 12.7951C33.4125 12.7951 38.4583 15.7065 41.1703 20.3931L34.5897 24.201C33.2324 21.8553 30.7082 20.3979 28.0025 20.3979C23.8103 20.3979 20.3997 23.8084 20.3997 28.0006C20.3997 32.1927 23.8102 35.6033 28.0025 35.6033C30.7085 35.6033 33.2327 34.1459 34.5902 31.7997L41.1708 35.6075C38.4587 40.2946 33.4128 43.2061 28.0024 43.2061Z" fill="white"></path>
  <path d="M43.2052 27.156H41.5156V25.4666H39.8263V27.156H38.1367V28.8455H39.8263V30.5351H41.5156V28.8455H43.2052V27.156Z" fill="white"></path>
  <path d="M49.5412 27.156H47.8516V25.4666H46.1623V27.156H44.4727V28.8455H46.1623V30.5351H47.8516V28.8455H49.5412V27.156Z" fill="white"></path>
</svg>
