<?xml version="1.0" encoding="UTF-8"?>
<svg xmlns="http://www.w3.org/2000/svg" width="464" height="278" viewBox="0 0 464 278" fill="none">
  <g clip-path="url(#clip0_7_1777)">
    <rect width="464" height="278" fill="#F7F9FD"></rect>
    <g filter="url(#filter0_f_7_1777)">
      <ellipse cx="232" cy="-15.5" rx="85.5" ry="406" transform="rotate(90 232 -15.5)" fill="url(#paint0_linear_7_1777)"></ellipse>
    </g>
    <path d="M257.201 128.744L240.895 145.161C240.28 145.78 239.223 145.344 239.223 144.472V136.385C239.223 135.845 238.786 135.407 238.246 135.407H212.614C212.074 135.407 211.637 134.969 211.637 134.429V122.498C211.637 121.958 212.074 121.52 212.614 121.52H238.246C238.786 121.52 239.223 121.082 239.223 120.542V111.638C239.223 110.766 240.28 110.33 240.895 110.949L257.201 127.366C257.579 127.747 257.579 128.363 257.201 128.744Z" fill="#0063C1"></path>
    <path d="M185.342 150.902L201.648 167.318C202.263 167.938 203.32 167.502 203.32 166.629V158.543C203.32 158.003 203.757 157.565 204.297 157.565H229.929C230.469 157.565 230.906 157.127 230.906 156.587V144.656C230.906 144.116 230.469 143.678 229.929 143.678H204.297C203.757 143.678 203.32 143.24 203.32 142.7V133.796C203.32 132.924 202.263 132.488 201.648 133.107L185.342 149.524C184.964 149.905 184.964 150.521 185.342 150.902Z" fill="#709ADB"></path>
    <path fill-rule="evenodd" clip-rule="evenodd" d="M35.623 21.2891C40.7304 21.2875 45.3359 24.3831 47.2915 29.1323C49.2472 33.8815 48.1678 39.3489 44.5568 42.9847C40.9459 46.6205 35.5145 47.7086 30.7957 45.7416C26.0769 43.7746 23 39.1399 23 33.9989C23 26.981 28.6509 21.2912 35.623 21.2891ZM35.2726 39.8676V42.3845H39.5179C39.7955 42.3789 40.0715 42.3394 40.3397 42.2669C40.6232 42.191 40.8882 42.0576 41.1186 41.8748C41.305 41.7095 41.4526 41.5047 41.551 41.2751C41.6874 40.941 41.7511 40.5814 41.7379 40.2205V34.5516H44.881V31.7525H35.4401V34.5516H38.5987V38.7347C38.596 38.8791 38.583 39.0233 38.5597 39.1659C38.535 39.3311 38.4553 39.4832 38.3339 39.5971C38.2313 39.7126 38.0949 39.7923 37.9444 39.8245C37.8028 39.8481 37.6595 39.8599 37.516 39.8598L35.2726 39.8676ZM33.7145 42.3847V39.8678H33.4653C32.8372 39.8756 32.2137 39.7584 31.6308 39.5228C31.023 39.2385 30.5405 38.7389 30.2754 38.1193C30.07 37.6952 29.9257 37.2437 29.847 36.7785C29.7847 36.4414 29.7263 36.0454 29.6795 35.6024C29.6294 35.0734 29.606 34.5421 29.6094 34.0107C29.6063 33.4872 29.6297 32.9637 29.6795 32.4426C29.7263 31.9957 29.7847 31.6115 29.847 31.2939C29.8969 31.0271 29.9685 30.7649 30.0612 30.5099C30.1229 30.331 30.2024 30.1589 30.2988 29.9963C30.6141 29.4065 31.106 28.9318 31.7048 28.6398C32.4196 28.3089 33.2008 28.1492 33.9872 28.1733H41.3873V25.6016H33.0992C31.6869 25.5435 30.2885 25.9018 29.0758 26.6326C28.4876 27.0017 27.9875 27.497 27.6114 28.0832C27.2538 28.6558 26.9809 29.2779 26.8013 29.9297C26.619 30.6029 26.5003 31.2921 26.4469 31.9878C26.3884 32.7013 26.3612 33.3991 26.3612 34.0852C26.3612 34.6772 26.3612 35.2927 26.4235 35.9317C26.461 36.5656 26.5523 37.1951 26.6961 37.8135C26.8395 38.4257 27.0594 39.0172 27.3504 39.5737C27.6507 40.1438 28.0596 40.6487 28.5539 41.0596C29.017 41.4294 29.5298 41.7317 30.0768 41.9573C30.819 42.2567 31.6144 42.3994 32.4137 42.3768L33.7145 42.3847Z" fill="white"></path>
    <path fill-rule="evenodd" clip-rule="evenodd" d="M103.272 29.7456C103.239 29.7996 103.213 29.8574 103.194 29.9178L101.112 35.4811C101.05 35.6373 100.992 35.7815 100.934 35.9017C100.881 36.0188 100.809 36.1258 100.721 36.2181C100.634 36.308 100.528 36.3753 100.412 36.4144C100.267 36.4614 100.115 36.4831 99.9627 36.4784C99.8004 36.4834 99.6382 36.4548 99.4868 36.3943C99.3678 36.3457 99.2606 36.2705 99.1731 36.174C99.087 36.0827 99.0165 35.9771 98.9644 35.8616C98.9078 35.7312 98.8583 35.5975 98.8171 35.4611L96.7583 29.9098C96.7377 29.8493 96.7104 29.7915 96.6775 29.7375L96.6728 29.7286C96.6409 29.6663 96.6244 29.6334 96.5652 29.6334C96.5028 29.6334 96.4565 29.6775 96.4565 29.7496V29.8857L96.4915 36.3623H94.9746V29.0406C94.9612 28.8178 95.023 28.5971 95.1487 28.4158C95.2512 28.2766 95.3836 28.1641 95.5355 28.0874C95.6705 28.0203 95.8162 27.9783 95.9651 27.9632H96.2711C96.4673 27.9585 96.6636 27.9868 96.8516 28.0473C96.9948 28.0938 97.1266 28.1716 97.2384 28.2756C97.3424 28.3763 97.43 28.494 97.4975 28.6241C97.5686 28.753 97.6304 28.8868 97.6834 29.0246L99.7613 34.5759C99.7937 34.6514 99.8298 34.7249 99.87 34.7962C99.9045 34.8563 99.9395 34.8843 99.9781 34.8843C100.017 34.8843 100.055 34.8563 100.09 34.7962C100.131 34.7249 100.167 34.6514 100.199 34.5759L102.277 29.0246C102.344 28.823 102.439 28.6328 102.559 28.4599C102.651 28.3326 102.766 28.2239 102.896 28.1395C103.015 28.066 103.146 28.0158 103.283 27.9913C103.42 27.9668 103.559 27.9547 103.697 27.9552C104.026 27.9426 104.351 28.0334 104.63 28.2155C104.883 28.4092 105.022 28.7239 104.997 29.0486V36.3703H103.48L103.527 29.8937C103.527 29.7816 103.508 29.7135 103.473 29.6855C103.449 29.6621 103.419 29.6467 103.388 29.6414C103.349 29.6414 103.31 29.6775 103.272 29.7456ZM70.0179 27.9549H70.7919C71.0775 27.9642 71.362 27.995 71.6433 28.047C71.9315 28.1039 72.213 28.1925 72.483 28.3113C72.7581 28.4313 73.0089 28.6039 73.2221 28.82C73.4297 29.0289 73.5977 29.2762 73.7175 29.549C73.8397 29.8264 73.9331 30.1164 73.9961 30.4141C74.0625 30.7156 74.104 31.0225 74.1199 31.3313V32.1965C74.1199 32.4648 74.1199 32.7652 74.0929 33.0736C74.0741 33.3793 74.034 33.6831 73.9729 33.9828C73.9112 34.2805 73.8191 34.5705 73.6981 34.848C73.5784 35.1208 73.4104 35.368 73.2028 35.5769C72.9885 35.7918 72.738 35.9642 72.4637 36.0856C72.1942 36.205 71.9125 36.2924 71.6239 36.346C71.3417 36.4014 71.0558 36.4336 70.7687 36.4421H69.2208C68.9362 36.4334 68.6528 36.4013 68.3732 36.346C68.0846 36.2929 67.8028 36.2055 67.5335 36.0856C67.2591 35.9642 67.0087 35.7918 66.7944 35.5769C66.5665 35.3495 66.3849 35.0771 66.2603 34.7759C66.1345 34.4875 66.041 34.1851 65.9817 33.8747C65.9257 33.5788 65.8921 33.2788 65.8811 32.9775V32.1764C65.8811 31.9321 65.8811 31.5997 65.9043 31.2913C65.9196 30.9882 65.9585 30.6868 66.0204 30.3901C66.0805 30.0946 66.1727 29.8071 66.2952 29.533C66.4207 29.2563 66.5969 29.0074 66.8137 28.8C67.0258 28.5951 67.2724 28.4322 67.5413 28.3194C67.8086 28.2006 68.0876 28.1119 68.3732 28.055C68.6519 28.003 68.9339 27.9723 69.2169 27.9629H69.9909L70.0179 27.9549ZM58.5516 32.2889H58.5632L58.5516 32.2408V32.2889ZM58.5516 35.2488V32.2889H54.852V33.7549H57.0462V34.5559C57.0514 34.6279 57.0514 34.7002 57.0462 34.7722C57.0319 34.8528 56.9941 34.9269 56.9379 34.9845C56.8854 35.0428 56.8162 35.0821 56.7405 35.0966C56.6723 35.1027 56.6036 35.1027 56.5354 35.0966H54.5695C54.2674 35.0992 53.9677 35.0407 53.6872 34.9244C53.3934 34.7838 53.1604 34.5356 53.0332 34.2275C52.994 34.144 52.9591 34.0585 52.9287 33.9711C52.8834 33.8408 52.8485 33.7068 52.8243 33.5706C52.7933 33.4024 52.7662 33.2061 52.743 32.9818C52.7178 32.7156 52.7062 32.4482 52.7082 32.1808C52.7056 31.9133 52.7172 31.6459 52.743 31.3798C52.7662 31.1554 52.7933 30.9792 52.8243 30.807C52.8482 30.6707 52.8832 30.5367 52.9287 30.4064C52.9596 30.3181 52.9971 30.2324 53.041 30.1501C53.195 29.8581 53.433 29.6229 53.7221 29.4772C54.0676 29.3132 54.4449 29.2337 54.8249 29.2449H58.3968V27.9992H54.3838C53.7048 27.9709 53.0325 28.1477 52.4489 28.508C52.1659 28.692 51.9255 28.9381 51.7446 29.2289C51.5706 29.5107 51.44 29.8188 51.3576 30.1421C51.2677 30.4772 51.2094 30.8206 51.1834 31.1675C51.1563 31.5199 51.1447 31.8644 51.1447 32.2048C51.1447 32.5453 51.1447 32.8056 51.1718 33.122C51.1901 33.4364 51.2341 33.7486 51.3034 34.0553C51.3722 34.3593 51.4788 34.6528 51.6207 34.9284C51.7658 35.211 51.963 35.4614 52.2012 35.6654C52.424 35.8499 52.6717 35.9997 52.9364 36.11C53.2977 36.2601 53.6851 36.331 54.0742 36.3182H57.4796C57.6102 36.3141 57.74 36.2953 57.8666 36.2622C58.0071 36.2266 58.1389 36.1611 58.2536 36.0699C58.3445 35.9892 58.416 35.8877 58.4626 35.7735C58.527 35.6069 58.5573 35.4282 58.5516 35.2488ZM66.1251 35.1288V36.3664L60.7344 36.3744C60.6044 36.372 60.4748 36.3573 60.3474 36.3304C60.2213 36.3033 60.1033 36.2457 60.003 36.1621C59.9301 36.0879 59.8664 36.0045 59.8134 35.9138C59.7448 35.7781 59.7115 35.6263 59.7167 35.4733V28.0555H61.2336V34.8484C61.2409 34.9217 61.2774 34.9884 61.3342 35.0327C61.3698 35.0561 61.4074 35.0763 61.4464 35.0928C61.5326 35.1217 61.6231 35.1339 61.7134 35.1288H66.1251ZM67.4831 33.098C67.4546 32.8026 67.4417 32.5058 67.4444 32.2089H67.456C67.4419 31.7085 67.486 31.2083 67.5876 30.7189C67.653 30.4173 67.7768 30.1326 67.9514 29.8818C68.1725 29.5867 68.4906 29.3857 68.8453 29.317C69.2276 29.2384 69.6165 29.1995 70.0062 29.2009C70.396 29.2003 70.7848 29.2392 71.1672 29.317C71.5258 29.3837 71.8482 29.5847 72.0728 29.8818C72.1443 29.9738 72.2065 30.0731 72.2585 30.1782C72.3264 30.323 72.3796 30.4746 72.4171 30.6308C72.4688 30.8467 72.505 31.0662 72.5255 31.2876C72.5555 31.5937 72.5697 31.9012 72.5681 32.2089C72.5695 32.5031 72.5553 32.7973 72.5255 33.09C72.5047 33.3101 72.4685 33.5283 72.4171 33.7429C72.3799 33.9025 72.328 34.058 72.2624 34.2075C72.2132 34.3226 72.1495 34.4303 72.0728 34.5279C71.959 34.6794 71.8185 34.8072 71.6587 34.9044C71.5027 34.998 71.3346 35.0681 71.1595 35.1127C70.9756 35.1608 70.7877 35.1903 70.5983 35.2008H69.3832C69.1938 35.1906 69.0059 35.1611 68.8221 35.1127C68.6489 35.066 68.4823 34.996 68.3267 34.9044C68.1743 34.8075 68.0426 34.6794 67.9397 34.5279C67.8634 34.433 67.7996 34.3279 67.7501 34.2155C67.683 34.0662 67.6299 33.9106 67.5915 33.7509C67.543 33.5357 67.5068 33.3176 67.4831 33.098ZM75.2889 36.3703H76.8059V29.8937C76.7997 29.8124 76.7997 29.7307 76.8059 29.6494C76.8254 29.5601 76.8764 29.4816 76.9491 29.4291C76.997 29.3733 77.0603 29.3341 77.1309 29.317C77.204 29.31 77.2782 29.31 77.3513 29.317H79.8088C79.951 29.3192 80.0932 29.3299 80.2343 29.349C80.3955 29.369 80.5449 29.447 80.6561 29.5693C80.7571 29.6827 80.8287 29.8204 80.8653 29.9698C80.9281 30.2167 80.9554 30.4717 80.9467 30.7268V30.9912C80.9467 31.0953 80.9467 31.1995 80.9235 31.3036C80.9116 31.4105 80.8926 31.5162 80.8653 31.62C80.8457 31.7075 80.8132 31.7913 80.7684 31.8683C80.6819 32.0191 80.5439 32.1307 80.3816 32.1807C80.24 32.2174 80.0942 32.2363 79.9479 32.2368H78.4351C78.2522 32.2238 78.0709 32.2825 77.9282 32.4011C77.8165 32.5015 77.7536 32.6484 77.7577 32.8016V32.9898C77.7613 33.1253 77.8046 33.2566 77.8814 33.3663C77.956 33.4832 78.04 33.593 78.1332 33.6947L80.7762 36.3903H82.684L79.627 33.4544V33.3944H80.6639C80.8653 33.3985 81.0656 33.3729 81.2598 33.3182C81.4118 33.2733 81.5565 33.2058 81.6894 33.118C81.8007 33.0418 81.8996 32.9486 81.9835 32.8416C82.0582 32.7489 82.1231 32.6482 82.1772 32.5412C82.3333 32.2488 82.4332 31.9277 82.4713 31.596C82.5048 31.2861 82.5218 30.9745 82.5213 30.6627C82.5203 30.3522 82.5022 30.0419 82.4672 29.7335C82.4244 29.4081 82.3049 29.0986 82.119 28.8323C82.0201 28.6632 81.8882 28.5172 81.7322 28.4038C81.5977 28.3041 81.4489 28.2271 81.2907 28.1754C81.1408 28.1287 80.9863 28.0992 80.8302 28.0873H76.5813C76.4175 28.0871 76.2537 28.1059 76.0935 28.1434C75.9122 28.1881 75.7463 28.2837 75.6139 28.4198C75.4641 28.5581 75.3636 28.7442 75.3275 28.9485C75.2972 29.1311 75.2817 29.3159 75.2812 29.5012V36.4063L75.2889 36.3703ZM85.2379 28.0513V36.3703H83.7209V28.0513H85.2379ZM90.1101 35.2166H89.7232C89.58 35.204 89.4374 35.1798 89.2978 35.1445C89.1541 35.1076 89.015 35.0538 88.8837 34.9843C88.7492 34.9111 88.6271 34.815 88.5236 34.6999C88.3408 34.5052 88.2212 34.2557 88.1831 33.9869C88.1502 33.7427 88.1332 33.4965 88.1327 33.25V28.0671H86.6157V33.4622C86.6183 33.8288 86.6585 34.194 86.7357 34.5517C86.8326 34.9475 87.0335 35.308 87.3162 35.593C87.5089 35.8004 87.7376 35.9688 87.9895 36.0897C88.23 36.2063 88.4819 36.2963 88.7405 36.3581C88.982 36.4162 89.2277 36.4524 89.4755 36.4662H90.7411C90.9888 36.4524 91.2345 36.4162 91.4761 36.3581C91.7352 36.2963 91.9865 36.2063 92.2271 36.0897C92.48 35.9698 92.7082 35.8013 92.9003 35.593C93.1831 35.308 93.384 34.9475 93.4808 34.5517C93.5601 34.1944 93.6003 33.8289 93.6008 33.4622V28.0671H92.0839V33.5944C92.0813 33.7292 92.0654 33.8633 92.0375 33.995C92.0102 34.1318 91.9716 34.2658 91.9211 34.3955C91.8706 34.5223 91.7985 34.6389 91.7084 34.7399C91.5982 34.859 91.4668 34.9555 91.3216 35.0243C91.1866 35.0954 91.0434 35.1492 90.8961 35.1845C90.755 35.2202 90.6113 35.2443 90.4665 35.2566H90.0792L90.1101 35.2166Z" fill="white"></path>
    <path d="M52.8554 42.3691V39.0761H51.449V38.4941H54.948V39.0761H53.534V42.3691H52.8554Z" fill="white"></path>
    <path d="M57.0463 42.3634C56.8912 42.3857 56.734 42.3417 56.6121 42.2417C56.5061 42.1162 56.4556 41.9519 56.4726 41.7873V39.0533C56.4672 38.9064 56.5139 38.7625 56.6041 38.6477C56.7274 38.5338 56.8927 38.4791 57.0582 38.4976H59.4881V39.0777H57.4406C57.3714 39.0709 57.3022 39.0897 57.2454 39.1304C57.1991 39.182 57.1773 39.2517 57.1856 39.3211V40.0958H59.4364V40.6759H57.1856V41.5805C57.1841 41.636 57.2042 41.69 57.2414 41.7305C57.2853 41.7752 57.3729 41.7792 57.4844 41.7792H59.5121V42.3593L57.0463 42.3634Z" fill="white"></path>
    <path d="M62.2576 42.3648C61.8342 42.3984 61.4184 42.2322 61.1191 41.9098C60.8352 41.4995 60.7003 40.9927 60.7396 40.4839C60.6907 39.956 60.8141 39.4264 61.0888 38.9849C61.398 38.6452 61.8305 38.4671 62.2728 38.4974H63.7225V39.0783H62.584C62.1817 39.0783 61.825 39.1067 61.6353 39.4358C61.4727 39.7532 61.4026 40.1154 61.4341 40.4758C61.4052 40.7997 61.4646 41.1256 61.6048 41.4142C61.7908 41.7189 62.121 41.7839 62.5498 41.7839H63.7718V42.3648H62.2576Z" fill="white"></path>
    <path d="M68.6401 42.3691H67.9704V40.6636H66.1186V42.3691H65.4453V38.4941H66.1186V40.0815H67.9704V38.4941H68.6401V42.3691Z" fill="white"></path>
    <path d="M73.9632 41.8286C73.9747 41.9785 73.9204 42.1259 73.8154 42.2299C73.7103 42.334 73.5657 42.3837 73.4213 42.3653C73.1807 42.384 72.9508 42.2589 72.8294 42.0432L71.292 39.5266C71.2421 39.4431 71.219 39.4352 71.2075 39.4352C71.1605 39.4469 71.1292 39.4928 71.1344 39.5425V42.3256H70.4657V39.0098C70.4657 38.6877 70.6809 38.4969 71.0268 38.4969C71.2593 38.4742 71.4841 38.5897 71.6072 38.7951L73.1446 41.3316C73.1715 41.3674 73.183 41.423 73.2291 41.423C73.2752 41.423 73.2868 41.3555 73.2868 41.3316V38.5486H73.9556L73.9632 41.8286Z" fill="white"></path>
    <path fill-rule="evenodd" clip-rule="evenodd" d="M79.4416 40.4316C79.4416 39.9332 79.4069 39.2914 79.0176 38.8927C78.6133 38.494 78.0066 38.494 77.5567 38.4941C77.5526 38.4941 77.5479 38.4941 77.5438 38.4941C77.0924 38.4941 76.4665 38.502 76.0658 38.8927C75.6651 39.2834 75.6382 39.9173 75.6382 40.4316C75.6382 40.8581 75.6574 41.5718 76.0658 41.9704C76.4743 42.3691 77.1162 42.3691 77.5438 42.3691C77.9714 42.3691 78.6366 42.3492 79.0176 41.9704C79.3991 41.5917 79.4416 40.9299 79.4416 40.4316ZM77.536 41.8029C77.1886 41.86 76.8361 41.7429 76.5871 41.488H76.599C76.4033 41.1743 76.3184 40.8016 76.3578 40.4315C76.3164 40.0604 76.3971 39.6857 76.5871 39.3671C76.8397 39.1195 77.1907 39.0061 77.536 39.0601C77.8839 39.0096 78.2354 39.1224 78.4927 39.3671C78.6889 39.6832 78.7701 40.0601 78.7225 40.4315C78.7644 40.8001 78.6837 41.1725 78.4927 41.488C78.24 41.7414 77.8854 41.8581 77.536 41.8029Z" fill="white"></path>
    <path d="M81.4543 42.3685C81.3284 42.3741 81.2042 42.3384 81.1003 42.2667C81.0087 42.1859 80.9589 42.0677 80.9631 41.9452V38.4941H81.6836V41.5748C81.6745 41.6357 81.6937 41.6972 81.7361 41.7417C81.788 41.7773 81.8507 41.7932 81.9128 41.7865H84.0056V42.3685H81.4543Z" fill="white"></path>
    <path fill-rule="evenodd" clip-rule="evenodd" d="M88.7217 40.4316C88.7217 39.9332 88.6865 39.2914 88.2978 38.8927C87.8935 38.494 87.2869 38.494 86.8371 38.4941C86.8325 38.4941 86.8283 38.4941 86.8242 38.4941C86.3728 38.4941 85.747 38.502 85.3464 38.8927C84.9458 39.2834 84.9184 39.9173 84.9184 40.4316C84.9184 40.8581 84.938 41.5718 85.3464 41.9704C85.7548 42.3691 86.3961 42.3691 86.8242 42.3691C87.2517 42.3691 87.9168 42.3492 88.2978 41.9704C88.6787 41.5917 88.7217 40.9299 88.7217 40.4316ZM86.8164 41.8031C86.4681 41.8595 86.114 41.7426 85.8635 41.4882C85.6761 41.1714 85.5969 40.7997 85.6378 40.4317C85.598 40.0612 85.6772 39.6873 85.8635 39.3673C86.1182 39.1201 86.4696 39.0069 86.8164 39.0603C87.1642 39.0098 87.5152 39.1226 87.7729 39.3673C87.9691 39.6834 88.0504 40.0603 88.0022 40.4317C88.0447 40.8003 87.9634 41.1727 87.7729 41.4882C87.5203 41.7416 87.1658 41.8583 86.8164 41.8031Z" fill="white"></path>
    <path d="M93.5889 41.87C93.5979 42.0114 93.5476 42.1501 93.4496 42.2509C93.3416 42.3295 93.2118 42.3707 93.0794 42.3684H91.4676C91.1482 42.3788 90.8356 42.2708 90.5883 42.0645C90.1269 41.6594 90.0909 41.0031 90.0909 40.444C90.0909 39.8119 90.1465 39.1029 90.7037 38.7342C90.9797 38.5661 91.2975 38.4831 91.619 38.4952H93.501V39.0745H91.8219C91.4893 39.0367 91.164 39.1936 90.9824 39.4797C90.8552 39.7724 90.8007 40.0924 90.8229 40.4115C90.8039 40.7351 90.8552 41.0589 90.9744 41.3596C91.1105 41.636 91.4008 41.7975 91.7027 41.7647H92.626C92.6954 41.7739 92.7648 41.7517 92.8167 41.7039C92.8633 41.6494 92.885 41.5772 92.8765 41.5054V40.452H93.5889V41.87Z" fill="white"></path>
    <path d="M95.1113 42.3691V38.4941H95.872V42.3691H95.1113Z" fill="white"></path>
    <path d="M98.2746 42.3634C98.1192 42.3857 97.9622 42.3417 97.8403 42.2417C97.7342 42.1162 97.6838 41.9519 97.7008 41.7873V39.0533C97.6955 38.9064 97.7422 38.7625 97.8323 38.6477C97.9553 38.5338 98.1208 38.4791 98.2862 38.4976H100.716V39.0777H98.6691C98.5996 39.0709 98.5307 39.0897 98.4739 39.1304C98.4273 39.182 98.4055 39.2517 98.414 39.3211V40.0958H100.665V40.6759H98.414V41.5805C98.4124 41.636 98.4326 41.69 98.4697 41.7305C98.5137 41.7752 98.6012 41.7792 98.7125 41.7792H100.74V42.3593L98.2746 42.3634Z" fill="white"></path>
    <path d="M101.86 41.7701H103.922C104.258 41.7701 104.274 41.4817 104.274 41.3638C104.274 41.246 104.235 41.0307 103.91 40.9251L102.443 40.4457C102.272 40.3939 102.119 40.294 102.001 40.1572C101.859 39.9443 101.792 39.688 101.809 39.43C101.785 39.1651 101.874 38.9028 102.052 38.7109C102.22 38.5593 102.439 38.4821 102.662 38.4956H104.806V39.0765H102.9C102.795 39.0638 102.689 39.096 102.607 39.1659C102.539 39.2478 102.505 39.3546 102.513 39.4625C102.513 39.6331 102.56 39.7997 102.857 39.8972L104.219 40.3441C104.413 40.3953 104.595 40.4895 104.751 40.6203C104.925 40.8262 105.013 41.0948 104.997 41.3679C105.014 41.6227 104.948 41.8758 104.809 42.087C104.648 42.2913 104.397 42.3955 104.144 42.3633H101.86V41.7701Z" fill="white"></path>
    <path d="M52.8547 42.3689V39.0759H51.4482V38.4939H54.9473V39.0759H53.5333V42.3689H52.8547Z" fill="white"></path>
    <path d="M57.0455 42.3632C56.8905 42.3856 56.7333 42.3415 56.6113 42.2415C56.5053 42.1161 56.4549 41.9517 56.4719 41.7872V39.0532C56.4665 38.9062 56.5131 38.7623 56.6034 38.6475C56.7266 38.5336 56.892 38.479 57.0575 38.4974H59.4874V39.0775H57.4399C57.3707 39.0708 57.3015 39.0895 57.2447 39.1303C57.1984 39.1819 57.1765 39.2515 57.1849 39.3209V40.0956H59.4357V40.6757H57.1849V41.5803C57.1834 41.6359 57.2034 41.6898 57.2407 41.7304C57.2845 41.775 57.3722 41.7791 57.4837 41.7791H59.5113V42.3592L57.0455 42.3632Z" fill="white"></path>
    <path d="M62.2569 42.3646C61.8335 42.3982 61.4176 42.232 61.1184 41.9096C60.8344 41.4994 60.6996 40.9926 60.7389 40.4837C60.6899 39.9559 60.8133 39.4262 61.088 38.9847C61.3973 38.645 61.8298 38.4669 62.272 38.4972H63.7218V39.0781H62.5833C62.181 39.0781 61.8242 39.1066 61.6345 39.4356C61.4719 39.753 61.4019 40.1152 61.4334 40.4756C61.4045 40.7995 61.4638 41.1254 61.6041 41.414C61.7901 41.7187 62.1202 41.7837 62.5491 41.7837H63.7711V42.3646H62.2569Z" fill="white"></path>
    <path d="M68.6393 42.3689H67.9697V40.6634H66.1179V42.3689H65.4445V38.4939H66.1179V40.0813H67.9697V38.4939H68.6393V42.3689Z" fill="white"></path>
    <path d="M73.9625 41.8284C73.974 41.9784 73.9197 42.1257 73.8146 42.2298C73.7096 42.3338 73.5649 42.3835 73.4206 42.3651C73.18 42.3838 72.9501 42.2588 72.8287 42.0431L71.2913 39.5265C71.2413 39.443 71.2182 39.435 71.2067 39.435C71.1598 39.4467 71.1285 39.4926 71.1337 39.5423V42.3254H70.4649V39.0096C70.4649 38.6875 70.6802 38.4967 71.0261 38.4967C71.2586 38.4741 71.4834 38.5896 71.6064 38.7949L73.1439 41.3314C73.1708 41.3672 73.1823 41.4229 73.2284 41.4229C73.2745 41.4229 73.2861 41.3553 73.2861 41.3314V38.5484H73.9548L73.9625 41.8284Z" fill="white"></path>
    <path fill-rule="evenodd" clip-rule="evenodd" d="M79.4408 40.4314C79.4408 39.933 79.4061 39.2912 79.0168 38.8926C78.6125 38.4938 78.0058 38.4938 77.556 38.4939C77.5518 38.4939 77.5472 38.4939 77.543 38.4939C77.0916 38.4939 76.4658 38.5019 76.0651 38.8926C75.6644 39.2832 75.6375 39.9171 75.6375 40.4314C75.6375 40.858 75.6566 41.5716 76.0651 41.9703C76.4735 42.3689 77.1154 42.3689 77.543 42.3689C77.9706 42.3689 78.6358 42.349 79.0168 41.9703C79.3984 41.5915 79.4408 40.9297 79.4408 40.4314ZM77.5353 41.8028C77.1879 41.8599 76.8354 41.7427 76.5864 41.4878H76.5983C76.4026 41.1741 76.3177 40.8014 76.357 40.4314C76.3156 40.0602 76.3964 39.6856 76.5864 39.3669C76.839 39.1194 77.19 39.006 77.5353 39.0599C77.8831 39.0095 78.2346 39.1222 78.4919 39.3669C78.6881 39.6831 78.7694 40.0599 78.7218 40.4314C78.7637 40.8 78.6829 41.1724 78.4919 41.4878C78.2393 41.7413 77.8847 41.8579 77.5353 41.8028Z" fill="white"></path>
    <path d="M81.4536 42.3683C81.3277 42.3739 81.2034 42.3383 81.0995 42.2665C81.0079 42.1857 80.9581 42.0676 80.9624 41.945V38.4939H81.6828V41.5747C81.6737 41.6355 81.693 41.697 81.7353 41.7416C81.7873 41.7772 81.85 41.793 81.9121 41.7863H84.0048V42.3683H81.4536Z" fill="white"></path>
    <path fill-rule="evenodd" clip-rule="evenodd" d="M88.721 40.4314C88.721 39.933 88.6858 39.2912 88.2971 38.8926C87.8928 38.4938 87.2862 38.4938 86.8364 38.4939C86.8317 38.4939 86.8276 38.4939 86.8234 38.4939C86.3721 38.4939 85.7463 38.5019 85.3457 38.8926C84.9451 39.2832 84.9176 39.9171 84.9176 40.4314C84.9176 40.858 84.9373 41.5716 85.3457 41.9703C85.7541 42.3689 86.3954 42.3689 86.8234 42.3689C87.251 42.3689 87.9161 42.349 88.2971 41.9703C88.678 41.5915 88.721 40.9297 88.721 40.4314ZM86.8157 41.803C86.4673 41.8594 86.1133 41.7424 85.8628 41.488C85.6754 41.1712 85.5962 40.7996 85.6371 40.4315C85.5972 40.061 85.6764 39.6871 85.8628 39.3671C86.1174 39.1199 86.4689 39.0067 86.8157 39.0601C87.1635 39.0096 87.5144 39.1224 87.7722 39.3671C87.9684 39.6833 88.0496 40.0601 88.0015 40.4315C88.0439 40.8002 87.9627 41.1726 87.7722 41.488C87.5196 41.7414 87.1651 41.8581 86.8157 41.803Z" fill="white"></path>
    <path d="M93.5882 41.8699C93.5972 42.0113 93.5469 42.15 93.4489 42.2507C93.3408 42.3294 93.2111 42.3706 93.0787 42.3682H91.4668C91.1474 42.3786 90.8349 42.2707 90.5875 42.0643C90.1262 41.6592 90.0902 41.0029 90.0902 40.4438C90.0902 39.8118 90.1458 39.1027 90.703 38.7341C90.979 38.566 91.2968 38.483 91.6183 38.4951H93.5003V39.0744H91.8212C91.4885 39.0366 91.1633 39.1935 90.9816 39.4795C90.8545 39.7722 90.7999 40.0922 90.8222 40.4114C90.8031 40.7349 90.8545 41.0587 90.9737 41.3594C91.1098 41.6358 91.4001 41.7973 91.702 41.7646H92.6252C92.6946 41.7737 92.764 41.7516 92.8159 41.7038C92.8625 41.6492 92.8843 41.5771 92.8758 41.5053V40.4519H93.5882V41.8699Z" fill="white"></path>
    <path d="M95.1106 42.3689V38.4939H95.8712V42.3689H95.1106Z" fill="white"></path>
    <path d="M98.2738 42.3632C98.1185 42.3856 97.9615 42.3415 97.8395 42.2415C97.7335 42.1161 97.6831 41.9517 97.7001 41.7872V39.0532C97.6948 38.9062 97.7414 38.7623 97.8316 38.6475C97.9546 38.5336 98.12 38.479 98.2855 38.4974H100.716V39.0775H98.6683C98.5989 39.0708 98.5299 39.0895 98.4732 39.1303C98.4265 39.1819 98.4048 39.2515 98.4133 39.3209V40.0956H100.664V40.6757H98.4133V41.5803C98.4117 41.6359 98.4318 41.6898 98.4689 41.7304C98.513 41.775 98.6005 41.7791 98.7118 41.7791H100.74V42.3592L98.2738 42.3632Z" fill="white"></path>
    <path d="M101.859 41.77H103.921C104.257 41.77 104.273 41.4815 104.273 41.3637C104.273 41.2458 104.234 41.0305 103.909 40.9249L102.442 40.4455C102.272 40.3937 102.119 40.2938 102 40.1571C101.859 39.9442 101.791 39.6878 101.808 39.4298C101.785 39.1649 101.873 38.9026 102.051 38.7107C102.22 38.5592 102.438 38.4819 102.661 38.4954H104.805V39.0763H102.9C102.794 39.0636 102.688 39.0959 102.606 39.1657C102.538 39.2477 102.504 39.3544 102.512 39.4623C102.512 39.633 102.559 39.7995 102.856 39.897L104.218 40.344C104.412 40.3952 104.594 40.4894 104.75 40.6202C104.924 40.826 105.012 41.0946 104.997 41.3677C105.013 41.6225 104.947 41.8757 104.809 42.0868C104.647 42.2911 104.396 42.3954 104.144 42.3631H101.859V41.77Z" fill="white"></path>
    <path d="M350.465 193.106C343.251 215.708 322.956 231.905 295.744 239.716C268.54 247.525 234.539 246.907 200.209 235.95C165.88 224.992 137.808 205.798 120.159 183.673C102.504 161.541 95.3453 136.581 102.559 113.979C109.774 91.3768 130.069 75.1798 157.281 67.3687C184.484 59.5598 218.486 60.1779 252.815 71.1353C287.145 82.0928 315.217 101.287 332.866 123.413C350.521 145.544 357.679 170.504 350.465 193.106Z" stroke="#709ADB" stroke-width="2"></path>
    <ellipse opacity="0.34" cx="252.616" cy="134.466" rx="131.114" ry="87.5032" transform="rotate(-5.87541 252.616 134.466)" stroke="#709ADB" stroke-width="2" stroke-linecap="round" stroke-dasharray="4 4"></ellipse>
    <ellipse opacity="0.1" cx="131.114" cy="87.5032" rx="131.114" ry="87.5032" transform="matrix(-0.994747 -0.102366 -0.102366 0.994747 334.765 99.8438)" stroke="#709ADB" stroke-width="2" stroke-linecap="round" stroke-dasharray="4 4"></ellipse>
    <path d="M210.425 254.36C197.152 254.36 183.879 254.36 170.605 254.36C167.845 254.36 165.795 252.13 166.015 249.36C166.015 249.35 166.015 249.34 166.015 249.33C167.469 230.884 168.919 212.437 170.365 193.99C170.575 191.22 172.885 189 175.535 189C183.457 189 191.376 189 199.291 189C199.58 189 199.854 189.125 200.044 189.342C205.833 195.962 211.666 202.588 217.545 209.22C216.912 222.587 216.275 235.957 215.635 249.33C215.525 252.09 213.205 254.35 210.445 254.36C210.435 254.36 210.425 254.36 210.425 254.36Z" fill="#093E8E"></path>
    <path d="M167.113 235.412C167.154 234.892 167.588 234.49 168.11 234.49C183.838 234.49 199.567 234.49 215.296 234.49C215.867 234.49 216.322 234.968 216.295 235.538C216.079 240.049 215.866 244.556 215.655 249.06C215.515 251.95 213.055 254.3 210.185 254.3C197.952 254.3 185.722 254.3 173.495 254.3C169.165 254.3 165.915 250.78 166.245 246.42C166.534 242.754 166.823 239.084 167.113 235.412Z" fill="#093E8E"></path>
    <path d="M201.373 190.838C200.783 190.165 199.674 190.544 199.621 191.437C199.361 195.8 199.099 200.168 198.835 204.54C198.685 207.11 200.575 209.19 203.055 209.19C207.147 209.19 211.238 209.19 215.33 209.19C216.192 209.19 216.65 208.171 216.078 207.526C211.142 201.961 206.24 196.398 201.373 190.838Z" fill="#093E8E"></path>
    <path d="M203.045 209.22C202.151 209.187 200.831 210.166 201.635 210.559C201.929 210.703 202.255 210.831 202.615 210.94C202.775 211 202.925 211.03 203.075 211.06C204.955 211.4 217.325 213.7 217.345 213.4C217.412 212.007 217.479 210.614 217.545 209.22C212.71 209.22 207.881 209.22 203.059 209.22C203.05 209.22 203.054 209.221 203.045 209.22Z" fill="#093E8E"></path>
    <path d="M209.424 254.36C196.151 254.36 182.878 254.36 169.604 254.36C166.844 254.36 164.794 252.13 165.014 249.36C165.014 249.35 165.014 249.34 165.014 249.33C166.468 230.884 167.918 212.437 169.364 193.99C169.574 191.22 171.884 189 174.534 189C182.608 189 190.678 189 198.744 189C204.631 195.734 210.564 202.474 216.544 209.22C215.911 222.587 215.274 235.957 214.634 249.33C214.524 252.09 212.204 254.35 209.444 254.36C209.434 254.36 209.424 254.36 209.424 254.36Z" fill="#0063C1"></path>
    <path d="M166.184 234.49C182.571 234.49 198.958 234.49 215.344 234.49C215.111 239.35 214.881 244.207 214.654 249.06C214.514 251.95 212.054 254.3 209.184 254.3C196.951 254.3 181.831 254.36 169.604 254.36C166.998 254.36 164.765 252.5 165.014 249.33C165.328 245.357 165.871 238.47 166.184 234.49Z" fill="#093E8E"></path>
    <path d="M198.764 189C198.458 194.174 198.148 199.354 197.834 204.54C197.684 207.11 199.574 209.19 202.054 209.19C206.888 209.19 211.721 209.19 216.554 209.19C210.574 202.457 204.644 195.727 198.764 189Z" fill="#709ADB"></path>
    <path d="M197.934 205.93C197.934 205.93 197.514 209.7 201.614 210.94C201.774 211 201.924 211.03 202.074 211.06C203.954 211.4 216.324 213.7 216.344 213.4C216.411 212.007 216.478 210.614 216.544 209.22C211.704 209.22 206.871 209.22 202.044 209.22C202.044 209.22 198.434 209.09 197.934 205.93Z" fill="#093E8E"></path>
    <path opacity="0.1" d="M275.426 133.205L277.629 133.205L284.033 124C286.256 124.501 288.439 125.183 290.54 126.066L290.213 137.196C291.478 137.958 292.661 138.84 293.803 139.783L304.49 136.053C305.979 137.737 307.325 139.542 308.508 141.447L301.594 150.291C302.145 151.655 302.614 153.038 302.961 154.462L313.832 157.591C314.056 159.837 314.056 162.083 313.832 164.329L302.961 167.477C302.614 168.881 302.165 170.285 301.594 171.629L308.508 180.473C307.325 182.378 305.979 184.203 304.49 185.907L293.803 182.157C292.681 183.1 291.478 183.962 290.213 184.744L290.539 195.874C288.439 196.757 286.256 197.459 284.033 197.94L277.629 188.735L273.203 188.735L266.799 198C264.575 197.499 262.393 196.817 260.292 195.934L260.619 184.804C259.354 184.042 258.171 183.16 257.029 182.217L246.341 185.967C244.852 184.263 243.506 182.458 242.323 180.533L249.258 171.689C248.667 170.345 248.218 168.941 247.871 167.518L237 164.389L237 157.651L247.871 154.522C248.218 153.099 248.667 151.695 249.258 150.351L242.323 141.507C243.506 139.602 244.852 137.797 246.341 136.113L257.029 139.843C258.151 138.9 259.354 138.038 260.619 137.256L260.292 126.126C262.393 125.243 264.575 124.541 266.799 124.06L273.203 133.265C273.917 133.245 274.671 133.205 275.426 133.205ZM262.393 161.08C262.393 168.159 268.226 173.895 275.426 173.895C282.626 173.895 288.459 168.159 288.459 161.08C288.459 154.001 282.626 148.266 275.426 148.266C268.247 148.266 262.413 153.961 262.393 161.02C262.393 161.02 262.393 161.06 262.393 161.08Z" fill="#0063C1"></path>
    <path d="M143.479 167C135.379 167 127.279 167 119.179 167C114.829 167 111.059 170.68 110.749 175.24C110.176 183.734 109.599 192.23 109.019 200.73C108.709 205.29 111.979 208.99 116.329 208.99C124.423 208.99 132.513 208.99 140.599 208.99C144.939 208.99 148.729 205.29 149.039 200.73C149.626 192.23 150.209 183.734 150.789 175.24C151.109 170.68 147.829 167 143.479 167Z" fill="#093E8E"></path>
    <path d="M138.469 167C130.376 167 122.276 167 114.169 167C109.819 167 106.049 170.68 105.739 175.24C105.166 183.734 104.593 192.23 104.019 200.73C103.709 205.29 106.979 208.99 111.319 208.99C119.419 208.99 127.513 208.99 135.599 208.99C139.939 208.99 143.719 205.29 144.039 200.73C144.619 192.23 145.203 183.734 145.789 175.24C146.099 170.68 142.819 167 138.469 167Z" fill="#0063C1"></path>
    <path d="M112.449 189.99C111.679 189.22 111.749 187.92 112.609 187.13C113.056 186.71 113.499 186.294 113.939 185.88C114.739 185.13 115.949 185.09 116.689 185.79C118.249 187.264 119.809 188.737 121.369 190.21C122.119 190.91 123.319 190.87 124.119 190.12C127.759 186.714 131.403 183.304 135.049 179.89C135.899 179.08 137.199 179.11 137.929 179.94C138.236 180.3 138.543 180.66 138.849 181.02C139.539 181.81 139.429 183.06 138.579 183.81C133.413 188.51 128.239 193.207 123.059 197.9C122.239 198.65 121.019 198.66 120.289 197.92C117.676 195.28 115.063 192.637 112.449 189.99Z" fill="white"></path>
    <path d="M127.499 55.1004C127.994 55.1004 128.472 55.1004 128.967 55.1613L133.199 49.0005C134.667 49.3312 136.109 49.7923 137.491 50.3841L137.282 57.9023C138.116 58.4157 138.907 58.9901 139.654 59.6253L146.709 57.1627C147.708 58.3113 148.594 59.547 149.367 60.8609L144.797 66.8129C145.171 67.7179 145.475 68.6576 145.71 69.6148L152.886 71.738C152.956 72.4951 152.999 73.2434 152.999 73.9918C152.999 74.7401 152.999 75.5059 152.886 76.2629L145.71 78.3861C145.475 79.3433 145.171 80.2744 144.797 81.1881L149.367 87.1401C148.594 88.454 147.708 89.6897 146.709 90.8383L139.654 88.3757C138.907 89.0109 138.107 89.5852 137.282 90.0986L137.491 97.6082C136.1 98.1999 134.667 98.6698 133.199 99.0005L128.967 92.8397C128.472 92.8397 127.994 92.9006 127.499 92.9006C127.004 92.9006 126.517 92.9006 126.022 92.8397L121.791 99.0005C120.323 98.6611 118.88 98.1999 117.499 97.6082L117.707 90.0986C116.873 89.5852 116.083 89.0022 115.335 88.3757L108.281 90.8383C107.29 89.6897 106.395 88.4453 105.622 87.1401L110.192 81.1881C109.818 80.2831 109.514 79.3433 109.297 78.3861L102.112 76.2629C102.112 75.5146 101.999 74.7575 101.999 73.9918C101.999 73.226 101.999 72.4864 102.112 71.738L109.297 69.6148C109.523 68.6576 109.818 67.7266 110.192 66.8129L105.622 60.8609C106.395 59.5557 107.29 58.3113 108.281 57.1627L115.335 59.6253C116.083 58.99 116.873 58.4157 117.707 57.9023L117.499 50.3841C118.889 49.801 120.323 49.3399 121.791 49.0005L126.022 55.1613C126.517 55.1265 126.995 55.1004 127.499 55.1004ZM118.88 73.8613C118.88 78.6298 122.738 82.4934 127.499 82.4934C132.26 82.4934 136.118 78.6298 136.118 73.8613C136.118 69.0927 132.26 65.2292 127.499 65.2292C122.738 65.2292 118.88 69.0927 118.88 73.8613Z" fill="#0063C1"></path>
    <path d="M118.88 73.8613C118.88 78.6298 122.738 82.4934 127.499 82.4934C132.26 82.4934 136.118 78.6298 136.118 73.8613C136.118 69.0927 132.26 65.2292 127.499 65.2292C122.738 65.2292 118.88 69.0927 118.88 73.8613Z" fill="#DCEDFE"></path>
    <path opacity="0.6" d="M87.976 84.9859L88.6626 84.9859L90.6587 82.0005C91.3516 82.1631 92.0319 82.3842 92.6867 82.6704L92.5849 86.2802C92.9791 86.5273 93.3478 86.8135 93.7038 87.1192L97.035 85.9094C97.4991 86.4558 97.9186 87.0411 98.2873 87.659L96.1323 90.5273C96.3039 90.9696 96.4501 91.4184 96.5582 91.8802L99.9466 92.8948C100.017 93.6233 100.017 94.3517 99.9466 95.0802L96.5582 96.1013C96.4501 96.5566 96.3103 97.0119 96.1323 97.4476L98.2873 100.316C97.9186 100.934 97.4991 101.526 97.035 102.079L93.7038 100.862C93.3542 101.168 92.9791 101.448 92.5849 101.701L92.6867 105.311C92.0319 105.597 91.3516 105.825 90.6587 105.981L88.6626 102.996L87.283 102.996L85.2869 106C84.594 105.838 83.9137 105.617 83.2589 105.331L83.3607 101.721C82.9665 101.474 82.5978 101.187 82.2418 100.882L78.9106 102.098C78.4465 101.545 78.027 100.96 77.6583 100.335L79.8197 97.4672C79.6353 97.0314 79.4955 96.5761 79.3874 96.1143L75.999 95.0997L75.999 92.9143L79.3874 91.8997C79.4955 91.4379 79.6353 90.9826 79.8197 90.5468L77.6583 87.6785C78.027 87.0607 78.4465 86.4753 78.9106 85.9289L82.2418 87.1387C82.5914 86.833 82.9665 86.5533 83.3607 86.2997L83.2589 82.6899C83.9137 82.4037 84.594 82.1761 85.2869 82.02L87.283 85.0054C87.5055 84.9989 87.7408 84.9859 87.976 84.9859ZM83.9137 94.0265C83.9137 96.3224 85.7319 98.1826 87.976 98.1826C90.2201 98.1826 92.0382 96.3224 92.0382 94.0265C92.0382 91.7306 90.2201 89.8704 87.976 89.8704C85.7382 89.8704 83.9201 91.7176 83.9137 94.007C83.9137 94.007 83.9137 94.02 83.9137 94.0265Z" fill="#0063C1"></path>
    <circle cx="298.501" cy="41.5024" r="16.8242" fill="#709ADB"></circle>
    <path d="M290.835 47.1289C292.129 45.1858 294.171 43.9321 296.469 43.9321C298.766 43.9321 300.808 45.1858 302.103 47.1289C302.386 47.5545 302.528 47.7674 302.511 48.0392C302.499 48.2509 302.36 48.5101 302.191 48.638C301.974 48.8023 301.675 48.8023 301.077 48.8023H291.86C291.263 48.8023 290.964 48.8023 290.747 48.638C290.578 48.5101 290.439 48.2509 290.426 48.0392C290.41 47.7674 290.552 47.5545 290.835 47.1289Z" fill="#DDE8FA"></path>
    <path fill-rule="evenodd" clip-rule="evenodd" d="M304.184 48.1103C304.163 48.4471 304.387 48.8082 304.725 48.8082H306.091H306.091C306.688 48.8082 306.987 48.8082 307.204 48.6439C307.374 48.5159 307.512 48.2568 307.525 48.0451C307.541 47.7732 307.4 47.5604 307.116 47.1347C305.822 45.1917 303.78 43.938 301.482 43.938C301.321 43.938 301.266 44.1466 301.398 44.2401C302.252 44.847 302.995 45.6228 303.59 46.5162L303.613 46.5504L303.613 46.5504C303.734 46.7325 303.878 46.9478 303.98 47.1561C304.108 47.4169 304.206 47.7314 304.184 48.1103Z" fill="#EEF4FE"></path>
    <path d="M296.47 41.4991C298.487 41.4991 300.123 39.8638 300.123 37.8465C300.123 35.8292 298.487 34.1938 296.47 34.1938C294.453 34.1938 292.817 35.8292 292.817 37.8465C292.817 39.8638 294.453 41.4991 296.47 41.4991Z" fill="white"></path>
    <path fill-rule="evenodd" clip-rule="evenodd" d="M301.482 41.4991C300.937 41.4991 300.772 40.8415 301.062 40.3802C301.525 39.646 301.792 38.7767 301.792 37.845C301.792 36.9136 301.525 36.0446 301.063 35.3104C300.773 34.8501 300.938 34.1938 301.482 34.1938C303.499 34.1938 305.134 35.8292 305.134 37.8465C305.134 39.8638 303.499 41.4991 301.482 41.4991Z" fill="#EEF4FE"></path>
    <path d="M311.418 26.9192C310.114 25.7638 308.699 24.815 307.211 24.0704M316.512 48.9334C315.704 50.8893 314.562 52.746 313.08 54.4189C305.945 62.4715 293.633 63.2154 285.58 56.0803C281.555 52.5142 279.356 47.6548 279.054 42.6803M317.91 39.8512C317.86 39.2599 317.783 38.6708 317.679 38.0858C317.202 35.3932 316.158 32.7884 314.559 30.4652M300.42 22.1126C294.417 21.5229 288.225 23.7207 283.919 28.5806C282.353 30.3476 281.167 32.3196 280.354 34.397M279.157 39.17C279.24 38.4722 279.361 37.7777 279.521 37.0897" stroke="#709ADB" stroke-width="0.885485" stroke-linecap="round"></path>
    <path fill-rule="evenodd" clip-rule="evenodd" d="M281.779 86.0516C282.315 86.2081 282.231 86.9911 281.674 87.0303L272.717 87.6623C272.336 87.6892 272.067 87.2971 272.229 86.9516L275.951 78.997C276.19 78.4882 276.956 78.6982 276.902 79.2573L276.615 82.2039C276.574 82.6322 277.063 82.9063 277.414 82.6578C308.515 60.6628 341.005 60.5222 369.133 69.515C397.731 78.6577 421.863 97.2458 435.62 111.96C435.997 112.364 435.976 112.996 435.572 113.374C435.169 113.751 434.536 113.73 434.159 113.326C420.578 98.8007 396.725 80.4361 368.524 71.42C340.867 62.5778 309.068 62.7319 278.591 84.2757C278.251 84.516 278.335 85.0448 278.734 85.1616L281.779 86.0516Z" fill="white"></path>
    <path d="M67.6767 205.903L58.7155 205.325C58.3349 205.3 58.068 205.694 58.2318 206.038L62.0024 213.97C62.2436 214.478 63.0091 214.263 62.9513 213.704L62.6469 210.759C62.6026 210.331 63.0881 210.053 63.4409 210.299C85.7241 225.858 108.648 230.289 130.151 228.223C130.406 228.198 130.6 227.983 130.6 227.726L130.6 226.723C130.6 226.427 130.345 226.196 130.05 226.224C108.936 228.271 86.4679 223.93 64.6075 208.674C64.266 208.436 64.3491 207.908 64.748 207.789L67.7877 206.881C68.3221 206.721 68.2333 205.938 67.6767 205.903Z" fill="white"></path>
    <path d="M228.36 227.844L228.36 227.845C228.846 230.028 231.063 231.328 233.255 230.757L233.255 230.757L233.259 230.756C235.444 230.17 236.772 227.916 236.198 225.77C235.647 223.653 233.455 222.445 231.34 223.012C229.23 223.577 227.89 225.722 228.36 227.844ZM231.677 224.321C233.087 223.943 234.512 224.758 234.878 226.12C235.243 227.528 234.365 229.032 232.902 229.424C231.448 229.814 230.009 228.945 229.69 227.534C229.374 226.135 230.258 224.701 231.677 224.321Z" fill="#093E8E" stroke="#093E8E" stroke-width="1.06338"></path>
    <path d="M362.572 195.368L362.572 195.368C363.058 197.552 365.275 198.851 367.467 198.28L367.467 198.28L367.471 198.279C369.656 197.694 370.984 195.44 370.41 193.294C369.859 191.177 367.667 189.969 365.552 190.536C363.442 191.101 362.102 193.245 362.572 195.368ZM365.889 191.845C367.299 191.467 368.724 192.281 369.09 193.643C369.455 195.052 368.577 196.556 367.114 196.948C365.659 197.337 364.221 196.469 363.902 195.058C363.586 193.659 364.47 192.225 365.889 191.845Z" fill="#093E8E" stroke="#093E8E" stroke-width="1.06338"></path>
    <path d="M88.36 168.212L88.3601 168.212C88.8459 170.395 91.0633 171.695 93.2552 171.124L93.2552 171.124L93.2588 171.123C95.4437 170.538 96.7724 168.284 96.1985 166.137C95.6467 164.021 93.455 162.812 91.3402 163.379C89.2296 163.945 87.8899 166.089 88.36 168.212ZM91.6768 164.688C93.0866 164.31 94.5123 165.125 94.8785 166.487C95.2428 167.895 94.365 169.399 92.9019 169.791C91.4476 170.181 90.0093 169.312 89.6896 167.901C89.3738 166.502 90.2577 165.068 91.6768 164.688Z" fill="#093E8E" stroke="#093E8E" stroke-width="1.06338"></path>
    <path d="M245.947 213L245.947 219.381M249.137 216.191H242.757" stroke="#093E8E" stroke-width="2.12675" stroke-linecap="round"></path>
    <path d="M88.1895 144L88.1895 150.381M91.3793 147.191H84.999" stroke="#093E8E" stroke-width="2.12675" stroke-linecap="round"></path>
    <path d="M263.19 62.0005L263.19 68.3807M266.379 65.1906H259.999" stroke="#093E8E" stroke-width="2.12675" stroke-linecap="round"></path>
    <path fill-rule="evenodd" clip-rule="evenodd" d="M304.142 218.653C309.92 218.629 314.735 222.179 316.329 227.666C317.933 233.163 315.986 239.487 311.365 243.72C306.721 247.933 300.337 249.235 295.189 246.981C290.063 244.748 287.215 239.382 287.977 233.446C289.014 225.316 296.246 218.691 304.142 218.653Z" fill="#0063C1"></path>
    <path fill-rule="evenodd" clip-rule="evenodd" d="M301.344 239.088C301.247 239.902 301.15 240.718 301.053 241.538C302.411 241.533 303.776 241.528 305.146 241.522C305.411 241.518 305.683 241.467 305.945 241.407C306.232 241.319 306.5 241.196 306.747 241.018C306.939 240.853 307.111 240.653 307.236 240.427C307.402 240.108 307.511 239.747 307.529 239.4C307.743 237.564 307.959 235.723 308.179 233.876C309.184 233.871 310.189 233.87 311.194 233.871C311.299 232.96 311.403 232.052 311.507 231.147C308.492 231.154 305.476 231.167 302.462 231.187C302.351 232.099 302.244 233.004 302.139 233.903C303.144 233.905 304.153 233.903 305.164 233.898C305.004 235.256 304.841 236.614 304.675 237.973C304.664 238.11 304.636 238.258 304.597 238.396C304.551 238.554 304.458 238.696 304.326 238.803C304.214 238.918 304.072 238.999 303.927 239.034C303.791 239.059 303.646 239.076 303.509 239.074C302.784 239.082 302.063 239.087 301.344 239.088ZM299.546 241.554C299.648 240.734 299.748 239.917 299.846 239.103C299.766 239.095 299.687 239.094 299.608 239.098C298.996 239.112 298.414 238.997 297.882 238.779C297.336 238.488 296.928 238.018 296.74 237.416C296.599 236.995 296.513 236.562 296.498 236.107C296.471 235.78 296.469 235.397 296.474 234.968C296.501 234.438 296.538 233.935 296.602 233.412C296.657 232.898 296.75 232.401 296.86 231.893C296.955 231.451 297.063 231.071 297.157 230.765C297.234 230.506 297.33 230.245 297.463 229.992C297.537 229.833 297.629 229.664 297.748 229.503C298.12 228.927 298.643 228.452 299.249 228.165C299.973 227.853 300.741 227.685 301.492 227.709C303.849 227.694 306.209 227.682 308.573 227.672C308.663 226.841 308.759 226.006 308.861 225.168C306.223 225.179 303.586 225.194 300.948 225.212C299.602 225.165 298.222 225.511 296.981 226.233C296.369 226.585 295.837 227.069 295.402 227.657C294.993 228.217 294.659 228.818 294.4 229.452C294.152 230.112 293.949 230.78 293.812 231.462C293.665 232.144 293.564 232.824 293.481 233.494C293.411 234.073 293.333 234.679 293.311 235.3C293.27 235.913 293.276 236.533 293.343 237.122C293.402 237.721 293.543 238.306 293.763 238.841C293.975 239.395 294.312 239.888 294.735 240.285C295.129 240.648 295.592 240.933 296.097 241.153C296.779 241.436 297.518 241.579 298.293 241.547C298.714 241.549 299.131 241.552 299.546 241.554Z" fill="white"></path>
    <path d="M359.19 132.87L368.281 102.532C368.552 101.634 368.044 100.694 367.146 100.422L335.164 90.8237C334.266 90.5525 333.325 91.0609 333.054 91.9589L323.964 122.297C323.692 123.195 324.201 124.136 325.099 124.407L357.081 134.006C357.979 134.277 358.919 133.768 359.19 132.87Z" fill="white" stroke="#709ADB" stroke-width="0.52" stroke-miterlimit="10"></path>
    <path opacity="0.3" d="M353.352 132.649L363.409 99.0656L336.806 91.085L326.75 124.668L353.352 132.649Z" fill="#0063C1"></path>
    <path d="M359.133 86.2056H309.521C307.92 86.2056 306.513 87.4933 306.369 89.103C304.539 108.36 302.709 127.617 300.888 146.891C300.727 148.5 301.904 149.788 303.523 149.788H351.983C353.592 149.788 355.007 148.5 355.134 146.891C356.871 127.625 360.023 108.36 361.751 89.103C361.895 87.4933 360.734 86.2056 359.133 86.2056Z" fill="#709ADB"></path>
    <path d="M357.701 86.2056H309.521C307.92 86.2056 306.513 87.4933 306.369 89.103C304.539 108.36 300.413 127.617 298.592 146.891C298.431 148.5 299.609 149.788 301.218 149.788H349.678C351.296 149.788 352.703 148.5 352.838 146.891C354.575 127.625 358.599 108.36 360.328 89.103C360.472 87.4933 359.311 86.2056 357.71 86.2056H357.701Z" fill="white" stroke="#709ADB" stroke-width="0.52" stroke-miterlimit="10"></path>
    <path d="M304.819 103.943H317.248C320.188 103.943 322.789 105.392 324.161 107.874C324.686 108.806 325.195 109.746 325.703 110.678C327.016 112.949 329.397 114.33 332.091 114.33H364.276C367.148 114.33 369.258 116.719 369.029 119.633C367.682 135.213 366.343 150.777 365.005 166.34C364.801 168.729 362.683 170.686 360.32 170.686H295.559C293.145 170.686 291.425 168.729 291.679 166.34C293.424 149.006 295.17 131.664 296.915 114.33C297.296 112.703 297.669 111.077 298.042 109.433C298.796 106.29 301.668 103.943 304.819 103.943Z" fill="#093E8E" stroke="#093E8E" stroke-width="1.92"></path>
    <path d="M304.412 103.943H316.459C319.314 103.943 321.83 105.349 323.16 107.747C323.669 108.654 324.16 109.56 324.651 110.467C325.922 112.669 328.235 114.008 330.845 114.008H362.047C364.826 114.008 366.876 116.321 366.656 119.15C365.351 134.248 364.046 149.345 362.759 164.425C362.555 166.738 360.514 168.636 358.218 168.636H295.44C293.102 168.636 291.433 166.738 291.678 164.425C293.373 147.616 295.067 130.816 296.753 114.008C297.126 112.432 297.49 110.856 297.846 109.264C298.583 106.214 301.362 103.943 304.412 103.943Z" fill="#0063C1" stroke="#093E8E" stroke-width="1.92"></path>
    <path d="M337.869 138.98H332.286L332.811 133.38C332.879 132.66 332.676 132 332.235 131.508C331.812 131.034 331.202 130.78 330.515 130.78C329.016 130.78 327.567 132.135 327.415 133.677L326.915 138.98H321.645C320.095 138.98 318.655 140.302 318.502 141.861C318.434 142.581 318.638 143.25 319.078 143.733C319.502 144.199 320.112 144.462 320.798 144.462H326.381L326.22 146.182C326.093 147.478 325.966 148.774 325.83 150.079C325.763 150.765 325.966 151.417 326.406 151.909C326.839 152.383 327.449 152.646 328.126 152.646C329.711 152.646 331.117 151.358 331.278 149.765L331.778 144.462H337.039C338.606 144.462 340.013 143.157 340.165 141.564C340.224 140.861 340.013 140.192 339.572 139.709C339.148 139.243 338.538 138.989 337.869 138.989V138.98Z" fill="white"></path>
    <path d="M247.389 92.3369C247.039 95.3969 244.449 97.7869 241.399 97.9769H176.359C173.549 98.0669 171.249 95.7769 171.159 93.0469V92.3969L174.329 56.1669C174.689 52.9269 177.289 50.5169 180.519 50.4269H245.359C248.169 50.3369 250.469 52.6269 250.559 55.3669V56.0169L247.389 92.3469V92.3369Z" fill="#093E8E" stroke="#093E8E" stroke-width="0.91"></path>
    <path d="M245.559 92.3369C245.209 95.3969 242.619 97.7869 239.569 97.9769H174.529C171.719 98.0669 169.419 95.7769 169.329 93.0469V92.3969L172.499 56.1669C172.859 52.9269 175.459 50.5169 178.689 50.4269H243.529C246.339 50.3369 248.639 52.6269 248.729 55.3669V56.0169L245.559 92.3469V92.3369Z" fill="#427ED9" stroke="#09377A" stroke-width="0.76"></path>
    <path d="M200.319 71.7968C199.639 77.9468 194.549 82.7568 188.299 82.8568C182.819 82.9568 178.299 78.5368 178.109 73.0468C178.109 72.6668 178.109 72.1768 178.209 71.7968C178.889 65.6468 183.979 60.8368 190.229 60.7368C195.709 60.6368 200.229 65.0568 200.419 70.5468C200.419 70.9268 200.319 71.4168 200.319 71.7968Z" fill="#EEF4FE"></path>
    <path d="M192.619 69.8668C192.429 72.2668 191.469 74.2868 189.059 74.2868C186.649 74.2868 186.079 72.3668 186.269 69.8668C186.459 67.3668 187.419 65.4468 189.829 65.4468C192.239 65.4468 192.809 67.4668 192.619 69.8668Z" fill="#093E8E"></path>
    <path d="M188.869 75.647C183.779 75.647 181.079 76.797 179.739 78.437C181.569 81.327 184.839 82.957 188.199 82.957C191.759 82.957 195.219 81.227 197.429 78.437C196.559 76.707 193.969 75.647 188.869 75.647Z" fill="#093E8E"></path>
    <path d="M231.5 63.1369H208.4C207.63 63.1369 207.06 62.5569 207.06 61.7969V61.6069C207.16 60.7369 207.83 60.0669 208.7 60.0669H231.8C232.57 60.0669 233.14 60.6469 233.14 61.4069V61.5969C233.05 62.4669 232.37 63.1369 231.5 63.1369Z" fill="white"></path>
    <path d="M236.299 70.737H207.429C206.659 70.737 206.089 70.157 206.089 69.397V69.207C206.179 68.337 206.859 67.667 207.729 67.667H236.589C237.359 67.667 237.929 68.247 237.929 69.007V69.197C237.829 70.067 237.159 70.637 236.289 70.737H236.299Z" fill="white"></path>
    <path d="M240.619 77.3369H206.949C206.179 77.3369 205.609 76.7569 205.609 75.9969V75.8069C205.699 74.9369 206.379 74.2668 207.249 74.2668H240.919C241.689 74.2668 242.259 74.8469 242.259 75.6069V75.7969C242.159 76.6669 241.489 77.3369 240.619 77.3369Z" fill="white"></path>
    <path d="M234.769 85.737H205.999C205.229 85.737 204.659 85.157 204.659 84.397V84.207C204.759 83.337 205.429 82.667 206.299 82.667H235.159C235.929 82.667 236.499 83.247 236.499 84.007V84.197C236.399 85.067 235.629 85.737 234.769 85.737Z" fill="white"></path>
    <path opacity="0.1" d="M196.093 50.4165L185.806 97.3465H191.588L201.719 50.4165H196.093Z" fill="white"></path>
    <path opacity="0.1" d="M205.047 50.4165L194.883 97.3465H206.39L216.348 50.4165H205.047Z" fill="white"></path>
  </g>
  <rect x="0.5" y="0.5" width="463" height="277" rx="23.5" stroke="#DDE8FA"></rect>
  <defs>
    <filter id="filter0_f_7_1777" x="-474" y="-401" width="1412" height="771" color-interpolation-filters="sRGB">
      <feFlood flood-opacity="0" result="BackgroundImageFix"></feFlood>
      <feBlend mode="normal" in="SourceGraphic" in2="BackgroundImageFix" result="shape"></feBlend>
      <feGaussianBlur stdDeviation="150" result="effect1_foregroundBlur_7_1777"></feGaussianBlur>
    </filter>
    <linearGradient id="paint0_linear_7_1777" x1="146.5" y1="390.5" x2="368.114" y2="371.186" gradientUnits="userSpaceOnUse">
      <stop stop-color="#6CBAFF"></stop>
      <stop offset="1" stop-color="#EDF6FF"></stop>
    </linearGradient>
    <clipPath id="clip0_7_1777">
      <rect width="464" height="278" rx="24" fill="white"></rect>
    </clipPath>
  </defs>
</svg>
