<?xml version="1.0" encoding="UTF-8"?>
<svg xmlns="http://www.w3.org/2000/svg" width="48" height="49" viewBox="0 0 48 49" fill="none">
  <path d="M23.9996 46.5383C36.1497 46.5383 45.9992 36.6887 45.9992 24.5387C45.9992 12.3886 36.1497 2.53906 23.9996 2.53906C11.8496 2.53906 2 12.3886 2 24.5387C2 36.6887 11.8496 46.5383 23.9996 46.5383Z" fill="#F32735"></path>
  <path d="M39.4943 8.91992L8.50781 40.1572C8.50847 40.1578 8.50914 40.1585 8.50974 40.1591C17.1366 48.7149 31.0659 48.6572 39.6216 40.0304C48.1769 31.404 48.1198 17.4758 39.4943 8.91992Z" fill="#9E0F20"></path>
  <path d="M20.7931 28.1993C21.3639 27.8172 21.927 27.4236 22.4941 27.0359C24.7748 25.4767 27.0558 23.918 29.3368 22.3592L31.878 20.6153C31.746 20.494 31.6304 20.3816 31.5081 20.2771C30.7867 19.6606 30.0129 19.1212 29.1735 18.6755C27.8632 17.98 26.477 17.5312 24.9939 17.4331C24.2295 17.3826 23.4623 17.4232 22.7034 17.5533C21.5625 17.749 20.4799 18.1141 19.4583 18.6605C17.9491 19.4678 16.7004 20.5704 15.711 21.9653C14.5707 23.5729 13.9381 25.3675 13.7759 27.3267C13.7109 28.1121 13.7474 28.899 13.8695 29.6783C14.0257 30.6764 14.308 31.6386 14.7335 32.5565C15.2062 33.5761 15.8264 34.4971 16.594 35.3176C16.7805 35.517 16.9825 35.7018 17.1827 35.8985C17.4784 35.4874 17.8801 35.2633 18.3248 35.1052C19.1216 34.822 19.9549 34.7715 20.7882 34.7528C21.2521 34.7425 21.7182 34.7747 22.1813 34.8111C22.7068 34.8525 23.2305 34.9177 23.7544 34.9772C24.0027 35.0054 24.2499 35.0443 24.5213 35.0817C23.7528 33.4681 22.9963 31.8796 22.24 30.2915C21.8479 30.3689 21.477 30.442 21.0973 30.5169C21.0831 30.4784 21.0707 30.4545 21.0654 30.4291C20.9323 29.7913 20.8075 29.1517 20.662 28.5168C20.6255 28.3574 20.6664 28.2842 20.7931 28.1993ZM19.7366 20.2864C18.0869 21.6576 16.7666 23.2688 16.0837 25.3393C15.8934 25.9163 15.7846 26.5086 15.7312 27.1147C15.5851 28.7759 15.9628 30.331 16.6868 31.8098C16.9531 32.3538 17.2841 32.8662 17.5856 33.3931C17.6058 33.4284 17.6257 33.4639 17.6585 33.522C17.4337 33.6365 17.2203 33.7504 17.0018 33.8534C16.9272 33.8886 16.8516 33.9027 16.7907 33.7962C16.1581 32.6879 15.6379 31.5327 15.3223 30.2923C15.1028 29.4297 14.9786 28.552 15.0123 27.662C15.0687 26.1739 15.4859 24.7905 16.2727 23.5206C16.9598 22.4114 17.836 21.4755 18.8512 20.6629C19.7167 19.97 20.6472 19.3825 21.6534 18.9161C21.6995 18.8947 21.7467 18.8759 21.7934 18.856C21.065 19.2782 20.3795 19.7521 19.7366 20.2864Z" fill="white"></path>
  <path d="M22.9531 30.7528C23.3465 30.6768 23.7311 30.5999 24.1173 30.532C24.1563 30.5252 24.214 30.5643 24.2476 30.5977C24.8059 31.1525 25.3452 31.7277 25.9233 32.2609C26.408 32.7081 26.9368 33.1075 27.4471 33.5269C28.1745 34.1246 28.8103 34.8092 29.3574 35.5735C30.3135 36.9093 31.0047 38.371 31.3885 39.9708C31.4222 40.1115 31.3793 40.2846 31.3304 40.4284C31.1644 40.9172 30.812 41.2697 30.4225 41.585C29.8768 42.0266 29.2655 42.3565 28.6178 42.6238C28.4832 42.6794 28.4342 42.6528 28.374 42.5209C27.7071 41.062 27.0317 39.6069 26.3594 38.1504C25.448 36.1759 24.5374 34.2009 23.6263 32.2263C23.4141 31.7665 23.2013 31.3071 22.9891 30.8473C22.9762 30.8194 22.9671 30.7898 22.9531 30.7528Z" fill="white"></path>
  <path d="M24.449 35.7796C24.4276 35.7337 24.3613 35.6852 24.3111 35.6795C23.3266 35.5689 22.3428 35.4477 21.3558 35.3645C20.6652 35.3063 19.9711 35.348 19.284 35.4454C18.7976 35.5143 18.3214 35.6299 17.8852 35.8691C17.629 36.0096 17.4381 36.1981 17.3221 36.4826C16.9851 37.3087 16.6247 38.1254 16.2732 38.9456C16.0907 39.3714 15.9074 39.7969 15.7129 40.2494C15.7587 40.2357 15.7766 40.2309 15.7942 40.225C16.7508 39.904 17.7422 39.8119 18.7415 39.811C19.3375 39.8105 19.9346 39.8529 20.5291 39.9014C21.1118 39.949 21.6943 40.0126 22.2725 40.0984C23.025 40.21 23.7733 40.3505 24.5399 40.4813C24.9002 39.8321 25.2699 39.168 25.6356 38.5018C25.6544 38.4674 25.6541 38.4074 25.6374 38.3708C25.2445 37.5056 24.8492 36.6414 24.449 35.7796ZM18.8169 36.4621C18.739 36.4859 18.657 36.545 18.6091 36.6112C18.08 37.3421 17.5571 38.0776 17.0334 38.8125C17.0191 38.8326 17.015 38.8598 17.0061 38.8837C16.9925 38.8719 16.9788 38.8602 16.9651 38.8484C17.056 38.6548 17.1455 38.4606 17.238 38.2678C17.5435 37.6305 17.8483 36.9928 18.1593 36.3582C18.1877 36.3004 18.251 36.2388 18.3107 36.2207C18.9417 36.0296 19.5861 35.9133 20.2443 35.8567C20.732 35.8147 21.2121 35.8288 21.6911 35.9229C21.7414 35.9327 21.7904 35.9497 21.84 35.9634C20.7868 35.8875 19.7991 36.1612 18.8169 36.4621Z" fill="white"></path>
  <path d="M34.0742 25.9299C33.9555 25.1997 33.8355 24.4696 33.7183 23.7391C33.614 23.0899 33.5141 22.44 33.4095 21.7907C33.3297 21.2958 33.2465 20.8012 33.1619 20.291L21.1973 28.502C21.1564 28.539 21.1166 28.6089 21.1266 28.6481C21.2245 29.0327 21.3359 29.4139 21.4426 29.7939C21.4696 29.7953 21.4859 29.7994 21.5009 29.7964C22.4486 29.6083 23.3956 29.4172 24.3436 29.2315C26.1579 28.8762 27.973 28.5256 29.7872 28.1701C31.2408 27.8853 32.6933 27.594 34.1477 27.3128C34.2755 27.2881 34.2876 27.2352 34.27 27.1305C34.2028 26.7307 34.1393 26.3302 34.0742 25.9299Z" fill="white"></path>
  <path d="M27.2051 15.9272C26.9206 16.3393 26.6359 16.7513 26.3555 17.1573C27.9215 17.4258 29.1618 18.0701 29.8344 18.459C29.938 18.5063 30.0018 18.4978 30.0854 18.4261C30.6107 17.9751 31.1387 17.5272 31.6688 17.0818C32.7167 16.2012 33.7673 15.3238 34.8153 14.4433C35.917 13.5176 37.0172 12.5902 38.1177 11.663C36.318 10.3834 34.2844 9.41714 32.0953 8.84375C31.5885 9.58124 31.0783 10.3164 30.5698 11.0527C29.448 12.6774 28.3267 14.3024 27.2051 15.9272Z" fill="white"></path>
  <path d="M21.3752 16.0885C21.2567 16.5289 21.1289 17.0036 21.0059 17.4684C21.2626 17.4113 22.7878 16.8332 24.9697 16.9787C25.0749 16.9851 25.1294 16.9474 25.1785 16.8556C25.6488 15.9753 26.0969 15.1361 26.5702 14.2573C27.2541 12.9876 27.9376 11.7175 28.6213 10.4476C28.9875 9.76742 29.354 9.08727 29.7305 8.38839C28.9731 8.29338 28.2019 8.24414 27.4194 8.24414C26.0271 8.24414 24.6701 8.39947 23.3643 8.69325C23.3266 8.85111 23.2819 9.00738 23.2397 9.16419C22.6182 11.4723 21.9963 13.7803 21.3752 16.0885Z" fill="white"></path>
  <path d="M15.9813 12.6103C16.0178 13.0411 16.0548 13.4719 16.0909 13.9028C16.1256 14.318 16.1583 14.7334 16.194 15.1485C16.2302 15.5685 16.2705 15.9882 16.3062 16.4083C16.3427 16.8395 16.3755 17.2711 16.4102 17.7024C16.4435 18.1181 16.4762 18.5339 16.5109 18.9495C16.5423 19.3248 16.574 19.7193 16.6086 20.1166C17.0353 19.6996 18.3566 18.5214 19.9858 17.845C20.0616 17.8135 20.1367 17.7964 20.1558 17.6746C20.2576 17.0258 20.3572 16.4879 20.4703 15.8408C20.6284 14.9359 20.7864 14.0309 20.9439 13.1259C21.1412 11.9925 21.3383 10.8591 21.5342 9.7256C21.5651 9.54733 21.5921 9.36819 21.6217 9.17773C19.5501 9.86444 17.6378 10.9086 15.9571 12.2377C15.9564 12.241 15.9554 12.2444 15.9554 12.2476C15.9526 12.3683 15.971 12.4894 15.9813 12.6103Z" fill="white"></path>
  <path d="M13.8078 22.3451C13.9674 22.6663 14.153 23.0423 14.3175 23.3726C14.6642 22.6041 15.3886 21.4561 16.0716 20.6778C16.107 20.6375 16.1275 20.5593 16.1164 20.507C16.0016 19.9672 15.8785 19.4612 15.7577 18.9227C15.4384 17.4996 15.1189 16.0765 14.7993 14.6534C14.7154 14.2799 14.6308 13.9067 14.5372 13.4922C14.4118 13.6258 14.314 13.7285 14.2179 13.8326C13.8164 14.268 13.3822 14.6784 13.0216 15.1455C12.5359 15.7746 12.0907 16.435 11.6326 17.0856C11.555 17.2105 11.479 17.3365 11.4043 17.4634C11.4044 17.4998 11.4168 17.5364 11.4376 17.5783C12.2292 19.1665 13.0181 20.7559 13.8078 22.3451Z" fill="white"></path>
  <path d="M10.013 23.2877C10.9324 24.0996 11.8523 24.911 12.7723 25.7223C12.9818 25.907 13.2074 26.1048 13.4354 26.3046C13.5227 25.6161 13.7563 24.762 14.0197 24.0887C14.0702 23.9595 14.0195 23.8829 13.9518 23.7922C13.0212 22.5437 12.0811 21.2968 11.1511 20.0479C10.9416 19.7666 10.7303 19.4866 10.5118 19.1953C10.4872 19.2417 10.4714 19.268 10.4587 19.2957C10.4258 19.3677 10.3934 19.4399 10.3615 19.5122C9.93039 20.506 9.58246 21.5445 9.32617 22.6186C9.33466 22.6554 9.35385 22.6932 9.37646 22.7146C9.58406 22.9105 9.79894 23.0987 10.013 23.2877Z" fill="white"></path>
  <path d="M12.6245 29.3469C12.8707 29.4321 13.1455 29.5285 13.3981 29.6167C13.2502 28.7028 13.3166 27.4062 13.3326 27.1269C13.3392 27.0131 13.3013 26.9489 13.2011 26.8871C12.1585 26.2443 11.0983 25.5911 10.0585 24.944C9.71384 24.7295 9.3685 24.516 9.00568 24.291C8.87738 25.1789 8.81055 26.0866 8.81055 27.0098C8.81055 27.3537 8.82003 27.6954 8.83828 28.0349C8.85416 28.0438 8.87274 28.0518 8.89463 28.0593C10.1391 28.4853 11.3816 28.9166 12.6245 29.3469Z" fill="white"></path>
  <path d="M14.3654 32.8519C14.3038 32.7438 14.2389 32.7266 14.1275 32.7533C13.0767 33.006 11.9967 33.2616 10.9452 33.5117C10.6466 33.5828 10.3478 33.6546 10.043 33.7278C10.3865 34.6285 10.7969 35.496 11.2682 36.3241C12.5631 35.6326 13.8616 34.9411 15.1582 34.2484C14.6564 33.4726 14.6084 33.2785 14.3654 32.8519Z" fill="white"></path>
  <path d="M11.5773 32.1116C12.154 32.1067 12.7309 32.1106 13.3076 32.1106H14.0444C14.0297 32.0537 13.6825 31.0615 13.5733 30.5475C13.5664 30.4987 13.4857 30.4344 13.4296 30.4224C12.1512 30.1497 10.8827 29.8883 9.60303 29.6216C9.39714 29.5787 9.18987 29.5397 8.97461 29.498C9.09382 30.4014 9.27666 31.2848 9.51905 32.1432C9.52347 32.1432 9.52777 32.1433 9.53234 32.1432C10.2139 32.1281 10.8956 32.1174 11.5773 32.1116Z" fill="white"></path>
</svg>
