<?xml version="1.0" encoding="UTF-8"?>
<svg xmlns="http://www.w3.org/2000/svg" width="48" height="49" viewBox="0 0 48 49" fill="none">
  <path fill-rule="evenodd" clip-rule="evenodd" d="M4.41313 24.3737C4.40549 25.8307 5.47181 26.6993 7.17343 26.3044V22.4429C5.4503 21.9171 4.42034 22.9809 4.41313 24.3737ZM7.22548 16.8594H9.56911V27.9742C7.32266 28.3422 5.17112 28.5756 3.63193 27.7133C1.65007 26.603 1.49075 23.075 3.05899 21.5036C3.85411 20.707 5.45484 20.1462 7.17343 20.5121V17.016C7.16894 16.9419 7.16478 16.8681 7.22548 16.8594Z" fill="black"></path>
  <path fill-rule="evenodd" clip-rule="evenodd" d="M13.371 19.3119H11.0273V16.8594H13.371V19.3119Z" fill="black"></path>
  <path fill-rule="evenodd" clip-rule="evenodd" d="M41.4944 26.4091C44.0493 27.4039 44.332 21.8271 41.7549 22.3388C40.1544 22.6567 40.2058 25.9074 41.4944 26.4091ZM41.5986 20.4081C43.5497 20.1991 45.0216 21.0618 45.6089 22.3911C46.6108 24.6591 45.5538 27.2616 43.9423 28.0268C43.1071 28.4233 42.2325 28.4611 41.4424 28.392C39.0002 28.1786 37.4599 25.6849 38.3175 22.9128C38.4517 22.479 38.6025 22.2136 38.6821 22.0779C39.213 21.1736 40.1092 20.5677 41.5986 20.4081Z" fill="black"></path>
  <path fill-rule="evenodd" clip-rule="evenodd" d="M16.6007 25.522C15.9525 26.6135 17.5812 26.875 18.6318 26.5657V24.948C17.8245 25.0609 16.9057 25.0084 16.6007 25.522ZM20.715 28.079C18.7791 28.1905 15.837 28.8513 14.7779 27.5572C14.1556 26.7968 14.2226 25.3464 14.7779 24.6349C15.4955 23.7155 17.062 23.515 18.4756 23.3826C18.6039 23.066 18.5174 22.5508 18.3714 22.3388C17.0784 22.0088 15.7937 22.5202 14.8821 22.9128V21.0865C16.259 20.4526 19.4484 19.7852 20.4026 21.243C20.9038 22.0087 20.715 23.3441 20.715 24.5305V28.079Z" fill="black"></path>
  <path fill-rule="evenodd" clip-rule="evenodd" d="M28.9431 28.1832H26.5994V25.1566C26.5994 24.16 26.7603 22.8965 26.2348 22.4953C25.8232 22.1809 24.8468 22.3386 24.2558 22.4953V28.1832H21.9121V20.9298C24.3079 20.3063 28.6324 19.6377 28.9431 22.6518C29.0962 24.1378 28.8296 26.3673 28.9431 28.1832Z" fill="black"></path>
  <path fill-rule="evenodd" clip-rule="evenodd" d="M32.4326 25.6791C32.827 26.3185 33.8949 26.5582 34.7762 26.1488C34.7278 24.9275 34.7109 23.6747 34.7241 22.3916C32.6987 21.8555 31.4916 24.1541 32.4326 25.6791ZM38.3177 20.7219C38.1091 21.3478 37.8038 21.8767 37.5365 22.4439C37.295 22.4981 37.0857 22.3477 36.9636 22.4439C36.9101 24.9876 37.5043 28.4359 36.4949 30.2712C35.8871 31.3762 34.7682 32.0851 33.0575 32.202C31.8114 32.2871 30.8442 32.0831 29.9327 31.7323V29.5407C31.0018 30.1661 33.7033 30.676 34.4637 29.3841C34.6875 29.004 34.6733 28.6111 34.7762 28.0273C34.2866 28.0531 33.8113 28.2803 33.2138 28.2883C30.7576 28.321 29.238 26.3614 29.8285 23.644C30.0569 22.5929 30.6716 21.7465 31.4952 21.2436C33.2056 20.1991 35.8348 20.2784 38.3177 20.7219Z" fill="black"></path>
  <path fill-rule="evenodd" clip-rule="evenodd" d="M13.3709 20.5547C13.3682 22.2838 13.3686 23.5264 13.3684 25.6271C13.2689 27.6915 13.292 29.3354 12.5376 30.3232C12.3888 30.518 12.0728 30.8022 11.8084 31.0017C11.5864 31.1691 11.1633 31.5087 10.9231 31.5235C10.6809 31.5384 10.0588 31.1867 9.77724 31.0538C9.40754 30.8794 9.06577 30.6477 8.68359 30.532C9.57507 29.9785 10.4213 29.5636 10.7668 28.4447C11.0672 27.4717 11.0272 26.0617 11.0272 24.6876C11.0272 23.3307 11.0333 21.7533 11.0333 20.5553L13.3709 20.5548V20.5547Z" fill="black"></path>
</svg>
