<?xml version="1.0" encoding="UTF-8"?>
<svg xmlns="http://www.w3.org/2000/svg" width="56" height="56" viewBox="0 0 56 56" fill="none">
  <path fill-rule="evenodd" clip-rule="evenodd" d="M29.4409 2.45459C25.6704 3.79253 22.1431 7.68474 18.6158 14.0096C13.3856 23.6184 6.69589 37.2411 15.9399 48.0663C20.197 53.0532 27.3732 55.9723 36.6172 51.3504C44.0367 47.5798 46.2261 36.7546 43.4285 31.7677C37.8335 21.3074 32.2385 18.7532 30.7789 12.3067C29.8058 7.928 29.3193 4.64395 29.4409 2.45459Z" fill="url(#paint0_linear_5809_6084)"></path>
  <path fill-rule="evenodd" clip-rule="evenodd" d="M29.4409 2.33382C25.6704 3.67176 22.0214 7.56396 18.6158 13.8888C13.3856 23.4977 6.69589 37.1204 15.9399 47.9455C20.197 52.9324 27.2516 54.5136 31.1438 51.5945C33.698 49.6484 35.4009 47.8239 36.3739 43.9317C37.4686 39.553 36.6172 33.8363 36.009 31.0388C35.2792 27.6331 35.036 23.9842 35.2792 19.8487C35.2792 19.8487 35.1576 19.8487 35.1576 19.7271C33.0899 17.2945 31.6303 15.1051 30.9005 12.0643C29.8058 7.80722 29.3193 4.52318 29.4409 2.33382Z" fill="url(#paint1_linear_5809_6084)"></path>
  <path fill-rule="evenodd" clip-rule="evenodd" d="M26.2775 4.03596C22.7502 6.83348 20.196 11.4555 18.4931 17.9019C15.9389 27.6324 15.6956 36.6331 16.547 41.9849C18.2499 52.2019 27.3722 55.9725 36.6162 51.2289C42.3329 48.3097 44.7655 42.1065 44.6439 35.2952C44.5222 28.2406 30.8995 20.3346 28.5885 14.4963C27.0073 10.4824 26.2775 7.07675 26.2775 4.03596Z" fill="url(#paint2_linear_5809_6084)"></path>
  <path fill-rule="evenodd" clip-rule="evenodd" d="M35.1587 22.2828C39.4158 27.6346 40.2672 31.4051 37.9562 33.4729C34.4289 36.6353 25.6714 38.703 20.3197 34.9324C16.6707 32.3782 15.3328 26.9048 16.1842 18.5122C14.7246 21.6746 13.3867 24.7154 12.4136 27.9994C11.4406 31.1619 11.0757 34.5675 11.5622 37.9732C12.9002 40.5275 15.9409 42.3519 20.9278 43.2034C28.3473 44.5413 35.4019 43.8115 40.1456 41.5005C43.308 39.9193 44.7675 38.3381 44.6459 36.7569C44.7675 34.4459 44.0378 32.2565 42.4566 30.0672C40.997 27.8778 38.5644 25.3236 35.1587 22.2828Z" fill="url(#paint3_linear_5809_6084)"></path>
  <path fill-rule="evenodd" clip-rule="evenodd" d="M18.7368 16.9285C18.7368 20.8207 19.7098 24.4697 21.7776 27.997C24.8183 33.2271 28.3456 38.4573 33.6974 42.7144C37.2247 45.6335 40.1439 46.4849 42.2116 45.5119C40.5088 48.6743 38.5627 50.1339 36.6166 50.1339C33.6974 50.0122 30.0485 48.7959 24.3318 41.8629C20.4396 37.241 17.8854 32.8622 16.4258 28.7268C16.669 27.1456 16.9123 25.4427 17.1556 23.8615C17.5205 22.2803 18.007 19.9693 18.7368 16.9285Z" fill="url(#paint4_linear_5809_6084)"></path>
  <path fill-rule="evenodd" clip-rule="evenodd" d="M27.8582 22.2817C28.2231 25.4441 29.4394 30.5527 27.8582 33.8367C26.277 37.2424 19.1008 43.3239 21.0469 48.6757C22.993 54.0275 27.8582 52.8112 30.899 50.3785C33.9398 47.9459 35.521 43.9321 35.8859 41.0129C36.2508 38.2154 35.0345 32.742 34.6696 27.9984C34.4263 24.836 34.548 22.1601 35.1561 19.8491L34.1831 18.6328L28.7097 17.0516C27.9799 18.3895 27.615 20.0924 27.8582 22.2817Z" fill="url(#paint5_linear_5809_6084)"></path>
  <path fill-rule="evenodd" clip-rule="evenodd" d="M29.8073 6.59033C27.9828 7.32012 26.4016 8.77969 24.8204 11.0907C22.3878 14.3747 21.1715 16.4425 22.1445 23.0105C22.7527 27.3893 23.1176 31.4031 23.4824 35.1737L31.1452 12.9152C30.902 11.8205 30.6587 10.7258 30.4154 9.87438C30.0505 8.77969 29.9289 7.80664 29.8073 6.59033Z" fill="url(#paint6_linear_5809_6084)"></path>
  <path fill-rule="evenodd" clip-rule="evenodd" d="M31.0211 12.7928C29.075 13.8875 27.6154 16.3201 26.5207 19.7258C25.426 23.2531 24.453 28.1183 23.6016 34.4432C24.8179 30.4293 25.5477 27.5102 25.9126 25.6857C26.5207 23.0098 26.6423 19.1176 28.2235 16.5634C29.1966 14.8605 30.1696 13.6442 31.0211 12.7928Z" fill="#330A4C" fill-opacity="0.316"></path>
  <path fill-rule="evenodd" clip-rule="evenodd" d="M21.8984 50.4998C25.0609 50.9864 26.7637 51.3513 26.8853 51.7161C27.1286 52.2027 26.5204 52.6892 24.696 52.4459C23.6013 52.2027 22.6282 51.5945 21.8984 50.4998Z" fill="white"></path>
  <path fill-rule="evenodd" clip-rule="evenodd" d="M23.6003 6.59033C21.8974 8.65806 20.3162 10.9691 18.9783 13.2801C17.6403 15.591 16.7889 17.4155 16.1808 18.5102C16.0591 19.3616 15.9375 20.6996 15.9375 22.4024C15.9375 24.1052 16.0591 25.9297 16.424 27.9974C16.6673 23.9836 17.3971 19.9698 18.735 16.1992C19.9513 12.4286 21.6542 9.14459 23.6003 6.59033Z" fill="#EDEDED" fill-opacity="0.603"></path>
  <defs>
    <linearGradient id="paint0_linear_5809_6084" x1="28.4414" y1="6.21105" x2="26.6555" y2="53.7207" gradientUnits="userSpaceOnUse">
      <stop stop-color="#D9D8DC"></stop>
      <stop offset="1" stop-color="white" stop-opacity="0.385"></stop>
    </linearGradient>
    <linearGradient id="paint1_linear_5809_6084" x1="27.7912" y1="5.42094" x2="9.13349" y2="46.3123" gradientUnits="userSpaceOnUse">
      <stop stop-color="#8D67AF" stop-opacity="0.672"></stop>
      <stop offset="1" stop-color="#9F8DAF"></stop>
    </linearGradient>
    <linearGradient id="paint2_linear_5809_6084" x1="30.415" y1="19.4607" x2="30.415" y2="52.3532" gradientUnits="userSpaceOnUse">
      <stop stop-color="#26053D" stop-opacity="0.762"></stop>
      <stop offset="1" stop-color="#B7B4B4" stop-opacity="0.278"></stop>
    </linearGradient>
    <linearGradient id="paint3_linear_5809_6084" x1="18.1399" y1="20.4046" x2="26.5136" y2="42.585" gradientUnits="userSpaceOnUse">
      <stop stop-color="#91739F" stop-opacity="0.46"></stop>
      <stop offset="1" stop-color="#32054F" stop-opacity="0.54"></stop>
    </linearGradient>
    <linearGradient id="paint4_linear_5809_6084" x1="37.0652" y1="48.9983" x2="14.0415" y2="29.9286" gradientUnits="userSpaceOnUse">
      <stop stop-color="#463D49" stop-opacity="0.331"></stop>
      <stop offset="1" stop-color="#340A50" stop-opacity="0.821"></stop>
    </linearGradient>
    <linearGradient id="paint5_linear_5809_6084" x1="31.3648" y1="19.0931" x2="15.1274" y2="43.8001" gradientUnits="userSpaceOnUse">
      <stop stop-color="#715383" stop-opacity="0.145"></stop>
      <stop offset="1" stop-color="#F4F4F4" stop-opacity="0.234"></stop>
    </linearGradient>
    <linearGradient id="paint6_linear_5809_6084" x1="34.0637" y1="25.2007" x2="22.5648" y2="24.4988" gradientUnits="userSpaceOnUse">
      <stop stop-color="#A5A1A8" stop-opacity="0.356"></stop>
      <stop offset="1" stop-color="#370C50" stop-opacity="0.582"></stop>
    </linearGradient>
  </defs>
</svg>
