<?xml version="1.0" encoding="UTF-8"?>
<svg xmlns="http://www.w3.org/2000/svg" width="48" height="49" viewBox="0 0 48 49" fill="none">
  <path fill-rule="evenodd" clip-rule="evenodd" d="M19.9936 25.8789C19.9936 25.8789 18.841 26.5498 20.8149 26.7762C23.2066 27.0492 24.4287 27.0099 27.0636 26.5119C27.0636 26.5119 27.7577 26.9461 28.7254 27.3222C22.8169 29.8536 15.3532 27.1755 19.9936 25.8789Z" fill="#0074BD"></path>
  <path fill-rule="evenodd" clip-rule="evenodd" d="M19.2701 22.5742C19.2701 22.5742 17.9772 23.5315 19.9525 23.7357C22.5076 23.9995 24.5246 24.0211 28.0169 23.349C28.0169 23.349 28.4988 23.8385 29.2576 24.106C22.115 26.1953 14.1596 24.2704 19.2701 22.5742Z" fill="#0074BD"></path>
  <path fill-rule="evenodd" clip-rule="evenodd" d="M25.3565 16.9688C26.8131 18.6455 24.9745 20.1531 24.9745 20.1531C24.9745 20.1531 28.671 18.2453 26.9737 15.855C25.388 13.6269 24.1723 12.5201 30.754 8.70312C30.754 8.70312 20.4223 11.2829 25.3565 16.9688Z" fill="#EA2D2E"></path>
  <path fill-rule="evenodd" clip-rule="evenodd" d="M33.1708 28.322C33.1708 28.322 34.024 29.0254 32.2309 29.5693C28.8213 30.6021 18.037 30.9136 15.0417 29.6107C13.9657 29.142 15.9844 28.4924 16.6196 28.3552C17.2819 28.2119 17.66 28.2381 17.66 28.2381C16.4625 27.3948 9.91994 29.8943 14.3371 30.6111C26.383 32.5636 36.2949 29.7316 33.1708 28.322Z" fill="#0074BD"></path>
  <path fill-rule="evenodd" clip-rule="evenodd" d="M20.5471 19.1514C20.5471 19.1514 15.0622 20.4546 18.6048 20.9282C20.1011 21.1284 23.0821 21.0823 25.8609 20.8492C28.1312 20.6587 30.4096 20.2511 30.4096 20.2511C30.4096 20.2511 29.6097 20.5943 29.0305 20.9895C23.4596 22.4548 12.6996 21.7724 15.7977 20.2744C18.4166 19.0074 20.5471 19.1514 20.5471 19.1514Z" fill="#0074BD"></path>
  <path fill-rule="evenodd" clip-rule="evenodd" d="M30.3886 24.65C36.0512 21.7083 33.4327 18.8809 31.6052 19.2618C31.1583 19.355 30.9578 19.4358 30.9578 19.4358C30.9578 19.4358 31.1243 19.175 31.4413 19.0627C35.0568 17.7922 37.8368 22.8112 30.2754 24.7989C30.2754 24.7989 30.3623 24.7201 30.3886 24.65Z" fill="#0074BD"></path>
  <path fill-rule="evenodd" clip-rule="evenodd" d="M26.9748 2.53906C26.9748 2.53906 30.1101 5.67622 24 10.4989C19.1002 14.3691 22.8828 16.5749 23.9983 19.0964C21.1379 16.5159 19.0398 14.2439 20.4471 12.1297C22.5136 9.02662 28.2395 7.52166 26.9748 2.53906Z" fill="#EA2D2E"></path>
  <path fill-rule="evenodd" clip-rule="evenodd" d="M21.1045 32.6243C26.5387 32.9718 34.8859 32.431 35.0835 29.8594C35.0835 29.8594 34.7037 30.8342 30.592 31.6077C25.9533 32.4811 20.2307 32.3794 16.8379 31.8192C16.8379 31.8192 17.533 32.3945 21.1045 32.6243Z" fill="#0074BD"></path>
  <path fill-rule="evenodd" clip-rule="evenodd" d="M34.8335 37.2371H34.668V37.1446H35.1137V37.2371H34.9488V37.6996H34.8334V37.2371H34.8335ZM35.7234 37.2605H35.7213L35.557 37.6995H35.4814L35.3181 37.2605H35.3164V37.6995H35.2071V37.1445H35.3674L35.5186 37.5374L35.6702 37.1445H35.8296V37.6995H35.7235L35.7234 37.2605Z" fill="#EA2D2E"></path>
  <path fill-rule="evenodd" clip-rule="evenodd" d="M20.2141 42.4502C19.7016 42.8944 19.1597 43.1442 18.6733 43.1442C17.9804 43.1442 17.6046 42.7279 17.6046 42.0616C17.6046 41.3404 18.007 40.8125 19.6184 40.8125H20.2141V42.4502ZM21.6287 44.046V39.1058C21.6287 37.843 20.9085 37.0098 19.1731 37.0098C18.1604 37.0098 17.2725 37.2601 16.5508 37.5789L16.7585 38.4539C17.3269 38.2451 18.0621 38.0513 18.7838 38.0513C19.7838 38.0513 20.2141 38.4539 20.2141 39.2867V39.9113H19.7144C17.2854 39.9113 16.1895 40.8533 16.1895 42.2704C16.1895 43.4912 16.9118 44.1853 18.2714 44.1853C19.1452 44.1853 19.7983 43.8245 20.4079 43.2964L20.5189 44.046H21.6287Z" fill="#EA2D2E"></path>
  <path fill-rule="evenodd" clip-rule="evenodd" d="M26.3505 44.0467H24.5864L22.4629 37.1367H24.0036L25.3217 41.3828L25.6148 42.6586C26.2801 40.8133 26.7519 38.9398 26.9878 37.1367H28.4863C28.0856 39.412 27.3626 41.9097 26.3505 44.0467Z" fill="#EA2D2E"></path>
  <path fill-rule="evenodd" clip-rule="evenodd" d="M33.1186 42.4502C32.6045 42.8944 32.0625 43.1442 31.5774 43.1442C30.8842 43.1442 30.5084 42.7279 30.5084 42.0616C30.5084 41.3404 30.9116 40.8125 32.5216 40.8125H33.1186V42.4502H33.1186ZM34.5337 44.046V39.1058C34.5337 37.843 33.8115 37.0098 32.0776 37.0098C31.0636 37.0098 30.176 37.2601 29.4542 37.5789L29.6622 38.4539C30.231 38.2451 30.9671 38.0513 31.6888 38.0513C32.6876 38.0513 33.1186 38.4539 33.1186 39.2867V39.9113H32.6189C30.1893 39.9113 29.0938 40.8533 29.0938 42.2704C29.0938 43.4912 29.815 44.1853 31.1747 44.1853C32.0492 44.1853 32.701 43.8245 33.3123 43.2964L33.424 44.046H34.5337Z" fill="#EA2D2E"></path>
  <path fill-rule="evenodd" clip-rule="evenodd" d="M14.6381 45.22C14.2351 45.8089 13.5833 46.2755 12.8703 46.5385L12.1719 45.7157C12.715 45.4368 13.1802 44.9872 13.3966 44.5686C13.5833 44.1955 13.661 43.7159 13.661 42.5677V34.6777H15.1644V42.4589C15.1644 43.9945 15.0419 44.6154 14.6381 45.22Z" fill="#EA2D2E"></path>
</svg>
