<?xml version="1.0" encoding="UTF-8"?>
<svg xmlns="http://www.w3.org/2000/svg" width="48" height="49" viewBox="0 0 48 49" fill="none">
  <path d="M46 2.53906H2V46.5391H46V2.53906Z" fill="#F7DF1E"></path>
  <path d="M31.5575 36.9141C32.4438 38.3612 33.5969 39.4249 35.6362 39.4249C37.3494 39.4249 38.4438 38.5687 38.4438 37.3855C38.4438 35.9678 37.3194 35.4656 35.4337 34.6408L34.4 34.1973C31.4164 32.9262 29.4343 31.3338 29.4343 27.9674C29.4343 24.8665 31.797 22.5059 35.4896 22.5059C38.1184 22.5059 40.0083 23.4208 41.3702 25.8163L38.1505 27.8836C37.4416 26.6125 36.6769 26.1118 35.4896 26.1118C34.2785 26.1118 33.511 26.88 33.511 27.8836C33.511 29.124 34.2792 29.6262 36.0532 30.3944L37.0868 30.8372C40.5998 32.3437 42.5833 33.8795 42.5833 37.3325C42.5833 41.055 39.6591 43.0944 35.7319 43.0944C31.892 43.0944 29.4113 41.2645 28.1974 38.8662L31.5575 36.9141ZM16.9516 37.2724C17.6011 38.4248 18.192 39.3991 19.6125 39.3991C20.971 39.3991 21.8279 38.8676 21.8279 36.801V22.7419H25.9625V36.8568C25.9625 41.1381 23.4524 43.0867 19.7885 43.0867C16.4781 43.0867 14.5609 41.3735 13.5859 39.31L16.9516 37.2724Z" fill="black"></path>
</svg>
