<?xml version="1.0" encoding="UTF-8"?>
<svg xmlns="http://www.w3.org/2000/svg" width="48" height="49" viewBox="0 0 48 49" fill="none">
  <g clip-path="url(#clip0_8696_5981)">
    <path d="M23.747 38.0119C23.6018 38.0119 23.4576 37.9738 23.3303 37.9005L22.0037 37.1151C21.8056 37.0043 21.9023 36.9651 21.9676 36.9425C22.2318 36.85 22.2854 36.8292 22.5674 36.669C22.597 36.6521 22.6358 36.6581 22.6661 36.676L23.6853 37.2807C23.7221 37.3006 23.7743 37.3006 23.8084 37.2807L27.782 34.9871C27.8188 34.9662 27.8426 34.9234 27.8426 34.8797V30.2944C27.8426 30.2486 27.8188 30.2078 27.7812 30.185L23.8092 27.8933C23.7724 27.8714 23.7236 27.8714 23.6868 27.8933L19.7156 30.185C19.6772 30.2068 19.6527 30.2496 19.6527 30.2934V34.8787C19.6527 34.9224 19.6766 34.9642 19.7144 34.9851L20.8025 35.6137C21.3933 35.9091 21.7544 35.561 21.7544 35.2109V30.6853C21.7544 30.6206 21.8051 30.5709 21.8697 30.5709H22.373C22.4357 30.5709 22.4874 30.6206 22.4874 30.6853V35.2129C22.4874 36.0006 22.0577 36.4532 21.3107 36.4532C21.081 36.4532 20.9 36.4532 20.3947 36.2045L19.3523 35.6038C19.0947 35.4546 18.9355 35.1761 18.9355 34.8787V30.2934C18.9355 29.995 19.0947 29.7165 19.3523 29.5693L23.3299 27.2746C23.5815 27.1324 23.9157 27.1324 24.1654 27.2746L28.138 29.5703C28.3946 29.7185 28.5547 29.996 28.5547 30.2944V34.8797C28.5547 35.1771 28.3946 35.4546 28.138 35.6038L24.1654 37.8984C24.0381 37.972 23.8938 38.0098 23.7466 38.0098" fill="#689F63"></path>
    <path d="M24.9743 34.8535C23.2356 34.8535 22.8711 34.0554 22.8711 33.386C22.8711 33.3223 22.9224 33.2716 22.9862 33.2716H23.4994C23.5561 33.2716 23.6038 33.3129 23.6128 33.3689C23.6904 33.8919 23.9211 34.1556 24.9725 34.1556C25.81 34.1556 26.166 33.9665 26.166 33.5224C26.166 33.2667 26.0646 33.0768 24.7636 32.9494C23.6755 32.842 23.0031 32.6023 23.0031 31.732C23.0031 30.9303 23.6794 30.4529 24.8123 30.4529C26.0845 30.4529 26.7151 30.8945 26.7947 31.8434C26.7976 31.8762 26.7857 31.9081 26.7638 31.9319C26.7419 31.9548 26.7111 31.9687 26.6793 31.9687H26.1631C26.1093 31.9687 26.0626 31.9309 26.0517 31.8792C25.9273 31.3292 25.6269 31.1531 24.8103 31.1531C23.8963 31.1531 23.7898 31.4714 23.7898 31.7101C23.7898 31.9996 23.9152 32.0841 25.1485 32.2472C26.3699 32.4094 26.9498 32.6381 26.9498 33.4965C26.9498 34.3618 26.2277 34.8582 24.9685 34.8582M29.8084 29.9954H29.9417C30.0511 29.9954 30.072 29.9188 30.072 29.874C30.072 29.7567 29.9914 29.7567 29.9467 29.7567H29.8094L29.8084 29.9954ZM29.6463 29.6194H29.9417C30.0431 29.6194 30.2421 29.6194 30.2421 29.8462C30.2421 30.0043 30.1406 30.0371 30.0799 30.057C30.1983 30.065 30.2063 30.1426 30.2222 30.252C30.2301 30.3206 30.2431 30.439 30.2669 30.4788H30.0849C30.0799 30.439 30.0521 30.2202 30.0521 30.2082C30.0402 30.1595 30.0233 30.1356 29.9626 30.1356H29.8124V30.4798H29.6463V29.6194ZM29.2912 30.0471C29.2912 30.4032 29.5786 30.6916 29.9317 30.6916C30.2878 30.6916 30.5753 30.3972 30.5753 30.0471C30.5753 29.69 30.2838 29.4065 29.9308 29.4065C29.5826 29.4065 29.2902 29.686 29.2902 30.0461M30.6986 30.0491C30.6986 30.4708 30.3535 30.8149 29.9327 30.8149C29.515 30.8149 29.1669 30.4748 29.1669 30.0491C29.1669 29.6154 29.5229 29.2832 29.9327 29.2832C30.3455 29.2832 30.6976 29.6164 30.6976 30.0491" fill="#689F63"></path>
    <path fill-rule="evenodd" clip-rule="evenodd" d="M11.4427 20.0709C11.4427 19.8879 11.3462 19.7198 11.1883 19.6288L6.97539 17.2048C6.90427 17.1631 6.8246 17.1412 6.74384 17.1382H6.70027C6.61951 17.1412 6.53984 17.1631 6.46753 17.2048L2.25483 19.6288C2.09787 19.7203 2 19.8884 2 20.0714L2.00925 26.6002C2.00925 26.6907 2.056 26.7753 2.13557 26.82C2.21315 26.8678 2.31063 26.8678 2.38821 26.82L4.89271 25.3858C5.05086 25.2917 5.14734 25.1254 5.14734 24.9441V21.8941C5.14734 21.7121 5.24382 21.544 5.40147 21.4534L6.46772 20.8394C6.5469 20.7936 6.63383 20.7709 6.72235 20.7709C6.80948 20.7709 6.8984 20.7934 6.97539 20.8393L8.04114 21.4531C8.19889 21.5437 8.29577 21.7118 8.29577 21.8938V24.9436C8.29577 25.1247 8.39355 25.2918 8.5509 25.3853L11.0538 26.8185C11.1324 26.8653 11.2302 26.8653 11.3084 26.8185C11.3856 26.7738 11.4346 26.6892 11.4346 26.5987L11.4427 20.0709ZM31.3224 23.4702C31.3224 23.5156 31.2982 23.5577 31.2587 23.5802L29.8117 24.4143C29.7724 24.4369 29.7239 24.4369 29.6847 24.4143L28.2375 23.5802C28.1977 23.5576 28.1739 23.5155 28.1739 23.4702V21.7996C28.1739 21.754 28.1977 21.7121 28.2365 21.6892L29.6827 20.8537C29.7225 20.8308 29.7712 20.8308 29.811 20.8537L31.2582 21.6892C31.298 21.7121 31.3219 21.754 31.3219 21.7996L31.3224 23.4702ZM31.7133 11.0967C31.6343 11.0527 31.5382 11.0539 31.4602 11.0993C31.3827 11.1451 31.3347 11.2286 31.3347 11.3192V17.7843C31.3347 17.848 31.3009 17.9067 31.2458 17.9385C31.1911 17.9703 31.123 17.9703 31.0678 17.9385L30.0124 17.3307C29.8553 17.2398 29.6617 17.2398 29.504 17.3307L25.2897 19.7629C25.1322 19.8534 25.0351 20.0215 25.0351 20.2025V25.0683C25.0351 25.2503 25.1322 25.4174 25.2897 25.5089L29.504 27.9428C29.6613 28.0333 29.8551 28.0333 30.0129 27.9428L34.2272 25.5079C34.3844 25.4164 34.4819 25.2493 34.4819 25.0673V12.9406C34.4819 12.756 34.3814 12.5862 34.2203 12.496L31.7133 11.0967ZM45.747 21.7556C45.9035 21.6647 45.9999 21.4968 45.9999 21.3158V20.1365C45.9999 19.9551 45.9034 19.7877 45.7466 19.6964L41.5591 17.2655C41.401 17.174 41.207 17.174 41.0489 17.2655L36.8356 19.6974C36.6774 19.7889 36.5809 19.956 36.5809 20.138V25.0018C36.5809 25.1848 36.6794 25.3539 36.8376 25.4444L41.024 27.8306C41.1782 27.9191 41.3672 27.9201 41.5233 27.8336L44.0557 26.4262C44.1352 26.3814 44.186 26.2968 44.186 26.2053C44.186 26.1138 44.1372 26.0283 44.0577 25.9835L39.8185 23.5506C39.7389 23.5059 39.6902 23.4213 39.6902 23.3308V21.8051C39.6902 21.7139 39.7379 21.63 39.8175 21.5846L41.1364 20.8237C41.215 20.778 41.3115 20.778 41.39 20.8237L42.7099 21.5846C42.7885 21.6294 42.8372 21.7139 42.8372 21.8045V23.004C42.8372 23.0945 42.886 23.179 42.9645 23.2248C43.0431 23.2696 43.1406 23.2696 43.2192 23.2238L45.747 21.7556Z" fill="#333333"></path>
    <path fill-rule="evenodd" clip-rule="evenodd" d="M41.2426 21.5288C41.2725 21.5112 41.3099 21.5112 41.3401 21.5288L42.1488 21.9953C42.179 22.0128 42.1975 22.045 42.1975 22.0799V23.0138C42.1975 23.0486 42.179 23.0809 42.1488 23.0984L41.3401 23.5649C41.3099 23.5825 41.2725 23.5825 41.2426 23.5649L40.4345 23.0984C40.4037 23.0809 40.3848 23.0486 40.3848 23.0138V22.0799C40.3848 22.045 40.4027 22.0128 40.4335 21.9953L41.2426 21.5288Z" fill="#689F63"></path>
    <mask id="mask0_8696_5981" style="mask-type:luminance" maskUnits="userSpaceOnUse" x="13" y="17" width="10" height="11">
      <path d="M17.9866 17.2903L13.7962 19.709C13.6392 19.7995 13.543 19.9666 13.543 20.1472V24.9879C13.543 25.1686 13.6392 25.3356 13.7962 25.4261L17.9869 27.8467C18.1436 27.9369 18.3367 27.9369 18.4932 27.8467L22.6832 25.4261C22.8394 25.3356 22.9359 25.1685 22.9359 24.9879V20.1472C22.9359 19.9666 22.8394 19.7995 22.6822 19.709L18.4928 17.2903C18.4142 17.2452 18.3267 17.2227 18.2392 17.2227C18.1516 17.2227 18.0641 17.2452 17.9855 17.2903" fill="white"></path>
    </mask>
    <g mask="url(#mask0_8696_5981)">
      <path d="M27.1708 19.2976L15.363 13.5098L9.30859 25.8606L21.1162 31.6487L27.1708 19.2976Z" fill="url(#paint0_linear_8696_5981)"></path>
    </g>
    <mask id="mask1_8696_5981" style="mask-type:luminance" maskUnits="userSpaceOnUse" x="13" y="17" width="10" height="11">
      <path d="M13.6465 25.2946C13.6866 25.3466 13.7367 25.3917 13.7957 25.4255L17.3903 27.5018L17.9891 27.846C18.0786 27.8977 18.1807 27.9196 18.2809 27.9121C18.3143 27.9094 18.3478 27.9031 18.3804 27.8939L22.8 19.8015C22.7661 19.7647 22.7266 19.7339 22.6822 19.708L19.9384 18.1235L18.488 17.289C18.4468 17.2652 18.4022 17.2483 18.3567 17.2363L13.6465 25.2946Z" fill="white"></path>
    </mask>
    <g mask="url(#mask1_8696_5981)">
      <path d="M8.54102 21.0097L16.8786 32.2942L27.9052 24.1475L19.5671 12.8633L8.54102 21.0097Z" fill="url(#paint1_linear_8696_5981)"></path>
    </g>
    <mask id="mask2_8696_5981" style="mask-type:luminance" maskUnits="userSpaceOnUse" x="13" y="17" width="10" height="11">
      <path d="M18.1895 17.2245C18.1192 17.2315 18.0504 17.2534 17.9871 17.2894L13.8086 19.7011L18.3143 27.9079C18.377 27.8989 18.4386 27.878 18.4943 27.8458L22.6848 25.4253C22.8141 25.3503 22.9026 25.2233 22.9294 25.0795L18.3362 17.2328C18.3024 17.2261 18.2686 17.2227 18.2337 17.2227C18.2198 17.2227 18.2059 17.2234 18.192 17.2246" fill="white"></path>
    </mask>
    <g mask="url(#mask2_8696_5981)">
      <path d="M13.8086 17.2227V27.9081H22.9278V17.2227H13.8086Z" fill="url(#paint2_linear_8696_5981)"></path>
    </g>
  </g>
  <defs>
    <linearGradient id="paint0_linear_8696_5981" x1="21.2634" y1="16.3946" x2="15.2094" y2="28.7446" gradientUnits="userSpaceOnUse">
      <stop offset="0.3" stop-color="#3E863D"></stop>
      <stop offset="0.5" stop-color="#55934F"></stop>
      <stop offset="0.8" stop-color="#5AAD45"></stop>
    </linearGradient>
    <linearGradient id="paint1_linear_8696_5981" x1="12.7598" y1="26.7166" x2="23.7868" y2="18.569" gradientUnits="userSpaceOnUse">
      <stop offset="0.57" stop-color="#3E863D"></stop>
      <stop offset="0.72" stop-color="#619857"></stop>
      <stop offset="1" stop-color="#76AC64"></stop>
    </linearGradient>
    <linearGradient id="paint2_linear_8696_5981" x1="13.8117" y1="22.5657" x2="22.9295" y2="22.5657" gradientUnits="userSpaceOnUse">
      <stop offset="0.16" stop-color="#6BBF47"></stop>
      <stop offset="0.38" stop-color="#79B461"></stop>
      <stop offset="0.47" stop-color="#75AC64"></stop>
      <stop offset="0.7" stop-color="#659E5A"></stop>
      <stop offset="0.9" stop-color="#3E863D"></stop>
    </linearGradient>
    <clipPath id="clip0_8696_5981">
      <rect width="44" height="26.9477" fill="white" transform="translate(2 11.0645)"></rect>
    </clipPath>
  </defs>
</svg>
