<?xml version="1.0" encoding="UTF-8"?>
<svg xmlns="http://www.w3.org/2000/svg" width="56" height="56" viewBox="0 0 56 56" fill="none">
  <mask id="mask0_5808_15180" style="mask-type:luminance" maskUnits="userSpaceOnUse" x="3" y="15" width="50" height="26">
    <path d="M3.35938 28.0021C3.35938 35.1605 14.3913 40.9637 27.9994 40.9637C41.6074 40.9637 52.6395 35.1605 52.6395 28.0021C52.6395 20.8438 41.6074 15.0405 27.9994 15.0405C14.3913 15.0405 3.35938 20.8438 3.35938 28.0021Z" fill="white"></path>
  </mask>
  <g mask="url(#mask0_5808_15180)">
    <path d="M3.35547 28.0044C3.35547 35.1628 14.3874 40.9659 27.9955 40.9659C41.6035 40.9659 52.6356 35.1628 52.6356 28.0044C52.6356 20.846 41.6035 15.0428 27.9955 15.0428C14.3874 15.0428 3.35547 20.846 3.35547 28.0044Z" fill="url(#paint0_radial_5808_15180)"></path>
  </g>
  <mask id="mask1_5808_15180" style="mask-type:luminance" maskUnits="userSpaceOnUse" x="2" y="13" width="52" height="30">
    <path d="M2.33203 13.563H53.6654V42.438H2.33203V13.563Z" fill="white"></path>
  </mask>
  <g mask="url(#mask1_5808_15180)">
    <path d="M27.9978 39.9997C41.0744 39.9997 51.6753 34.6274 51.6753 28.0004C51.6753 21.3735 41.0744 16.0012 27.9978 16.0012C14.9213 16.0012 4.32031 21.3735 4.32031 28.0004C4.32031 34.6274 14.9213 39.9997 27.9978 39.9997Z" fill="#777BB3"></path>
  </g>
  <mask id="mask2_5808_15180" style="mask-type:luminance" maskUnits="userSpaceOnUse" x="2" y="13" width="52" height="30">
    <path d="M2.33203 13.563H53.6654V42.438H2.33203V13.563Z" fill="white"></path>
  </mask>
  <g mask="url(#mask2_5808_15180)">
    <path d="M16.7469 29.4867C17.8221 29.4867 18.6248 29.2884 19.1327 28.8975C19.6352 28.5106 19.9822 27.8404 20.1641 26.9054C20.3337 26.0315 20.2691 25.4213 19.9721 25.092C19.6685 24.7556 19.012 24.5851 18.021 24.5851H16.3027L15.3501 29.4867H16.7469ZM11.1267 35.5246C11.0469 35.5246 10.9711 35.4889 10.9204 35.4273C10.8696 35.3657 10.8491 35.2846 10.8643 35.2063L13.3889 22.2169C13.4133 22.0913 13.5234 22.0006 13.6514 22.0006H19.0925C20.8026 22.0006 22.0754 22.4649 22.8754 23.3808C23.6797 24.3015 23.9281 25.5885 23.6136 27.2059C23.4856 27.8649 23.2655 28.4769 22.9594 29.0248C22.6529 29.5733 22.2478 30.0809 21.7552 30.5336C21.1656 31.0854 20.4983 31.4856 19.7736 31.721C19.0603 31.9534 18.1444 32.0712 17.0511 32.0712H14.8479L14.2187 35.3082C14.1943 35.4339 14.0843 35.5246 13.9563 35.5246H11.1267Z" fill="white"></path>
    <path d="M16.5209 24.8539H18.0189C19.2149 24.8539 19.6304 25.1163 19.7716 25.2727C20.0058 25.5324 20.05 26.08 19.8995 26.8561C19.7303 27.7251 19.4168 28.3412 18.9675 28.6871C18.5074 29.0413 17.7595 29.2208 16.7447 29.2208H15.6722L16.5209 24.8539ZM19.0904 21.7347H13.6491C13.3932 21.7347 13.1731 21.9161 13.1243 22.1673L10.5997 35.1567C10.5692 35.3135 10.6104 35.4756 10.7119 35.5988C10.8135 35.7221 10.9648 35.7934 11.1245 35.7934H13.9541C14.2101 35.7934 14.4302 35.6119 14.479 35.3607L15.0661 32.34H17.049C18.1703 32.34 19.1142 32.2177 19.8544 31.9766C20.6156 31.7293 21.3159 31.31 21.9357 30.7304C22.4483 30.2588 22.8706 29.7294 23.1905 29.1568C23.5105 28.584 23.7405 27.9453 23.8739 27.2583C24.205 25.5558 23.936 24.1924 23.0746 23.2064C22.2215 22.2298 20.881 21.7347 19.0904 21.7347ZM15.0235 29.7555H16.7447C17.8855 29.7555 18.7353 29.5406 19.2936 29.1108C19.8521 28.6809 20.2287 27.9634 20.4244 26.9579C20.6116 25.9926 20.5264 25.3113 20.1685 24.9145C19.8103 24.5176 19.0938 24.3191 18.0189 24.3191H16.0801L15.0235 29.7555ZM19.0904 22.2694C20.7272 22.2694 21.9214 22.6989 22.6719 23.5581C23.4224 24.4174 23.6484 25.6167 23.349 27.1564C23.2257 27.7907 23.0173 28.3706 22.7238 28.8959C22.43 29.4216 22.0463 29.9024 21.5722 30.3382C21.0072 30.867 20.3795 31.2438 19.6888 31.4682C18.9981 31.6932 18.1184 31.8053 17.049 31.8053H14.6252L13.9541 35.2587H11.1245L13.6491 22.2694H19.0904Z" fill="#777BB3"></path>
    <path d="M30.0988 32.0724C30.019 32.0724 29.9433 32.0368 29.8926 31.9751C29.8417 31.9135 29.8211 31.8325 29.8364 31.7541L30.9531 26.0068C31.0594 25.4603 31.0332 25.0679 30.8794 24.9022C30.7853 24.8008 30.5026 24.6309 29.6668 24.6309H27.6436L26.2395 31.8561C26.2151 31.9817 26.105 32.0724 25.977 32.0724H23.1697C23.0899 32.0724 23.0142 32.0368 22.9634 31.9751C22.9126 31.9135 22.892 31.8324 22.9073 31.7541L25.4319 18.7647C25.4563 18.6392 25.5663 18.5484 25.6943 18.5484H28.5016C28.5815 18.5484 28.6571 18.5841 28.7079 18.6457C28.7587 18.7073 28.7793 18.7883 28.7641 18.8668L28.1548 22.0018H30.3313C31.9894 22.0018 33.1138 22.2942 33.7686 22.8955C34.4361 23.509 34.6444 24.49 34.3878 25.8115L33.2131 31.8561C33.1887 31.9817 33.0787 32.0724 32.9507 32.0724H30.0988Z" fill="white"></path>
    <path d="M28.5034 18.2826H25.6961C25.44 18.2826 25.22 18.464 25.1712 18.7152L22.6466 31.7046C22.6161 31.8614 22.6572 32.0235 22.7588 32.1468C22.8604 32.27 23.0118 32.3413 23.1715 32.3413H25.9788C26.2347 32.3413 26.4548 32.1599 26.5037 31.9086L27.8657 24.8998H29.6685C30.503 24.8998 30.6781 25.078 30.6851 25.0857C30.7357 25.1401 30.8023 25.3923 30.6924 25.9573L29.5757 31.7046C29.5452 31.8614 29.5864 32.0235 29.688 32.1468C29.7896 32.27 29.9409 32.3413 30.1006 32.3413H32.9524C33.2084 32.3413 33.4285 32.1599 33.4774 31.9086L34.6519 25.864C34.9275 24.4452 34.6917 23.3808 33.9513 22.7003C33.2447 22.0514 32.0612 21.736 30.3331 21.736H28.4808L29.0283 18.9193C29.0587 18.7626 29.0176 18.6004 28.916 18.4772C28.8144 18.354 28.6631 18.2826 28.5034 18.2826ZM28.5034 18.8173L27.8322 22.2707H30.3331C31.9067 22.2707 32.9921 22.5454 33.5895 23.094C34.1868 23.643 34.3658 24.5325 34.127 25.7621L32.9524 31.8066H30.1006L31.2173 26.0594C31.3444 25.4056 31.2977 24.9596 31.0771 24.7219C30.8563 24.4841 30.3867 24.365 29.6685 24.365H27.4248L25.9788 31.8066H23.1715L25.6961 18.8173H28.5034Z" fill="#777BB3"></path>
    <path d="M38.8289 29.4867C39.9041 29.4867 40.7068 29.2884 41.2147 28.8975C41.7172 28.5107 42.0642 27.8405 42.2462 26.9054C42.4158 26.0315 42.3512 25.4213 42.0541 25.092C41.7505 24.7556 41.0941 24.5851 40.103 24.5851H38.3847L37.4321 29.4867H38.8289ZM33.2088 35.5246C33.129 35.5246 33.0533 35.4889 33.0025 35.4273C32.9517 35.3657 32.9311 35.2846 32.9463 35.2063L35.4709 22.2169C35.4954 22.0913 35.6054 22.0006 35.7335 22.0006H41.1745C42.8847 22.0006 44.1574 22.4649 44.9575 23.3808C45.7618 24.3014 46.0101 25.5884 45.6957 27.2059C45.5675 27.8649 45.3475 28.4769 45.0414 29.0248C44.7349 29.5733 44.3298 30.0809 43.8373 30.5336C43.2476 31.0854 42.5803 31.4856 41.8556 31.721C41.1424 31.9534 40.2264 32.0712 39.1331 32.0712H36.9298L36.3009 35.3082C36.2764 35.4339 36.1664 35.5246 36.0383 35.5246H33.2088Z" fill="white"></path>
    <path d="M38.6068 24.8539H40.1047C41.3008 24.8539 41.7163 25.1164 41.8574 25.2728C42.0917 25.5325 42.1359 26.08 41.9853 26.8561C41.8162 27.7251 41.5026 28.3412 41.0533 28.6872C40.5933 29.0413 39.8454 29.2208 38.8306 29.2208H37.7582L38.6068 24.8539ZM41.1762 21.7347H35.735C35.4791 21.7347 35.2591 21.9162 35.2102 22.1674L32.6856 35.1568C32.6551 35.3135 32.6963 35.4757 32.7978 35.5989C32.8994 35.7222 33.0507 35.7935 33.2104 35.7935H36.04C36.296 35.7935 36.5161 35.612 36.5649 35.3608L37.152 32.34H39.1348C40.2561 32.34 41.2001 32.2178 41.9402 31.9767C42.7014 31.7294 43.4019 31.31 44.0217 30.7303C44.5343 30.2587 44.9564 29.7294 45.2764 29.1568C45.5964 28.5841 45.8263 27.9453 45.9597 27.2584C46.2908 25.5558 46.0219 24.1924 45.1604 23.2064C44.3074 22.2299 42.9669 21.7347 41.1762 21.7347ZM37.1095 29.7556H38.8306C39.9714 29.7556 40.8211 29.5407 41.3795 29.1109C41.938 28.6809 42.3145 27.9634 42.5102 26.958C42.6976 25.9926 42.6123 25.3114 42.2544 24.9145C41.8961 24.5177 41.1797 24.3192 40.1047 24.3192H38.166L37.1095 29.7556ZM41.1762 22.2694C42.8131 22.2694 44.0072 22.699 44.7578 23.5582C45.5083 24.4174 45.7343 25.6167 45.4348 27.1564C45.3116 27.7907 45.1031 28.3706 44.8096 28.896C44.5158 29.4217 44.1321 29.9024 43.658 30.3383C43.093 30.8671 42.4653 31.2439 41.7746 31.4683C41.084 31.6933 40.2043 31.8053 39.1348 31.8053H36.7111L36.04 35.2587H33.2104L35.735 22.2694H41.1762Z" fill="#777BB3"></path>
  </g>
  <defs>
    <radialGradient id="paint0_radial_5808_15180" cx="0" cy="0" r="1" gradientUnits="userSpaceOnUse" gradientTransform="translate(18.1495 19.5997) scale(32.3559)">
      <stop stop-color="#AEB2D5"></stop>
      <stop offset="0.3" stop-color="#AEB2D5"></stop>
      <stop offset="0.75" stop-color="#484C89"></stop>
      <stop offset="1" stop-color="#484C89"></stop>
    </radialGradient>
  </defs>
</svg>
