<?xml version="1.0" encoding="UTF-8"?>
<svg xmlns="http://www.w3.org/2000/svg" width="48" height="49" viewBox="0 0 48 49" fill="none">
  <path d="M23.7381 2.53938C21.945 2.54721 20.2302 2.69989 18.7229 2.96611C14.2794 3.75303 13.4729 5.39341 13.4729 8.42362V12.4247H23.969V13.7598H9.53445C6.48467 13.7598 3.81073 15.592 2.97684 19.0802C2.01375 23.0775 1.97068 25.5752 2.97684 29.7486C3.7246 32.8571 5.50592 35.0691 8.5557 35.0691H12.1653V30.2732C12.1653 26.8084 15.1642 23.7508 18.7229 23.7508H29.2073C32.1279 23.7508 34.4573 21.347 34.4573 18.4186V8.42362C34.4573 5.57742 32.0574 3.44374 29.2073 2.96611C27.4025 2.66857 25.5311 2.53155 23.7381 2.53938ZM18.0613 5.75751C19.1458 5.75751 20.0306 6.65796 20.0306 7.7659C20.0306 8.86993 19.1458 9.75863 18.0613 9.75863C16.9729 9.75863 16.0921 8.86601 16.0921 7.7659C16.0921 6.66579 16.9729 5.76142 18.0613 5.75751Z" fill="url(#paint0_linear_8696_5076)"></path>
  <path d="M35.7646 13.7598V18.4225C35.7646 22.0361 32.6992 25.078 29.207 25.078H18.7227C15.8491 25.078 13.4727 27.5366 13.4727 30.4102V40.4052C13.4727 43.2514 15.9469 44.9231 18.7227 45.7375C22.0465 46.7162 25.2333 46.8924 29.207 45.7375C31.8496 44.974 34.457 43.4315 34.457 40.4052V36.4041H23.9727V35.0691H39.707C42.7568 35.0691 43.8961 32.9432 44.9571 29.7486C46.0533 26.46 46.0063 23.2967 44.9571 19.0802C44.2015 16.0422 42.7647 13.7598 39.707 13.7598H35.7646ZM29.8687 39.0741C30.957 39.0741 31.8379 39.9668 31.8379 41.0669C31.8379 42.167 30.957 43.0713 29.8687 43.0713C28.7803 43.0713 27.8994 42.1709 27.8994 41.0669C27.8994 39.9628 28.7842 39.0741 29.8687 39.0741Z" fill="url(#paint1_linear_8696_5076)"></path>
  <defs>
    <linearGradient id="paint0_linear_8696_5076" x1="1.07305" y1="3.87177" x2="25.3401" y2="24.379" gradientUnits="userSpaceOnUse">
      <stop stop-color="#5A9FD4"></stop>
      <stop offset="1" stop-color="#306998"></stop>
    </linearGradient>
    <linearGradient id="paint1_linear_8696_5076" x1="34.2306" y1="37.47" x2="25.4774" y2="25.3203" gradientUnits="userSpaceOnUse">
      <stop stop-color="#FFD43B"></stop>
      <stop offset="1" stop-color="#FFE873"></stop>
    </linearGradient>
  </defs>
</svg>
