<?xml version="1.0" encoding="UTF-8"?>
<svg xmlns="http://www.w3.org/2000/svg" width="48" height="49" viewBox="0 0 48 49" fill="none">
  <path fill-rule="evenodd" clip-rule="evenodd" d="M37.5902 42.0476V44.9677H42.9508C44.0492 44.9677 45.9344 44.1771 46 41.9669V40.8376C46 38.9501 44.4262 37.8369 42.9508 37.8369H40.2787V36.4817H45.5738V33.5455H40.4918C39.1803 33.5455 37.4262 34.6103 37.4262 36.5946V37.611C37.4262 39.5954 39.1639 40.6118 40.4918 40.6118C44.1803 40.6279 39.6066 40.6118 43.0164 40.6118V42.0315M8.86885 41.3377C8.86885 41.3377 11.7377 41.0957 11.7377 37.4497C11.7377 33.8036 8.26229 33.4648 8.26229 33.4648H2V44.9677H5.14754V42.1928L7.86885 44.9677H12.5246L8.86885 41.3377ZM7.65574 38.9823H5.14754V36.3526H7.67213C7.67213 36.3526 8.37705 36.6108 8.37705 37.6594C8.37705 38.7081 7.65574 38.9823 7.65574 38.9823ZM19.5082 33.5455H16.3115C14.0328 33.5455 13.2623 35.5783 13.2623 36.5462V44.9677H16.459V42.951H19.459V44.9677H22.5574V36.5462C22.5574 34.094 20.2951 33.5455 19.5082 33.5455ZM19.459 39.6922H16.4426V36.9012C16.4426 36.9012 16.4426 36.272 17.4426 36.272H18.541C19.4262 36.272 19.4426 36.9012 19.4426 36.9012V39.6922H19.459Z" fill="#CC0000"></path>
  <path d="M27.3435 33.5449H24.0156V44.9671H27.3435V33.5449Z" fill="#CC0000"></path>
  <path fill-rule="evenodd" clip-rule="evenodd" d="M32.0166 42.0147V33.5449H28.7051V42.0147V44.9671H32.0166H36.492V42.0147H32.0166Z" fill="#CC0000"></path>
  <path fill-rule="evenodd" clip-rule="evenodd" d="M3.35938 30.6857H18.6847C18.6847 30.6857 15.7555 17.5321 25.4551 12.2057C27.5696 11.1938 34.3011 7.41383 45.3198 15.432C45.669 15.1457 45.9988 14.9166 45.9988 14.9166C45.9988 14.9166 35.9112 5.00836 24.6791 6.11564C19.0339 6.61201 12.089 11.6711 8.01518 18.353C3.94135 25.0348 3.35938 30.6857 3.35938 30.6857Z" fill="#CC0000"></path>
  <path fill-rule="evenodd" clip-rule="evenodd" d="M3.35938 30.6857H18.6847C18.6847 30.6857 15.7555 17.5321 25.4551 12.2057C27.5696 11.1938 34.3011 7.41383 45.3198 15.432C45.669 15.1457 45.9988 14.9166 45.9988 14.9166C45.9988 14.9166 35.9112 5.00836 24.6791 6.11564C19.0339 6.61201 12.089 11.6711 8.01518 18.353C3.94135 25.0348 3.35938 30.6857 3.35938 30.6857Z" fill="#CC0000"></path>
  <path fill-rule="evenodd" clip-rule="evenodd" d="M3.35938 30.6846H18.6847C18.6847 30.6846 15.7555 17.5309 25.4551 12.2045C27.5696 11.1927 34.3011 7.4127 45.3198 15.4309C45.669 15.1446 45.9988 14.9155 45.9988 14.9155C45.9988 14.9155 35.9112 5.00724 24.6791 6.11451C19.0145 6.61088 12.0696 11.67 7.99578 18.3518C3.92195 25.0337 3.35938 30.6846 3.35938 30.6846ZM35.2905 7.18361L35.3681 5.90451C35.1935 5.80906 34.7085 5.57997 33.4863 5.23633L33.4087 6.49633C34.0489 6.70633 34.6697 6.93543 35.2905 7.18361Z" fill="#CC0000"></path>
  <path fill-rule="evenodd" clip-rule="evenodd" d="M33.4461 11.2323L33.3685 12.435C34.0087 12.4541 34.6489 12.5305 35.289 12.6641L35.3666 11.4805C34.7071 11.3468 34.0669 11.2704 33.4461 11.2323ZM26.2684 5.27588H26.4624L26.0744 4.11133C25.473 4.11133 24.8523 4.14951 24.2121 4.22587L24.5807 5.35224C25.1432 5.29497 25.7058 5.27588 26.2684 5.27588ZM27.1996 12.3014L27.6457 13.6186C28.2083 13.3514 28.7709 13.1223 29.3335 12.9505L28.9067 11.6905C28.2471 11.8814 27.6845 12.0914 27.1996 12.3014ZM18.3923 7.28043L17.5194 5.96315C17.0344 6.21134 16.53 6.47861 16.0062 6.78407L16.8986 8.12044C17.403 7.81498 17.8879 7.52862 18.3923 7.28043ZM22.3692 15.8714L23.3003 17.2459C23.6301 16.7687 24.0181 16.3296 24.4449 15.8905L23.5719 14.5923C23.1257 14.9932 22.7183 15.4323 22.3692 15.8714ZM19.5563 22.0187L21.1276 23.2405C21.2052 22.496 21.341 21.7514 21.535 21.0069L20.1383 19.9187C19.8861 20.625 19.7115 21.3314 19.5563 22.0187ZM11.0594 12.9505L9.68208 11.7668C9.1777 12.2441 8.69272 12.7214 8.24654 13.1986L9.74028 14.4586C10.1477 13.9432 10.5938 13.4277 11.0594 12.9505ZM5.20087 21.4841L2.96996 20.6823C2.60138 21.5032 2.19399 22.4578 2 22.9732L4.23091 23.775C4.4831 23.126 4.89048 22.1905 5.20087 21.4841ZM19.2653 26.8678C19.3041 27.8796 19.4011 28.7005 19.4981 29.2733L21.826 30.0942C21.6514 29.3496 21.4768 28.5096 21.3604 27.6123L19.2653 26.8678Z" fill="#CC0000"></path>
</svg>
